G75*
G70*
%OFA0B0*%
%FSLAX24Y24*%
%IPPOS*%
%LPD*%
%AMOC8*
5,1,8,0,0,1.08239X$1,22.5*
%
%ADD10C,0.0000*%
%ADD11C,0.0060*%
%ADD12R,0.2080X0.0980*%
%ADD13C,0.0420*%
D10*
X003851Y000105D02*
X003851Y018100D01*
X045288Y018100D01*
X045288Y000105D01*
X003851Y000105D01*
X003851Y006843D02*
X003851Y011243D01*
X045288Y011243D02*
X045288Y006843D01*
D11*
X039601Y006818D02*
X006101Y006818D01*
X006101Y006876D02*
X039601Y006876D01*
X039601Y006935D02*
X006101Y006935D01*
X006101Y006993D02*
X039601Y006993D01*
X039601Y007052D02*
X006101Y007052D01*
X006101Y007110D02*
X039601Y007110D01*
X039601Y007169D02*
X006101Y007169D01*
X006101Y007227D02*
X039601Y007227D01*
X039601Y007286D02*
X006101Y007286D01*
X006101Y007344D02*
X039601Y007344D01*
X039601Y007403D02*
X006101Y007403D01*
X006101Y007461D02*
X039601Y007461D01*
X039601Y007520D02*
X006101Y007520D01*
X006101Y007578D02*
X039601Y007578D01*
X039601Y007637D02*
X006101Y007637D01*
X006101Y007695D02*
X039601Y007695D01*
X039601Y007754D02*
X006101Y007754D01*
X006101Y007812D02*
X039601Y007812D01*
X039601Y007871D02*
X006101Y007871D01*
X006101Y007929D02*
X039601Y007929D01*
X039601Y007988D02*
X006101Y007988D01*
X006101Y008046D02*
X039601Y008046D01*
X039601Y008105D02*
X006101Y008105D01*
X006101Y008164D02*
X039601Y008164D01*
X039601Y008222D02*
X006101Y008222D01*
X006101Y008281D02*
X039601Y008281D01*
X039601Y008339D02*
X006101Y008339D01*
X006101Y008398D02*
X039601Y008398D01*
X039601Y008456D02*
X006101Y008456D01*
X006101Y008515D02*
X039601Y008515D01*
X039601Y008573D02*
X006101Y008573D01*
X006101Y008632D02*
X039601Y008632D01*
X039601Y008690D02*
X006101Y008690D01*
X006101Y008749D02*
X039601Y008749D01*
X039601Y008807D02*
X006101Y008807D01*
X006101Y008866D02*
X039601Y008866D01*
X039601Y008924D02*
X006101Y008924D01*
X006101Y008983D02*
X039601Y008983D01*
X039601Y009041D02*
X006101Y009041D01*
X006101Y009100D02*
X039601Y009100D01*
X039601Y009158D02*
X006101Y009158D01*
X006101Y009217D02*
X039601Y009217D01*
X039601Y009275D02*
X006101Y009275D01*
X006101Y009334D02*
X039601Y009334D01*
X039601Y009392D02*
X006101Y009392D01*
X006101Y009451D02*
X039601Y009451D01*
X039601Y009509D02*
X006101Y009509D01*
X006101Y009568D02*
X039601Y009568D01*
X039601Y009626D02*
X006101Y009626D01*
X006101Y009685D02*
X039601Y009685D01*
X039601Y009743D02*
X006101Y009743D01*
X006101Y009802D02*
X039601Y009802D01*
X039601Y009860D02*
X006101Y009860D01*
X006101Y009919D02*
X039601Y009919D01*
X039601Y009977D02*
X006101Y009977D01*
X006101Y010036D02*
X039601Y010036D01*
X039601Y010094D02*
X006101Y010094D01*
X006101Y010153D02*
X039601Y010153D01*
X039601Y010211D02*
X006101Y010211D01*
X006101Y010270D02*
X039601Y010270D01*
X039601Y010328D02*
X006101Y010328D01*
X006101Y010387D02*
X039601Y010387D01*
X039601Y010445D02*
X006101Y010445D01*
X006101Y010504D02*
X039601Y010504D01*
X039601Y010562D02*
X006101Y010562D01*
X006101Y010621D02*
X039601Y010621D01*
X039601Y010679D02*
X006101Y010679D01*
X006101Y010738D02*
X039601Y010738D01*
X039601Y010796D02*
X006101Y010796D01*
X006101Y010855D02*
X039601Y010855D01*
X039601Y010913D02*
X006101Y010913D01*
X006101Y010972D02*
X039601Y010972D01*
X039601Y011030D02*
X006101Y011030D01*
X006101Y011089D02*
X039601Y011089D01*
X039601Y011147D02*
X006101Y011147D01*
X006101Y011206D02*
X039601Y011206D01*
X039601Y011264D02*
X006101Y011264D01*
X006101Y011323D02*
X039601Y011323D01*
X039601Y011381D02*
X006101Y011381D01*
X006101Y011440D02*
X039601Y011440D01*
X039601Y011498D02*
X006101Y011498D01*
X006101Y011557D02*
X039601Y011557D01*
X039601Y011615D02*
X006101Y011615D01*
X006101Y011674D02*
X039601Y011674D01*
X039601Y011732D02*
X006101Y011732D01*
X006101Y011791D02*
X039601Y011791D01*
X039601Y011849D02*
X006101Y011849D01*
X006101Y011908D02*
X039601Y011908D01*
X039601Y011966D02*
X006101Y011966D01*
X006101Y012025D02*
X039601Y012025D01*
X039601Y012083D02*
X006101Y012083D01*
X006101Y012142D02*
X039601Y012142D01*
X039601Y012200D02*
X006101Y012200D01*
X006101Y012259D02*
X039601Y012259D01*
X039601Y012317D02*
X006101Y012317D01*
X006101Y012376D02*
X039601Y012376D01*
X039601Y012434D02*
X006101Y012434D01*
X006101Y012493D02*
X039601Y012493D01*
X039601Y012551D02*
X006101Y012551D01*
X006101Y012610D02*
X039601Y012610D01*
X039601Y012668D02*
X006101Y012668D01*
X006101Y012727D02*
X039601Y012727D01*
X039601Y012785D02*
X006101Y012785D01*
X006101Y012844D02*
X039601Y012844D01*
X039601Y012902D02*
X006101Y012902D01*
X006101Y012961D02*
X039601Y012961D01*
X039601Y013019D02*
X006101Y013019D01*
X006101Y013078D02*
X039601Y013078D01*
X039601Y013136D02*
X006101Y013136D01*
X006101Y013195D02*
X039601Y013195D01*
X039601Y013253D02*
X006101Y013253D01*
X006101Y013312D02*
X039601Y013312D01*
X039601Y013370D02*
X006101Y013370D01*
X006101Y013429D02*
X039601Y013429D01*
X039601Y013487D02*
X006101Y013487D01*
X006101Y013546D02*
X039601Y013546D01*
X039601Y013604D02*
X006101Y013604D01*
X006101Y013663D02*
X039601Y013663D01*
X039601Y013721D02*
X006101Y013721D01*
X006101Y013780D02*
X039601Y013780D01*
X039601Y013838D02*
X006101Y013838D01*
X006101Y013897D02*
X039601Y013897D01*
X039601Y013955D02*
X006101Y013955D01*
X006101Y014014D02*
X039601Y014014D01*
X039601Y014072D02*
X006101Y014072D01*
X006101Y014131D02*
X039601Y014131D01*
X039601Y014189D02*
X006101Y014189D01*
X006101Y014248D02*
X039601Y014248D01*
X039601Y014306D02*
X006101Y014306D01*
X006101Y014365D02*
X039601Y014365D01*
X039601Y014423D02*
X006101Y014423D01*
X006101Y014482D02*
X039601Y014482D01*
X039601Y014540D02*
X006101Y014540D01*
X006101Y014599D02*
X039601Y014599D01*
X039601Y014657D02*
X006101Y014657D01*
X006101Y014716D02*
X039601Y014716D01*
X039601Y014774D02*
X006101Y014774D01*
X006101Y014833D02*
X039601Y014833D01*
X039601Y014891D02*
X006101Y014891D01*
X006101Y014950D02*
X039601Y014950D01*
X039601Y015008D02*
X006101Y015008D01*
X006101Y015067D02*
X039601Y015067D01*
X039601Y015125D02*
X006101Y015125D01*
X006101Y015184D02*
X039601Y015184D01*
X039601Y015242D02*
X006101Y015242D01*
X006101Y015301D02*
X039601Y015301D01*
X039601Y015359D02*
X006101Y015359D01*
X006101Y015418D02*
X039601Y015418D01*
X039601Y015476D02*
X006101Y015476D01*
X006101Y015535D02*
X039601Y015535D01*
X039601Y015593D02*
X006101Y015593D01*
X006101Y015652D02*
X039601Y015652D01*
X039601Y015710D02*
X006101Y015710D01*
X006101Y015769D02*
X039601Y015769D01*
X039601Y015827D02*
X006101Y015827D01*
X006101Y015886D02*
X039601Y015886D01*
X039601Y015944D02*
X006101Y015944D01*
X006101Y016003D02*
X039601Y016003D01*
X039601Y016061D02*
X006101Y016061D01*
X006101Y016120D02*
X039601Y016120D01*
X039601Y016178D02*
X006101Y016178D01*
X006101Y016237D02*
X039601Y016237D01*
X039601Y016295D02*
X006101Y016295D01*
X006101Y016354D02*
X039601Y016354D01*
X039601Y016412D02*
X006101Y016412D01*
X006101Y016471D02*
X039601Y016471D01*
X039601Y016529D02*
X006101Y016529D01*
X006101Y016588D02*
X039601Y016588D01*
X039601Y016605D02*
X038601Y017605D01*
X007101Y017605D01*
X006101Y016605D01*
X006101Y001605D01*
X007101Y000605D01*
X038601Y000605D01*
X039601Y001605D01*
X039601Y016605D01*
X039560Y016646D02*
X006142Y016646D01*
X006200Y016705D02*
X039501Y016705D01*
X039443Y016763D02*
X006259Y016763D01*
X006317Y016822D02*
X039384Y016822D01*
X039326Y016880D02*
X006376Y016880D01*
X006434Y016939D02*
X039267Y016939D01*
X039209Y016997D02*
X006493Y016997D01*
X006551Y017056D02*
X039150Y017056D01*
X039092Y017114D02*
X006610Y017114D01*
X006668Y017173D02*
X039033Y017173D01*
X038975Y017231D02*
X006727Y017231D01*
X006785Y017290D02*
X038916Y017290D01*
X038858Y017348D02*
X006844Y017348D01*
X006902Y017407D02*
X038799Y017407D01*
X038741Y017465D02*
X006961Y017465D01*
X007019Y017524D02*
X038682Y017524D01*
X038624Y017582D02*
X007078Y017582D01*
X006101Y006759D02*
X039601Y006759D01*
X039601Y006701D02*
X006101Y006701D01*
X006101Y006642D02*
X039601Y006642D01*
X039601Y006584D02*
X006101Y006584D01*
X006101Y006525D02*
X039601Y006525D01*
X039601Y006467D02*
X006101Y006467D01*
X006101Y006408D02*
X039601Y006408D01*
X039601Y006350D02*
X006101Y006350D01*
X006101Y006291D02*
X039601Y006291D01*
X039601Y006233D02*
X006101Y006233D01*
X006101Y006174D02*
X039601Y006174D01*
X039601Y006116D02*
X006101Y006116D01*
X006101Y006057D02*
X039601Y006057D01*
X039601Y005999D02*
X006101Y005999D01*
X006101Y005940D02*
X039601Y005940D01*
X039601Y005882D02*
X006101Y005882D01*
X006101Y005823D02*
X039601Y005823D01*
X039601Y005765D02*
X006101Y005765D01*
X006101Y005706D02*
X039601Y005706D01*
X039601Y005648D02*
X006101Y005648D01*
X006101Y005589D02*
X039601Y005589D01*
X039601Y005531D02*
X006101Y005531D01*
X006101Y005472D02*
X039601Y005472D01*
X039601Y005414D02*
X006101Y005414D01*
X006101Y005355D02*
X039601Y005355D01*
X039601Y005297D02*
X006101Y005297D01*
X006101Y005238D02*
X039601Y005238D01*
X039601Y005180D02*
X006101Y005180D01*
X006101Y005121D02*
X039601Y005121D01*
X039601Y005063D02*
X006101Y005063D01*
X006101Y005004D02*
X039601Y005004D01*
X039601Y004946D02*
X006101Y004946D01*
X006101Y004887D02*
X039601Y004887D01*
X039601Y004829D02*
X006101Y004829D01*
X006101Y004770D02*
X039601Y004770D01*
X039601Y004712D02*
X006101Y004712D01*
X006101Y004653D02*
X039601Y004653D01*
X039601Y004595D02*
X006101Y004595D01*
X006101Y004536D02*
X039601Y004536D01*
X039601Y004478D02*
X006101Y004478D01*
X006101Y004419D02*
X039601Y004419D01*
X039601Y004361D02*
X006101Y004361D01*
X006101Y004302D02*
X039601Y004302D01*
X039601Y004244D02*
X006101Y004244D01*
X006101Y004185D02*
X039601Y004185D01*
X039601Y004127D02*
X006101Y004127D01*
X006101Y004068D02*
X039601Y004068D01*
X039601Y004010D02*
X006101Y004010D01*
X006101Y003951D02*
X039601Y003951D01*
X039601Y003893D02*
X006101Y003893D01*
X006101Y003834D02*
X039601Y003834D01*
X039601Y003776D02*
X006101Y003776D01*
X006101Y003717D02*
X039601Y003717D01*
X039601Y003659D02*
X006101Y003659D01*
X006101Y003600D02*
X039601Y003600D01*
X039601Y003542D02*
X006101Y003542D01*
X006101Y003483D02*
X039601Y003483D01*
X039601Y003425D02*
X006101Y003425D01*
X006101Y003366D02*
X039601Y003366D01*
X039601Y003308D02*
X006101Y003308D01*
X006101Y003249D02*
X039601Y003249D01*
X039601Y003191D02*
X006101Y003191D01*
X006101Y003132D02*
X039601Y003132D01*
X039601Y003074D02*
X006101Y003074D01*
X006101Y003015D02*
X039601Y003015D01*
X039601Y002957D02*
X006101Y002957D01*
X006101Y002898D02*
X039601Y002898D01*
X039601Y002840D02*
X006101Y002840D01*
X006101Y002781D02*
X039601Y002781D01*
X039601Y002723D02*
X006101Y002723D01*
X006101Y002664D02*
X039601Y002664D01*
X039601Y002606D02*
X006101Y002606D01*
X006101Y002547D02*
X039601Y002547D01*
X039601Y002489D02*
X006101Y002489D01*
X006101Y002430D02*
X039601Y002430D01*
X039601Y002372D02*
X006101Y002372D01*
X006101Y002313D02*
X039601Y002313D01*
X039601Y002255D02*
X006101Y002255D01*
X006101Y002196D02*
X039601Y002196D01*
X039601Y002138D02*
X006101Y002138D01*
X006101Y002079D02*
X039601Y002079D01*
X039601Y002021D02*
X006101Y002021D01*
X006101Y001962D02*
X039601Y001962D01*
X039601Y001904D02*
X006101Y001904D01*
X006101Y001845D02*
X039601Y001845D01*
X039601Y001787D02*
X006101Y001787D01*
X006101Y001728D02*
X039601Y001728D01*
X039601Y001670D02*
X006101Y001670D01*
X006101Y001611D02*
X039601Y001611D01*
X039549Y001553D02*
X006153Y001553D01*
X006211Y001494D02*
X039490Y001494D01*
X039432Y001436D02*
X006270Y001436D01*
X006328Y001377D02*
X039373Y001377D01*
X039315Y001319D02*
X006387Y001319D01*
X006445Y001260D02*
X039256Y001260D01*
X039198Y001202D02*
X006504Y001202D01*
X006562Y001143D02*
X039139Y001143D01*
X039081Y001085D02*
X006621Y001085D01*
X006679Y001026D02*
X039022Y001026D01*
X038964Y000968D02*
X006738Y000968D01*
X006796Y000909D02*
X038905Y000909D01*
X038847Y000851D02*
X006855Y000851D01*
X006913Y000792D02*
X038788Y000792D01*
X038730Y000734D02*
X006972Y000734D01*
X007030Y000675D02*
X038671Y000675D01*
X038613Y000617D02*
X007089Y000617D01*
D12*
X004861Y007303D03*
X004861Y010783D03*
X044278Y010783D03*
X044278Y007303D03*
D13*
X044351Y007230D03*
X044851Y007230D03*
X043726Y007230D03*
X041476Y009105D03*
X043726Y010730D03*
X044351Y010730D03*
X044976Y010730D03*
X041601Y010855D03*
X042601Y014355D03*
X042976Y014730D03*
X042601Y015105D03*
X005476Y010730D03*
X004851Y010730D03*
X004226Y010730D03*
X004226Y007230D03*
X004851Y007230D03*
X005476Y007230D03*
M02*
