G75*
G70*
%OFA0B0*%
%FSLAX24Y24*%
%IPPOS*%
%LPD*%
%AMOC8*
5,1,8,0,0,1.08239X$1,22.5*
%
%ADD10C,0.0000*%
%ADD11R,0.0236X0.0315*%
%ADD12R,0.0354X0.0315*%
%ADD13R,0.0400X0.0600*%
%ADD14R,0.2000X0.0900*%
%ADD15R,0.1500X0.0760*%
%ADD16R,0.0600X0.0400*%
%ADD17R,0.0080X0.0080*%
D10*
X003851Y000105D02*
X003851Y018100D01*
X045288Y018100D01*
X045288Y000105D01*
X003851Y000105D01*
X003851Y006843D02*
X003851Y011243D01*
X045288Y011243D02*
X045288Y006843D01*
D11*
G36*
X041045Y009744D02*
X040878Y009911D01*
X041099Y010132D01*
X041266Y009965D01*
X041045Y009744D01*
G37*
G36*
X041852Y009828D02*
X041685Y009995D01*
X041906Y010216D01*
X042073Y010049D01*
X041852Y009828D01*
G37*
G36*
X041490Y010190D02*
X041323Y010357D01*
X041544Y010578D01*
X041711Y010411D01*
X041490Y010190D01*
G37*
D12*
G36*
X041406Y009382D02*
X041156Y009632D01*
X041378Y009854D01*
X041628Y009604D01*
X041406Y009382D01*
G37*
D13*
X042138Y009105D03*
X042938Y009105D03*
G36*
X041063Y007969D02*
X040780Y008252D01*
X041203Y008675D01*
X041486Y008392D01*
X041063Y007969D01*
G37*
G36*
X040498Y008535D02*
X040215Y008818D01*
X040638Y009241D01*
X040921Y008958D01*
X040498Y008535D01*
G37*
G36*
X039910Y009473D02*
X039578Y009251D01*
X039246Y009749D01*
X039578Y009971D01*
X039910Y009473D01*
G37*
G36*
X040575Y009916D02*
X040243Y009694D01*
X039911Y010192D01*
X040243Y010414D01*
X040575Y009916D01*
G37*
D14*
X044278Y010783D03*
X044278Y009043D03*
X044278Y007303D03*
X004861Y007303D03*
X004861Y009043D03*
X004861Y010783D03*
D15*
X044101Y012543D03*
X044101Y014730D03*
D16*
X042413Y011505D03*
X042413Y010705D03*
D17*
X038663Y008980D03*
X006413Y009168D03*
M02*
