G75*
G70*
%OFA0B0*%
%FSLAX24Y24*%
%IPPOS*%
%LPD*%
%AMOC8*
5,1,8,0,0,1.08239X$1,22.5*
%
%ADD10C,0.0060*%
%ADD11C,0.0080*%
%ADD12C,0.0020*%
%ADD13C,0.0050*%
%ADD14R,0.0010X0.3540*%
%ADD15R,0.0010X0.3600*%
%ADD16R,0.0010X0.3630*%
%ADD17R,0.0010X0.0330*%
%ADD18R,0.0010X0.2880*%
%ADD19R,0.0010X0.0360*%
%ADD20R,0.0010X0.0240*%
%ADD21R,0.0010X0.0480*%
%ADD22R,0.0010X0.0450*%
%ADD23R,0.0010X0.0300*%
%ADD24R,0.0010X0.0210*%
%ADD25R,0.0010X0.0270*%
%ADD26R,0.0010X0.0420*%
%ADD27R,0.0010X0.0960*%
%ADD28R,0.0010X0.0900*%
%ADD29R,0.0010X0.0840*%
%ADD30R,0.0010X0.0870*%
%ADD31R,0.0010X0.0750*%
%ADD32R,0.0010X0.0780*%
%ADD33R,0.0010X0.0720*%
%ADD34R,0.0010X0.0630*%
%ADD35R,0.0010X0.0660*%
%ADD36R,0.0010X0.0540*%
%ADD37R,0.0010X0.0390*%
%ADD38R,0.0010X0.0510*%
%ADD39R,0.0010X0.0570*%
%ADD40R,0.0010X0.0600*%
%ADD41R,0.0010X0.1020*%
%ADD42R,0.0010X0.1320*%
%ADD43R,0.0010X0.1650*%
%ADD44R,0.0010X0.1890*%
%ADD45R,0.0010X0.2820*%
%ADD46R,0.0010X0.2760*%
%ADD47R,0.0010X0.1110*%
%ADD48R,0.0010X0.1080*%
%ADD49R,0.0010X0.0690*%
%ADD50R,0.0010X0.0810*%
%ADD51R,0.0010X0.1260*%
%ADD52R,0.0010X0.1380*%
%ADD53R,0.0010X0.1500*%
%ADD54R,0.0010X0.1620*%
%ADD55R,0.0010X0.1710*%
%ADD56R,0.0010X0.0090*%
%ADD57R,0.0010X0.1350*%
%ADD58R,0.0010X0.2550*%
%ADD59R,0.0010X0.2400*%
%ADD60R,0.0010X0.2220*%
%ADD61R,0.0010X0.1950*%
%ADD62R,0.0010X0.1740*%
%ADD63R,0.0010X0.1200*%
%ADD64R,0.0010X0.0180*%
%ADD65R,0.0010X0.0030*%
%ADD66R,0.0010X0.0150*%
%ADD67R,0.0010X0.0120*%
%ADD68R,0.0010X0.0060*%
D10*
X002436Y004405D02*
X002863Y004405D01*
X002970Y004512D01*
X002970Y004725D01*
X002863Y004832D01*
X002436Y004832D02*
X002329Y004725D01*
X002329Y004512D01*
X002436Y004405D01*
X003329Y004405D02*
X003970Y004405D01*
X003970Y004725D01*
X003863Y004832D01*
X003650Y004832D01*
X003543Y004725D01*
X003543Y004405D01*
X003543Y005050D02*
X003863Y005050D01*
X003970Y005156D01*
X003970Y005477D01*
X004077Y005477D02*
X004184Y005370D01*
X004184Y005263D01*
X004077Y005477D02*
X003543Y005477D01*
X002970Y005370D02*
X002863Y005477D01*
X002970Y005370D02*
X002970Y005156D01*
X002863Y005050D01*
X002436Y005050D01*
X002329Y005156D01*
X002329Y005370D01*
X002436Y005477D01*
X002650Y005694D02*
X002650Y006121D01*
X002650Y006339D02*
X002650Y006659D01*
X002756Y006766D01*
X002863Y006766D01*
X002970Y006659D01*
X002970Y006339D01*
X002329Y006339D01*
X002329Y006659D01*
X002436Y006766D01*
X002543Y006766D01*
X002650Y006659D01*
X002436Y006983D02*
X002650Y007197D01*
X002970Y007197D01*
X002650Y007197D02*
X002436Y007410D01*
X002329Y007410D01*
X002650Y007628D02*
X002650Y008055D01*
X002543Y008272D02*
X002650Y008379D01*
X002650Y008593D01*
X002756Y008699D01*
X002863Y008699D01*
X002970Y008593D01*
X002970Y008379D01*
X002863Y008272D01*
X002543Y008272D02*
X002436Y008272D01*
X002329Y008379D01*
X002329Y008593D01*
X002436Y008699D01*
X002543Y008917D02*
X002329Y009130D01*
X002543Y009344D01*
X002970Y009344D01*
X002650Y009344D02*
X002650Y008917D01*
X002543Y008917D02*
X002970Y008917D01*
X003329Y008807D02*
X003329Y008594D01*
X003436Y008487D01*
X003863Y008487D01*
X003970Y008594D01*
X003970Y008807D01*
X003863Y008914D01*
X003436Y008914D02*
X003329Y008807D01*
X003436Y008270D02*
X003650Y008270D01*
X003756Y008163D01*
X003756Y007843D01*
X003756Y008056D02*
X003970Y008270D01*
X003436Y008270D02*
X003329Y008163D01*
X003329Y007843D01*
X003970Y007843D01*
X003329Y007624D02*
X003970Y006983D01*
X003863Y007090D02*
X003970Y007197D01*
X003970Y007410D01*
X003863Y007517D01*
X003436Y007517D01*
X003329Y007410D01*
X003329Y007197D01*
X003436Y007090D01*
X003863Y007090D01*
X003970Y006766D02*
X003329Y006766D01*
X003329Y006339D02*
X003970Y006766D01*
X003970Y006339D02*
X003329Y006339D01*
X002436Y006983D02*
X002329Y006983D01*
D11*
X007727Y002768D02*
X008298Y002768D01*
X008298Y001725D01*
X009144Y001725D01*
X009439Y002020D01*
X010936Y002020D01*
X010936Y001686D01*
X011398Y001686D01*
X011398Y000189D01*
X010936Y000189D01*
X010936Y-000145D01*
X009439Y-000145D01*
X009144Y000150D01*
X008298Y000150D01*
X008298Y-000893D01*
X007727Y-000893D01*
X007727Y-000578D02*
X007727Y002453D01*
X004307Y001750D02*
X004000Y001443D01*
X003443Y002000D02*
X003750Y002307D01*
X-033789Y002453D02*
X-033789Y-000578D01*
X-033789Y-000893D02*
X-034360Y-000893D01*
X-034360Y000150D01*
X-035207Y000150D01*
X-035502Y-000145D01*
X-036998Y-000145D01*
X-036998Y000189D01*
X-037461Y000189D01*
X-037461Y001686D01*
X-036998Y001686D01*
X-036998Y002020D01*
X-035502Y002020D01*
X-035207Y001725D01*
X-034360Y001725D01*
X-034360Y002768D01*
X-033789Y002768D01*
D12*
X003054Y002010D02*
X003183Y001880D01*
X003235Y001880D01*
X003287Y001932D01*
X003287Y001984D01*
X003157Y002113D01*
X003262Y002114D02*
X003262Y002218D01*
X003417Y002062D01*
X003366Y002010D02*
X003469Y002114D01*
D13*
X003579Y001023D02*
X003444Y000889D01*
X003489Y000934D02*
X003557Y000866D01*
X003601Y000866D01*
X003646Y000911D01*
X003646Y000956D01*
X003579Y001023D01*
X003534Y000889D02*
X003534Y000799D01*
X003601Y000733D02*
X003690Y000643D01*
X003646Y000688D02*
X003780Y000822D01*
X003690Y000822D01*
X004363Y001507D02*
X004394Y001475D01*
X004458Y001475D01*
X004489Y001507D01*
X004583Y001475D02*
X004710Y001602D01*
X004710Y001633D01*
X004679Y001665D01*
X004615Y001665D01*
X004583Y001633D01*
X004489Y001633D02*
X004458Y001665D01*
X004394Y001665D01*
X004363Y001633D01*
X004363Y001507D01*
X004583Y001475D02*
X004710Y001475D01*
X002240Y002206D02*
X002140Y002129D01*
X002190Y002168D02*
X002074Y002319D01*
X002063Y002230D01*
X001969Y002198D02*
X001924Y002204D01*
X001874Y002165D01*
X001868Y002120D01*
X001945Y002020D01*
X001990Y002014D01*
X002040Y002053D01*
X002046Y002097D01*
X005287Y003183D02*
X005287Y003278D01*
X005319Y003310D01*
X005382Y003310D01*
X005414Y003278D01*
X005414Y003183D01*
X005414Y003246D02*
X005478Y003310D01*
X005478Y003404D02*
X005351Y003531D01*
X005319Y003531D01*
X005287Y003499D01*
X005287Y003436D01*
X005319Y003404D01*
X005478Y003404D02*
X005478Y003531D01*
X005478Y003183D02*
X005287Y003183D01*
D14*
X007420Y-004800D03*
X007430Y-004800D03*
X007440Y-004800D03*
X007450Y-004800D03*
X007460Y-004800D03*
X007470Y-004800D03*
X007480Y-004800D03*
X007490Y-004800D03*
X007500Y-004800D03*
D15*
X007410Y-004800D03*
X007400Y-004800D03*
X007390Y-004800D03*
X007380Y-004800D03*
X007370Y-004800D03*
X007360Y-004800D03*
X007350Y-004800D03*
X007340Y-004800D03*
X007330Y-004800D03*
D16*
X007320Y-004785D03*
X007310Y-004785D03*
X007300Y-004785D03*
D17*
X006900Y-005625D03*
X006890Y-005625D03*
X006880Y-005625D03*
X006300Y-005925D03*
X006290Y-005925D03*
X006280Y-005925D03*
X006030Y-006285D03*
X006020Y-006285D03*
X006010Y-006285D03*
X006000Y-006315D03*
X005990Y-006315D03*
X005980Y-006315D03*
X005970Y-006345D03*
X005960Y-006345D03*
X005950Y-006345D03*
X006940Y-006345D03*
X006950Y-006345D03*
X006960Y-006345D03*
X006970Y-006375D03*
X006980Y-006375D03*
X006990Y-006375D03*
X007270Y-006435D03*
X007280Y-006435D03*
X007290Y-006435D03*
X003480Y-006855D03*
X003470Y-006855D03*
X003460Y-006855D03*
X003450Y-006885D03*
X003440Y-006885D03*
X003430Y-006885D03*
X003420Y-006915D03*
X003410Y-006915D03*
X003400Y-006915D03*
X002280Y-007305D03*
X002270Y-007305D03*
X002260Y-007305D03*
X001680Y-006915D03*
X001670Y-006915D03*
X001660Y-006915D03*
X001590Y-006825D03*
X001580Y-006825D03*
X001570Y-006825D03*
X001560Y-006795D03*
X001550Y-006795D03*
X001540Y-006795D03*
X001530Y-006765D03*
X001520Y-006765D03*
X001510Y-006765D03*
X000780Y-004755D03*
X000770Y-004755D03*
X000760Y-004755D03*
X003310Y-004005D03*
X003320Y-004005D03*
X003330Y-004005D03*
X006010Y-003315D03*
X006020Y-003315D03*
X006030Y-003315D03*
X006940Y-003255D03*
X006950Y-003255D03*
X006960Y-003255D03*
X006660Y-003855D03*
X006650Y-003855D03*
X006640Y-003855D03*
X003540Y-002835D03*
X003530Y-002835D03*
X003520Y-002835D03*
X003510Y-002805D03*
X003500Y-002805D03*
X003490Y-002805D03*
X003480Y-002775D03*
X003470Y-002775D03*
X003460Y-002775D03*
X003450Y-002745D03*
X003440Y-002745D03*
X003430Y-002745D03*
X002310Y-002295D03*
X002300Y-002295D03*
X002290Y-002295D03*
X001620Y-002745D03*
X001610Y-002745D03*
X001600Y-002745D03*
X001590Y-002775D03*
X001580Y-002775D03*
X001570Y-002775D03*
X001560Y-002805D03*
X001550Y-002805D03*
X001540Y-002805D03*
D18*
X004120Y-004800D03*
X004130Y-004800D03*
X004140Y-004800D03*
X007270Y-004800D03*
X007280Y-004800D03*
X007290Y-004800D03*
D19*
X007230Y-005340D03*
X007220Y-005340D03*
X007210Y-005340D03*
X006930Y-006300D03*
X006920Y-006300D03*
X006910Y-006300D03*
X003630Y-006660D03*
X003620Y-006660D03*
X003610Y-006660D03*
X003570Y-006750D03*
X003560Y-006750D03*
X003550Y-006750D03*
X003540Y-006780D03*
X003530Y-006780D03*
X003520Y-006780D03*
X003510Y-006810D03*
X003500Y-006810D03*
X003490Y-006810D03*
X001500Y-006720D03*
X001490Y-006720D03*
X001480Y-006720D03*
X001380Y-007410D03*
X001370Y-007410D03*
X001360Y-007410D03*
X003310Y-005580D03*
X003320Y-005580D03*
X003330Y-005580D03*
X003340Y-005550D03*
X003350Y-005550D03*
X003360Y-005550D03*
X003360Y-004050D03*
X003350Y-004050D03*
X003340Y-004050D03*
X003580Y-002910D03*
X003590Y-002910D03*
X003600Y-002910D03*
X003570Y-002880D03*
X003560Y-002880D03*
X003550Y-002880D03*
X002280Y-002280D03*
X002270Y-002280D03*
X002260Y-002280D03*
X001380Y-002190D03*
X001370Y-002190D03*
X001360Y-002190D03*
X001510Y-002850D03*
X001520Y-002850D03*
X001530Y-002850D03*
X001500Y-002880D03*
X001490Y-002880D03*
X001480Y-002880D03*
X006280Y-003690D03*
X006290Y-003690D03*
X006300Y-003690D03*
X006910Y-003300D03*
X006920Y-003300D03*
X006930Y-003300D03*
X007270Y-003150D03*
X007280Y-003150D03*
X007290Y-003150D03*
X007230Y-004260D03*
X007220Y-004260D03*
X007210Y-004260D03*
D20*
X006540Y-003840D03*
X006530Y-003840D03*
X006520Y-003840D03*
X006510Y-003840D03*
X006500Y-003840D03*
X006490Y-003840D03*
X006480Y-003810D03*
X006470Y-003810D03*
X006460Y-003810D03*
X006450Y-003810D03*
X006440Y-003810D03*
X006430Y-003810D03*
X006390Y-003780D03*
X006380Y-003780D03*
X006370Y-003780D03*
X006000Y-003660D03*
X005990Y-003660D03*
X005980Y-003660D03*
X005970Y-003660D03*
X005960Y-003660D03*
X005950Y-003660D03*
X005940Y-003660D03*
X005930Y-003660D03*
X005920Y-003660D03*
X005790Y-003630D03*
X005780Y-003630D03*
X005770Y-003630D03*
X005760Y-003630D03*
X005750Y-003630D03*
X005740Y-003630D03*
X005580Y-003600D03*
X005570Y-003600D03*
X005560Y-003600D03*
X005550Y-003600D03*
X005540Y-003600D03*
X005530Y-003600D03*
X005520Y-003600D03*
X005510Y-003600D03*
X005500Y-003600D03*
X005280Y-003570D03*
X005270Y-003570D03*
X005260Y-003570D03*
X005250Y-003570D03*
X005240Y-003570D03*
X005230Y-003570D03*
X005220Y-003570D03*
X005210Y-003570D03*
X005200Y-003570D03*
X005190Y-003570D03*
X005180Y-003570D03*
X005170Y-003570D03*
X005160Y-003570D03*
X005150Y-003570D03*
X005140Y-003570D03*
X005130Y-003570D03*
X005120Y-003570D03*
X005110Y-003570D03*
X005100Y-003570D03*
X005090Y-003570D03*
X005080Y-003570D03*
X005070Y-003570D03*
X005060Y-003570D03*
X005050Y-003570D03*
X005040Y-003570D03*
X005030Y-003570D03*
X005020Y-003570D03*
X005010Y-003570D03*
X005000Y-003570D03*
X004990Y-003570D03*
X004980Y-003570D03*
X004970Y-003570D03*
X004960Y-003570D03*
X004950Y-003570D03*
X004940Y-003570D03*
X004930Y-003570D03*
X004920Y-003570D03*
X004910Y-003570D03*
X004900Y-003570D03*
X004890Y-003570D03*
X004880Y-003570D03*
X004870Y-003570D03*
X004860Y-003570D03*
X004850Y-003570D03*
X004840Y-003570D03*
X004830Y-003570D03*
X004820Y-003570D03*
X004810Y-003570D03*
X004800Y-003570D03*
X004790Y-003570D03*
X004780Y-003570D03*
X004770Y-003570D03*
X004760Y-003570D03*
X004750Y-003570D03*
X004740Y-003570D03*
X004730Y-003570D03*
X004720Y-003570D03*
X004710Y-003570D03*
X004700Y-003570D03*
X004690Y-003570D03*
X004680Y-003570D03*
X004670Y-003570D03*
X004660Y-003570D03*
X004650Y-003570D03*
X004640Y-003570D03*
X004630Y-003570D03*
X004620Y-003570D03*
X004610Y-003570D03*
X004600Y-003570D03*
X004590Y-003570D03*
X004580Y-003570D03*
X004570Y-003570D03*
X004560Y-003570D03*
X004550Y-003570D03*
X004540Y-003570D03*
X004530Y-003570D03*
X004520Y-003570D03*
X004510Y-003570D03*
X004470Y-003570D03*
X004460Y-003570D03*
X004450Y-003570D03*
X004440Y-003570D03*
X004430Y-003570D03*
X004420Y-003570D03*
X004410Y-003570D03*
X004400Y-003570D03*
X004390Y-003570D03*
X004570Y-003120D03*
X004580Y-003120D03*
X004590Y-003120D03*
X004630Y-003090D03*
X004640Y-003090D03*
X004650Y-003090D03*
X004660Y-003060D03*
X004670Y-003060D03*
X004680Y-003060D03*
X004690Y-003060D03*
X004700Y-003060D03*
X004710Y-003060D03*
X004720Y-003060D03*
X004730Y-003060D03*
X004740Y-003060D03*
X004780Y-003030D03*
X004790Y-003030D03*
X004800Y-003030D03*
X004810Y-003030D03*
X004820Y-003030D03*
X004830Y-003030D03*
X005110Y-002970D03*
X005120Y-002970D03*
X005130Y-002970D03*
X005140Y-002970D03*
X005150Y-002970D03*
X005160Y-002970D03*
X005170Y-002970D03*
X005180Y-002970D03*
X005190Y-002970D03*
X005200Y-002970D03*
X005210Y-002970D03*
X005220Y-002970D03*
X005380Y-003000D03*
X005390Y-003000D03*
X005400Y-003000D03*
X005500Y-003030D03*
X005510Y-003030D03*
X005520Y-003030D03*
X005530Y-003030D03*
X005540Y-003030D03*
X005550Y-003030D03*
X005560Y-003030D03*
X005570Y-003030D03*
X005580Y-003030D03*
X005590Y-003060D03*
X005600Y-003060D03*
X005610Y-003060D03*
X005620Y-003060D03*
X005630Y-003060D03*
X005640Y-003060D03*
X005650Y-003060D03*
X005660Y-003060D03*
X005670Y-003060D03*
X005680Y-003090D03*
X005690Y-003090D03*
X005700Y-003090D03*
X005710Y-003090D03*
X005720Y-003090D03*
X005730Y-003090D03*
X005800Y-003150D03*
X005810Y-003150D03*
X005820Y-003150D03*
X007120Y-003120D03*
X007130Y-003120D03*
X007140Y-003120D03*
X007150Y-003120D03*
X007160Y-003120D03*
X007170Y-003120D03*
X007210Y-003120D03*
X007220Y-003120D03*
X007230Y-003120D03*
X003270Y-003960D03*
X003260Y-003960D03*
X003250Y-003960D03*
X003640Y-004800D03*
X003650Y-004800D03*
X003660Y-004800D03*
X003270Y-005640D03*
X003260Y-005640D03*
X003250Y-005640D03*
X004390Y-006060D03*
X004400Y-006060D03*
X004410Y-006060D03*
X004420Y-006060D03*
X004430Y-006060D03*
X004440Y-006060D03*
X004720Y-006060D03*
X004730Y-006060D03*
X004740Y-006060D03*
X004750Y-006060D03*
X004760Y-006060D03*
X004770Y-006060D03*
X004780Y-006060D03*
X004790Y-006060D03*
X004800Y-006060D03*
X004810Y-006060D03*
X004820Y-006060D03*
X004830Y-006060D03*
X004840Y-006060D03*
X004850Y-006060D03*
X004860Y-006060D03*
X004870Y-006060D03*
X004880Y-006060D03*
X004890Y-006060D03*
X004900Y-006060D03*
X004910Y-006060D03*
X004920Y-006060D03*
X004930Y-006060D03*
X004940Y-006060D03*
X004950Y-006060D03*
X004960Y-006060D03*
X004970Y-006060D03*
X004980Y-006060D03*
X004990Y-006060D03*
X005000Y-006060D03*
X005010Y-006060D03*
X005020Y-006060D03*
X005030Y-006060D03*
X005040Y-006060D03*
X005050Y-006060D03*
X005060Y-006060D03*
X005070Y-006060D03*
X005080Y-006060D03*
X005090Y-006060D03*
X005100Y-006060D03*
X005410Y-006030D03*
X005420Y-006030D03*
X005430Y-006030D03*
X005440Y-006030D03*
X005450Y-006030D03*
X005460Y-006030D03*
X005470Y-006030D03*
X005480Y-006030D03*
X005490Y-006030D03*
X005500Y-006030D03*
X005510Y-006030D03*
X005520Y-006030D03*
X005530Y-006030D03*
X005540Y-006030D03*
X005550Y-006030D03*
X005590Y-006000D03*
X005600Y-006000D03*
X005610Y-006000D03*
X005620Y-006000D03*
X005630Y-006000D03*
X005640Y-006000D03*
X005650Y-006000D03*
X005660Y-006000D03*
X005670Y-006000D03*
X005680Y-006000D03*
X005690Y-006000D03*
X005700Y-006000D03*
X005710Y-006000D03*
X005720Y-006000D03*
X005730Y-006000D03*
X005830Y-005970D03*
X005840Y-005970D03*
X005850Y-005970D03*
X005950Y-005940D03*
X005960Y-005940D03*
X005970Y-005940D03*
X005980Y-005940D03*
X005990Y-005940D03*
X006000Y-005940D03*
X006370Y-005820D03*
X006380Y-005820D03*
X006390Y-005820D03*
X006400Y-005820D03*
X006410Y-005820D03*
X006420Y-005820D03*
X006430Y-005820D03*
X006440Y-005820D03*
X006450Y-005820D03*
X006460Y-005790D03*
X006470Y-005790D03*
X006480Y-005790D03*
X006490Y-005790D03*
X006500Y-005790D03*
X006510Y-005790D03*
X006520Y-005760D03*
X006530Y-005760D03*
X006540Y-005760D03*
X006550Y-005760D03*
X006560Y-005760D03*
X006570Y-005760D03*
X007060Y-006450D03*
X007070Y-006450D03*
X007080Y-006450D03*
X007090Y-006480D03*
X007100Y-006480D03*
X007110Y-006480D03*
X007120Y-006480D03*
X007130Y-006480D03*
X007140Y-006480D03*
X007240Y-006480D03*
X007250Y-006480D03*
X007260Y-006480D03*
X005760Y-006480D03*
X005750Y-006480D03*
X005740Y-006480D03*
X005730Y-006510D03*
X005720Y-006510D03*
X005710Y-006510D03*
X005700Y-006510D03*
X005690Y-006510D03*
X005680Y-006510D03*
X005670Y-006540D03*
X005660Y-006540D03*
X005650Y-006540D03*
X005610Y-006570D03*
X005600Y-006570D03*
X005590Y-006570D03*
X005580Y-006570D03*
X005570Y-006570D03*
X005560Y-006570D03*
X005520Y-006600D03*
X005510Y-006600D03*
X005500Y-006600D03*
X005490Y-006600D03*
X005480Y-006600D03*
X005470Y-006600D03*
X005340Y-006630D03*
X005330Y-006630D03*
X005320Y-006630D03*
X005310Y-006630D03*
X005300Y-006630D03*
X005290Y-006630D03*
X005280Y-006630D03*
X005270Y-006630D03*
X005260Y-006630D03*
X005250Y-006630D03*
X005240Y-006630D03*
X005230Y-006630D03*
X005220Y-006630D03*
X005210Y-006630D03*
X005200Y-006630D03*
X005190Y-006630D03*
X005180Y-006630D03*
X005170Y-006630D03*
X005160Y-006630D03*
X005150Y-006630D03*
X005140Y-006630D03*
X005130Y-006630D03*
X005120Y-006630D03*
X005110Y-006630D03*
X005100Y-006630D03*
X005090Y-006630D03*
X005080Y-006630D03*
X005070Y-006630D03*
X005060Y-006630D03*
X005050Y-006630D03*
X005040Y-006630D03*
X005030Y-006630D03*
X005020Y-006630D03*
X005010Y-006630D03*
X005000Y-006630D03*
X004990Y-006630D03*
X004890Y-006600D03*
X004880Y-006600D03*
X004870Y-006600D03*
X004860Y-006600D03*
X004850Y-006600D03*
X004840Y-006600D03*
X004770Y-006570D03*
X004760Y-006570D03*
X004750Y-006570D03*
X004710Y-006540D03*
X004700Y-006540D03*
X004690Y-006540D03*
X004680Y-006540D03*
X004670Y-006540D03*
X004660Y-006540D03*
X004650Y-006510D03*
X004640Y-006510D03*
X004630Y-006510D03*
X004620Y-006510D03*
X004610Y-006510D03*
X004600Y-006510D03*
X004590Y-006480D03*
X004580Y-006480D03*
X004570Y-006480D03*
X003060Y-007170D03*
X003050Y-007170D03*
X003040Y-007170D03*
X003030Y-007200D03*
X003020Y-007200D03*
X003010Y-007200D03*
X003000Y-007200D03*
X002990Y-007200D03*
X002980Y-007200D03*
X002970Y-007230D03*
X002960Y-007230D03*
X002950Y-007230D03*
X002940Y-007230D03*
X002930Y-007230D03*
X002920Y-007230D03*
X002850Y-007260D03*
X002840Y-007260D03*
X002830Y-007260D03*
X002820Y-007260D03*
X002810Y-007260D03*
X002800Y-007260D03*
X002760Y-007290D03*
X002750Y-007290D03*
X002740Y-007290D03*
X002730Y-007290D03*
X002720Y-007290D03*
X002710Y-007290D03*
X002700Y-007290D03*
X002690Y-007290D03*
X002680Y-007290D03*
X002670Y-007290D03*
X002660Y-007290D03*
X002650Y-007290D03*
X002400Y-007290D03*
X002390Y-007290D03*
X002380Y-007290D03*
X002370Y-007290D03*
X002360Y-007290D03*
X002350Y-007290D03*
X002010Y-007170D03*
X002000Y-007170D03*
X001990Y-007170D03*
X001980Y-007560D03*
X001970Y-007560D03*
X001960Y-007560D03*
X001920Y-007590D03*
X001910Y-007590D03*
X001900Y-007590D03*
X001890Y-007590D03*
X001880Y-007590D03*
X001870Y-007590D03*
X001680Y-007590D03*
X001670Y-007590D03*
X001660Y-007590D03*
X001650Y-007590D03*
X001640Y-007590D03*
X001630Y-007590D03*
X001590Y-007560D03*
X001580Y-007560D03*
X001570Y-007560D03*
X001560Y-007560D03*
X001550Y-007560D03*
X001540Y-007560D03*
X000180Y-005760D03*
X000170Y-005760D03*
X000160Y-005760D03*
X000190Y-005730D03*
X000200Y-005730D03*
X000210Y-005730D03*
X000220Y-005730D03*
X000230Y-005730D03*
X000240Y-005730D03*
X000250Y-005700D03*
X000260Y-005700D03*
X000270Y-005700D03*
X000280Y-005670D03*
X000290Y-005670D03*
X000300Y-005670D03*
X000120Y-005790D03*
X000110Y-005790D03*
X000100Y-005790D03*
X000060Y-005820D03*
X000050Y-005820D03*
X000040Y-005820D03*
X000000Y-005850D03*
X-000010Y-005850D03*
X-000020Y-005850D03*
X-000300Y-005910D03*
X-000310Y-005910D03*
X-000320Y-005910D03*
X-000330Y-005910D03*
X-000340Y-005910D03*
X-000350Y-005910D03*
X-000360Y-005910D03*
X-000370Y-005910D03*
X-000380Y-005910D03*
X-000390Y-005910D03*
X-000400Y-005910D03*
X-000410Y-005910D03*
X-000420Y-005910D03*
X-000430Y-005910D03*
X-000440Y-005910D03*
X-000450Y-005910D03*
X-000460Y-005910D03*
X-000470Y-005910D03*
X-000480Y-005910D03*
X-000490Y-005910D03*
X-000500Y-005910D03*
X-000870Y-005820D03*
X-000880Y-005820D03*
X-000890Y-005820D03*
X-000930Y-005790D03*
X-000940Y-005790D03*
X-000950Y-005790D03*
X-000960Y-005760D03*
X-000970Y-005760D03*
X-000980Y-005760D03*
X-000990Y-005760D03*
X-001000Y-005760D03*
X-001010Y-005760D03*
X-001020Y-005730D03*
X-001030Y-005730D03*
X-001040Y-005730D03*
X-001080Y-005700D03*
X-001090Y-005700D03*
X-001100Y-005700D03*
X-001110Y-005670D03*
X-001120Y-005670D03*
X-001130Y-005670D03*
X000730Y-004740D03*
X000740Y-004740D03*
X000750Y-004740D03*
X000300Y-003780D03*
X000290Y-003780D03*
X000280Y-003780D03*
X000270Y-003750D03*
X000260Y-003750D03*
X000250Y-003750D03*
X000210Y-003720D03*
X000200Y-003720D03*
X000190Y-003720D03*
X000180Y-003690D03*
X000170Y-003690D03*
X000160Y-003690D03*
X000120Y-003660D03*
X000110Y-003660D03*
X000100Y-003660D03*
X000060Y-003630D03*
X000050Y-003630D03*
X000040Y-003630D03*
X000030Y-003630D03*
X000020Y-003630D03*
X000010Y-003630D03*
X-000030Y-003600D03*
X-000040Y-003600D03*
X-000050Y-003600D03*
X-000840Y-003630D03*
X-000850Y-003630D03*
X-000860Y-003630D03*
X-000870Y-003630D03*
X-000880Y-003630D03*
X-000890Y-003630D03*
X-000930Y-003660D03*
X-000940Y-003660D03*
X-000950Y-003660D03*
X-000960Y-003690D03*
X-000970Y-003690D03*
X-000980Y-003690D03*
X-000990Y-003690D03*
X-001000Y-003690D03*
X-001010Y-003690D03*
X-001020Y-003720D03*
X-001030Y-003720D03*
X-001040Y-003720D03*
X-001110Y-003780D03*
X-001120Y-003780D03*
X-001130Y-003780D03*
X-001320Y-003960D03*
X-001330Y-003960D03*
X-001340Y-003960D03*
X001930Y-002490D03*
X001940Y-002490D03*
X001950Y-002490D03*
X002020Y-002430D03*
X002030Y-002430D03*
X002040Y-002430D03*
X002350Y-002310D03*
X002360Y-002310D03*
X002370Y-002310D03*
X002380Y-002310D03*
X002390Y-002310D03*
X002400Y-002310D03*
X002410Y-002310D03*
X002420Y-002310D03*
X002430Y-002310D03*
X002440Y-002310D03*
X002450Y-002310D03*
X002460Y-002310D03*
X002470Y-002310D03*
X002480Y-002310D03*
X002490Y-002310D03*
X002500Y-002310D03*
X002510Y-002310D03*
X002520Y-002310D03*
X002530Y-002310D03*
X002540Y-002310D03*
X002550Y-002310D03*
X002560Y-002310D03*
X002570Y-002310D03*
X002580Y-002310D03*
X002590Y-002310D03*
X002600Y-002310D03*
X002610Y-002310D03*
X002620Y-002310D03*
X002630Y-002310D03*
X002640Y-002310D03*
X002650Y-002310D03*
X002660Y-002310D03*
X002670Y-002310D03*
X002680Y-002310D03*
X002690Y-002310D03*
X002700Y-002310D03*
X002770Y-002340D03*
X002780Y-002340D03*
X002790Y-002340D03*
X002800Y-002340D03*
X002810Y-002340D03*
X002820Y-002340D03*
X002860Y-002370D03*
X002870Y-002370D03*
X002880Y-002370D03*
X002890Y-002370D03*
X002900Y-002370D03*
X002910Y-002370D03*
X002950Y-002400D03*
X002960Y-002400D03*
X002970Y-002400D03*
X003010Y-002430D03*
X003020Y-002430D03*
X003030Y-002430D03*
X003070Y-002460D03*
X003080Y-002460D03*
X003090Y-002460D03*
X003130Y-002490D03*
X003140Y-002490D03*
X003150Y-002490D03*
X002010Y-002040D03*
X002000Y-002040D03*
X001990Y-002040D03*
X001980Y-002040D03*
X001970Y-002040D03*
X001960Y-002040D03*
X001920Y-002010D03*
X001910Y-002010D03*
X001900Y-002010D03*
X001800Y-001980D03*
X001790Y-001980D03*
X001780Y-001980D03*
X001770Y-001980D03*
X001760Y-001980D03*
X001750Y-001980D03*
X001650Y-002010D03*
X001640Y-002010D03*
X001630Y-002010D03*
X001590Y-002040D03*
X001580Y-002040D03*
X001570Y-002040D03*
X001560Y-002040D03*
X001550Y-002040D03*
X001540Y-002040D03*
D21*
X002170Y-002250D03*
X002180Y-002250D03*
X002190Y-002250D03*
X001410Y-002970D03*
X001400Y-002970D03*
X001390Y-002970D03*
X001230Y-003330D03*
X001220Y-003330D03*
X001210Y-003330D03*
X003790Y-003240D03*
X003800Y-003240D03*
X003810Y-003240D03*
X006190Y-003600D03*
X006200Y-003600D03*
X006210Y-003600D03*
X006220Y-003630D03*
X006230Y-003630D03*
X006240Y-003630D03*
X007240Y-005310D03*
X007250Y-005310D03*
X007260Y-005310D03*
X004260Y-006150D03*
X004250Y-006150D03*
X004240Y-006150D03*
X004230Y-006120D03*
X004220Y-006120D03*
X004210Y-006120D03*
X003810Y-006360D03*
X003800Y-006360D03*
X003790Y-006360D03*
X003780Y-006420D03*
X003770Y-006420D03*
X003760Y-006420D03*
X002160Y-007350D03*
X002150Y-007350D03*
X002140Y-007350D03*
X001410Y-006630D03*
X001400Y-006630D03*
X001390Y-006630D03*
D22*
X003370Y-005505D03*
X003380Y-005505D03*
X003390Y-005505D03*
X006220Y-005985D03*
X006230Y-005985D03*
X006240Y-005985D03*
X007240Y-004305D03*
X007250Y-004305D03*
X007260Y-004305D03*
X004230Y-003495D03*
X004220Y-003495D03*
X004210Y-003495D03*
X004200Y-003525D03*
X004190Y-003525D03*
X004180Y-003525D03*
X003780Y-003195D03*
X003770Y-003195D03*
X003760Y-003195D03*
X003750Y-003135D03*
X003740Y-003135D03*
X003730Y-003135D03*
X003390Y-004095D03*
X003380Y-004095D03*
X003370Y-004095D03*
X002220Y-002265D03*
X002210Y-002265D03*
X002200Y-002265D03*
D23*
X001410Y-002160D03*
X001400Y-002160D03*
X001390Y-002160D03*
X001140Y-002550D03*
X001130Y-002550D03*
X001120Y-002550D03*
X001630Y-002730D03*
X001640Y-002730D03*
X001650Y-002730D03*
X001660Y-002700D03*
X001670Y-002700D03*
X001680Y-002700D03*
X001690Y-002670D03*
X001700Y-002670D03*
X001710Y-002670D03*
X001720Y-002640D03*
X001730Y-002640D03*
X001740Y-002640D03*
X001750Y-002610D03*
X001760Y-002610D03*
X001770Y-002610D03*
X001780Y-002580D03*
X001790Y-002580D03*
X001800Y-002580D03*
X003220Y-002550D03*
X003230Y-002550D03*
X003240Y-002550D03*
X003340Y-002640D03*
X003350Y-002640D03*
X003360Y-002640D03*
X003370Y-002670D03*
X003380Y-002670D03*
X003390Y-002670D03*
X003400Y-002700D03*
X003410Y-002700D03*
X003420Y-002700D03*
X004390Y-003240D03*
X004400Y-003240D03*
X004410Y-003240D03*
X005890Y-003210D03*
X005900Y-003210D03*
X005910Y-003210D03*
X005920Y-003240D03*
X005930Y-003240D03*
X005940Y-003240D03*
X005950Y-003270D03*
X005960Y-003270D03*
X005970Y-003270D03*
X005980Y-003300D03*
X005990Y-003300D03*
X006000Y-003300D03*
X006010Y-003660D03*
X006020Y-003660D03*
X006030Y-003660D03*
X006310Y-003750D03*
X006320Y-003750D03*
X006330Y-003750D03*
X006610Y-003870D03*
X006620Y-003870D03*
X006630Y-003870D03*
X006880Y-003990D03*
X006890Y-003990D03*
X006900Y-003990D03*
X006940Y-004050D03*
X006950Y-004050D03*
X006960Y-004050D03*
X007060Y-004140D03*
X007070Y-004140D03*
X007080Y-004140D03*
X007090Y-004170D03*
X007100Y-004170D03*
X007110Y-004170D03*
X007120Y-004200D03*
X007130Y-004200D03*
X007140Y-004200D03*
X007150Y-004230D03*
X007160Y-004230D03*
X007170Y-004230D03*
X007180Y-004260D03*
X007190Y-004260D03*
X007200Y-004260D03*
X006990Y-003240D03*
X006980Y-003240D03*
X006970Y-003240D03*
X007240Y-003120D03*
X007250Y-003120D03*
X007260Y-003120D03*
X003300Y-003990D03*
X003290Y-003990D03*
X003280Y-003990D03*
X000480Y-003930D03*
X000470Y-003930D03*
X000460Y-003930D03*
X000450Y-003900D03*
X000440Y-003900D03*
X000430Y-003900D03*
X000420Y-003870D03*
X000410Y-003870D03*
X000400Y-003870D03*
X-001230Y-003900D03*
X-001240Y-003900D03*
X-001250Y-003900D03*
X-001260Y-003930D03*
X-001270Y-003930D03*
X-001280Y-003930D03*
X-001280Y-005520D03*
X-001270Y-005520D03*
X-001260Y-005520D03*
X-001250Y-005550D03*
X-001240Y-005550D03*
X-001230Y-005550D03*
X000400Y-005580D03*
X000410Y-005580D03*
X000420Y-005580D03*
X000430Y-005550D03*
X000440Y-005550D03*
X000450Y-005550D03*
X000460Y-005520D03*
X000470Y-005520D03*
X000480Y-005520D03*
X003280Y-005610D03*
X003290Y-005610D03*
X003300Y-005610D03*
X004390Y-006360D03*
X004400Y-006360D03*
X004410Y-006360D03*
X004420Y-006390D03*
X004430Y-006390D03*
X004440Y-006390D03*
X003390Y-006960D03*
X003380Y-006960D03*
X003370Y-006960D03*
X003330Y-006990D03*
X003320Y-006990D03*
X003310Y-006990D03*
X003300Y-007020D03*
X003290Y-007020D03*
X003280Y-007020D03*
X001740Y-006990D03*
X001730Y-006990D03*
X001720Y-006990D03*
X001710Y-006960D03*
X001700Y-006960D03*
X001690Y-006960D03*
X001650Y-006900D03*
X001640Y-006900D03*
X001630Y-006900D03*
X001620Y-006870D03*
X001610Y-006870D03*
X001600Y-006870D03*
X001140Y-007050D03*
X001130Y-007050D03*
X001120Y-007050D03*
X001390Y-007440D03*
X001400Y-007440D03*
X001410Y-007440D03*
X001420Y-007470D03*
X001430Y-007470D03*
X001440Y-007470D03*
X001450Y-007500D03*
X001460Y-007500D03*
X001470Y-007500D03*
X005860Y-006420D03*
X005870Y-006420D03*
X005880Y-006420D03*
X007000Y-006420D03*
X007010Y-006420D03*
X007020Y-006420D03*
X006660Y-005760D03*
X006650Y-005760D03*
X006640Y-005760D03*
X006630Y-005760D03*
X006620Y-005760D03*
X006610Y-005760D03*
X006330Y-005880D03*
X006320Y-005880D03*
X006310Y-005880D03*
X006910Y-005580D03*
X006920Y-005580D03*
X006930Y-005580D03*
X007120Y-005430D03*
X007130Y-005430D03*
X007140Y-005430D03*
X007150Y-005400D03*
X007160Y-005400D03*
X007170Y-005400D03*
X007180Y-005370D03*
X007190Y-005370D03*
X007200Y-005370D03*
D24*
X005940Y-005955D03*
X005930Y-005955D03*
X005920Y-005955D03*
X005910Y-005955D03*
X005900Y-005955D03*
X005890Y-005955D03*
X005880Y-005955D03*
X005870Y-005955D03*
X005860Y-005955D03*
X005820Y-005985D03*
X005810Y-005985D03*
X005800Y-005985D03*
X005790Y-005985D03*
X005780Y-005985D03*
X005770Y-005985D03*
X005760Y-005985D03*
X005750Y-005985D03*
X005740Y-005985D03*
X005400Y-006045D03*
X005390Y-006045D03*
X005380Y-006045D03*
X005370Y-006045D03*
X005360Y-006045D03*
X005350Y-006045D03*
X005340Y-006045D03*
X005330Y-006045D03*
X005320Y-006045D03*
X005310Y-006045D03*
X005300Y-006045D03*
X005290Y-006045D03*
X005280Y-006045D03*
X005270Y-006045D03*
X005260Y-006045D03*
X005250Y-006045D03*
X005240Y-006045D03*
X005230Y-006045D03*
X005220Y-006045D03*
X005210Y-006045D03*
X005200Y-006045D03*
X005190Y-006045D03*
X005180Y-006045D03*
X005170Y-006045D03*
X005160Y-006045D03*
X005150Y-006045D03*
X005140Y-006045D03*
X005130Y-006045D03*
X005120Y-006045D03*
X005110Y-006045D03*
X004710Y-006045D03*
X004700Y-006045D03*
X004690Y-006045D03*
X004680Y-006045D03*
X004670Y-006045D03*
X004660Y-006045D03*
X004650Y-006045D03*
X004640Y-006045D03*
X004630Y-006045D03*
X004620Y-006045D03*
X004610Y-006045D03*
X004600Y-006045D03*
X004590Y-006045D03*
X004580Y-006045D03*
X004570Y-006045D03*
X004560Y-006045D03*
X004550Y-006045D03*
X004540Y-006045D03*
X004530Y-006045D03*
X004520Y-006045D03*
X004510Y-006045D03*
X004500Y-006045D03*
X004490Y-006045D03*
X004480Y-006045D03*
X004470Y-006045D03*
X004460Y-006045D03*
X004450Y-006045D03*
X003240Y-005655D03*
X003230Y-005655D03*
X003220Y-005655D03*
X004780Y-006585D03*
X004790Y-006585D03*
X004800Y-006585D03*
X004810Y-006585D03*
X004820Y-006585D03*
X004830Y-006585D03*
X004900Y-006615D03*
X004910Y-006615D03*
X004920Y-006615D03*
X004930Y-006615D03*
X004940Y-006615D03*
X004950Y-006615D03*
X004960Y-006615D03*
X004970Y-006615D03*
X004980Y-006615D03*
X005350Y-006615D03*
X005360Y-006615D03*
X005370Y-006615D03*
X005380Y-006615D03*
X005390Y-006615D03*
X005400Y-006615D03*
X005410Y-006615D03*
X005420Y-006615D03*
X005430Y-006615D03*
X005440Y-006615D03*
X005450Y-006615D03*
X005460Y-006615D03*
X005530Y-006585D03*
X005540Y-006585D03*
X005550Y-006585D03*
X007150Y-006495D03*
X007160Y-006495D03*
X007170Y-006495D03*
X007180Y-006495D03*
X007190Y-006495D03*
X007200Y-006495D03*
X007210Y-006495D03*
X007220Y-006495D03*
X007230Y-006495D03*
X002910Y-007245D03*
X002900Y-007245D03*
X002890Y-007245D03*
X002880Y-007245D03*
X002870Y-007245D03*
X002860Y-007245D03*
X002640Y-007305D03*
X002630Y-007305D03*
X002620Y-007305D03*
X002610Y-007305D03*
X002600Y-007305D03*
X002590Y-007305D03*
X002580Y-007305D03*
X002570Y-007305D03*
X002560Y-007305D03*
X002550Y-007305D03*
X002540Y-007305D03*
X002530Y-007305D03*
X002520Y-007305D03*
X002510Y-007305D03*
X002500Y-007305D03*
X002490Y-007305D03*
X002480Y-007305D03*
X002470Y-007305D03*
X002460Y-007305D03*
X002450Y-007305D03*
X002440Y-007305D03*
X002430Y-007305D03*
X002420Y-007305D03*
X002410Y-007305D03*
X001950Y-007575D03*
X001940Y-007575D03*
X001930Y-007575D03*
X001860Y-007605D03*
X001850Y-007605D03*
X001840Y-007605D03*
X001830Y-007605D03*
X001820Y-007605D03*
X001810Y-007605D03*
X001800Y-007605D03*
X001790Y-007605D03*
X001780Y-007605D03*
X001770Y-007605D03*
X001760Y-007605D03*
X001750Y-007605D03*
X001740Y-007605D03*
X001730Y-007605D03*
X001720Y-007605D03*
X001710Y-007605D03*
X001700Y-007605D03*
X001690Y-007605D03*
X001620Y-007575D03*
X001610Y-007575D03*
X001600Y-007575D03*
X000150Y-005775D03*
X000140Y-005775D03*
X000130Y-005775D03*
X000090Y-005805D03*
X000080Y-005805D03*
X000070Y-005805D03*
X000030Y-005835D03*
X000020Y-005835D03*
X000010Y-005835D03*
X-000030Y-005865D03*
X-000040Y-005865D03*
X-000050Y-005865D03*
X-000060Y-005865D03*
X-000070Y-005865D03*
X-000080Y-005865D03*
X-000090Y-005865D03*
X-000100Y-005865D03*
X-000110Y-005865D03*
X-000120Y-005865D03*
X-000130Y-005865D03*
X-000140Y-005865D03*
X-000210Y-005895D03*
X-000220Y-005895D03*
X-000230Y-005895D03*
X-000240Y-005895D03*
X-000250Y-005895D03*
X-000260Y-005895D03*
X-000270Y-005895D03*
X-000280Y-005895D03*
X-000290Y-005895D03*
X-000510Y-005895D03*
X-000520Y-005895D03*
X-000530Y-005895D03*
X-000540Y-005895D03*
X-000550Y-005895D03*
X-000560Y-005895D03*
X-000570Y-005895D03*
X-000580Y-005895D03*
X-000590Y-005895D03*
X-000600Y-005895D03*
X-000610Y-005895D03*
X-000620Y-005895D03*
X-000630Y-005895D03*
X-000640Y-005895D03*
X-000650Y-005895D03*
X-000720Y-005865D03*
X-000730Y-005865D03*
X-000740Y-005865D03*
X-000750Y-005865D03*
X-000760Y-005865D03*
X-000770Y-005865D03*
X-000780Y-005865D03*
X-000790Y-005865D03*
X-000800Y-005865D03*
X-000810Y-005835D03*
X-000820Y-005835D03*
X-000830Y-005835D03*
X-000840Y-005835D03*
X-000850Y-005835D03*
X-000860Y-005835D03*
X-000900Y-005805D03*
X-000910Y-005805D03*
X-000920Y-005805D03*
X-001350Y-005475D03*
X-001360Y-005475D03*
X-001370Y-005475D03*
X-001010Y-005265D03*
X-001000Y-005265D03*
X-000990Y-005265D03*
X-000980Y-005295D03*
X-000970Y-005295D03*
X-000960Y-005295D03*
X-000950Y-005325D03*
X-000940Y-005325D03*
X-000930Y-005325D03*
X000160Y-005295D03*
X000170Y-005295D03*
X000180Y-005295D03*
X000550Y-005475D03*
X000560Y-005475D03*
X000570Y-005475D03*
X000700Y-004725D03*
X000710Y-004725D03*
X000720Y-004725D03*
X-000990Y-004185D03*
X-001000Y-004185D03*
X-001010Y-004185D03*
X-001350Y-003975D03*
X-001360Y-003975D03*
X-001370Y-003975D03*
X-000920Y-003645D03*
X-000910Y-003645D03*
X-000900Y-003645D03*
X-000830Y-003615D03*
X-000820Y-003615D03*
X-000810Y-003615D03*
X-000800Y-003615D03*
X-000790Y-003615D03*
X-000780Y-003615D03*
X-000770Y-003585D03*
X-000760Y-003585D03*
X-000750Y-003585D03*
X-000740Y-003585D03*
X-000730Y-003585D03*
X-000720Y-003585D03*
X-000710Y-003585D03*
X-000700Y-003585D03*
X-000690Y-003585D03*
X-000680Y-003585D03*
X-000670Y-003585D03*
X-000660Y-003585D03*
X-000650Y-003585D03*
X-000640Y-003585D03*
X-000630Y-003585D03*
X-000620Y-003555D03*
X-000610Y-003555D03*
X-000600Y-003555D03*
X-000590Y-003555D03*
X-000580Y-003555D03*
X-000570Y-003555D03*
X-000560Y-003555D03*
X-000550Y-003555D03*
X-000540Y-003555D03*
X-000260Y-003555D03*
X-000250Y-003555D03*
X-000240Y-003555D03*
X-000230Y-003555D03*
X-000220Y-003555D03*
X-000210Y-003555D03*
X-000200Y-003585D03*
X-000190Y-003585D03*
X-000180Y-003585D03*
X-000170Y-003585D03*
X-000160Y-003585D03*
X-000150Y-003585D03*
X-000140Y-003585D03*
X-000130Y-003585D03*
X-000120Y-003585D03*
X-000110Y-003585D03*
X-000100Y-003585D03*
X-000090Y-003585D03*
X-000080Y-003585D03*
X-000070Y-003585D03*
X-000060Y-003585D03*
X-000020Y-003615D03*
X-000010Y-003615D03*
X000000Y-003615D03*
X000070Y-003645D03*
X000080Y-003645D03*
X000090Y-003645D03*
X000130Y-003675D03*
X000140Y-003675D03*
X000150Y-003675D03*
X000550Y-003975D03*
X000560Y-003975D03*
X000570Y-003975D03*
X003220Y-003945D03*
X003230Y-003945D03*
X003240Y-003945D03*
X004480Y-003585D03*
X004490Y-003585D03*
X004500Y-003585D03*
X005290Y-003585D03*
X005300Y-003585D03*
X005310Y-003585D03*
X005320Y-003585D03*
X005330Y-003585D03*
X005340Y-003585D03*
X005350Y-003585D03*
X005360Y-003585D03*
X005370Y-003585D03*
X005380Y-003585D03*
X005390Y-003585D03*
X005400Y-003585D03*
X005410Y-003585D03*
X005420Y-003585D03*
X005430Y-003585D03*
X005440Y-003585D03*
X005450Y-003585D03*
X005460Y-003585D03*
X005470Y-003585D03*
X005480Y-003585D03*
X005490Y-003585D03*
X005590Y-003615D03*
X005600Y-003615D03*
X005610Y-003615D03*
X005620Y-003615D03*
X005630Y-003615D03*
X005640Y-003615D03*
X005650Y-003615D03*
X005660Y-003615D03*
X005670Y-003615D03*
X005680Y-003615D03*
X005690Y-003615D03*
X005700Y-003615D03*
X005710Y-003615D03*
X005720Y-003615D03*
X005730Y-003615D03*
X005800Y-003645D03*
X005810Y-003645D03*
X005820Y-003645D03*
X005830Y-003645D03*
X005840Y-003645D03*
X005850Y-003645D03*
X005860Y-003645D03*
X005870Y-003645D03*
X005880Y-003645D03*
X005890Y-003645D03*
X005900Y-003645D03*
X005910Y-003645D03*
X006400Y-003795D03*
X006410Y-003795D03*
X006420Y-003795D03*
X007180Y-003105D03*
X007190Y-003105D03*
X007200Y-003105D03*
X005490Y-003015D03*
X005480Y-003015D03*
X005470Y-003015D03*
X005460Y-003015D03*
X005450Y-003015D03*
X005440Y-003015D03*
X005430Y-003015D03*
X005420Y-003015D03*
X005410Y-003015D03*
X005370Y-002985D03*
X005360Y-002985D03*
X005350Y-002985D03*
X005340Y-002985D03*
X005330Y-002985D03*
X005320Y-002985D03*
X005310Y-002985D03*
X005300Y-002985D03*
X005290Y-002985D03*
X005280Y-002985D03*
X005270Y-002985D03*
X005260Y-002985D03*
X005250Y-002985D03*
X005240Y-002985D03*
X005230Y-002985D03*
X005100Y-002985D03*
X005090Y-002985D03*
X005080Y-002985D03*
X005070Y-002985D03*
X005060Y-002985D03*
X005050Y-002985D03*
X005040Y-002985D03*
X005030Y-002985D03*
X005020Y-002985D03*
X005010Y-002985D03*
X005000Y-002985D03*
X004990Y-002985D03*
X004980Y-002985D03*
X004970Y-002985D03*
X004960Y-002985D03*
X004950Y-003015D03*
X004940Y-003015D03*
X004930Y-003015D03*
X004920Y-003015D03*
X004910Y-003015D03*
X004900Y-003015D03*
X004890Y-003015D03*
X004880Y-003015D03*
X004870Y-003015D03*
X004860Y-003015D03*
X004850Y-003015D03*
X004840Y-003015D03*
X004770Y-003045D03*
X004760Y-003045D03*
X004750Y-003045D03*
X002850Y-002355D03*
X002840Y-002355D03*
X002830Y-002355D03*
X002760Y-002325D03*
X002750Y-002325D03*
X002740Y-002325D03*
X002730Y-002325D03*
X002720Y-002325D03*
X002710Y-002325D03*
X001950Y-002025D03*
X001940Y-002025D03*
X001930Y-002025D03*
X001890Y-001995D03*
X001880Y-001995D03*
X001870Y-001995D03*
X001860Y-001995D03*
X001850Y-001995D03*
X001840Y-001995D03*
X001830Y-001995D03*
X001820Y-001995D03*
X001810Y-001995D03*
X001740Y-001995D03*
X001730Y-001995D03*
X001720Y-001995D03*
X001710Y-001995D03*
X001700Y-001995D03*
X001690Y-001995D03*
X001680Y-001995D03*
X001670Y-001995D03*
X001660Y-001995D03*
X001620Y-002025D03*
X001610Y-002025D03*
X001600Y-002025D03*
D25*
X001530Y-002055D03*
X001520Y-002055D03*
X001510Y-002055D03*
X001500Y-002085D03*
X001490Y-002085D03*
X001480Y-002085D03*
X001470Y-002085D03*
X001460Y-002085D03*
X001450Y-002085D03*
X001440Y-002115D03*
X001430Y-002115D03*
X001420Y-002115D03*
X002020Y-002055D03*
X002030Y-002055D03*
X002040Y-002055D03*
X002050Y-002085D03*
X002060Y-002085D03*
X002070Y-002085D03*
X002320Y-002295D03*
X002330Y-002295D03*
X002340Y-002295D03*
X002070Y-002415D03*
X002060Y-002415D03*
X002050Y-002415D03*
X002010Y-002445D03*
X002000Y-002445D03*
X001990Y-002445D03*
X001980Y-002475D03*
X001970Y-002475D03*
X001960Y-002475D03*
X001920Y-002505D03*
X001910Y-002505D03*
X001900Y-002505D03*
X001890Y-002505D03*
X001880Y-002505D03*
X001870Y-002505D03*
X001860Y-002535D03*
X001850Y-002535D03*
X001840Y-002535D03*
X001830Y-002565D03*
X001820Y-002565D03*
X001810Y-002565D03*
X002920Y-002385D03*
X002930Y-002385D03*
X002940Y-002385D03*
X002980Y-002415D03*
X002990Y-002415D03*
X003000Y-002415D03*
X003040Y-002445D03*
X003050Y-002445D03*
X003060Y-002445D03*
X003100Y-002475D03*
X003110Y-002475D03*
X003120Y-002475D03*
X003160Y-002505D03*
X003170Y-002505D03*
X003180Y-002505D03*
X003190Y-002535D03*
X003200Y-002535D03*
X003210Y-002535D03*
X003250Y-002565D03*
X003260Y-002565D03*
X003270Y-002565D03*
X003280Y-002595D03*
X003290Y-002595D03*
X003300Y-002595D03*
X003310Y-002625D03*
X003320Y-002625D03*
X003330Y-002625D03*
X004420Y-003225D03*
X004430Y-003225D03*
X004440Y-003225D03*
X004450Y-003195D03*
X004460Y-003195D03*
X004470Y-003195D03*
X004480Y-003165D03*
X004490Y-003165D03*
X004500Y-003165D03*
X004510Y-003165D03*
X004520Y-003165D03*
X004530Y-003165D03*
X004540Y-003135D03*
X004550Y-003135D03*
X004560Y-003135D03*
X004600Y-003105D03*
X004610Y-003105D03*
X004620Y-003105D03*
X005740Y-003105D03*
X005750Y-003105D03*
X005760Y-003105D03*
X005770Y-003135D03*
X005780Y-003135D03*
X005790Y-003135D03*
X005830Y-003165D03*
X005840Y-003165D03*
X005850Y-003165D03*
X005860Y-003195D03*
X005870Y-003195D03*
X005880Y-003195D03*
X007000Y-003195D03*
X007010Y-003195D03*
X007020Y-003195D03*
X007030Y-003165D03*
X007040Y-003165D03*
X007050Y-003165D03*
X007060Y-003165D03*
X007070Y-003165D03*
X007080Y-003165D03*
X007090Y-003135D03*
X007100Y-003135D03*
X007110Y-003135D03*
X006360Y-003765D03*
X006350Y-003765D03*
X006340Y-003765D03*
X006550Y-003855D03*
X006560Y-003855D03*
X006570Y-003855D03*
X006580Y-003855D03*
X006590Y-003855D03*
X006600Y-003855D03*
X006910Y-004035D03*
X006920Y-004035D03*
X006930Y-004035D03*
X006970Y-004065D03*
X006980Y-004065D03*
X006990Y-004065D03*
X007000Y-004095D03*
X007010Y-004095D03*
X007020Y-004095D03*
X007030Y-004125D03*
X007040Y-004125D03*
X007050Y-004125D03*
X007090Y-005445D03*
X007100Y-005445D03*
X007110Y-005445D03*
X007080Y-005475D03*
X007070Y-005475D03*
X007060Y-005475D03*
X007050Y-005505D03*
X007040Y-005505D03*
X007030Y-005505D03*
X007020Y-005505D03*
X007010Y-005505D03*
X007000Y-005505D03*
X006990Y-005535D03*
X006980Y-005535D03*
X006970Y-005535D03*
X006960Y-005565D03*
X006950Y-005565D03*
X006940Y-005565D03*
X006600Y-005745D03*
X006590Y-005745D03*
X006580Y-005745D03*
X006360Y-005865D03*
X006350Y-005865D03*
X006340Y-005865D03*
X006030Y-005955D03*
X006020Y-005955D03*
X006010Y-005955D03*
X005580Y-006015D03*
X005570Y-006015D03*
X005560Y-006015D03*
X005770Y-006465D03*
X005780Y-006465D03*
X005790Y-006465D03*
X005800Y-006465D03*
X005810Y-006465D03*
X005820Y-006465D03*
X005830Y-006435D03*
X005840Y-006435D03*
X005850Y-006435D03*
X005890Y-006405D03*
X005900Y-006405D03*
X005910Y-006405D03*
X005920Y-006375D03*
X005930Y-006375D03*
X005940Y-006375D03*
X005640Y-006555D03*
X005630Y-006555D03*
X005620Y-006555D03*
X004740Y-006555D03*
X004730Y-006555D03*
X004720Y-006555D03*
X004560Y-006465D03*
X004550Y-006465D03*
X004540Y-006465D03*
X004530Y-006465D03*
X004520Y-006465D03*
X004510Y-006465D03*
X004500Y-006435D03*
X004490Y-006435D03*
X004480Y-006435D03*
X004470Y-006405D03*
X004460Y-006405D03*
X004450Y-006405D03*
X003360Y-006975D03*
X003350Y-006975D03*
X003340Y-006975D03*
X003270Y-007035D03*
X003260Y-007035D03*
X003250Y-007035D03*
X003240Y-007065D03*
X003230Y-007065D03*
X003220Y-007065D03*
X003210Y-007095D03*
X003200Y-007095D03*
X003190Y-007095D03*
X003180Y-007095D03*
X003170Y-007095D03*
X003160Y-007095D03*
X003150Y-007125D03*
X003140Y-007125D03*
X003130Y-007125D03*
X003120Y-007155D03*
X003110Y-007155D03*
X003100Y-007155D03*
X003090Y-007155D03*
X003080Y-007155D03*
X003070Y-007155D03*
X002790Y-007275D03*
X002780Y-007275D03*
X002770Y-007275D03*
X002340Y-007305D03*
X002330Y-007305D03*
X002320Y-007305D03*
X002310Y-007305D03*
X002300Y-007305D03*
X002290Y-007305D03*
X002070Y-007215D03*
X002060Y-007215D03*
X002050Y-007215D03*
X002040Y-007185D03*
X002030Y-007185D03*
X002020Y-007185D03*
X001980Y-007155D03*
X001970Y-007155D03*
X001960Y-007155D03*
X001950Y-007125D03*
X001940Y-007125D03*
X001930Y-007125D03*
X001920Y-007125D03*
X001910Y-007125D03*
X001900Y-007125D03*
X001890Y-007095D03*
X001880Y-007095D03*
X001870Y-007095D03*
X001860Y-007065D03*
X001850Y-007065D03*
X001840Y-007065D03*
X001830Y-007065D03*
X001820Y-007065D03*
X001810Y-007065D03*
X001800Y-007035D03*
X001790Y-007035D03*
X001780Y-007035D03*
X001770Y-007005D03*
X001760Y-007005D03*
X001750Y-007005D03*
X001500Y-007515D03*
X001490Y-007515D03*
X001480Y-007515D03*
X001510Y-007545D03*
X001520Y-007545D03*
X001530Y-007545D03*
X001990Y-007545D03*
X002000Y-007545D03*
X002010Y-007545D03*
X002020Y-007545D03*
X002030Y-007545D03*
X002040Y-007545D03*
X002050Y-007515D03*
X002060Y-007515D03*
X002070Y-007515D03*
X000330Y-005655D03*
X000320Y-005655D03*
X000310Y-005655D03*
X000340Y-005625D03*
X000350Y-005625D03*
X000360Y-005625D03*
X000370Y-005595D03*
X000380Y-005595D03*
X000390Y-005595D03*
X000490Y-005505D03*
X000500Y-005505D03*
X000510Y-005505D03*
X000520Y-005475D03*
X000530Y-005475D03*
X000540Y-005475D03*
X-001050Y-005715D03*
X-001060Y-005715D03*
X-001070Y-005715D03*
X-001140Y-005655D03*
X-001150Y-005655D03*
X-001160Y-005655D03*
X-001170Y-005625D03*
X-001180Y-005625D03*
X-001190Y-005625D03*
X-001200Y-005595D03*
X-001210Y-005595D03*
X-001220Y-005595D03*
X-001290Y-005505D03*
X-001300Y-005505D03*
X-001310Y-005505D03*
X-001320Y-005505D03*
X-001330Y-005505D03*
X-001340Y-005505D03*
X-001310Y-003945D03*
X-001300Y-003945D03*
X-001290Y-003945D03*
X-001220Y-003855D03*
X-001210Y-003855D03*
X-001200Y-003855D03*
X-001190Y-003825D03*
X-001180Y-003825D03*
X-001170Y-003825D03*
X-001160Y-003795D03*
X-001150Y-003795D03*
X-001140Y-003795D03*
X-001100Y-003765D03*
X-001090Y-003765D03*
X-001080Y-003765D03*
X-001070Y-003735D03*
X-001060Y-003735D03*
X-001050Y-003735D03*
X000220Y-003735D03*
X000230Y-003735D03*
X000240Y-003735D03*
X000310Y-003795D03*
X000320Y-003795D03*
X000330Y-003795D03*
X000340Y-003825D03*
X000350Y-003825D03*
X000360Y-003825D03*
X000370Y-003855D03*
X000380Y-003855D03*
X000390Y-003855D03*
X000490Y-003945D03*
X000500Y-003945D03*
X000510Y-003945D03*
X000520Y-003975D03*
X000530Y-003975D03*
X000540Y-003975D03*
X007030Y-006435D03*
X007040Y-006435D03*
X007050Y-006435D03*
D26*
X006900Y-006240D03*
X006890Y-006240D03*
X006880Y-006240D03*
X004200Y-006090D03*
X004190Y-006090D03*
X004180Y-006090D03*
X004170Y-006060D03*
X004160Y-006060D03*
X004150Y-006060D03*
X003750Y-006480D03*
X003740Y-006480D03*
X003730Y-006480D03*
X003720Y-006540D03*
X003710Y-006540D03*
X003700Y-006540D03*
X003690Y-006570D03*
X003680Y-006570D03*
X003670Y-006570D03*
X002220Y-007350D03*
X002210Y-007350D03*
X002200Y-007350D03*
X002190Y-007350D03*
X002180Y-007350D03*
X002170Y-007350D03*
X001350Y-007350D03*
X001340Y-007350D03*
X001330Y-007350D03*
X001420Y-006660D03*
X001430Y-006660D03*
X001440Y-006660D03*
X006250Y-003660D03*
X006260Y-003660D03*
X006270Y-003660D03*
X006880Y-003360D03*
X006890Y-003360D03*
X006900Y-003360D03*
X004170Y-003540D03*
X004160Y-003540D03*
X004150Y-003540D03*
X003720Y-003090D03*
X003710Y-003090D03*
X003700Y-003090D03*
X003660Y-003000D03*
X003650Y-003000D03*
X003640Y-003000D03*
X001440Y-002970D03*
X001430Y-002970D03*
X001420Y-002970D03*
X001350Y-002250D03*
X001340Y-002250D03*
X001330Y-002250D03*
D27*
X006850Y-003660D03*
X006860Y-003660D03*
X006870Y-003660D03*
X006870Y-005970D03*
X006860Y-005970D03*
X006850Y-005970D03*
D28*
X006840Y-005940D03*
X006830Y-005940D03*
X006820Y-005940D03*
X004020Y-005760D03*
X004010Y-005760D03*
X004000Y-005760D03*
X006820Y-003660D03*
X006830Y-003660D03*
X006840Y-003660D03*
D29*
X006810Y-005940D03*
X006800Y-005940D03*
X006790Y-005940D03*
X001050Y-005760D03*
X001040Y-005760D03*
X001030Y-005760D03*
X001030Y-003870D03*
X001040Y-003870D03*
X001050Y-003870D03*
D30*
X004000Y-003855D03*
X004010Y-003855D03*
X004020Y-003855D03*
X006790Y-003675D03*
X006800Y-003675D03*
X006810Y-003675D03*
D31*
X006750Y-003705D03*
X006740Y-003705D03*
X006730Y-003705D03*
X006760Y-005925D03*
X006770Y-005925D03*
X006780Y-005925D03*
X001230Y-007065D03*
X001220Y-007065D03*
X001210Y-007065D03*
X001210Y-002535D03*
X001220Y-002535D03*
X001230Y-002535D03*
D32*
X001080Y-003780D03*
X001070Y-003780D03*
X001060Y-003780D03*
X000810Y-004800D03*
X000800Y-004800D03*
X000790Y-004800D03*
X006760Y-003690D03*
X006770Y-003690D03*
X006780Y-003690D03*
D33*
X006750Y-005910D03*
X006740Y-005910D03*
X006730Y-005910D03*
X003990Y-005940D03*
X003980Y-005940D03*
X003970Y-005940D03*
X001110Y-005940D03*
X001100Y-005940D03*
X001090Y-005940D03*
X001330Y-002970D03*
X001340Y-002970D03*
X001350Y-002970D03*
D34*
X001140Y-003555D03*
X001130Y-003555D03*
X001120Y-003555D03*
X003940Y-003585D03*
X003950Y-003585D03*
X003960Y-003585D03*
X006040Y-003495D03*
X006050Y-003495D03*
X006060Y-003495D03*
X006700Y-005895D03*
X006710Y-005895D03*
X006720Y-005895D03*
X001140Y-006045D03*
X001130Y-006045D03*
X001120Y-006045D03*
D35*
X001180Y-007050D03*
X001190Y-007050D03*
X001200Y-007050D03*
X003940Y-006030D03*
X003950Y-006030D03*
X003960Y-006030D03*
X006700Y-003720D03*
X006710Y-003720D03*
X006720Y-003720D03*
X001200Y-002550D03*
X001190Y-002550D03*
X001180Y-002550D03*
D36*
X002110Y-002250D03*
X002120Y-002250D03*
X002130Y-002250D03*
X002140Y-002250D03*
X002150Y-002250D03*
X002160Y-002250D03*
X001260Y-003270D03*
X001250Y-003270D03*
X001240Y-003270D03*
X001200Y-003390D03*
X001190Y-003390D03*
X001180Y-003390D03*
X003850Y-003390D03*
X003860Y-003390D03*
X003870Y-003390D03*
X004300Y-003420D03*
X004310Y-003420D03*
X004320Y-003420D03*
X004330Y-003420D03*
X004340Y-003420D03*
X004350Y-003420D03*
X006130Y-003570D03*
X006140Y-003570D03*
X006150Y-003570D03*
X006670Y-003780D03*
X006680Y-003780D03*
X006690Y-003780D03*
X006690Y-005850D03*
X006680Y-005850D03*
X006670Y-005850D03*
X006150Y-006060D03*
X006140Y-006060D03*
X006130Y-006060D03*
X004350Y-006180D03*
X004340Y-006180D03*
X004330Y-006180D03*
X004320Y-006180D03*
X004310Y-006180D03*
X004300Y-006180D03*
X003840Y-006300D03*
X003830Y-006300D03*
X003820Y-006300D03*
X001380Y-006630D03*
X001370Y-006630D03*
X001360Y-006630D03*
X001200Y-006210D03*
X001190Y-006210D03*
X001180Y-006210D03*
D37*
X001450Y-006675D03*
X001460Y-006675D03*
X001470Y-006675D03*
X002230Y-007335D03*
X002240Y-007335D03*
X002250Y-007335D03*
X003580Y-006705D03*
X003590Y-006705D03*
X003600Y-006705D03*
X003640Y-006615D03*
X003650Y-006615D03*
X003660Y-006615D03*
X006250Y-005955D03*
X006260Y-005955D03*
X006270Y-005955D03*
X003690Y-003045D03*
X003680Y-003045D03*
X003670Y-003045D03*
X003630Y-002955D03*
X003620Y-002955D03*
X003610Y-002955D03*
X002250Y-002265D03*
X002240Y-002265D03*
X002230Y-002265D03*
X001470Y-002925D03*
X001460Y-002925D03*
X001450Y-002925D03*
D38*
X001170Y-002535D03*
X001160Y-002535D03*
X001150Y-002535D03*
X003820Y-003315D03*
X003830Y-003315D03*
X003840Y-003315D03*
X004240Y-003465D03*
X004250Y-003465D03*
X004260Y-003465D03*
X004270Y-003465D03*
X004280Y-003465D03*
X004290Y-003465D03*
X006160Y-003585D03*
X006170Y-003585D03*
X006180Y-003585D03*
X006190Y-006015D03*
X006200Y-006015D03*
X006210Y-006015D03*
X006180Y-006045D03*
X006170Y-006045D03*
X006160Y-006045D03*
X004290Y-006165D03*
X004280Y-006165D03*
X004270Y-006165D03*
X002130Y-007365D03*
X002120Y-007365D03*
X002110Y-007365D03*
X002100Y-007365D03*
X002090Y-007365D03*
X002080Y-007365D03*
X001170Y-007065D03*
X001160Y-007065D03*
X001150Y-007065D03*
X001210Y-006285D03*
X001220Y-006285D03*
X001230Y-006285D03*
D39*
X001170Y-006135D03*
X001160Y-006135D03*
X001150Y-006135D03*
X003400Y-005415D03*
X003410Y-005415D03*
X003420Y-005415D03*
X003910Y-006105D03*
X003920Y-006105D03*
X003930Y-006105D03*
X003900Y-006165D03*
X003890Y-006165D03*
X003880Y-006165D03*
X003870Y-006225D03*
X003860Y-006225D03*
X003850Y-006225D03*
X004360Y-006195D03*
X004370Y-006195D03*
X004380Y-006195D03*
X006100Y-006075D03*
X006110Y-006075D03*
X006120Y-006075D03*
X003420Y-004185D03*
X003410Y-004185D03*
X003400Y-004185D03*
X003880Y-003435D03*
X003890Y-003435D03*
X003900Y-003435D03*
X004360Y-003405D03*
X004370Y-003405D03*
X004380Y-003405D03*
X006100Y-003525D03*
X006110Y-003525D03*
X006120Y-003525D03*
X002100Y-002235D03*
X002090Y-002235D03*
X002080Y-002235D03*
X001380Y-002985D03*
X001370Y-002985D03*
X001360Y-002985D03*
D40*
X001170Y-003480D03*
X001160Y-003480D03*
X001150Y-003480D03*
X003910Y-003510D03*
X003920Y-003510D03*
X003930Y-003510D03*
X006070Y-003510D03*
X006080Y-003510D03*
X006090Y-003510D03*
X006090Y-006090D03*
X006080Y-006090D03*
X006070Y-006090D03*
X006060Y-006120D03*
X006050Y-006120D03*
X006040Y-006120D03*
D41*
X004260Y-004800D03*
X004250Y-004800D03*
X004240Y-004800D03*
D42*
X004230Y-004800D03*
X004220Y-004800D03*
X004210Y-004800D03*
X001320Y-006870D03*
X001310Y-006870D03*
X001300Y-006870D03*
X001300Y-002730D03*
X001310Y-002730D03*
X001320Y-002730D03*
D43*
X004180Y-004815D03*
X004190Y-004815D03*
X004200Y-004815D03*
D44*
X004170Y-004815D03*
X004160Y-004815D03*
X004150Y-004815D03*
D45*
X004110Y-004800D03*
X004100Y-004800D03*
X004090Y-004800D03*
D46*
X004080Y-004800D03*
X004070Y-004800D03*
X004060Y-004800D03*
D47*
X004050Y-005625D03*
X004040Y-005625D03*
X004030Y-005625D03*
D48*
X003600Y-004800D03*
X003590Y-004800D03*
X003580Y-004800D03*
X004030Y-003990D03*
X004040Y-003990D03*
X004050Y-003990D03*
D49*
X003990Y-003675D03*
X003980Y-003675D03*
X003970Y-003675D03*
X001110Y-003675D03*
X001100Y-003675D03*
X001090Y-003675D03*
X001330Y-006645D03*
X001340Y-006645D03*
X001350Y-006645D03*
D50*
X001080Y-005835D03*
X001070Y-005835D03*
X001060Y-005835D03*
X003610Y-004785D03*
X003620Y-004785D03*
X003630Y-004785D03*
X001260Y-002535D03*
X001250Y-002535D03*
X001240Y-002535D03*
D51*
X003550Y-004800D03*
X003560Y-004800D03*
X003570Y-004800D03*
D52*
X003540Y-004800D03*
X003530Y-004800D03*
X003520Y-004800D03*
X001260Y-006780D03*
X001250Y-006780D03*
X001240Y-006780D03*
X001270Y-002790D03*
X001280Y-002790D03*
X001290Y-002790D03*
D53*
X000870Y-004800D03*
X000860Y-004800D03*
X000850Y-004800D03*
X003490Y-004800D03*
X003500Y-004800D03*
X003510Y-004800D03*
D54*
X003480Y-004800D03*
X003470Y-004800D03*
X003460Y-004800D03*
D55*
X003450Y-004785D03*
X003440Y-004785D03*
X003430Y-004785D03*
D56*
X003210Y-005655D03*
X003200Y-005655D03*
X003190Y-005655D03*
X000060Y-004725D03*
X000050Y-004725D03*
X000040Y-004725D03*
X-000030Y-004395D03*
X-000040Y-004395D03*
X-000050Y-004395D03*
X-000060Y-004365D03*
X-000070Y-004365D03*
X-000080Y-004365D03*
X-000150Y-004305D03*
X-000160Y-004305D03*
X-000170Y-004305D03*
X-000660Y-004305D03*
X-000670Y-004305D03*
X-000680Y-004305D03*
X-000750Y-004365D03*
X-000760Y-004365D03*
X-000770Y-004365D03*
X-001080Y-004215D03*
X-001090Y-004215D03*
X-001100Y-004215D03*
X-000350Y-004725D03*
X-000340Y-004725D03*
X-000330Y-004725D03*
X-000080Y-005085D03*
X-000070Y-005085D03*
X-000060Y-005085D03*
X-000180Y-005175D03*
X-000190Y-005175D03*
X-000200Y-005175D03*
X-000210Y-005205D03*
X-000220Y-005205D03*
X-000230Y-005205D03*
X-000240Y-005205D03*
X-000250Y-005205D03*
X-000260Y-005205D03*
X-000270Y-005205D03*
X-000280Y-005205D03*
X-000290Y-005205D03*
X-000540Y-005205D03*
X-000550Y-005205D03*
X-000560Y-005205D03*
X-000570Y-005205D03*
X-000580Y-005205D03*
X-000590Y-005205D03*
X-000660Y-005145D03*
X-000670Y-005145D03*
X-000680Y-005145D03*
X-000750Y-005085D03*
X-000760Y-005085D03*
X-000770Y-005085D03*
X-001080Y-005235D03*
X-001090Y-005235D03*
X-001100Y-005235D03*
X003190Y-003945D03*
X003200Y-003945D03*
X003210Y-003945D03*
D57*
X001290Y-006825D03*
X001280Y-006825D03*
X001270Y-006825D03*
D58*
X001020Y-004815D03*
X001010Y-004815D03*
X001000Y-004815D03*
D59*
X000990Y-004800D03*
X000980Y-004800D03*
X000970Y-004800D03*
D60*
X000960Y-004800D03*
X000950Y-004800D03*
X000940Y-004800D03*
D61*
X000930Y-004815D03*
X000920Y-004815D03*
X000910Y-004815D03*
D62*
X000900Y-004800D03*
X000890Y-004800D03*
X000880Y-004800D03*
D63*
X000840Y-004800D03*
X000830Y-004800D03*
X000820Y-004800D03*
D64*
X000690Y-004740D03*
X000680Y-004740D03*
X000670Y-004740D03*
X000660Y-004740D03*
X000650Y-004740D03*
X000640Y-004740D03*
X000210Y-005280D03*
X000200Y-005280D03*
X000190Y-005280D03*
X000150Y-005310D03*
X000140Y-005310D03*
X000130Y-005310D03*
X000120Y-005340D03*
X000110Y-005340D03*
X000100Y-005340D03*
X000090Y-005370D03*
X000080Y-005370D03*
X000070Y-005370D03*
X000030Y-005400D03*
X000020Y-005400D03*
X000010Y-005400D03*
X000000Y-005430D03*
X-000010Y-005430D03*
X-000020Y-005430D03*
X-000060Y-005460D03*
X-000070Y-005460D03*
X-000080Y-005460D03*
X-000120Y-005490D03*
X-000130Y-005490D03*
X-000140Y-005490D03*
X-000270Y-005520D03*
X-000280Y-005520D03*
X-000290Y-005520D03*
X-000540Y-005520D03*
X-000550Y-005520D03*
X-000560Y-005520D03*
X-000780Y-005430D03*
X-000790Y-005430D03*
X-000800Y-005430D03*
X-000840Y-005400D03*
X-000850Y-005400D03*
X-000860Y-005400D03*
X-000870Y-005370D03*
X-000880Y-005370D03*
X-000890Y-005370D03*
X-000900Y-005370D03*
X-000910Y-005370D03*
X-000920Y-005370D03*
X-001020Y-005250D03*
X-001030Y-005250D03*
X-001040Y-005250D03*
X-001380Y-005460D03*
X-001390Y-005460D03*
X-001400Y-005460D03*
X-000710Y-005880D03*
X-000700Y-005880D03*
X-000690Y-005880D03*
X-000680Y-005880D03*
X-000670Y-005880D03*
X-000660Y-005880D03*
X-000200Y-005880D03*
X-000190Y-005880D03*
X-000180Y-005880D03*
X-000170Y-005880D03*
X-000160Y-005880D03*
X-000150Y-005880D03*
X000190Y-004200D03*
X000200Y-004200D03*
X000210Y-004200D03*
X000180Y-004170D03*
X000170Y-004170D03*
X000160Y-004170D03*
X000150Y-004140D03*
X000140Y-004140D03*
X000130Y-004140D03*
X000120Y-004110D03*
X000110Y-004110D03*
X000100Y-004110D03*
X000090Y-004080D03*
X000080Y-004080D03*
X000070Y-004080D03*
X000060Y-004050D03*
X000050Y-004050D03*
X000040Y-004050D03*
X000030Y-004050D03*
X000020Y-004050D03*
X000010Y-004050D03*
X000000Y-004020D03*
X-000010Y-004020D03*
X-000020Y-004020D03*
X-000060Y-003990D03*
X-000070Y-003990D03*
X-000080Y-003990D03*
X-000270Y-003540D03*
X-000280Y-003540D03*
X-000290Y-003540D03*
X-000300Y-003540D03*
X-000310Y-003540D03*
X-000320Y-003540D03*
X-000330Y-003540D03*
X-000340Y-003540D03*
X-000350Y-003540D03*
X-000360Y-003540D03*
X-000370Y-003540D03*
X-000380Y-003540D03*
X-000390Y-003540D03*
X-000400Y-003540D03*
X-000410Y-003540D03*
X-000420Y-003540D03*
X-000430Y-003540D03*
X-000440Y-003540D03*
X-000450Y-003540D03*
X-000460Y-003540D03*
X-000470Y-003540D03*
X-000480Y-003540D03*
X-000490Y-003540D03*
X-000500Y-003540D03*
X-000510Y-003540D03*
X-000520Y-003540D03*
X-000530Y-003540D03*
X-001380Y-003990D03*
X-001390Y-003990D03*
X-001400Y-003990D03*
X-001040Y-004200D03*
X-001030Y-004200D03*
X-001020Y-004200D03*
X-000980Y-004140D03*
X-000970Y-004140D03*
X-000960Y-004140D03*
X-000950Y-004110D03*
X-000940Y-004110D03*
X-000930Y-004110D03*
X-000890Y-004080D03*
X-000880Y-004080D03*
X-000870Y-004080D03*
X-000860Y-004050D03*
X-000850Y-004050D03*
X-000840Y-004050D03*
X-000800Y-004020D03*
X-000790Y-004020D03*
X-000780Y-004020D03*
D65*
X-000500Y-004215D03*
X-000490Y-004215D03*
X-000480Y-004215D03*
X-000470Y-004215D03*
X-000460Y-004215D03*
X-000450Y-004215D03*
X-000320Y-004215D03*
X-000310Y-004215D03*
X-000300Y-004215D03*
X-000810Y-004395D03*
X-000820Y-004395D03*
X-000830Y-004395D03*
X-000290Y-004755D03*
X-000280Y-004755D03*
X-000270Y-004755D03*
X-000050Y-004755D03*
X-000040Y-004755D03*
X-000030Y-004755D03*
X-000020Y-004755D03*
X-000010Y-004755D03*
X000000Y-004755D03*
X000280Y-004215D03*
X000290Y-004215D03*
X000300Y-004215D03*
X000300Y-005205D03*
X000290Y-005205D03*
X000280Y-005205D03*
X000610Y-005475D03*
X000620Y-005475D03*
X000630Y-005475D03*
X-000330Y-005205D03*
X-000340Y-005205D03*
X-000350Y-005205D03*
X-000480Y-005205D03*
X-000490Y-005205D03*
X-000500Y-005205D03*
X-000510Y-005205D03*
X-000520Y-005205D03*
X-000530Y-005205D03*
X-001440Y-005475D03*
X-001450Y-005475D03*
X-001460Y-005475D03*
X-001470Y-005475D03*
X-001480Y-005475D03*
X-001490Y-005475D03*
D66*
X-001070Y-005235D03*
X-001060Y-005235D03*
X-001050Y-005235D03*
X-000830Y-005415D03*
X-000820Y-005415D03*
X-000810Y-005415D03*
X-000770Y-005445D03*
X-000760Y-005445D03*
X-000750Y-005445D03*
X-000740Y-005475D03*
X-000730Y-005475D03*
X-000720Y-005475D03*
X-000710Y-005475D03*
X-000700Y-005475D03*
X-000690Y-005475D03*
X-000680Y-005505D03*
X-000670Y-005505D03*
X-000660Y-005505D03*
X-000650Y-005505D03*
X-000640Y-005505D03*
X-000630Y-005505D03*
X-000620Y-005505D03*
X-000610Y-005505D03*
X-000600Y-005505D03*
X-000590Y-005505D03*
X-000580Y-005505D03*
X-000570Y-005505D03*
X-000530Y-005535D03*
X-000520Y-005535D03*
X-000510Y-005535D03*
X-000500Y-005535D03*
X-000490Y-005535D03*
X-000480Y-005535D03*
X-000470Y-005535D03*
X-000460Y-005535D03*
X-000450Y-005535D03*
X-000440Y-005535D03*
X-000430Y-005535D03*
X-000420Y-005535D03*
X-000410Y-005535D03*
X-000400Y-005535D03*
X-000390Y-005535D03*
X-000380Y-005535D03*
X-000370Y-005535D03*
X-000360Y-005535D03*
X-000350Y-005535D03*
X-000340Y-005535D03*
X-000330Y-005535D03*
X-000320Y-005535D03*
X-000310Y-005535D03*
X-000300Y-005535D03*
X-000260Y-005505D03*
X-000250Y-005505D03*
X-000240Y-005505D03*
X-000230Y-005505D03*
X-000220Y-005505D03*
X-000210Y-005505D03*
X-000200Y-005505D03*
X-000190Y-005505D03*
X-000180Y-005505D03*
X-000170Y-005505D03*
X-000160Y-005505D03*
X-000150Y-005505D03*
X-000110Y-005475D03*
X-000100Y-005475D03*
X-000090Y-005475D03*
X-000050Y-005445D03*
X-000040Y-005445D03*
X-000030Y-005445D03*
X000040Y-005385D03*
X000050Y-005385D03*
X000060Y-005385D03*
X000220Y-005235D03*
X000230Y-005235D03*
X000240Y-005235D03*
X000240Y-004725D03*
X000250Y-004725D03*
X000260Y-004725D03*
X000270Y-004725D03*
X000280Y-004725D03*
X000290Y-004725D03*
X000300Y-004725D03*
X000310Y-004725D03*
X000320Y-004725D03*
X000330Y-004725D03*
X000340Y-004725D03*
X000350Y-004725D03*
X000360Y-004725D03*
X000370Y-004725D03*
X000380Y-004725D03*
X000390Y-004725D03*
X000400Y-004725D03*
X000410Y-004725D03*
X000420Y-004725D03*
X000430Y-004725D03*
X000440Y-004725D03*
X000450Y-004725D03*
X000460Y-004725D03*
X000470Y-004725D03*
X000480Y-004725D03*
X000490Y-004725D03*
X000500Y-004725D03*
X000510Y-004725D03*
X000520Y-004725D03*
X000530Y-004725D03*
X000540Y-004725D03*
X000550Y-004725D03*
X000560Y-004725D03*
X000570Y-004725D03*
X000580Y-004725D03*
X000590Y-004725D03*
X000600Y-004725D03*
X000610Y-004725D03*
X000620Y-004725D03*
X000630Y-004725D03*
X000230Y-004725D03*
X000220Y-004725D03*
X000210Y-004725D03*
X000200Y-004725D03*
X000190Y-004725D03*
X000180Y-004725D03*
X000170Y-004725D03*
X000160Y-004725D03*
X000150Y-004725D03*
X000140Y-004725D03*
X000130Y-004725D03*
X000120Y-004725D03*
X000110Y-004725D03*
X000100Y-004725D03*
X000090Y-004725D03*
X000080Y-004725D03*
X000070Y-004725D03*
X-000390Y-004725D03*
X-000400Y-004725D03*
X-000410Y-004725D03*
X000220Y-004215D03*
X000230Y-004215D03*
X000240Y-004215D03*
X-000030Y-004005D03*
X-000040Y-004005D03*
X-000050Y-004005D03*
X-000090Y-003975D03*
X-000100Y-003975D03*
X-000110Y-003975D03*
X-000120Y-003975D03*
X-000130Y-003975D03*
X-000140Y-003975D03*
X-000150Y-003975D03*
X-000160Y-003975D03*
X-000170Y-003975D03*
X-000210Y-003945D03*
X-000220Y-003945D03*
X-000230Y-003945D03*
X-000240Y-003945D03*
X-000250Y-003945D03*
X-000260Y-003945D03*
X-000270Y-003945D03*
X-000280Y-003945D03*
X-000290Y-003945D03*
X-000540Y-003945D03*
X-000550Y-003945D03*
X-000560Y-003945D03*
X-000570Y-003945D03*
X-000580Y-003945D03*
X-000590Y-003945D03*
X-000600Y-003945D03*
X-000610Y-003945D03*
X-000620Y-003945D03*
X-000660Y-003975D03*
X-000670Y-003975D03*
X-000680Y-003975D03*
X-000690Y-003975D03*
X-000700Y-003975D03*
X-000710Y-003975D03*
X-000720Y-003975D03*
X-000730Y-003975D03*
X-000740Y-003975D03*
X-000750Y-004005D03*
X-000760Y-004005D03*
X-000770Y-004005D03*
X-000810Y-004035D03*
X-000820Y-004035D03*
X-000830Y-004035D03*
X-000900Y-004095D03*
X-000910Y-004095D03*
X-000920Y-004095D03*
X-001050Y-004215D03*
X-001060Y-004215D03*
X-001070Y-004215D03*
D67*
X-000740Y-004350D03*
X-000730Y-004350D03*
X-000720Y-004350D03*
X-000710Y-004320D03*
X-000700Y-004320D03*
X-000690Y-004320D03*
X-000140Y-004320D03*
X-000130Y-004320D03*
X-000120Y-004320D03*
X-000110Y-004350D03*
X-000100Y-004350D03*
X-000090Y-004350D03*
X000250Y-004230D03*
X000260Y-004230D03*
X000270Y-004230D03*
X000580Y-003990D03*
X000590Y-003990D03*
X000600Y-003990D03*
X-000180Y-003960D03*
X-000190Y-003960D03*
X-000200Y-003960D03*
X-000300Y-003930D03*
X-000310Y-003930D03*
X-000320Y-003930D03*
X-000330Y-003930D03*
X-000340Y-003930D03*
X-000350Y-003930D03*
X-000360Y-003930D03*
X-000370Y-003930D03*
X-000380Y-003930D03*
X-000390Y-003930D03*
X-000400Y-003930D03*
X-000410Y-003930D03*
X-000420Y-003930D03*
X-000430Y-003930D03*
X-000440Y-003930D03*
X-000450Y-003930D03*
X-000460Y-003930D03*
X-000470Y-003930D03*
X-000480Y-003930D03*
X-000490Y-003930D03*
X-000500Y-003930D03*
X-000510Y-003930D03*
X-000520Y-003930D03*
X-000530Y-003930D03*
X-000630Y-003960D03*
X-000640Y-003960D03*
X-000650Y-003960D03*
X-001410Y-003990D03*
X-001420Y-003990D03*
X-001430Y-003990D03*
X-000470Y-004740D03*
X-000460Y-004740D03*
X-000450Y-004740D03*
X-000440Y-004740D03*
X-000430Y-004740D03*
X-000420Y-004740D03*
X-000380Y-004740D03*
X-000370Y-004740D03*
X-000360Y-004740D03*
X-000110Y-005100D03*
X-000100Y-005100D03*
X-000090Y-005100D03*
X-000120Y-005130D03*
X-000130Y-005130D03*
X-000140Y-005130D03*
X-000150Y-005160D03*
X-000160Y-005160D03*
X-000170Y-005160D03*
X-000050Y-005070D03*
X-000040Y-005070D03*
X-000030Y-005070D03*
X000250Y-005220D03*
X000260Y-005220D03*
X000270Y-005220D03*
X000580Y-005460D03*
X000590Y-005460D03*
X000600Y-005460D03*
X-000630Y-005160D03*
X-000640Y-005160D03*
X-000650Y-005160D03*
X-000690Y-005130D03*
X-000700Y-005130D03*
X-000710Y-005130D03*
X-000720Y-005100D03*
X-000730Y-005100D03*
X-000740Y-005100D03*
X-001410Y-005460D03*
X-001420Y-005460D03*
X-001430Y-005460D03*
D68*
X-000620Y-005190D03*
X-000610Y-005190D03*
X-000600Y-005190D03*
X-000320Y-005220D03*
X-000310Y-005220D03*
X-000300Y-005220D03*
X-000020Y-005040D03*
X-000010Y-005040D03*
X000000Y-005040D03*
X000010Y-004740D03*
X000020Y-004740D03*
X000030Y-004740D03*
X-000300Y-004740D03*
X-000310Y-004740D03*
X-000320Y-004740D03*
X-000020Y-004410D03*
X-000010Y-004410D03*
X000000Y-004410D03*
X-000180Y-004290D03*
X-000190Y-004290D03*
X-000200Y-004290D03*
X-000210Y-004290D03*
X-000220Y-004290D03*
X-000230Y-004290D03*
X-000330Y-004230D03*
X-000340Y-004230D03*
X-000350Y-004230D03*
X-000360Y-004230D03*
X-000370Y-004230D03*
X-000380Y-004230D03*
X-000390Y-004230D03*
X-000400Y-004230D03*
X-000410Y-004230D03*
X-000420Y-004230D03*
X-000430Y-004230D03*
X-000440Y-004230D03*
X-000570Y-004290D03*
X-000580Y-004290D03*
X-000590Y-004290D03*
X-000600Y-004290D03*
X-000610Y-004290D03*
X-000620Y-004290D03*
X-000630Y-004290D03*
X-000640Y-004290D03*
X-000650Y-004290D03*
X-000780Y-004380D03*
X-000790Y-004380D03*
X-000800Y-004380D03*
X-001440Y-004020D03*
X-001450Y-004020D03*
X-001460Y-004020D03*
X-001470Y-004020D03*
X-001480Y-004020D03*
X-001490Y-004020D03*
M02*
