G75*
G70*
%OFA0B0*%
%FSLAX24Y24*%
%IPPOS*%
%LPD*%
%AMOC8*
5,1,8,0,0,1.08239X$1,22.5*
%
%ADD10C,0.0000*%
%ADD11C,0.0060*%
%ADD12C,0.0130*%
%ADD13C,0.0080*%
%ADD14C,0.0020*%
%ADD15C,0.0050*%
D10*
X003851Y000105D02*
X003851Y018100D01*
X045288Y018100D01*
X045288Y000105D01*
X003851Y000105D01*
X003851Y006843D02*
X003851Y011243D01*
X045288Y011243D02*
X045288Y006843D01*
D11*
X041571Y012510D02*
X040930Y012510D01*
X041144Y012510D02*
X041144Y012830D01*
X041250Y012937D01*
X041464Y012937D01*
X041571Y012830D01*
X041571Y012510D01*
X040571Y012617D02*
X040571Y012830D01*
X040464Y012937D01*
X040464Y013155D02*
X040037Y013155D01*
X039930Y013261D01*
X039930Y013475D01*
X040037Y013582D01*
X040250Y013799D02*
X040250Y014226D01*
X040250Y014444D02*
X040250Y014764D01*
X040357Y014871D01*
X040464Y014871D01*
X040571Y014764D01*
X040571Y014444D01*
X039930Y014444D01*
X039930Y014764D01*
X040037Y014871D01*
X040144Y014871D01*
X040250Y014764D01*
X040037Y015088D02*
X040250Y015302D01*
X040571Y015302D01*
X040250Y015302D02*
X040037Y015515D01*
X039930Y015515D01*
X040250Y015733D02*
X040250Y016160D01*
X040144Y016377D02*
X040250Y016484D01*
X040250Y016698D01*
X040357Y016804D01*
X040464Y016804D01*
X040571Y016698D01*
X040571Y016484D01*
X040464Y016377D01*
X040144Y016377D02*
X040037Y016377D01*
X039930Y016484D01*
X039930Y016698D01*
X040037Y016804D01*
X040144Y017022D02*
X039930Y017235D01*
X040144Y017449D01*
X040571Y017449D01*
X040250Y017449D02*
X040250Y017022D01*
X040144Y017022D02*
X040571Y017022D01*
X040930Y016912D02*
X040930Y016699D01*
X041037Y016592D01*
X041464Y016592D01*
X041571Y016699D01*
X041571Y016912D01*
X041464Y017019D01*
X041037Y017019D02*
X040930Y016912D01*
X041037Y016375D02*
X041250Y016375D01*
X041357Y016268D01*
X041357Y015948D01*
X041357Y016161D02*
X041571Y016375D01*
X041037Y016375D02*
X040930Y016268D01*
X040930Y015948D01*
X041571Y015948D01*
X040930Y015729D02*
X041571Y015088D01*
X041464Y015195D02*
X041037Y015195D01*
X040930Y015302D01*
X040930Y015515D01*
X041037Y015622D01*
X041464Y015622D01*
X041571Y015515D01*
X041571Y015302D01*
X041464Y015195D01*
X041571Y014871D02*
X040930Y014871D01*
X040930Y014444D02*
X041571Y014871D01*
X041571Y014444D02*
X040930Y014444D01*
X040037Y015088D02*
X039930Y015088D01*
X040464Y013582D02*
X040571Y013475D01*
X040571Y013261D01*
X040464Y013155D01*
X040037Y012937D02*
X039930Y012830D01*
X039930Y012617D01*
X040037Y012510D01*
X040464Y012510D01*
X040571Y012617D01*
X041144Y013155D02*
X041464Y013155D01*
X041571Y013261D01*
X041571Y013582D01*
X041677Y013582D02*
X041784Y013475D01*
X041784Y013368D01*
X041677Y013582D02*
X041144Y013582D01*
D12*
X040536Y007926D02*
X040345Y007735D01*
X040345Y007830D02*
X040250Y007926D01*
X040060Y007926D01*
X039965Y007830D01*
X039965Y007545D01*
X040536Y007545D01*
X040345Y007545D02*
X040345Y007830D01*
X040536Y007281D02*
X040536Y006901D01*
X039965Y006901D01*
X039965Y007281D01*
X040250Y007091D02*
X040250Y006901D01*
X039965Y006636D02*
X039965Y006256D01*
X039965Y006446D02*
X040536Y006446D01*
X040536Y005992D02*
X040536Y005612D01*
X039965Y005612D01*
X039965Y005372D02*
X039965Y005182D01*
X039965Y005277D02*
X040536Y005277D01*
X040536Y005182D02*
X040536Y005372D01*
X039965Y004918D02*
X039965Y004537D01*
X040536Y004537D01*
X040250Y004537D02*
X040250Y004727D01*
X040965Y004294D02*
X041155Y004484D01*
X041536Y004484D01*
X041250Y004484D02*
X041250Y004104D01*
X041155Y004104D02*
X040965Y004294D01*
X041155Y004104D02*
X041536Y004104D01*
X041536Y003839D02*
X040965Y003839D01*
X040965Y003459D02*
X041536Y003839D01*
X040536Y003533D02*
X040536Y003248D01*
X039965Y003248D01*
X039965Y003533D01*
X040060Y003629D01*
X040155Y003629D01*
X040250Y003533D01*
X040250Y003248D01*
X040250Y002984D02*
X040250Y002604D01*
X040345Y002339D02*
X040250Y002244D01*
X040250Y002054D01*
X040155Y001959D01*
X040060Y001959D01*
X039965Y002054D01*
X039965Y002244D01*
X040060Y002339D01*
X040345Y002339D02*
X040441Y002339D01*
X040536Y002244D01*
X040536Y002054D01*
X040441Y001959D01*
X040441Y001695D02*
X040060Y001695D01*
X039965Y001600D01*
X039965Y001315D01*
X040536Y001315D01*
X040536Y001600D01*
X040441Y001695D01*
X041250Y002170D02*
X041250Y002550D01*
X040965Y002815D02*
X041536Y002815D01*
X041536Y003195D01*
X041536Y003459D02*
X040965Y003459D01*
X040536Y003533D02*
X040441Y003629D01*
X040345Y003629D01*
X040250Y003533D01*
X041060Y002360D02*
X041441Y002360D01*
X044465Y002100D02*
X044465Y001910D01*
X044560Y001815D01*
X044941Y001815D01*
X044560Y002195D01*
X044941Y002195D01*
X045036Y002100D01*
X045036Y001910D01*
X044941Y001815D01*
X045036Y001550D02*
X045036Y001170D01*
X044655Y001550D01*
X044560Y001550D01*
X044465Y001455D01*
X044465Y001265D01*
X044560Y001170D01*
X044465Y002100D02*
X044560Y002195D01*
X044655Y002459D02*
X044465Y002649D01*
X045036Y002649D01*
X045036Y002459D02*
X045036Y002839D01*
X044941Y003104D02*
X045036Y003199D01*
X045036Y003389D01*
X044941Y003484D01*
X044845Y003484D01*
X044750Y003389D01*
X044750Y003294D01*
X044750Y003389D02*
X044655Y003484D01*
X044560Y003484D01*
X044465Y003389D01*
X044465Y003199D01*
X044560Y003104D01*
X040536Y001050D02*
X040155Y001050D01*
X039965Y000860D01*
X040155Y000670D01*
X040536Y000670D01*
X040250Y000670D02*
X040250Y001050D01*
D13*
X045328Y007212D02*
X045898Y007212D01*
X045898Y008255D01*
X046745Y008255D01*
X047040Y007960D01*
X048536Y007960D01*
X048536Y008294D01*
X048999Y008294D01*
X048999Y009791D01*
X048536Y009791D01*
X048536Y010125D01*
X047040Y010125D01*
X046745Y009830D01*
X045898Y009830D01*
X045898Y010873D01*
X045328Y010873D01*
X045328Y010558D02*
X045328Y007527D01*
X041907Y009855D02*
X041601Y009548D01*
X041044Y010105D02*
X041350Y010412D01*
X003811Y010558D02*
X003811Y007527D01*
X003811Y007212D02*
X003240Y007212D01*
X003240Y008255D01*
X002394Y008255D01*
X002099Y007960D01*
X000603Y007960D01*
X000603Y008294D01*
X000140Y008294D01*
X000140Y009791D01*
X000603Y009791D01*
X000603Y010125D01*
X002099Y010125D01*
X002394Y009830D01*
X003240Y009830D01*
X003240Y010873D01*
X003811Y010873D01*
D14*
X040779Y010365D02*
X040909Y010235D01*
X040961Y010235D01*
X041013Y010287D01*
X041013Y010339D01*
X040883Y010468D01*
X040987Y010469D02*
X040987Y010573D01*
X041143Y010417D01*
X041091Y010365D02*
X041195Y010469D01*
D15*
X040091Y010561D02*
X039990Y010484D01*
X040041Y010523D02*
X039925Y010674D01*
X039913Y010585D01*
X039819Y010553D02*
X039775Y010559D01*
X039724Y010520D01*
X039719Y010475D01*
X039796Y010375D01*
X039840Y010369D01*
X039890Y010408D01*
X039896Y010452D01*
X042463Y009738D02*
X042463Y009612D01*
X042495Y009580D01*
X042558Y009580D01*
X042590Y009612D01*
X042684Y009580D02*
X042811Y009707D01*
X042811Y009738D01*
X042779Y009770D01*
X042716Y009770D01*
X042684Y009738D01*
X042590Y009738D02*
X042558Y009770D01*
X042495Y009770D01*
X042463Y009738D01*
X042684Y009580D02*
X042811Y009580D01*
X040497Y008311D02*
X040430Y008378D01*
X040295Y008244D01*
X040340Y008289D02*
X040407Y008221D01*
X040452Y008221D01*
X040497Y008266D01*
X040497Y008311D01*
X040385Y008244D02*
X040385Y008154D01*
X040451Y008088D02*
X040541Y007998D01*
X040496Y008043D02*
X040631Y008177D01*
X040541Y008177D01*
X042888Y011288D02*
X042888Y011383D01*
X042920Y011415D01*
X042983Y011415D01*
X043015Y011383D01*
X043015Y011288D01*
X043078Y011288D02*
X042888Y011288D01*
X043015Y011351D02*
X043078Y011415D01*
X043078Y011509D02*
X042951Y011636D01*
X042920Y011636D01*
X042888Y011604D01*
X042888Y011541D01*
X042920Y011509D01*
X043078Y011509D02*
X043078Y011636D01*
M02*
