G75*
G70*
%OFA0B0*%
%FSLAX24Y24*%
%IPPOS*%
%LPD*%
%AMOC8*
5,1,8,0,0,1.08239X$1,22.5*
%
%ADD10R,0.0236X0.0315*%
%ADD11R,0.0354X0.0315*%
%ADD12R,0.0400X0.0600*%
%ADD13R,0.2000X0.0900*%
%ADD14R,0.1500X0.0760*%
%ADD15R,0.0600X0.0400*%
%ADD16R,0.0080X0.0080*%
D10*
G36*
X003444Y001639D02*
X003277Y001806D01*
X003498Y002027D01*
X003665Y001860D01*
X003444Y001639D01*
G37*
G36*
X004252Y001723D02*
X004085Y001890D01*
X004306Y002111D01*
X004473Y001944D01*
X004252Y001723D01*
G37*
G36*
X003890Y002085D02*
X003723Y002252D01*
X003944Y002473D01*
X004111Y002306D01*
X003890Y002085D01*
G37*
D11*
G36*
X003805Y001277D02*
X003555Y001527D01*
X003777Y001749D01*
X004027Y001499D01*
X003805Y001277D01*
G37*
D12*
X004538Y001000D03*
X005338Y001000D03*
G36*
X003463Y-000136D02*
X003180Y000147D01*
X003603Y000570D01*
X003886Y000287D01*
X003463Y-000136D01*
G37*
G36*
X002897Y000430D02*
X002614Y000713D01*
X003037Y001136D01*
X003320Y000853D01*
X002897Y000430D01*
G37*
G36*
X002309Y001368D02*
X001977Y001146D01*
X001645Y001644D01*
X001977Y001866D01*
X002309Y001368D01*
G37*
G36*
X002975Y001811D02*
X002643Y001589D01*
X002311Y002087D01*
X002643Y002309D01*
X002975Y001811D01*
G37*
D13*
X006678Y002678D03*
X006678Y000938D03*
X006678Y-000803D03*
X-032740Y-000803D03*
X-032740Y000938D03*
X-032740Y002678D03*
D14*
X006500Y004438D03*
X006500Y006625D03*
D15*
X004813Y003400D03*
X004813Y002600D03*
D16*
X001063Y000875D03*
X-031188Y001063D03*
M02*
