G75*
G70*
%OFA0B0*%
%FSLAX24Y24*%
%IPPOS*%
%LPD*%
%AMOC8*
5,1,8,0,0,1.08239X$1,22.5*
%
%ADD10C,0.0060*%
%ADD11C,0.0130*%
%ADD12C,0.0080*%
%ADD13C,0.0020*%
%ADD14C,0.0050*%
D10*
X002436Y004405D02*
X002863Y004405D01*
X002970Y004512D01*
X002970Y004725D01*
X002863Y004832D01*
X002863Y005050D02*
X002436Y005050D01*
X002329Y005156D01*
X002329Y005370D01*
X002436Y005477D01*
X002650Y005694D02*
X002650Y006121D01*
X002650Y006339D02*
X002650Y006659D01*
X002756Y006766D01*
X002863Y006766D01*
X002970Y006659D01*
X002970Y006339D01*
X002329Y006339D01*
X002329Y006659D01*
X002436Y006766D01*
X002543Y006766D01*
X002650Y006659D01*
X002436Y006983D02*
X002650Y007197D01*
X002970Y007197D01*
X002650Y007197D02*
X002436Y007410D01*
X002329Y007410D01*
X002650Y007628D02*
X002650Y008055D01*
X002543Y008272D02*
X002650Y008379D01*
X002650Y008593D01*
X002756Y008699D01*
X002863Y008699D01*
X002970Y008593D01*
X002970Y008379D01*
X002863Y008272D01*
X002543Y008272D02*
X002436Y008272D01*
X002329Y008379D01*
X002329Y008593D01*
X002436Y008699D01*
X002543Y008917D02*
X002329Y009130D01*
X002543Y009344D01*
X002970Y009344D01*
X002650Y009344D02*
X002650Y008917D01*
X002543Y008917D02*
X002970Y008917D01*
X003329Y008807D02*
X003329Y008594D01*
X003436Y008487D01*
X003863Y008487D01*
X003970Y008594D01*
X003970Y008807D01*
X003863Y008914D01*
X003436Y008914D02*
X003329Y008807D01*
X003436Y008270D02*
X003650Y008270D01*
X003756Y008163D01*
X003756Y007843D01*
X003756Y008056D02*
X003970Y008270D01*
X003436Y008270D02*
X003329Y008163D01*
X003329Y007843D01*
X003970Y007843D01*
X003329Y007624D02*
X003970Y006983D01*
X003863Y007090D02*
X003436Y007090D01*
X003329Y007197D01*
X003329Y007410D01*
X003436Y007517D01*
X003863Y007517D01*
X003970Y007410D01*
X003970Y007197D01*
X003863Y007090D01*
X003970Y006766D02*
X003329Y006766D01*
X003329Y006339D02*
X003970Y006766D01*
X003970Y006339D02*
X003329Y006339D01*
X002436Y006983D02*
X002329Y006983D01*
X002863Y005477D02*
X002970Y005370D01*
X002970Y005156D01*
X002863Y005050D01*
X002436Y004832D02*
X002329Y004725D01*
X002329Y004512D01*
X002436Y004405D01*
X003329Y004405D02*
X003970Y004405D01*
X003970Y004725D01*
X003863Y004832D01*
X003650Y004832D01*
X003543Y004725D01*
X003543Y004405D01*
X003543Y005050D02*
X003863Y005050D01*
X003970Y005156D01*
X003970Y005477D01*
X004077Y005477D02*
X004184Y005370D01*
X004184Y005263D01*
X004077Y005477D02*
X003543Y005477D01*
D11*
X002365Y-000275D02*
X002365Y-000560D01*
X002935Y-000560D01*
X002745Y-000560D02*
X002745Y-000275D01*
X002650Y-000179D01*
X002460Y-000179D01*
X002365Y-000275D01*
X002745Y-000370D02*
X002935Y-000179D01*
X002935Y-000824D02*
X002935Y-001204D01*
X002365Y-001204D01*
X002365Y-000824D01*
X002650Y-001014D02*
X002650Y-001204D01*
X002365Y-001469D02*
X002365Y-001849D01*
X002365Y-001659D02*
X002935Y-001659D01*
X002935Y-002113D02*
X002935Y-002493D01*
X002365Y-002493D01*
X002365Y-002733D02*
X002365Y-002923D01*
X002365Y-002828D02*
X002935Y-002828D01*
X002935Y-002923D02*
X002935Y-002733D01*
X002365Y-003187D02*
X002365Y-003568D01*
X002935Y-003568D01*
X002650Y-003568D02*
X002650Y-003378D01*
X003365Y-003811D02*
X003555Y-003621D01*
X003935Y-003621D01*
X003650Y-003621D02*
X003650Y-004001D01*
X003555Y-004001D02*
X003365Y-003811D01*
X003555Y-004001D02*
X003935Y-004001D01*
X003935Y-004266D02*
X003365Y-004266D01*
X003365Y-004646D02*
X003935Y-004266D01*
X002935Y-004572D02*
X002935Y-004857D01*
X002365Y-004857D01*
X002365Y-004572D01*
X002460Y-004476D01*
X002555Y-004476D01*
X002650Y-004572D01*
X002650Y-004857D01*
X002650Y-005121D02*
X002650Y-005501D01*
X002745Y-005766D02*
X002650Y-005861D01*
X002650Y-006051D01*
X002555Y-006146D01*
X002460Y-006146D01*
X002365Y-006051D01*
X002365Y-005861D01*
X002460Y-005766D01*
X002745Y-005766D02*
X002840Y-005766D01*
X002935Y-005861D01*
X002935Y-006051D01*
X002840Y-006146D01*
X002840Y-006410D02*
X002460Y-006410D01*
X002365Y-006505D01*
X002365Y-006790D01*
X002935Y-006790D01*
X002935Y-006505D01*
X002840Y-006410D01*
X003650Y-005935D02*
X003650Y-005555D01*
X003365Y-005290D02*
X003935Y-005290D01*
X003935Y-004910D01*
X003935Y-004646D02*
X003365Y-004646D01*
X002935Y-004572D02*
X002840Y-004476D01*
X002745Y-004476D01*
X002650Y-004572D01*
X003460Y-005745D02*
X003840Y-005745D01*
X006865Y-006005D02*
X006865Y-006195D01*
X006960Y-006290D01*
X007340Y-006290D01*
X006960Y-005910D01*
X007340Y-005910D01*
X007435Y-006005D01*
X007435Y-006195D01*
X007340Y-006290D01*
X007435Y-006555D02*
X007435Y-006935D01*
X007055Y-006555D01*
X006960Y-006555D01*
X006865Y-006650D01*
X006865Y-006840D01*
X006960Y-006935D01*
X006865Y-006005D02*
X006960Y-005910D01*
X007055Y-005646D02*
X006865Y-005456D01*
X007435Y-005456D01*
X007435Y-005646D02*
X007435Y-005266D01*
X007340Y-005001D02*
X007435Y-004906D01*
X007435Y-004716D01*
X007340Y-004621D01*
X007245Y-004621D01*
X007150Y-004716D01*
X007150Y-004811D01*
X007150Y-004716D02*
X007055Y-004621D01*
X006960Y-004621D01*
X006865Y-004716D01*
X006865Y-004906D01*
X006960Y-005001D01*
X002935Y-007055D02*
X002555Y-007055D01*
X002365Y-007245D01*
X002555Y-007435D01*
X002935Y-007435D01*
X002650Y-007435D02*
X002650Y-007055D01*
D12*
X007727Y-000893D02*
X008298Y-000893D01*
X008298Y000150D01*
X009144Y000150D01*
X009439Y-000145D01*
X010936Y-000145D01*
X010936Y000189D01*
X011398Y000189D01*
X011398Y001686D01*
X010936Y001686D01*
X010936Y002020D01*
X009439Y002020D01*
X009144Y001725D01*
X008298Y001725D01*
X008298Y002768D01*
X007727Y002768D01*
X007727Y002453D02*
X007727Y-000578D01*
X004307Y001750D02*
X004000Y001443D01*
X003443Y002000D02*
X003750Y002307D01*
X-033789Y002453D02*
X-033789Y-000578D01*
X-033789Y-000893D02*
X-034360Y-000893D01*
X-034360Y000150D01*
X-035207Y000150D01*
X-035502Y-000145D01*
X-036998Y-000145D01*
X-036998Y000189D01*
X-037461Y000189D01*
X-037461Y001686D01*
X-036998Y001686D01*
X-036998Y002020D01*
X-035502Y002020D01*
X-035207Y001725D01*
X-034360Y001725D01*
X-034360Y002768D01*
X-033789Y002768D01*
D13*
X003179Y002260D02*
X003308Y002130D01*
X003360Y002130D01*
X003412Y002182D01*
X003412Y002234D01*
X003282Y002363D01*
X003387Y002364D02*
X003387Y002468D01*
X003542Y002312D01*
X003491Y002260D02*
X003594Y002364D01*
D14*
X002490Y002456D02*
X002390Y002379D01*
X002440Y002418D02*
X002324Y002569D01*
X002313Y002480D01*
X002219Y002448D02*
X002174Y002454D01*
X002124Y002415D01*
X002118Y002370D01*
X002195Y002270D01*
X002240Y002264D01*
X002290Y002303D01*
X002296Y002347D01*
X004863Y001633D02*
X004863Y001507D01*
X004894Y001475D01*
X004958Y001475D01*
X004989Y001507D01*
X005083Y001475D02*
X005210Y001602D01*
X005210Y001633D01*
X005179Y001665D01*
X005115Y001665D01*
X005083Y001633D01*
X004989Y001633D02*
X004958Y001665D01*
X004894Y001665D01*
X004863Y001633D01*
X005083Y001475D02*
X005210Y001475D01*
X002896Y000206D02*
X002829Y000273D01*
X002694Y000139D01*
X002739Y000184D02*
X002807Y000116D01*
X002851Y000116D01*
X002896Y000161D01*
X002896Y000206D01*
X002784Y000139D02*
X002784Y000049D01*
X002851Y-000017D02*
X002940Y-000107D01*
X002896Y-000062D02*
X003030Y000072D01*
X002940Y000072D01*
X005287Y003183D02*
X005287Y003278D01*
X005319Y003310D01*
X005382Y003310D01*
X005414Y003278D01*
X005414Y003183D01*
X005414Y003246D02*
X005478Y003310D01*
X005478Y003404D02*
X005351Y003531D01*
X005319Y003531D01*
X005287Y003499D01*
X005287Y003436D01*
X005319Y003404D01*
X005478Y003404D02*
X005478Y003531D01*
X005478Y003183D02*
X005287Y003183D01*
M02*
