G75*
G70*
%OFA0B0*%
%FSLAX24Y24*%
%IPPOS*%
%LPD*%
%AMOC8*
5,1,8,0,0,1.08239X$1,22.5*
%
%ADD10R,0.2000X0.0900*%
%ADD11C,0.0010*%
%ADD12C,0.0340*%
D10*
X-032740Y-000803D03*
X-032740Y002678D03*
X006678Y002678D03*
X006678Y-000803D03*
D11*
X007533Y-000799D02*
X-033595Y-000799D01*
X-033595Y-000791D02*
X007533Y-000791D01*
X007533Y-000782D02*
X-033595Y-000782D01*
X-033595Y-000774D02*
X007533Y-000774D01*
X007533Y-000765D02*
X-033595Y-000765D01*
X-033595Y-000757D02*
X007533Y-000757D01*
X007533Y-000748D02*
X-033595Y-000748D01*
X-033595Y-000740D02*
X007533Y-000740D01*
X007533Y-000731D02*
X-033595Y-000731D01*
X-033595Y-000723D02*
X007533Y-000723D01*
X007533Y-000714D02*
X-033595Y-000714D01*
X-033595Y-000706D02*
X007533Y-000706D01*
X007533Y-000697D02*
X-033595Y-000697D01*
X-033595Y-000689D02*
X007533Y-000689D01*
X007533Y-000680D02*
X-033595Y-000680D01*
X-033595Y-000672D02*
X007533Y-000672D01*
X007533Y-000663D02*
X-033595Y-000663D01*
X-033595Y-000655D02*
X007533Y-000655D01*
X007533Y-000646D02*
X-033595Y-000646D01*
X-033595Y-000638D02*
X007533Y-000638D01*
X007533Y-000629D02*
X-033595Y-000629D01*
X-033595Y-000621D02*
X007533Y-000621D01*
X007533Y-000612D02*
X-033595Y-000612D01*
X-033595Y-000604D02*
X007533Y-000604D01*
X007533Y-000595D02*
X-033595Y-000595D01*
X-033595Y-000587D02*
X007533Y-000587D01*
X007533Y-000578D02*
X-033595Y-000578D01*
X-033595Y-000570D02*
X007533Y-000570D01*
X007533Y-000561D02*
X-033595Y-000561D01*
X-033595Y-000553D02*
X007533Y-000553D01*
X007533Y-000544D02*
X-033595Y-000544D01*
X-033595Y-000536D02*
X007533Y-000536D01*
X007533Y-000527D02*
X-033595Y-000527D01*
X-033595Y-000519D02*
X007533Y-000519D01*
X007533Y-000510D02*
X-033595Y-000510D01*
X-033595Y-000502D02*
X007533Y-000502D01*
X007533Y-000493D02*
X-033595Y-000493D01*
X-033595Y-000485D02*
X007533Y-000485D01*
X007533Y-000476D02*
X-033595Y-000476D01*
X-033595Y-000468D02*
X007533Y-000468D01*
X007533Y-000459D02*
X-033595Y-000459D01*
X-033595Y-000451D02*
X007533Y-000451D01*
X007533Y-000442D02*
X-033595Y-000442D01*
X-033595Y-000434D02*
X007533Y-000434D01*
X007533Y-000425D02*
X-033595Y-000425D01*
X-033595Y-000417D02*
X007533Y-000417D01*
X007533Y-000408D02*
X-033595Y-000408D01*
X-033595Y-000400D02*
X007533Y-000400D01*
X007533Y-000391D02*
X-033595Y-000391D01*
X-033595Y-000383D02*
X007533Y-000383D01*
X007533Y-000374D02*
X-033595Y-000374D01*
X-033595Y-000366D02*
X007533Y-000366D01*
X007533Y-000357D02*
X-033595Y-000357D01*
X-033595Y-000349D02*
X007533Y-000349D01*
X007533Y-000340D02*
X-033595Y-000340D01*
X-033595Y-000332D02*
X007533Y-000332D01*
X007533Y-000323D02*
X-033595Y-000323D01*
X-033595Y-000315D02*
X007533Y-000315D01*
X007533Y-000306D02*
X-033595Y-000306D01*
X-033595Y-000298D02*
X007533Y-000298D01*
X007533Y-000289D02*
X-033595Y-000289D01*
X-033595Y-000281D02*
X007533Y-000281D01*
X007533Y-000272D02*
X-033595Y-000272D01*
X-033595Y-000264D02*
X007533Y-000264D01*
X007533Y-000255D02*
X-033595Y-000255D01*
X-033595Y-000247D02*
X007533Y-000247D01*
X007533Y-000238D02*
X-033595Y-000238D01*
X-033595Y-000230D02*
X007533Y-000230D01*
X007533Y-000221D02*
X-033595Y-000221D01*
X-033595Y-000213D02*
X007533Y-000213D01*
X007533Y-000204D02*
X-033595Y-000204D01*
X-033595Y-000196D02*
X007533Y-000196D01*
X007533Y-000187D02*
X-033595Y-000187D01*
X-033595Y-000179D02*
X007533Y-000179D01*
X007533Y-000170D02*
X-033595Y-000170D01*
X-033595Y-000162D02*
X007533Y-000162D01*
X007533Y-000153D02*
X-033595Y-000153D01*
X-033595Y-000145D02*
X007533Y-000145D01*
X007533Y-000136D02*
X-033595Y-000136D01*
X-033595Y-000128D02*
X007533Y-000128D01*
X007533Y-000119D02*
X-033595Y-000119D01*
X-033595Y-000111D02*
X007533Y-000111D01*
X007533Y-000102D02*
X-033595Y-000102D01*
X-033595Y-000094D02*
X007533Y-000094D01*
X007533Y-000085D02*
X-033595Y-000085D01*
X-033595Y-000077D02*
X007533Y-000077D01*
X007533Y-000068D02*
X-033595Y-000068D01*
X-033595Y-000060D02*
X007533Y-000060D01*
X007533Y-000051D02*
X-033595Y-000051D01*
X-033595Y-000043D02*
X007533Y-000043D01*
X007533Y-000034D02*
X-033595Y-000034D01*
X-033595Y-000026D02*
X007533Y-000026D01*
X007533Y-000017D02*
X-033595Y-000017D01*
X-033595Y-000009D02*
X007533Y-000009D01*
X007533Y000000D02*
X-033595Y000000D01*
X-033595Y000009D02*
X007533Y000009D01*
X007533Y000017D02*
X-033595Y000017D01*
X-033595Y000026D02*
X007533Y000026D01*
X007533Y000034D02*
X-033595Y000034D01*
X-033595Y000043D02*
X007533Y000043D01*
X007533Y000051D02*
X-033595Y000051D01*
X-033595Y000060D02*
X007533Y000060D01*
X007533Y000068D02*
X-033595Y000068D01*
X-033595Y000077D02*
X007533Y000077D01*
X007533Y000085D02*
X-033595Y000085D01*
X-033595Y000094D02*
X007533Y000094D01*
X007533Y000102D02*
X-033595Y000102D01*
X-033595Y000111D02*
X007533Y000111D01*
X007533Y000119D02*
X-033595Y000119D01*
X-033595Y000128D02*
X007533Y000128D01*
X007533Y000136D02*
X-033595Y000136D01*
X-033595Y000145D02*
X007533Y000145D01*
X007533Y000153D02*
X-033595Y000153D01*
X-033595Y000162D02*
X007533Y000162D01*
X007533Y000170D02*
X-033595Y000170D01*
X-033595Y000179D02*
X007533Y000179D01*
X007533Y000187D02*
X-033595Y000187D01*
X-033595Y000196D02*
X007533Y000196D01*
X007533Y000204D02*
X-033595Y000204D01*
X-033595Y000213D02*
X007533Y000213D01*
X007533Y000221D02*
X-033595Y000221D01*
X-033595Y000230D02*
X007533Y000230D01*
X007533Y000238D02*
X-033595Y000238D01*
X-033595Y000247D02*
X007533Y000247D01*
X007533Y000255D02*
X-033595Y000255D01*
X-033595Y000264D02*
X007533Y000264D01*
X007533Y000272D02*
X-033595Y000272D01*
X-033595Y000281D02*
X007533Y000281D01*
X007533Y000289D02*
X-033595Y000289D01*
X-033595Y000298D02*
X007533Y000298D01*
X007533Y000306D02*
X-033595Y000306D01*
X-033595Y000315D02*
X007533Y000315D01*
X007533Y000323D02*
X-033595Y000323D01*
X-033595Y000332D02*
X007533Y000332D01*
X007533Y000340D02*
X-033595Y000340D01*
X-033595Y000349D02*
X007533Y000349D01*
X007533Y000357D02*
X-033595Y000357D01*
X-033595Y000366D02*
X007533Y000366D01*
X007533Y000374D02*
X-033595Y000374D01*
X-033595Y000383D02*
X007533Y000383D01*
X007533Y000391D02*
X-033595Y000391D01*
X-033595Y000400D02*
X007533Y000400D01*
X007533Y000408D02*
X-033595Y000408D01*
X-033595Y000417D02*
X007533Y000417D01*
X007533Y000425D02*
X-033595Y000425D01*
X-033595Y000434D02*
X007533Y000434D01*
X007533Y000442D02*
X-033595Y000442D01*
X-033595Y000451D02*
X007533Y000451D01*
X007533Y000459D02*
X-033595Y000459D01*
X-033595Y000468D02*
X007533Y000468D01*
X007533Y000476D02*
X-033595Y000476D01*
X-033595Y000485D02*
X007533Y000485D01*
X007533Y000493D02*
X-033595Y000493D01*
X-033595Y000502D02*
X007533Y000502D01*
X007533Y000510D02*
X-033595Y000510D01*
X-033595Y000519D02*
X007533Y000519D01*
X007533Y000527D02*
X-033595Y000527D01*
X-033595Y000536D02*
X007533Y000536D01*
X007533Y000544D02*
X-033595Y000544D01*
X-033595Y000553D02*
X007533Y000553D01*
X007533Y000561D02*
X-033595Y000561D01*
X-033595Y000570D02*
X007533Y000570D01*
X007533Y000578D02*
X-033595Y000578D01*
X-033595Y000587D02*
X007533Y000587D01*
X007533Y000595D02*
X-033595Y000595D01*
X-033595Y000604D02*
X007533Y000604D01*
X007533Y000612D02*
X-033595Y000612D01*
X-033595Y000621D02*
X007533Y000621D01*
X007533Y000629D02*
X-033595Y000629D01*
X-033595Y000638D02*
X007533Y000638D01*
X007533Y000646D02*
X-033595Y000646D01*
X-033595Y000655D02*
X007533Y000655D01*
X007533Y000663D02*
X-033595Y000663D01*
X-033595Y000672D02*
X007533Y000672D01*
X007533Y000680D02*
X-033595Y000680D01*
X-033595Y000689D02*
X007533Y000689D01*
X007533Y000697D02*
X-033595Y000697D01*
X-033595Y000706D02*
X007533Y000706D01*
X007533Y000714D02*
X-033595Y000714D01*
X-033595Y000723D02*
X007533Y000723D01*
X007533Y000731D02*
X-033595Y000731D01*
X-033595Y000740D02*
X007533Y000740D01*
X007533Y000748D02*
X-033595Y000748D01*
X-033595Y000757D02*
X007533Y000757D01*
X007533Y000765D02*
X-033595Y000765D01*
X-033595Y000774D02*
X007533Y000774D01*
X007533Y000782D02*
X-033595Y000782D01*
X-033595Y000791D02*
X007533Y000791D01*
X007533Y000799D02*
X-033595Y000799D01*
X-033595Y000808D02*
X007533Y000808D01*
X007533Y000816D02*
X-033595Y000816D01*
X-033595Y000825D02*
X007533Y000825D01*
X007533Y000833D02*
X-033595Y000833D01*
X-033595Y000842D02*
X007533Y000842D01*
X007533Y000850D02*
X-033595Y000850D01*
X-033595Y000859D02*
X007533Y000859D01*
X007533Y000867D02*
X-033595Y000867D01*
X-033595Y000876D02*
X007533Y000876D01*
X007533Y000884D02*
X-033595Y000884D01*
X-033595Y000893D02*
X007533Y000893D01*
X007533Y000901D02*
X-033595Y000901D01*
X-033595Y000910D02*
X007533Y000910D01*
X007533Y000918D02*
X-033595Y000918D01*
X-033595Y000927D02*
X007533Y000927D01*
X007533Y000935D02*
X-033595Y000935D01*
X-033595Y000944D02*
X007533Y000944D01*
X007533Y000952D02*
X-033595Y000952D01*
X-033595Y000961D02*
X007533Y000961D01*
X007533Y000969D02*
X-033595Y000969D01*
X-033595Y000978D02*
X007533Y000978D01*
X007533Y000986D02*
X-033595Y000986D01*
X-033595Y000995D02*
X007533Y000995D01*
X007533Y001003D02*
X-033595Y001003D01*
X-033595Y001012D02*
X007533Y001012D01*
X007533Y001020D02*
X-033595Y001020D01*
X-033595Y001029D02*
X007533Y001029D01*
X007533Y001037D02*
X-033595Y001037D01*
X-033595Y001046D02*
X007533Y001046D01*
X007533Y001054D02*
X-033595Y001054D01*
X-033595Y001063D02*
X007533Y001063D01*
X007533Y001071D02*
X-033595Y001071D01*
X-033595Y001080D02*
X007533Y001080D01*
X007533Y001088D02*
X-033595Y001088D01*
X-033595Y001097D02*
X007533Y001097D01*
X007533Y001105D02*
X-033595Y001105D01*
X-033595Y001114D02*
X007533Y001114D01*
X007533Y001122D02*
X-033595Y001122D01*
X-033595Y001131D02*
X007533Y001131D01*
X007533Y001139D02*
X-033595Y001139D01*
X-033595Y001148D02*
X007533Y001148D01*
X007533Y001156D02*
X-033595Y001156D01*
X-033595Y001165D02*
X007533Y001165D01*
X007533Y001173D02*
X-033595Y001173D01*
X-033595Y001182D02*
X007533Y001182D01*
X007533Y001190D02*
X-033595Y001190D01*
X-033595Y001199D02*
X007533Y001199D01*
X007533Y001207D02*
X-033595Y001207D01*
X-033595Y001216D02*
X007533Y001216D01*
X007533Y001224D02*
X-033595Y001224D01*
X-033595Y001233D02*
X007533Y001233D01*
X007533Y001241D02*
X-033595Y001241D01*
X-033595Y001250D02*
X007533Y001250D01*
X007533Y001258D02*
X-033595Y001258D01*
X-033595Y001267D02*
X007533Y001267D01*
X007533Y001275D02*
X-033595Y001275D01*
X-033595Y001284D02*
X007533Y001284D01*
X007533Y001292D02*
X-033595Y001292D01*
X-033595Y001301D02*
X007533Y001301D01*
X007533Y001309D02*
X-033595Y001309D01*
X-033595Y001318D02*
X007533Y001318D01*
X007533Y001326D02*
X-033595Y001326D01*
X-033595Y001335D02*
X007533Y001335D01*
X007533Y001343D02*
X-033595Y001343D01*
X-033595Y001352D02*
X007533Y001352D01*
X007533Y001360D02*
X-033595Y001360D01*
X-033595Y001369D02*
X007533Y001369D01*
X007533Y001377D02*
X-033595Y001377D01*
X-033595Y001386D02*
X007533Y001386D01*
X007533Y001394D02*
X-033595Y001394D01*
X-033595Y001403D02*
X007533Y001403D01*
X007533Y001411D02*
X-033595Y001411D01*
X-033595Y001420D02*
X007533Y001420D01*
X007533Y001428D02*
X-033595Y001428D01*
X-033595Y001437D02*
X007533Y001437D01*
X007533Y001445D02*
X-033595Y001445D01*
X-033595Y001454D02*
X007533Y001454D01*
X007533Y001462D02*
X-033595Y001462D01*
X-033595Y001471D02*
X007533Y001471D01*
X007533Y001479D02*
X-033595Y001479D01*
X-033595Y001488D02*
X007533Y001488D01*
X007533Y001496D02*
X-033595Y001496D01*
X-033595Y001505D02*
X007533Y001505D01*
X007533Y001513D02*
X-033595Y001513D01*
X-033595Y001522D02*
X007533Y001522D01*
X007533Y001530D02*
X-033595Y001530D01*
X-033595Y001539D02*
X007533Y001539D01*
X007533Y001547D02*
X-033595Y001547D01*
X-033595Y001556D02*
X007533Y001556D01*
X007533Y001564D02*
X-033595Y001564D01*
X-033595Y001573D02*
X007533Y001573D01*
X007533Y001581D02*
X-033595Y001581D01*
X-033595Y001590D02*
X007533Y001590D01*
X007533Y001598D02*
X-033595Y001598D01*
X-033595Y001607D02*
X007533Y001607D01*
X007533Y001615D02*
X-033595Y001615D01*
X-033595Y001624D02*
X007533Y001624D01*
X007533Y001632D02*
X-033595Y001632D01*
X-033595Y001641D02*
X007533Y001641D01*
X007533Y001649D02*
X-033595Y001649D01*
X-033595Y001658D02*
X007533Y001658D01*
X007533Y001666D02*
X-033595Y001666D01*
X-033595Y001675D02*
X007533Y001675D01*
X007533Y001683D02*
X-033595Y001683D01*
X-033595Y001692D02*
X007533Y001692D01*
X007533Y001700D02*
X-033595Y001700D01*
X-033595Y001709D02*
X007533Y001709D01*
X007533Y001717D02*
X-033595Y001717D01*
X-033595Y001726D02*
X007533Y001726D01*
X007533Y001734D02*
X-033595Y001734D01*
X-033595Y001743D02*
X007533Y001743D01*
X007533Y001751D02*
X-033595Y001751D01*
X-033595Y001760D02*
X007533Y001760D01*
X007533Y001768D02*
X-033595Y001768D01*
X-033595Y001777D02*
X007533Y001777D01*
X007533Y001785D02*
X-033595Y001785D01*
X-033595Y001794D02*
X007533Y001794D01*
X007533Y001802D02*
X-033595Y001802D01*
X-033595Y001811D02*
X007533Y001811D01*
X007533Y001819D02*
X-033595Y001819D01*
X-033595Y001828D02*
X007533Y001828D01*
X007533Y001836D02*
X-033595Y001836D01*
X-033595Y001845D02*
X007533Y001845D01*
X007533Y001853D02*
X-033595Y001853D01*
X-033595Y001862D02*
X007533Y001862D01*
X007533Y001870D02*
X-033595Y001870D01*
X-033595Y001879D02*
X007533Y001879D01*
X007533Y001887D02*
X-033595Y001887D01*
X-033595Y001896D02*
X007533Y001896D01*
X007533Y001904D02*
X-033595Y001904D01*
X-033595Y001913D02*
X007533Y001913D01*
X007533Y001921D02*
X-033595Y001921D01*
X-033595Y001930D02*
X007533Y001930D01*
X007533Y001938D02*
X-033595Y001938D01*
X-033595Y001947D02*
X007533Y001947D01*
X007533Y001955D02*
X-033595Y001955D01*
X-033595Y001964D02*
X007533Y001964D01*
X007533Y001972D02*
X-033595Y001972D01*
X-033595Y001981D02*
X007533Y001981D01*
X007533Y001989D02*
X-033595Y001989D01*
X-033595Y001998D02*
X007533Y001998D01*
X007533Y002006D02*
X-033595Y002006D01*
X-033595Y002015D02*
X007533Y002015D01*
X007533Y002023D02*
X-033595Y002023D01*
X-033595Y002032D02*
X007533Y002032D01*
X007533Y002040D02*
X-033595Y002040D01*
X-033595Y002049D02*
X007533Y002049D01*
X007533Y002057D02*
X-033595Y002057D01*
X-033595Y002066D02*
X007533Y002066D01*
X007533Y002074D02*
X-033595Y002074D01*
X-033595Y002083D02*
X007533Y002083D01*
X007533Y002091D02*
X-033595Y002091D01*
X-033595Y002100D02*
X007533Y002100D01*
X007533Y002108D02*
X-033595Y002108D01*
X-033595Y002117D02*
X007533Y002117D01*
X007533Y002125D02*
X-033595Y002125D01*
X-033595Y002134D02*
X007533Y002134D01*
X007533Y002142D02*
X-033595Y002142D01*
X-033595Y002151D02*
X007533Y002151D01*
X007533Y002159D02*
X-033595Y002159D01*
X-033595Y002168D02*
X007533Y002168D01*
X007533Y002176D02*
X-033595Y002176D01*
X-033595Y002185D02*
X007533Y002185D01*
X007533Y002193D02*
X-033595Y002193D01*
X-033595Y002202D02*
X007533Y002202D01*
X007533Y002210D02*
X-033595Y002210D01*
X-033595Y002219D02*
X007533Y002219D01*
X007533Y002227D02*
X-033595Y002227D01*
X-033595Y002236D02*
X007533Y002236D01*
X007533Y002244D02*
X-033595Y002244D01*
X-033595Y002253D02*
X007533Y002253D01*
X007533Y002261D02*
X-033595Y002261D01*
X-033595Y002270D02*
X007533Y002270D01*
X007533Y002278D02*
X-033595Y002278D01*
X-033595Y002287D02*
X007533Y002287D01*
X007533Y002295D02*
X-033595Y002295D01*
X-033595Y002304D02*
X007533Y002304D01*
X007533Y002312D02*
X-033595Y002312D01*
X-033595Y002321D02*
X007533Y002321D01*
X007533Y002329D02*
X-033595Y002329D01*
X-033595Y002338D02*
X007533Y002338D01*
X007533Y002346D02*
X-033595Y002346D01*
X-033595Y002355D02*
X007533Y002355D01*
X007533Y002363D02*
X-033595Y002363D01*
X-033595Y002372D02*
X007533Y002372D01*
X007533Y002380D02*
X-033595Y002380D01*
X-033595Y002389D02*
X007533Y002389D01*
X007533Y002397D02*
X-033595Y002397D01*
X-033595Y002406D02*
X007533Y002406D01*
X007533Y002414D02*
X-033595Y002414D01*
X-033595Y002423D02*
X007533Y002423D01*
X007533Y002431D02*
X-033595Y002431D01*
X-033595Y002440D02*
X007533Y002440D01*
X007533Y002448D02*
X-033595Y002448D01*
X-033595Y002457D02*
X007533Y002457D01*
X007533Y002465D02*
X-033595Y002465D01*
X-033595Y002474D02*
X007533Y002474D01*
X007533Y002482D02*
X-033595Y002482D01*
X-033595Y002491D02*
X007533Y002491D01*
X007533Y002499D02*
X-033595Y002499D01*
X-033595Y002508D02*
X007533Y002508D01*
X007533Y002516D02*
X-033595Y002516D01*
X-033595Y002525D02*
X007533Y002525D01*
X007533Y002533D02*
X-033595Y002533D01*
X-033595Y002542D02*
X007533Y002542D01*
X007533Y002550D02*
X-033595Y002550D01*
X-033595Y002559D02*
X007533Y002559D01*
X007533Y002567D02*
X-033595Y002567D01*
X-033595Y002576D02*
X007533Y002576D01*
X007533Y002584D02*
X-033595Y002584D01*
X-033595Y002593D02*
X007533Y002593D01*
X007533Y002601D02*
X-033595Y002601D01*
X-033595Y002610D02*
X007533Y002610D01*
X007533Y002618D02*
X-033595Y002618D01*
X-033595Y002627D02*
X007533Y002627D01*
X007533Y002635D02*
X-033595Y002635D01*
X-033595Y002644D02*
X007533Y002644D01*
X007533Y002652D02*
X-033595Y002652D01*
X-033595Y002661D02*
X007533Y002661D01*
X007533Y002669D02*
X-033595Y002669D01*
X-033595Y002678D02*
X007533Y002678D01*
X007533Y002686D02*
X-033595Y002686D01*
X-033595Y002695D02*
X007533Y002695D01*
X007533Y002703D02*
X-033595Y002703D01*
X-033595Y002712D02*
X007533Y002712D01*
X007533Y002720D02*
X-033595Y002720D01*
X-033595Y002729D02*
X007533Y002729D01*
X007533Y002737D02*
X-033595Y002737D01*
X-033595Y002746D02*
X007533Y002746D01*
X007533Y002754D02*
X-033595Y002754D01*
X-033595Y002763D02*
X007533Y002763D01*
X007533Y002771D02*
X-033595Y002771D01*
X-033595Y002780D02*
X007533Y002780D01*
X007533Y002788D02*
X-033595Y002788D01*
X-033595Y002797D02*
X007533Y002797D01*
X007533Y002805D02*
X-033595Y002805D01*
X-033595Y002814D02*
X007533Y002814D01*
X007533Y002822D02*
X-033595Y002822D01*
X-033595Y002831D02*
X007533Y002831D01*
X007533Y002839D02*
X-033595Y002839D01*
X-033595Y002848D02*
X007533Y002848D01*
X007533Y002856D02*
X-033595Y002856D01*
X-033595Y002865D02*
X007533Y002865D01*
X007533Y002873D02*
X-033595Y002873D01*
X-033595Y002882D02*
X007533Y002882D01*
X007533Y002890D02*
X-033595Y002890D01*
X-033595Y002899D02*
X007533Y002899D01*
X007533Y002907D02*
X-033595Y002907D01*
X-033595Y002916D02*
X007533Y002916D01*
X007533Y002924D02*
X-033595Y002924D01*
X-033595Y002933D02*
X007533Y002933D01*
X007533Y002941D02*
X-033595Y002941D01*
X-033595Y002950D02*
X007533Y002950D01*
X007533Y002958D02*
X-033595Y002958D01*
X-033595Y002967D02*
X007533Y002967D01*
X007533Y002975D02*
X-033595Y002975D01*
X-033595Y002984D02*
X007533Y002984D01*
X007533Y002992D02*
X-033595Y002992D01*
X-033595Y003001D02*
X007533Y003001D01*
X007533Y003009D02*
X-033595Y003009D01*
X-033595Y003018D02*
X007533Y003018D01*
X007533Y003026D02*
X-033595Y003026D01*
X-033595Y003035D02*
X007533Y003035D01*
X007533Y003043D02*
X-033595Y003043D01*
X-033595Y003052D02*
X007533Y003052D01*
X007533Y003060D02*
X-033595Y003060D01*
X-033595Y003069D02*
X007533Y003069D01*
X007533Y003077D02*
X-033595Y003077D01*
X-033595Y003086D02*
X007533Y003086D01*
X007533Y003094D02*
X-033595Y003094D01*
X-033595Y003103D02*
X007533Y003103D01*
X007533Y003111D02*
X-033595Y003111D01*
X-033595Y003120D02*
X007533Y003120D01*
X007533Y003128D02*
X-033595Y003128D01*
X-033595Y003137D02*
X007533Y003137D01*
X007533Y003145D02*
X-033595Y003145D01*
X-033595Y003154D02*
X007533Y003154D01*
X007533Y003162D02*
X-033595Y003162D01*
X-033595Y003171D02*
X007533Y003171D01*
X007533Y003179D02*
X-033595Y003179D01*
X-033595Y003188D02*
X007533Y003188D01*
X007533Y003196D02*
X-033595Y003196D01*
X-033595Y003205D02*
X007533Y003205D01*
X007533Y003213D02*
X-033595Y003213D01*
X-033595Y003222D02*
X007533Y003222D01*
X007533Y003230D02*
X-033595Y003230D01*
X-033595Y003239D02*
X007533Y003239D01*
X007533Y003247D02*
X-033595Y003247D01*
X-033595Y003256D02*
X007533Y003256D01*
X007533Y003264D02*
X-033595Y003264D01*
X-033595Y003273D02*
X007533Y003273D01*
X007533Y003281D02*
X-033595Y003281D01*
X-033595Y003290D02*
X007533Y003290D01*
X007533Y003298D02*
X-033595Y003298D01*
X-033595Y003307D02*
X007533Y003307D01*
X007533Y003315D02*
X-033595Y003315D01*
X-033595Y003324D02*
X007533Y003324D01*
X007533Y003332D02*
X-033595Y003332D01*
X-033595Y003341D02*
X007533Y003341D01*
X007533Y003349D02*
X-033595Y003349D01*
X-033595Y003358D02*
X007533Y003358D01*
X007533Y003366D02*
X-033595Y003366D01*
X-033595Y003375D02*
X007533Y003375D01*
X007533Y003383D02*
X-033595Y003383D01*
X-033595Y003392D02*
X007533Y003392D01*
X007533Y003400D02*
X-033595Y003400D01*
X-033595Y003409D02*
X007533Y003409D01*
X007533Y003417D02*
X-033595Y003417D01*
X-033595Y003426D02*
X007533Y003426D01*
X007533Y003434D02*
X-033595Y003434D01*
X-033595Y003443D02*
X007533Y003443D01*
X007533Y003451D02*
X-033595Y003451D01*
X-033595Y003460D02*
X007533Y003460D01*
X007533Y003468D02*
X-033595Y003468D01*
X-033595Y003477D02*
X007533Y003477D01*
X007533Y003485D02*
X-033595Y003485D01*
X-033595Y003494D02*
X007533Y003494D01*
X007533Y003502D02*
X-033595Y003502D01*
X-033595Y003511D02*
X007533Y003511D01*
X007533Y003519D02*
X-033595Y003519D01*
X-033595Y003528D02*
X007533Y003528D01*
X007533Y003536D02*
X-033595Y003536D01*
X-033595Y003545D02*
X007533Y003545D01*
X007533Y003553D02*
X-033595Y003553D01*
X-033595Y003562D02*
X007533Y003562D01*
X007533Y003570D02*
X-033595Y003570D01*
X-033595Y003579D02*
X007533Y003579D01*
X007533Y003587D02*
X-033595Y003587D01*
X-033595Y003596D02*
X007533Y003596D01*
X007533Y003604D02*
X-033595Y003604D01*
X-033595Y003613D02*
X007533Y003613D01*
X007533Y003621D02*
X-033595Y003621D01*
X-033595Y003630D02*
X007533Y003630D01*
X007533Y003638D02*
X-033595Y003638D01*
X-033595Y003647D02*
X007533Y003647D01*
X007533Y003655D02*
X-033595Y003655D01*
X-033595Y003664D02*
X007533Y003664D01*
X007533Y003672D02*
X-033595Y003672D01*
X-033595Y003681D02*
X007533Y003681D01*
X007533Y003689D02*
X-033595Y003689D01*
X-033595Y003698D02*
X007533Y003698D01*
X007533Y003706D02*
X-033595Y003706D01*
X-033595Y003715D02*
X007533Y003715D01*
X007533Y003723D02*
X-033595Y003723D01*
X-033595Y003732D02*
X007533Y003732D01*
X007533Y003740D02*
X-033595Y003740D01*
X-033595Y003749D02*
X007533Y003749D01*
X007533Y003757D02*
X-033595Y003757D01*
X-033595Y003766D02*
X007533Y003766D01*
X007533Y003774D02*
X-033595Y003774D01*
X-033595Y003783D02*
X007533Y003783D01*
X007533Y003791D02*
X-033595Y003791D01*
X-033595Y003800D02*
X007533Y003800D01*
X007533Y003808D02*
X-033595Y003808D01*
X-033595Y003817D02*
X007533Y003817D01*
X007533Y003825D02*
X-033595Y003825D01*
X-033595Y003834D02*
X007533Y003834D01*
X007533Y003842D02*
X-033595Y003842D01*
X-033595Y003851D02*
X007533Y003851D01*
X007533Y003859D02*
X-033595Y003859D01*
X-033595Y003868D02*
X007533Y003868D01*
X007533Y003876D02*
X-033595Y003876D01*
X-033595Y003885D02*
X007533Y003885D01*
X007533Y003893D02*
X-033595Y003893D01*
X-033595Y003902D02*
X007533Y003902D01*
X007533Y003910D02*
X-033595Y003910D01*
X-033595Y003919D02*
X007533Y003919D01*
X007533Y003927D02*
X-033595Y003927D01*
X-033595Y003936D02*
X007533Y003936D01*
X007533Y003944D02*
X-033595Y003944D01*
X-033595Y003953D02*
X007533Y003953D01*
X007533Y003961D02*
X-033595Y003961D01*
X-033595Y003970D02*
X007533Y003970D01*
X007533Y003978D02*
X-033595Y003978D01*
X-033595Y003987D02*
X007533Y003987D01*
X007533Y003995D02*
X-033595Y003995D01*
X-033595Y004004D02*
X007533Y004004D01*
X007533Y004012D02*
X-033595Y004012D01*
X-033595Y004021D02*
X007533Y004021D01*
X007533Y004029D02*
X-033595Y004029D01*
X-033595Y004038D02*
X007533Y004038D01*
X007533Y004046D02*
X-033595Y004046D01*
X-033595Y004055D02*
X007533Y004055D01*
X007533Y004063D02*
X-033595Y004063D01*
X-033595Y004072D02*
X007533Y004072D01*
X007533Y004080D02*
X-033595Y004080D01*
X-033595Y004089D02*
X007533Y004089D01*
X007533Y004097D02*
X-033595Y004097D01*
X-033595Y004106D02*
X007533Y004106D01*
X007533Y004114D02*
X-033595Y004114D01*
X-033595Y004123D02*
X007533Y004123D01*
X007533Y004131D02*
X-033595Y004131D01*
X-033595Y004140D02*
X007533Y004140D01*
X007533Y004148D02*
X-033595Y004148D01*
X-033595Y004157D02*
X007533Y004157D01*
X007533Y004165D02*
X-033595Y004165D01*
X-033595Y004174D02*
X007533Y004174D01*
X007533Y004182D02*
X-033595Y004182D01*
X-033595Y004191D02*
X007533Y004191D01*
X007533Y004199D02*
X-033595Y004199D01*
X-033595Y004208D02*
X007533Y004208D01*
X007533Y004216D02*
X-033595Y004216D01*
X-033595Y004225D02*
X007533Y004225D01*
X007533Y004233D02*
X-033595Y004233D01*
X-033595Y004242D02*
X007533Y004242D01*
X007533Y004250D02*
X-033595Y004250D01*
X-033595Y004259D02*
X007533Y004259D01*
X007533Y004267D02*
X-033595Y004267D01*
X-033595Y004276D02*
X007533Y004276D01*
X007533Y004284D02*
X-033595Y004284D01*
X-033595Y004293D02*
X007533Y004293D01*
X007533Y004301D02*
X-033595Y004301D01*
X-033595Y004310D02*
X007533Y004310D01*
X007533Y004318D02*
X-033595Y004318D01*
X-033595Y004327D02*
X007533Y004327D01*
X007533Y004335D02*
X-033595Y004335D01*
X-033595Y004344D02*
X007533Y004344D01*
X007533Y004352D02*
X-033595Y004352D01*
X-033595Y004361D02*
X007533Y004361D01*
X007533Y004369D02*
X-033595Y004369D01*
X-033595Y004378D02*
X007533Y004378D01*
X007533Y004386D02*
X-033595Y004386D01*
X-033595Y004395D02*
X007533Y004395D01*
X007533Y004403D02*
X-033595Y004403D01*
X-033595Y004412D02*
X007533Y004412D01*
X007533Y004420D02*
X-033595Y004420D01*
X-033595Y004429D02*
X007533Y004429D01*
X007533Y004437D02*
X-033595Y004437D01*
X-033595Y004446D02*
X007533Y004446D01*
X007533Y004454D02*
X-033595Y004454D01*
X-033595Y004463D02*
X007533Y004463D01*
X007533Y004471D02*
X-033595Y004471D01*
X-033595Y004480D02*
X007533Y004480D01*
X007533Y004488D02*
X-033595Y004488D01*
X-033595Y004497D02*
X007533Y004497D01*
X007533Y004505D02*
X-033595Y004505D01*
X-033595Y004514D02*
X007533Y004514D01*
X007533Y004522D02*
X-033595Y004522D01*
X-033595Y004531D02*
X007533Y004531D01*
X007533Y004539D02*
X-033595Y004539D01*
X-033595Y004548D02*
X007533Y004548D01*
X007533Y004556D02*
X-033595Y004556D01*
X-033595Y004565D02*
X007533Y004565D01*
X007533Y004573D02*
X-033595Y004573D01*
X-033595Y004582D02*
X007533Y004582D01*
X007533Y004590D02*
X-033595Y004590D01*
X-033595Y004599D02*
X007533Y004599D01*
X007533Y004607D02*
X-033595Y004607D01*
X-033595Y004616D02*
X007533Y004616D01*
X007533Y004624D02*
X-033595Y004624D01*
X-033595Y004633D02*
X007533Y004633D01*
X007533Y004641D02*
X-033595Y004641D01*
X-033595Y004650D02*
X007533Y004650D01*
X007533Y004658D02*
X-033595Y004658D01*
X-033595Y004667D02*
X007533Y004667D01*
X007533Y004675D02*
X-033595Y004675D01*
X-033595Y004684D02*
X007533Y004684D01*
X007533Y004692D02*
X-033595Y004692D01*
X-033595Y004701D02*
X007533Y004701D01*
X007533Y004709D02*
X-033595Y004709D01*
X-033595Y004718D02*
X007533Y004718D01*
X007533Y004726D02*
X-033595Y004726D01*
X-033595Y004735D02*
X007533Y004735D01*
X007533Y004743D02*
X-033595Y004743D01*
X-033595Y004752D02*
X007533Y004752D01*
X007533Y004760D02*
X-033595Y004760D01*
X-033595Y004769D02*
X007533Y004769D01*
X007533Y004777D02*
X-033595Y004777D01*
X-033595Y004786D02*
X007533Y004786D01*
X007533Y004794D02*
X-033595Y004794D01*
X-033595Y004803D02*
X007533Y004803D01*
X007533Y004811D02*
X-033595Y004811D01*
X-033595Y004820D02*
X007533Y004820D01*
X007533Y004828D02*
X-033595Y004828D01*
X-033595Y004837D02*
X007533Y004837D01*
X007533Y004845D02*
X-033595Y004845D01*
X-033595Y004854D02*
X007533Y004854D01*
X007533Y004862D02*
X-033595Y004862D01*
X-033595Y004871D02*
X007533Y004871D01*
X007533Y004879D02*
X-033595Y004879D01*
X-033595Y004888D02*
X007533Y004888D01*
X007533Y004896D02*
X-033595Y004896D01*
X-033595Y004905D02*
X007533Y004905D01*
X007533Y004913D02*
X-033595Y004913D01*
X-033595Y004922D02*
X007533Y004922D01*
X007533Y004930D02*
X-033595Y004930D01*
X-033595Y004939D02*
X007533Y004939D01*
X007533Y004947D02*
X-033595Y004947D01*
X-033595Y004956D02*
X007533Y004956D01*
X007533Y004964D02*
X-033595Y004964D01*
X-033595Y004973D02*
X007533Y004973D01*
X007533Y004981D02*
X-033595Y004981D01*
X-033595Y004990D02*
X007533Y004990D01*
X007533Y004998D02*
X-033595Y004998D01*
X-033595Y005007D02*
X007533Y005007D01*
X007533Y005015D02*
X-033595Y005015D01*
X-033595Y005024D02*
X007533Y005024D01*
X007533Y005032D02*
X-033595Y005032D01*
X-033595Y005041D02*
X007533Y005041D01*
X007533Y005049D02*
X-033595Y005049D01*
X-033595Y005058D02*
X007533Y005058D01*
X007533Y005066D02*
X-033595Y005066D01*
X-033595Y005075D02*
X007533Y005075D01*
X007533Y005083D02*
X-033595Y005083D01*
X-033595Y005092D02*
X007533Y005092D01*
X007533Y005100D02*
X-033595Y005100D01*
X-033595Y005109D02*
X007533Y005109D01*
X007533Y005117D02*
X-033595Y005117D01*
X-033595Y005126D02*
X007533Y005126D01*
X007533Y005134D02*
X-033595Y005134D01*
X-033595Y005143D02*
X007533Y005143D01*
X007533Y005151D02*
X-033595Y005151D01*
X-033595Y005160D02*
X007533Y005160D01*
X007533Y005168D02*
X-033595Y005168D01*
X-033595Y005177D02*
X007533Y005177D01*
X007533Y005185D02*
X-033595Y005185D01*
X-033595Y005194D02*
X007533Y005194D01*
X007533Y005202D02*
X-033595Y005202D01*
X-033595Y005211D02*
X007533Y005211D01*
X007533Y005219D02*
X-033595Y005219D01*
X-033595Y005228D02*
X007533Y005228D01*
X007533Y005236D02*
X-033595Y005236D01*
X-033595Y005245D02*
X007533Y005245D01*
X007533Y005253D02*
X-033595Y005253D01*
X-033595Y005262D02*
X007533Y005262D01*
X007533Y005270D02*
X-033595Y005270D01*
X-033595Y005279D02*
X007533Y005279D01*
X007533Y005287D02*
X-033595Y005287D01*
X-033595Y005296D02*
X007533Y005296D01*
X007533Y005304D02*
X-033595Y005304D01*
X-033595Y005313D02*
X007533Y005313D01*
X007533Y005321D02*
X-033595Y005321D01*
X-033595Y005330D02*
X007533Y005330D01*
X007533Y005338D02*
X-033595Y005338D01*
X-033595Y005347D02*
X007533Y005347D01*
X007533Y005355D02*
X-033595Y005355D01*
X-033595Y005364D02*
X007533Y005364D01*
X007533Y005372D02*
X-033595Y005372D01*
X-033595Y005381D02*
X007533Y005381D01*
X007533Y005389D02*
X-033595Y005389D01*
X-033595Y005398D02*
X007533Y005398D01*
X007533Y005406D02*
X-033595Y005406D01*
X-033595Y005415D02*
X007533Y005415D01*
X007533Y005423D02*
X-033595Y005423D01*
X-033595Y005432D02*
X007533Y005432D01*
X007533Y005440D02*
X-033595Y005440D01*
X-033595Y005449D02*
X007533Y005449D01*
X007533Y005457D02*
X-033595Y005457D01*
X-033595Y005466D02*
X007533Y005466D01*
X007533Y005474D02*
X-033595Y005474D01*
X-033595Y005483D02*
X007533Y005483D01*
X007533Y005491D02*
X-033595Y005491D01*
X-033595Y005500D02*
X007533Y005500D01*
X007533Y005508D02*
X-033595Y005508D01*
X-033595Y005517D02*
X007533Y005517D01*
X007533Y005525D02*
X-033595Y005525D01*
X-033595Y005534D02*
X007533Y005534D01*
X007533Y005542D02*
X-033595Y005542D01*
X-033595Y005551D02*
X007533Y005551D01*
X007533Y005559D02*
X-033595Y005559D01*
X-033595Y005568D02*
X007533Y005568D01*
X007533Y005576D02*
X-033595Y005576D01*
X-033595Y005585D02*
X007533Y005585D01*
X007533Y005593D02*
X-033595Y005593D01*
X-033595Y005602D02*
X007533Y005602D01*
X007533Y005610D02*
X-033595Y005610D01*
X-033595Y005619D02*
X007533Y005619D01*
X007533Y005627D02*
X-033595Y005627D01*
X-033595Y005636D02*
X007533Y005636D01*
X007533Y005644D02*
X-033595Y005644D01*
X-033595Y005653D02*
X007533Y005653D01*
X007533Y005661D02*
X-033595Y005661D01*
X-033595Y005670D02*
X007533Y005670D01*
X007533Y005678D02*
X-033595Y005678D01*
X-033595Y005687D02*
X007533Y005687D01*
X007533Y005695D02*
X-033595Y005695D01*
X-033595Y005704D02*
X007533Y005704D01*
X007533Y005712D02*
X-033595Y005712D01*
X-033595Y005721D02*
X007533Y005721D01*
X007533Y005729D02*
X-033595Y005729D01*
X-033595Y005738D02*
X007533Y005738D01*
X007533Y005746D02*
X-033595Y005746D01*
X-033595Y005755D02*
X007533Y005755D01*
X007533Y005763D02*
X-033595Y005763D01*
X-033595Y005772D02*
X007533Y005772D01*
X007533Y005780D02*
X-033595Y005780D01*
X-033595Y005789D02*
X007533Y005789D01*
X007533Y005797D02*
X-033595Y005797D01*
X-033595Y005806D02*
X007533Y005806D01*
X007533Y005814D02*
X-033595Y005814D01*
X-033595Y005823D02*
X007533Y005823D01*
X007533Y005831D02*
X-033595Y005831D01*
X-033595Y005840D02*
X007533Y005840D01*
X007533Y005848D02*
X-033595Y005848D01*
X-033595Y005857D02*
X007533Y005857D01*
X007533Y005865D02*
X-033595Y005865D01*
X-033595Y005874D02*
X007533Y005874D01*
X007533Y005882D02*
X-033595Y005882D01*
X-033595Y005891D02*
X007533Y005891D01*
X007533Y005899D02*
X-033595Y005899D01*
X-033595Y005908D02*
X007533Y005908D01*
X007533Y005916D02*
X-033595Y005916D01*
X-033595Y005925D02*
X007533Y005925D01*
X007533Y005933D02*
X-033595Y005933D01*
X-033595Y005942D02*
X007533Y005942D01*
X007533Y005950D02*
X-033595Y005950D01*
X-033595Y005959D02*
X007533Y005959D01*
X007533Y005967D02*
X-033595Y005967D01*
X-033595Y005976D02*
X007533Y005976D01*
X007533Y005984D02*
X-033595Y005984D01*
X-033595Y005993D02*
X007533Y005993D01*
X007533Y006001D02*
X-033595Y006001D01*
X-033595Y006010D02*
X007533Y006010D01*
X007533Y006018D02*
X-033595Y006018D01*
X-033595Y006027D02*
X007533Y006027D01*
X007533Y006035D02*
X-033595Y006035D01*
X-033595Y006044D02*
X007533Y006044D01*
X007533Y006052D02*
X-033595Y006052D01*
X-033595Y006061D02*
X007533Y006061D01*
X007533Y006069D02*
X-033595Y006069D01*
X-033595Y006078D02*
X007533Y006078D01*
X007533Y006086D02*
X-033595Y006086D01*
X-033595Y006095D02*
X007533Y006095D01*
X007533Y006103D02*
X-033595Y006103D01*
X-033595Y006112D02*
X007533Y006112D01*
X007533Y006120D02*
X-033595Y006120D01*
X-033595Y006129D02*
X007533Y006129D01*
X007533Y006137D02*
X-033595Y006137D01*
X-033595Y006146D02*
X007533Y006146D01*
X007533Y006154D02*
X-033595Y006154D01*
X-033595Y006163D02*
X007533Y006163D01*
X007533Y006171D02*
X-033595Y006171D01*
X-033595Y006180D02*
X007533Y006180D01*
X007533Y006188D02*
X-033595Y006188D01*
X-033595Y006197D02*
X007533Y006197D01*
X007533Y006205D02*
X-033595Y006205D01*
X-033595Y006214D02*
X007533Y006214D01*
X007533Y006222D02*
X-033595Y006222D01*
X-033595Y006231D02*
X007533Y006231D01*
X007533Y006239D02*
X-033595Y006239D01*
X-033595Y006248D02*
X007533Y006248D01*
X007533Y006256D02*
X-033595Y006256D01*
X-033595Y006265D02*
X007533Y006265D01*
X007533Y006273D02*
X-033595Y006273D01*
X-033595Y006282D02*
X007533Y006282D01*
X007533Y006290D02*
X-033595Y006290D01*
X-033595Y006299D02*
X007533Y006299D01*
X007533Y006307D02*
X-033595Y006307D01*
X-033595Y006316D02*
X007533Y006316D01*
X007533Y006324D02*
X-033595Y006324D01*
X-033595Y006333D02*
X007533Y006333D01*
X007533Y006341D02*
X-033595Y006341D01*
X-033595Y006350D02*
X007533Y006350D01*
X007533Y006358D02*
X-033595Y006358D01*
X-033595Y006367D02*
X007533Y006367D01*
X007533Y006375D02*
X-033595Y006375D01*
X-033595Y006384D02*
X007533Y006384D01*
X007533Y006392D02*
X-033595Y006392D01*
X-033595Y006401D02*
X007533Y006401D01*
X007533Y006409D02*
X-033595Y006409D01*
X-033595Y006418D02*
X007533Y006418D01*
X007533Y006426D02*
X-033595Y006426D01*
X-033595Y006435D02*
X007533Y006435D01*
X007533Y006443D02*
X-033595Y006443D01*
X-033595Y006452D02*
X007533Y006452D01*
X007533Y006460D02*
X-033595Y006460D01*
X-033595Y006469D02*
X007533Y006469D01*
X007533Y006477D02*
X-033595Y006477D01*
X-033595Y006486D02*
X007533Y006486D01*
X007533Y006494D02*
X-033595Y006494D01*
X-033595Y006503D02*
X007533Y006503D01*
X007533Y006511D02*
X-033595Y006511D01*
X-033595Y006520D02*
X007533Y006520D01*
X007533Y006528D02*
X-033595Y006528D01*
X-033595Y006537D02*
X007533Y006537D01*
X007533Y006545D02*
X-033595Y006545D01*
X-033595Y006554D02*
X007533Y006554D01*
X007533Y006562D02*
X-033595Y006562D01*
X-033595Y006571D02*
X007533Y006571D01*
X007533Y006579D02*
X-033595Y006579D01*
X-033595Y006588D02*
X007533Y006588D01*
X007533Y006596D02*
X-033595Y006596D01*
X-033595Y006605D02*
X007533Y006605D01*
X007533Y006613D02*
X-033595Y006613D01*
X-033595Y006622D02*
X007533Y006622D01*
X007533Y006630D02*
X-033595Y006630D01*
X-033595Y006639D02*
X007533Y006639D01*
X007533Y006647D02*
X-033595Y006647D01*
X-033595Y006656D02*
X007533Y006656D01*
X007533Y006664D02*
X-033595Y006664D01*
X-033595Y006673D02*
X007533Y006673D01*
X007533Y006681D02*
X-033595Y006681D01*
X-033595Y006690D02*
X007533Y006690D01*
X007533Y006698D02*
X-033595Y006698D01*
X-033595Y006707D02*
X007533Y006707D01*
X007533Y006715D02*
X-033595Y006715D01*
X-033595Y006724D02*
X007533Y006724D01*
X007533Y006732D02*
X-033595Y006732D01*
X-033595Y006741D02*
X007533Y006741D01*
X007533Y006749D02*
X-033595Y006749D01*
X-033595Y006758D02*
X007533Y006758D01*
X007533Y006766D02*
X-033595Y006766D01*
X-033595Y006775D02*
X007533Y006775D01*
X007533Y006783D02*
X-033595Y006783D01*
X-033595Y006792D02*
X007533Y006792D01*
X007533Y006800D02*
X-033595Y006800D01*
X-033595Y006809D02*
X007533Y006809D01*
X007533Y006817D02*
X-033595Y006817D01*
X-033595Y006826D02*
X007533Y006826D01*
X007533Y006834D02*
X-033595Y006834D01*
X-033595Y006843D02*
X007533Y006843D01*
X007533Y006851D02*
X-033595Y006851D01*
X-033595Y006860D02*
X007533Y006860D01*
X007533Y006868D02*
X-033595Y006868D01*
X-033595Y006877D02*
X007533Y006877D01*
X007533Y006885D02*
X-033595Y006885D01*
X-033595Y006894D02*
X007533Y006894D01*
X007533Y006902D02*
X-033595Y006902D01*
X-033595Y006911D02*
X007533Y006911D01*
X007533Y006919D02*
X-033595Y006919D01*
X-033595Y006928D02*
X007533Y006928D01*
X007533Y006936D02*
X-033595Y006936D01*
X-033595Y006945D02*
X007533Y006945D01*
X007533Y006953D02*
X-033595Y006953D01*
X-033595Y006962D02*
X007533Y006962D01*
X007533Y006970D02*
X-033595Y006970D01*
X-033595Y006979D02*
X007533Y006979D01*
X007533Y006987D02*
X-033595Y006987D01*
X-033595Y006996D02*
X007533Y006996D01*
X007533Y007004D02*
X-033595Y007004D01*
X-033595Y007013D02*
X007533Y007013D01*
X007533Y007021D02*
X-033595Y007021D01*
X-033595Y007030D02*
X007533Y007030D01*
X007533Y007038D02*
X-033595Y007038D01*
X-033595Y007047D02*
X007533Y007047D01*
X007533Y007055D02*
X-033595Y007055D01*
X-033595Y007064D02*
X007533Y007064D01*
X007533Y007072D02*
X-033595Y007072D01*
X-033595Y007081D02*
X007533Y007081D01*
X007533Y007089D02*
X-033595Y007089D01*
X-033595Y007098D02*
X007533Y007098D01*
X007533Y007106D02*
X-033595Y007106D01*
X-033595Y007115D02*
X007533Y007115D01*
X007533Y007123D02*
X-033595Y007123D01*
X-033595Y007132D02*
X007533Y007132D01*
X007533Y007140D02*
X-033595Y007140D01*
X-033595Y007149D02*
X007533Y007149D01*
X007533Y007157D02*
X-033595Y007157D01*
X-033595Y007166D02*
X007533Y007166D01*
X007533Y007174D02*
X-033595Y007174D01*
X-033595Y007183D02*
X007533Y007183D01*
X007533Y007191D02*
X-033595Y007191D01*
X-033595Y007200D02*
X007533Y007200D01*
X007533Y007208D02*
X-033595Y007208D01*
X-033595Y007217D02*
X007533Y007217D01*
X007533Y007225D02*
X-033595Y007225D01*
X-033595Y007234D02*
X007533Y007234D01*
X007533Y007242D02*
X-033595Y007242D01*
X-033595Y007251D02*
X007533Y007251D01*
X007533Y007259D02*
X-033595Y007259D01*
X-033595Y007268D02*
X007533Y007268D01*
X007533Y007276D02*
X-033595Y007276D01*
X-033595Y007285D02*
X007533Y007285D01*
X007533Y007293D02*
X-033595Y007293D01*
X-033595Y007302D02*
X007533Y007302D01*
X007533Y007310D02*
X-033595Y007310D01*
X-033595Y007319D02*
X007533Y007319D01*
X007533Y007327D02*
X-033595Y007327D01*
X-033595Y007336D02*
X007533Y007336D01*
X007533Y007344D02*
X-033595Y007344D01*
X-033595Y007353D02*
X007533Y007353D01*
X007533Y007361D02*
X-033595Y007361D01*
X-033595Y007370D02*
X007533Y007370D01*
X007533Y007378D02*
X-033595Y007378D01*
X-033595Y007387D02*
X007533Y007387D01*
X007533Y007395D02*
X-033595Y007395D01*
X-033595Y007404D02*
X007533Y007404D01*
X007533Y007412D02*
X-033595Y007412D01*
X-033595Y007421D02*
X007533Y007421D01*
X007533Y007429D02*
X-033595Y007429D01*
X-033595Y007438D02*
X007533Y007438D01*
X007533Y007446D02*
X-033595Y007446D01*
X-033595Y007455D02*
X007533Y007455D01*
X007533Y007463D02*
X-033595Y007463D01*
X-033595Y007472D02*
X007533Y007472D01*
X007533Y007480D02*
X-033595Y007480D01*
X-033595Y007489D02*
X007533Y007489D01*
X007533Y007497D02*
X-033595Y007497D01*
X-033595Y007506D02*
X007533Y007506D01*
X007533Y007514D02*
X-033595Y007514D01*
X-033595Y007523D02*
X007533Y007523D01*
X007533Y007531D02*
X-033595Y007531D01*
X-033595Y007540D02*
X007533Y007540D01*
X007533Y007548D02*
X-033595Y007548D01*
X-033595Y007557D02*
X007533Y007557D01*
X007533Y007565D02*
X-033595Y007565D01*
X-033595Y007574D02*
X007533Y007574D01*
X007533Y007582D02*
X-033595Y007582D01*
X-033595Y007591D02*
X007533Y007591D01*
X007533Y007599D02*
X-033595Y007599D01*
X-033595Y007608D02*
X007533Y007608D01*
X007533Y007616D02*
X-033595Y007616D01*
X-033595Y007625D02*
X007533Y007625D01*
X007533Y007633D02*
X-033595Y007633D01*
X-033595Y007642D02*
X007533Y007642D01*
X007533Y007650D02*
X-033595Y007650D01*
X-033595Y007659D02*
X007533Y007659D01*
X007533Y007667D02*
X-033595Y007667D01*
X-033595Y007676D02*
X007533Y007676D01*
X007533Y007684D02*
X-033595Y007684D01*
X-033595Y007693D02*
X007533Y007693D01*
X007533Y007701D02*
X-033595Y007701D01*
X-033595Y007710D02*
X007533Y007710D01*
X007533Y007718D02*
X-033595Y007718D01*
X-033595Y007727D02*
X007533Y007727D01*
X007533Y007735D02*
X-033595Y007735D01*
X-033595Y007744D02*
X007533Y007744D01*
X007533Y007752D02*
X-033595Y007752D01*
X-033595Y007761D02*
X007533Y007761D01*
X007533Y007769D02*
X-033595Y007769D01*
X-033595Y007778D02*
X007533Y007778D01*
X007533Y007786D02*
X-033595Y007786D01*
X-033595Y007795D02*
X007533Y007795D01*
X007533Y007803D02*
X-033595Y007803D01*
X-033595Y007812D02*
X007533Y007812D01*
X007533Y007820D02*
X-033595Y007820D01*
X-033595Y007829D02*
X007533Y007829D01*
X007533Y007837D02*
X-033595Y007837D01*
X-033595Y007846D02*
X007533Y007846D01*
X007533Y007854D02*
X-033595Y007854D01*
X-033595Y007863D02*
X007533Y007863D01*
X007533Y007871D02*
X-033595Y007871D01*
X-033595Y007880D02*
X007533Y007880D01*
X007533Y007888D02*
X-033595Y007888D01*
X-033595Y007897D02*
X007533Y007897D01*
X007533Y007905D02*
X-033595Y007905D01*
X-033595Y007914D02*
X007533Y007914D01*
X007533Y007922D02*
X-033595Y007922D01*
X-033595Y007931D02*
X007533Y007931D01*
X007533Y007939D02*
X-033595Y007939D01*
X-033595Y007948D02*
X007533Y007948D01*
X007533Y007956D02*
X-033595Y007956D01*
X-033595Y007965D02*
X007533Y007965D01*
X007533Y007973D02*
X-033595Y007973D01*
X-033595Y007982D02*
X007533Y007982D01*
X007533Y007990D02*
X-033595Y007990D01*
X-033595Y007999D02*
X007533Y007999D01*
X007533Y008007D02*
X-033595Y008007D01*
X-033595Y008016D02*
X007533Y008016D01*
X007533Y008024D02*
X-033595Y008024D01*
X-033595Y008033D02*
X007533Y008033D01*
X007533Y008041D02*
X-033595Y008041D01*
X-033595Y008050D02*
X007533Y008050D01*
X007533Y008058D02*
X-033595Y008058D01*
X-033595Y008067D02*
X007533Y008067D01*
X007533Y008075D02*
X-033595Y008075D01*
X-033595Y008084D02*
X007533Y008084D01*
X007533Y008092D02*
X-033595Y008092D01*
X-033595Y008101D02*
X007533Y008101D01*
X007533Y008109D02*
X-033595Y008109D01*
X-033595Y008118D02*
X007533Y008118D01*
X007533Y008126D02*
X-033595Y008126D01*
X-033595Y008135D02*
X007533Y008135D01*
X007533Y008143D02*
X-033595Y008143D01*
X-033595Y008152D02*
X007533Y008152D01*
X007533Y008160D02*
X-033595Y008160D01*
X-033595Y008169D02*
X007533Y008169D01*
X007533Y008177D02*
X-033595Y008177D01*
X-033595Y008186D02*
X007533Y008186D01*
X007533Y008194D02*
X-033595Y008194D01*
X-033595Y008203D02*
X007533Y008203D01*
X007533Y008211D02*
X-033595Y008211D01*
X-033595Y008220D02*
X007533Y008220D01*
X007533Y008228D02*
X-033595Y008228D01*
X-033595Y008237D02*
X007533Y008237D01*
X007533Y008245D02*
X-033595Y008245D01*
X-033595Y008254D02*
X007533Y008254D01*
X007533Y008262D02*
X-033595Y008262D01*
X-033595Y008271D02*
X007533Y008271D01*
X007533Y008279D02*
X-033595Y008279D01*
X-033595Y008288D02*
X007533Y008288D01*
X007533Y008296D02*
X-033595Y008296D01*
X-033595Y008305D02*
X007533Y008305D01*
X007533Y008313D02*
X-033595Y008313D01*
X-033595Y008322D02*
X007533Y008322D01*
X007533Y008330D02*
X-033595Y008330D01*
X-033595Y008339D02*
X007533Y008339D01*
X007533Y008347D02*
X-033595Y008347D01*
X-033595Y008356D02*
X007533Y008356D01*
X007533Y008364D02*
X-033595Y008364D01*
X-033595Y008373D02*
X007533Y008373D01*
X007533Y008381D02*
X-033595Y008381D01*
X-033595Y008390D02*
X007533Y008390D01*
X007533Y008398D02*
X-033595Y008398D01*
X-033595Y008407D02*
X007533Y008407D01*
X007533Y008415D02*
X-033595Y008415D01*
X-033595Y008424D02*
X007533Y008424D01*
X007533Y008432D02*
X-033595Y008432D01*
X-033595Y008441D02*
X007533Y008441D01*
X007533Y008449D02*
X-033595Y008449D01*
X-033595Y008458D02*
X007533Y008458D01*
X007533Y008466D02*
X-033595Y008466D01*
X-033595Y008475D02*
X007533Y008475D01*
X007533Y008483D02*
X-033595Y008483D01*
X-033595Y008492D02*
X007533Y008492D01*
X007533Y008500D02*
X-033595Y008500D01*
X-033595Y008509D02*
X007533Y008509D01*
X007533Y008517D02*
X-033595Y008517D01*
X-033595Y008526D02*
X007533Y008526D01*
X007533Y008534D02*
X-033595Y008534D01*
X-033595Y008543D02*
X007533Y008543D01*
X007533Y008551D02*
X-033595Y008551D01*
X-033595Y008560D02*
X007533Y008560D01*
X007533Y008568D02*
X-033595Y008568D01*
X-033595Y008577D02*
X007533Y008577D01*
X007533Y008585D02*
X-033595Y008585D01*
X-033595Y008594D02*
X007533Y008594D01*
X007533Y008602D02*
X-033595Y008602D01*
X-033595Y008611D02*
X007533Y008611D01*
X007533Y008619D02*
X-033595Y008619D01*
X-033595Y008628D02*
X007533Y008628D01*
X007533Y008636D02*
X-033595Y008636D01*
X-033595Y008645D02*
X007533Y008645D01*
X007533Y008653D02*
X-033595Y008653D01*
X-033595Y008662D02*
X007533Y008662D01*
X007533Y008670D02*
X-033595Y008670D01*
X-033595Y008679D02*
X007533Y008679D01*
X007533Y008687D02*
X-033595Y008687D01*
X-033595Y008696D02*
X007533Y008696D01*
X007533Y008704D02*
X-033595Y008704D01*
X-033595Y008713D02*
X007533Y008713D01*
X007533Y008721D02*
X-033595Y008721D01*
X-033595Y008730D02*
X007533Y008730D01*
X007533Y008738D02*
X-033595Y008738D01*
X-033595Y008747D02*
X007533Y008747D01*
X007533Y008755D02*
X-033595Y008755D01*
X-033595Y008764D02*
X007533Y008764D01*
X007533Y008772D02*
X-033595Y008772D01*
X-033595Y008781D02*
X007533Y008781D01*
X007533Y008789D02*
X-033595Y008789D01*
X-033595Y008798D02*
X007533Y008798D01*
X007533Y008806D02*
X-033595Y008806D01*
X-033595Y008815D02*
X007533Y008815D01*
X007533Y008823D02*
X-033595Y008823D01*
X-033595Y008832D02*
X007533Y008832D01*
X007533Y008840D02*
X-033595Y008840D01*
X-033595Y008849D02*
X007533Y008849D01*
X007533Y008857D02*
X-033595Y008857D01*
X-033595Y008866D02*
X007533Y008866D01*
X007533Y008874D02*
X-033595Y008874D01*
X-033595Y008883D02*
X007533Y008883D01*
X007533Y008891D02*
X-033595Y008891D01*
X-033595Y008900D02*
X007533Y008900D01*
X007533Y008908D02*
X-033595Y008908D01*
X-033595Y008917D02*
X007533Y008917D01*
X007533Y008925D02*
X-033595Y008925D01*
X-033595Y008934D02*
X007533Y008934D01*
X007533Y008942D02*
X-033595Y008942D01*
X-033595Y008951D02*
X007533Y008951D01*
X007533Y008959D02*
X-033595Y008959D01*
X-033595Y008968D02*
X007533Y008968D01*
X007533Y008976D02*
X-033595Y008976D01*
X-033595Y008985D02*
X007533Y008985D01*
X007533Y008993D02*
X-033595Y008993D01*
X-033595Y009002D02*
X007533Y009002D01*
X007533Y009010D02*
X-033595Y009010D01*
X-033595Y009019D02*
X007533Y009019D01*
X007533Y009027D02*
X-033595Y009027D01*
X-033595Y009036D02*
X007533Y009036D01*
X007533Y009044D02*
X-033595Y009044D01*
X-033595Y009053D02*
X007533Y009053D01*
X007533Y009061D02*
X-033595Y009061D01*
X-033595Y009070D02*
X007533Y009070D01*
X007533Y009078D02*
X-033595Y009078D01*
X-033595Y009087D02*
X007533Y009087D01*
X007533Y009095D02*
X-033595Y009095D01*
X-033595Y009104D02*
X007533Y009104D01*
X007533Y009112D02*
X-033595Y009112D01*
X-033595Y009121D02*
X007533Y009121D01*
X007533Y009129D02*
X-033595Y009129D01*
X-033595Y009138D02*
X007533Y009138D01*
X007533Y009146D02*
X-033595Y009146D01*
X-033595Y009155D02*
X007533Y009155D01*
X007533Y009163D02*
X-033595Y009163D01*
X-033595Y009172D02*
X007533Y009172D01*
X007533Y009180D02*
X-033595Y009180D01*
X-033595Y009189D02*
X007533Y009189D01*
X007533Y009197D02*
X-033595Y009197D01*
X-033595Y009206D02*
X007533Y009206D01*
X007533Y009214D02*
X-033595Y009214D01*
X-033595Y009223D02*
X007533Y009223D01*
X007533Y009231D02*
X-033595Y009231D01*
X-033595Y009240D02*
X007533Y009240D01*
X007533Y009248D02*
X-033595Y009248D01*
X-033595Y009257D02*
X007533Y009257D01*
X007533Y009265D02*
X-033595Y009265D01*
X-033595Y009274D02*
X007533Y009274D01*
X007533Y009282D02*
X-033595Y009282D01*
X-033595Y009291D02*
X007533Y009291D01*
X007533Y009299D02*
X-033595Y009299D01*
X-033595Y009308D02*
X007533Y009308D01*
X007533Y009316D02*
X-033595Y009316D01*
X-033595Y009325D02*
X007533Y009325D01*
X007533Y009333D02*
X-033595Y009333D01*
X-033595Y009342D02*
X007533Y009342D01*
X007533Y009350D02*
X-033595Y009350D01*
X-033595Y009359D02*
X007533Y009359D01*
X007533Y009367D02*
X-033595Y009367D01*
X-033595Y009376D02*
X007533Y009376D01*
X007533Y009384D02*
X-033595Y009384D01*
X-033595Y009393D02*
X007533Y009393D01*
X007533Y009401D02*
X-033595Y009401D01*
X-033595Y009410D02*
X007533Y009410D01*
X007533Y009418D02*
X-033595Y009418D01*
X-033595Y009427D02*
X007533Y009427D01*
X007533Y009435D02*
X-033595Y009435D01*
X-033595Y009444D02*
X007533Y009444D01*
X007533Y009452D02*
X-033595Y009452D01*
X-033595Y009461D02*
X007533Y009461D01*
X007533Y009469D02*
X-033595Y009469D01*
X-033595Y009478D02*
X007533Y009478D01*
X007533Y009486D02*
X-033595Y009486D01*
X-033595Y009495D02*
X007533Y009495D01*
X007533Y009503D02*
X-033595Y009503D01*
X-033595Y009512D02*
X007533Y009512D01*
X007533Y009520D02*
X-033595Y009520D01*
X-033595Y009529D02*
X007533Y009529D01*
X007533Y009537D02*
X-033595Y009537D01*
X-033595Y009546D02*
X007533Y009546D01*
X007533Y009554D02*
X-033595Y009554D01*
X-033595Y009563D02*
X007533Y009563D01*
X007533Y009571D02*
X-033595Y009571D01*
X-033595Y009580D02*
X007533Y009580D01*
X007533Y009588D02*
X-033595Y009588D01*
X-033595Y009597D02*
X007533Y009597D01*
X007533Y009605D02*
X-033595Y009605D01*
X-033595Y009614D02*
X007533Y009614D01*
X007533Y009622D02*
X-033595Y009622D01*
X-033595Y009631D02*
X007533Y009631D01*
X007533Y009639D02*
X-033595Y009639D01*
X-033595Y009648D02*
X007533Y009648D01*
X007533Y009656D02*
X-033595Y009656D01*
X-033595Y009665D02*
X007533Y009665D01*
X007533Y009673D02*
X-033595Y009673D01*
X-033595Y009682D02*
X007533Y009682D01*
X007533Y009690D02*
X-033595Y009690D01*
X-033595Y009699D02*
X007533Y009699D01*
X007533Y009707D02*
X-033595Y009707D01*
X-033595Y009716D02*
X007533Y009716D01*
X007533Y009724D02*
X-033595Y009724D01*
X-033595Y009733D02*
X007533Y009733D01*
X007533Y009741D02*
X-033595Y009741D01*
X-033595Y009750D02*
X007533Y009750D01*
X007533Y009758D02*
X-033595Y009758D01*
X-033595Y009767D02*
X007533Y009767D01*
X007533Y009775D02*
X-033595Y009775D01*
X-033595Y009784D02*
X007533Y009784D01*
X007533Y009792D02*
X-033595Y009792D01*
X-033595Y009801D02*
X007533Y009801D01*
X007533Y009809D02*
X-033595Y009809D01*
X-033595Y009818D02*
X007533Y009818D01*
X007533Y009826D02*
X-033595Y009826D01*
X-033595Y009835D02*
X007533Y009835D01*
X007533Y009840D02*
X007533Y-001327D01*
X007533Y-007845D01*
X-033595Y-007845D01*
X-033595Y009840D01*
X007533Y009840D01*
X007533Y-000808D02*
X-033595Y-000808D01*
X-033595Y-000816D02*
X007533Y-000816D01*
X007533Y-000825D02*
X-033595Y-000825D01*
X-033595Y-000833D02*
X007533Y-000833D01*
X007533Y-000842D02*
X-033595Y-000842D01*
X-033595Y-000850D02*
X007533Y-000850D01*
X007533Y-000859D02*
X-033595Y-000859D01*
X-033595Y-000867D02*
X007533Y-000867D01*
X007533Y-000876D02*
X-033595Y-000876D01*
X-033595Y-000884D02*
X007533Y-000884D01*
X007533Y-000893D02*
X-033595Y-000893D01*
X-033595Y-000901D02*
X007533Y-000901D01*
X007533Y-000910D02*
X-033595Y-000910D01*
X-033595Y-000918D02*
X007533Y-000918D01*
X007533Y-000927D02*
X-033595Y-000927D01*
X-033595Y-000935D02*
X007533Y-000935D01*
X007533Y-000944D02*
X-033595Y-000944D01*
X-033595Y-000952D02*
X007533Y-000952D01*
X007533Y-000961D02*
X-033595Y-000961D01*
X-033595Y-000969D02*
X007533Y-000969D01*
X007533Y-000978D02*
X-033595Y-000978D01*
X-033595Y-000986D02*
X007533Y-000986D01*
X007533Y-000995D02*
X-033595Y-000995D01*
X-033595Y-001003D02*
X007533Y-001003D01*
X007533Y-001012D02*
X-033595Y-001012D01*
X-033595Y-001020D02*
X007533Y-001020D01*
X007533Y-001029D02*
X-033595Y-001029D01*
X-033595Y-001037D02*
X007533Y-001037D01*
X007533Y-001046D02*
X-033595Y-001046D01*
X-033595Y-001054D02*
X007533Y-001054D01*
X007533Y-001063D02*
X-033595Y-001063D01*
X-033595Y-001071D02*
X007533Y-001071D01*
X007533Y-001080D02*
X-033595Y-001080D01*
X-033595Y-001088D02*
X007533Y-001088D01*
X007533Y-001097D02*
X-033595Y-001097D01*
X-033595Y-001105D02*
X007533Y-001105D01*
X007533Y-001114D02*
X-033595Y-001114D01*
X-033595Y-001122D02*
X007533Y-001122D01*
X007533Y-001131D02*
X-033595Y-001131D01*
X-033595Y-001139D02*
X007533Y-001139D01*
X007533Y-001148D02*
X-033595Y-001148D01*
X-033595Y-001156D02*
X007533Y-001156D01*
X007533Y-001165D02*
X-033595Y-001165D01*
X-033595Y-001173D02*
X007533Y-001173D01*
X007533Y-001182D02*
X-033595Y-001182D01*
X-033595Y-001190D02*
X007533Y-001190D01*
X007533Y-001199D02*
X-033595Y-001199D01*
X-033595Y-001207D02*
X007533Y-001207D01*
X007533Y-001216D02*
X-033595Y-001216D01*
X-033595Y-001224D02*
X007533Y-001224D01*
X007533Y-001233D02*
X-033595Y-001233D01*
X-033595Y-001241D02*
X007533Y-001241D01*
X007533Y-001250D02*
X-033595Y-001250D01*
X-033595Y-001258D02*
X007533Y-001258D01*
X007533Y-001267D02*
X-033595Y-001267D01*
X-033595Y-001275D02*
X007533Y-001275D01*
X007533Y-001284D02*
X-033595Y-001284D01*
X-033595Y-001292D02*
X007533Y-001292D01*
X007533Y-001301D02*
X-033595Y-001301D01*
X-033595Y-001309D02*
X007533Y-001309D01*
X007533Y-001318D02*
X-033595Y-001318D01*
X-033595Y-001326D02*
X007533Y-001326D01*
X007533Y-001335D02*
X-033595Y-001335D01*
X-033595Y-001343D02*
X007533Y-001343D01*
X007533Y-001352D02*
X-033595Y-001352D01*
X-033595Y-001360D02*
X007533Y-001360D01*
X007533Y-001369D02*
X-033595Y-001369D01*
X-033595Y-001377D02*
X007533Y-001377D01*
X007533Y-001386D02*
X-033595Y-001386D01*
X-033595Y-001394D02*
X007533Y-001394D01*
X007533Y-001403D02*
X-033595Y-001403D01*
X-033595Y-001411D02*
X007533Y-001411D01*
X007533Y-001420D02*
X-033595Y-001420D01*
X-033595Y-001428D02*
X007533Y-001428D01*
X007533Y-001437D02*
X-033595Y-001437D01*
X-033595Y-001445D02*
X007533Y-001445D01*
X007533Y-001454D02*
X-033595Y-001454D01*
X-033595Y-001462D02*
X007533Y-001462D01*
X007533Y-001471D02*
X-033595Y-001471D01*
X-033595Y-001479D02*
X007533Y-001479D01*
X007533Y-001488D02*
X-033595Y-001488D01*
X-033595Y-001496D02*
X007533Y-001496D01*
X007533Y-001505D02*
X-033595Y-001505D01*
X-033595Y-001513D02*
X007533Y-001513D01*
X007533Y-001522D02*
X-033595Y-001522D01*
X-033595Y-001530D02*
X007533Y-001530D01*
X007533Y-001539D02*
X-033595Y-001539D01*
X-033595Y-001547D02*
X007533Y-001547D01*
X007533Y-001556D02*
X-033595Y-001556D01*
X-033595Y-001564D02*
X007533Y-001564D01*
X007533Y-001573D02*
X-033595Y-001573D01*
X-033595Y-001581D02*
X007533Y-001581D01*
X007533Y-001590D02*
X-033595Y-001590D01*
X-033595Y-001598D02*
X007533Y-001598D01*
X007533Y-001607D02*
X-033595Y-001607D01*
X-033595Y-001615D02*
X007533Y-001615D01*
X007533Y-001624D02*
X-033595Y-001624D01*
X-033595Y-001632D02*
X007533Y-001632D01*
X007533Y-001641D02*
X-033595Y-001641D01*
X-033595Y-001649D02*
X007533Y-001649D01*
X007533Y-001658D02*
X-033595Y-001658D01*
X-033595Y-001666D02*
X007533Y-001666D01*
X007533Y-001675D02*
X-033595Y-001675D01*
X-033595Y-001683D02*
X007533Y-001683D01*
X007533Y-001692D02*
X-033595Y-001692D01*
X-033595Y-001700D02*
X007533Y-001700D01*
X007533Y-001709D02*
X-033595Y-001709D01*
X-033595Y-001717D02*
X007533Y-001717D01*
X007533Y-001726D02*
X-033595Y-001726D01*
X-033595Y-001734D02*
X007533Y-001734D01*
X007533Y-001743D02*
X-033595Y-001743D01*
X-033595Y-001751D02*
X007533Y-001751D01*
X007533Y-001760D02*
X-033595Y-001760D01*
X-033595Y-001768D02*
X007533Y-001768D01*
X007533Y-001777D02*
X-033595Y-001777D01*
X-033595Y-001785D02*
X007533Y-001785D01*
X007533Y-001794D02*
X-033595Y-001794D01*
X-033595Y-001802D02*
X007533Y-001802D01*
X007533Y-001811D02*
X-033595Y-001811D01*
X-033595Y-001819D02*
X007533Y-001819D01*
X007533Y-001828D02*
X-033595Y-001828D01*
X-033595Y-001836D02*
X007533Y-001836D01*
X007533Y-001845D02*
X-033595Y-001845D01*
X-033595Y-001853D02*
X007533Y-001853D01*
X007533Y-001862D02*
X-033595Y-001862D01*
X-033595Y-001870D02*
X007533Y-001870D01*
X007533Y-001879D02*
X-033595Y-001879D01*
X-033595Y-001887D02*
X007533Y-001887D01*
X007533Y-001896D02*
X-033595Y-001896D01*
X-033595Y-001904D02*
X007533Y-001904D01*
X007533Y-001913D02*
X-033595Y-001913D01*
X-033595Y-001921D02*
X007533Y-001921D01*
X007533Y-001930D02*
X-033595Y-001930D01*
X-033595Y-001938D02*
X007533Y-001938D01*
X007533Y-001947D02*
X-033595Y-001947D01*
X-033595Y-001955D02*
X007533Y-001955D01*
X007533Y-001964D02*
X-033595Y-001964D01*
X-033595Y-001972D02*
X007533Y-001972D01*
X007533Y-001981D02*
X-033595Y-001981D01*
X-033595Y-001989D02*
X007533Y-001989D01*
X007533Y-001998D02*
X-033595Y-001998D01*
X-033595Y-002006D02*
X007533Y-002006D01*
X007533Y-002015D02*
X-033595Y-002015D01*
X-033595Y-002023D02*
X007533Y-002023D01*
X007533Y-002032D02*
X-033595Y-002032D01*
X-033595Y-002040D02*
X007533Y-002040D01*
X007533Y-002049D02*
X-033595Y-002049D01*
X-033595Y-002057D02*
X007533Y-002057D01*
X007533Y-002066D02*
X-033595Y-002066D01*
X-033595Y-002074D02*
X007533Y-002074D01*
X007533Y-002083D02*
X-033595Y-002083D01*
X-033595Y-002091D02*
X007533Y-002091D01*
X007533Y-002100D02*
X-033595Y-002100D01*
X-033595Y-002108D02*
X007533Y-002108D01*
X007533Y-002117D02*
X-033595Y-002117D01*
X-033595Y-002125D02*
X007533Y-002125D01*
X007533Y-002134D02*
X-033595Y-002134D01*
X-033595Y-002142D02*
X007533Y-002142D01*
X007533Y-002151D02*
X-033595Y-002151D01*
X-033595Y-002159D02*
X007533Y-002159D01*
X007533Y-002168D02*
X-033595Y-002168D01*
X-033595Y-002176D02*
X007533Y-002176D01*
X007533Y-002185D02*
X-033595Y-002185D01*
X-033595Y-002193D02*
X007533Y-002193D01*
X007533Y-002202D02*
X-033595Y-002202D01*
X-033595Y-002210D02*
X007533Y-002210D01*
X007533Y-002219D02*
X-033595Y-002219D01*
X-033595Y-002227D02*
X007533Y-002227D01*
X007533Y-002236D02*
X-033595Y-002236D01*
X-033595Y-002244D02*
X007533Y-002244D01*
X007533Y-002253D02*
X-033595Y-002253D01*
X-033595Y-002261D02*
X007533Y-002261D01*
X007533Y-002270D02*
X-033595Y-002270D01*
X-033595Y-002278D02*
X007533Y-002278D01*
X007533Y-002287D02*
X-033595Y-002287D01*
X-033595Y-002295D02*
X007533Y-002295D01*
X007533Y-002304D02*
X-033595Y-002304D01*
X-033595Y-002312D02*
X007533Y-002312D01*
X007533Y-002321D02*
X-033595Y-002321D01*
X-033595Y-002329D02*
X007533Y-002329D01*
X007533Y-002338D02*
X-033595Y-002338D01*
X-033595Y-002346D02*
X007533Y-002346D01*
X007533Y-002355D02*
X-033595Y-002355D01*
X-033595Y-002363D02*
X007533Y-002363D01*
X007533Y-002372D02*
X-033595Y-002372D01*
X-033595Y-002380D02*
X007533Y-002380D01*
X007533Y-002389D02*
X-033595Y-002389D01*
X-033595Y-002397D02*
X007533Y-002397D01*
X007533Y-002406D02*
X-033595Y-002406D01*
X-033595Y-002414D02*
X007533Y-002414D01*
X007533Y-002423D02*
X-033595Y-002423D01*
X-033595Y-002431D02*
X007533Y-002431D01*
X007533Y-002440D02*
X-033595Y-002440D01*
X-033595Y-002448D02*
X007533Y-002448D01*
X007533Y-002457D02*
X-033595Y-002457D01*
X-033595Y-002465D02*
X007533Y-002465D01*
X007533Y-002474D02*
X-033595Y-002474D01*
X-033595Y-002482D02*
X007533Y-002482D01*
X007533Y-002491D02*
X-033595Y-002491D01*
X-033595Y-002499D02*
X007533Y-002499D01*
X007533Y-002508D02*
X-033595Y-002508D01*
X-033595Y-002516D02*
X007533Y-002516D01*
X007533Y-002525D02*
X-033595Y-002525D01*
X-033595Y-002533D02*
X007533Y-002533D01*
X007533Y-002542D02*
X-033595Y-002542D01*
X-033595Y-002550D02*
X007533Y-002550D01*
X007533Y-002559D02*
X-033595Y-002559D01*
X-033595Y-002567D02*
X007533Y-002567D01*
X007533Y-002576D02*
X-033595Y-002576D01*
X-033595Y-002584D02*
X007533Y-002584D01*
X007533Y-002593D02*
X-033595Y-002593D01*
X-033595Y-002601D02*
X007533Y-002601D01*
X007533Y-002610D02*
X-033595Y-002610D01*
X-033595Y-002618D02*
X007533Y-002618D01*
X007533Y-002627D02*
X-033595Y-002627D01*
X-033595Y-002635D02*
X007533Y-002635D01*
X007533Y-002644D02*
X-033595Y-002644D01*
X-033595Y-002652D02*
X007533Y-002652D01*
X007533Y-002661D02*
X-033595Y-002661D01*
X-033595Y-002669D02*
X007533Y-002669D01*
X007533Y-002678D02*
X-033595Y-002678D01*
X-033595Y-002686D02*
X007533Y-002686D01*
X007533Y-002695D02*
X-033595Y-002695D01*
X-033595Y-002703D02*
X007533Y-002703D01*
X007533Y-002712D02*
X-033595Y-002712D01*
X-033595Y-002720D02*
X007533Y-002720D01*
X007533Y-002729D02*
X-033595Y-002729D01*
X-033595Y-002737D02*
X007533Y-002737D01*
X007533Y-002746D02*
X-033595Y-002746D01*
X-033595Y-002754D02*
X007533Y-002754D01*
X007533Y-002763D02*
X-033595Y-002763D01*
X-033595Y-002771D02*
X007533Y-002771D01*
X007533Y-002780D02*
X-033595Y-002780D01*
X-033595Y-002788D02*
X007533Y-002788D01*
X007533Y-002797D02*
X-033595Y-002797D01*
X-033595Y-002805D02*
X007533Y-002805D01*
X007533Y-002814D02*
X-033595Y-002814D01*
X-033595Y-002822D02*
X007533Y-002822D01*
X007533Y-002831D02*
X-033595Y-002831D01*
X-033595Y-002839D02*
X007533Y-002839D01*
X007533Y-002848D02*
X-033595Y-002848D01*
X-033595Y-002856D02*
X007533Y-002856D01*
X007533Y-002865D02*
X-033595Y-002865D01*
X-033595Y-002873D02*
X007533Y-002873D01*
X007533Y-002882D02*
X-033595Y-002882D01*
X-033595Y-002890D02*
X007533Y-002890D01*
X007533Y-002899D02*
X-033595Y-002899D01*
X-033595Y-002907D02*
X007533Y-002907D01*
X007533Y-002916D02*
X-033595Y-002916D01*
X-033595Y-002924D02*
X007533Y-002924D01*
X007533Y-002933D02*
X-033595Y-002933D01*
X-033595Y-002941D02*
X007533Y-002941D01*
X007533Y-002950D02*
X-033595Y-002950D01*
X-033595Y-002958D02*
X007533Y-002958D01*
X007533Y-002967D02*
X-033595Y-002967D01*
X-033595Y-002975D02*
X007533Y-002975D01*
X007533Y-002984D02*
X-033595Y-002984D01*
X-033595Y-002992D02*
X007533Y-002992D01*
X007533Y-003001D02*
X-033595Y-003001D01*
X-033595Y-003009D02*
X007533Y-003009D01*
X007533Y-003018D02*
X-033595Y-003018D01*
X-033595Y-003026D02*
X007533Y-003026D01*
X007533Y-003035D02*
X-033595Y-003035D01*
X-033595Y-003043D02*
X007533Y-003043D01*
X007533Y-003052D02*
X-033595Y-003052D01*
X-033595Y-003060D02*
X007533Y-003060D01*
X007533Y-003069D02*
X-033595Y-003069D01*
X-033595Y-003077D02*
X007533Y-003077D01*
X007533Y-003086D02*
X-033595Y-003086D01*
X-033595Y-003094D02*
X007533Y-003094D01*
X007533Y-003103D02*
X-033595Y-003103D01*
X-033595Y-003111D02*
X007533Y-003111D01*
X007533Y-003120D02*
X-033595Y-003120D01*
X-033595Y-003128D02*
X007533Y-003128D01*
X007533Y-003137D02*
X-033595Y-003137D01*
X-033595Y-003145D02*
X007533Y-003145D01*
X007533Y-003154D02*
X-033595Y-003154D01*
X-033595Y-003162D02*
X007533Y-003162D01*
X007533Y-003171D02*
X-033595Y-003171D01*
X-033595Y-003179D02*
X007533Y-003179D01*
X007533Y-003188D02*
X-033595Y-003188D01*
X-033595Y-003196D02*
X007533Y-003196D01*
X007533Y-003205D02*
X-033595Y-003205D01*
X-033595Y-003213D02*
X007533Y-003213D01*
X007533Y-003222D02*
X-033595Y-003222D01*
X-033595Y-003230D02*
X007533Y-003230D01*
X007533Y-003239D02*
X-033595Y-003239D01*
X-033595Y-003247D02*
X007533Y-003247D01*
X007533Y-003256D02*
X-033595Y-003256D01*
X-033595Y-003264D02*
X007533Y-003264D01*
X007533Y-003273D02*
X-033595Y-003273D01*
X-033595Y-003281D02*
X007533Y-003281D01*
X007533Y-003290D02*
X-033595Y-003290D01*
X-033595Y-003298D02*
X007533Y-003298D01*
X007533Y-003307D02*
X-033595Y-003307D01*
X-033595Y-003315D02*
X007533Y-003315D01*
X007533Y-003324D02*
X-033595Y-003324D01*
X-033595Y-003332D02*
X007533Y-003332D01*
X007533Y-003341D02*
X-033595Y-003341D01*
X-033595Y-003349D02*
X007533Y-003349D01*
X007533Y-003358D02*
X-033595Y-003358D01*
X-033595Y-003366D02*
X007533Y-003366D01*
X007533Y-003375D02*
X-033595Y-003375D01*
X-033595Y-003383D02*
X007533Y-003383D01*
X007533Y-003392D02*
X-033595Y-003392D01*
X-033595Y-003400D02*
X007533Y-003400D01*
X007533Y-003409D02*
X-033595Y-003409D01*
X-033595Y-003417D02*
X007533Y-003417D01*
X007533Y-003426D02*
X-033595Y-003426D01*
X-033595Y-003434D02*
X007533Y-003434D01*
X007533Y-003443D02*
X-033595Y-003443D01*
X-033595Y-003451D02*
X007533Y-003451D01*
X007533Y-003460D02*
X-033595Y-003460D01*
X-033595Y-003468D02*
X007533Y-003468D01*
X007533Y-003477D02*
X-033595Y-003477D01*
X-033595Y-003485D02*
X007533Y-003485D01*
X007533Y-003494D02*
X-033595Y-003494D01*
X-033595Y-003502D02*
X007533Y-003502D01*
X007533Y-003511D02*
X-033595Y-003511D01*
X-033595Y-003519D02*
X007533Y-003519D01*
X007533Y-003528D02*
X-033595Y-003528D01*
X-033595Y-003536D02*
X007533Y-003536D01*
X007533Y-003545D02*
X-033595Y-003545D01*
X-033595Y-003553D02*
X007533Y-003553D01*
X007533Y-003562D02*
X-033595Y-003562D01*
X-033595Y-003570D02*
X007533Y-003570D01*
X007533Y-003579D02*
X-033595Y-003579D01*
X-033595Y-003587D02*
X007533Y-003587D01*
X007533Y-003596D02*
X-033595Y-003596D01*
X-033595Y-003604D02*
X007533Y-003604D01*
X007533Y-003613D02*
X-033595Y-003613D01*
X-033595Y-003621D02*
X007533Y-003621D01*
X007533Y-003630D02*
X-033595Y-003630D01*
X-033595Y-003638D02*
X007533Y-003638D01*
X007533Y-003647D02*
X-033595Y-003647D01*
X-033595Y-003655D02*
X007533Y-003655D01*
X007533Y-003664D02*
X-033595Y-003664D01*
X-033595Y-003672D02*
X007533Y-003672D01*
X007533Y-003681D02*
X-033595Y-003681D01*
X-033595Y-003689D02*
X007533Y-003689D01*
X007533Y-003698D02*
X-033595Y-003698D01*
X-033595Y-003706D02*
X007533Y-003706D01*
X007533Y-003715D02*
X-033595Y-003715D01*
X-033595Y-003723D02*
X007533Y-003723D01*
X007533Y-003732D02*
X-033595Y-003732D01*
X-033595Y-003740D02*
X007533Y-003740D01*
X007533Y-003749D02*
X-033595Y-003749D01*
X-033595Y-003757D02*
X007533Y-003757D01*
X007533Y-003766D02*
X-033595Y-003766D01*
X-033595Y-003774D02*
X007533Y-003774D01*
X007533Y-003783D02*
X-033595Y-003783D01*
X-033595Y-003791D02*
X007533Y-003791D01*
X007533Y-003800D02*
X-033595Y-003800D01*
X-033595Y-003808D02*
X007533Y-003808D01*
X007533Y-003817D02*
X-033595Y-003817D01*
X-033595Y-003825D02*
X007533Y-003825D01*
X007533Y-003834D02*
X-033595Y-003834D01*
X-033595Y-003842D02*
X007533Y-003842D01*
X007533Y-003851D02*
X-033595Y-003851D01*
X-033595Y-003859D02*
X007533Y-003859D01*
X007533Y-003868D02*
X-033595Y-003868D01*
X-033595Y-003876D02*
X007533Y-003876D01*
X007533Y-003885D02*
X-033595Y-003885D01*
X-033595Y-003893D02*
X007533Y-003893D01*
X007533Y-003902D02*
X-033595Y-003902D01*
X-033595Y-003910D02*
X007533Y-003910D01*
X007533Y-003919D02*
X-033595Y-003919D01*
X-033595Y-003927D02*
X007533Y-003927D01*
X007533Y-003936D02*
X-033595Y-003936D01*
X-033595Y-003944D02*
X007533Y-003944D01*
X007533Y-003953D02*
X-033595Y-003953D01*
X-033595Y-003961D02*
X007533Y-003961D01*
X007533Y-003970D02*
X-033595Y-003970D01*
X-033595Y-003978D02*
X007533Y-003978D01*
X007533Y-003987D02*
X-033595Y-003987D01*
X-033595Y-003995D02*
X007533Y-003995D01*
X007533Y-004004D02*
X-033595Y-004004D01*
X-033595Y-004012D02*
X007533Y-004012D01*
X007533Y-004021D02*
X-033595Y-004021D01*
X-033595Y-004029D02*
X007533Y-004029D01*
X007533Y-004038D02*
X-033595Y-004038D01*
X-033595Y-004046D02*
X007533Y-004046D01*
X007533Y-004055D02*
X-033595Y-004055D01*
X-033595Y-004063D02*
X007533Y-004063D01*
X007533Y-004072D02*
X-033595Y-004072D01*
X-033595Y-004080D02*
X007533Y-004080D01*
X007533Y-004089D02*
X-033595Y-004089D01*
X-033595Y-004097D02*
X007533Y-004097D01*
X007533Y-004106D02*
X-033595Y-004106D01*
X-033595Y-004114D02*
X007533Y-004114D01*
X007533Y-004123D02*
X-033595Y-004123D01*
X-033595Y-004131D02*
X007533Y-004131D01*
X007533Y-004140D02*
X-033595Y-004140D01*
X-033595Y-004148D02*
X007533Y-004148D01*
X007533Y-004157D02*
X-033595Y-004157D01*
X-033595Y-004165D02*
X007533Y-004165D01*
X007533Y-004174D02*
X-033595Y-004174D01*
X-033595Y-004182D02*
X007533Y-004182D01*
X007533Y-004191D02*
X-033595Y-004191D01*
X-033595Y-004199D02*
X007533Y-004199D01*
X007533Y-004208D02*
X-033595Y-004208D01*
X-033595Y-004216D02*
X007533Y-004216D01*
X007533Y-004225D02*
X-033595Y-004225D01*
X-033595Y-004233D02*
X007533Y-004233D01*
X007533Y-004242D02*
X-033595Y-004242D01*
X-033595Y-004250D02*
X007533Y-004250D01*
X007533Y-004259D02*
X-033595Y-004259D01*
X-033595Y-004267D02*
X007533Y-004267D01*
X007533Y-004276D02*
X-033595Y-004276D01*
X-033595Y-004284D02*
X007533Y-004284D01*
X007533Y-004293D02*
X-033595Y-004293D01*
X-033595Y-004301D02*
X007533Y-004301D01*
X007533Y-004310D02*
X-033595Y-004310D01*
X-033595Y-004318D02*
X007533Y-004318D01*
X007533Y-004327D02*
X-033595Y-004327D01*
X-033595Y-004335D02*
X007533Y-004335D01*
X007533Y-004344D02*
X-033595Y-004344D01*
X-033595Y-004352D02*
X007533Y-004352D01*
X007533Y-004361D02*
X-033595Y-004361D01*
X-033595Y-004369D02*
X007533Y-004369D01*
X007533Y-004378D02*
X-033595Y-004378D01*
X-033595Y-004386D02*
X007533Y-004386D01*
X007533Y-004395D02*
X-033595Y-004395D01*
X-033595Y-004403D02*
X007533Y-004403D01*
X007533Y-004412D02*
X-033595Y-004412D01*
X-033595Y-004420D02*
X007533Y-004420D01*
X007533Y-004429D02*
X-033595Y-004429D01*
X-033595Y-004437D02*
X007533Y-004437D01*
X007533Y-004446D02*
X-033595Y-004446D01*
X-033595Y-004454D02*
X007533Y-004454D01*
X007533Y-004463D02*
X-033595Y-004463D01*
X-033595Y-004471D02*
X007533Y-004471D01*
X007533Y-004480D02*
X-033595Y-004480D01*
X-033595Y-004488D02*
X007533Y-004488D01*
X007533Y-004497D02*
X-033595Y-004497D01*
X-033595Y-004505D02*
X007533Y-004505D01*
X007533Y-004514D02*
X-033595Y-004514D01*
X-033595Y-004522D02*
X007533Y-004522D01*
X007533Y-004531D02*
X-033595Y-004531D01*
X-033595Y-004539D02*
X007533Y-004539D01*
X007533Y-004548D02*
X-033595Y-004548D01*
X-033595Y-004556D02*
X007533Y-004556D01*
X007533Y-004565D02*
X-033595Y-004565D01*
X-033595Y-004573D02*
X007533Y-004573D01*
X007533Y-004582D02*
X-033595Y-004582D01*
X-033595Y-004590D02*
X007533Y-004590D01*
X007533Y-004599D02*
X-033595Y-004599D01*
X-033595Y-004607D02*
X007533Y-004607D01*
X007533Y-004616D02*
X-033595Y-004616D01*
X-033595Y-004624D02*
X007533Y-004624D01*
X007533Y-004633D02*
X-033595Y-004633D01*
X-033595Y-004641D02*
X007533Y-004641D01*
X007533Y-004650D02*
X-033595Y-004650D01*
X-033595Y-004658D02*
X007533Y-004658D01*
X007533Y-004667D02*
X-033595Y-004667D01*
X-033595Y-004675D02*
X007533Y-004675D01*
X007533Y-004684D02*
X-033595Y-004684D01*
X-033595Y-004692D02*
X007533Y-004692D01*
X007533Y-004701D02*
X-033595Y-004701D01*
X-033595Y-004709D02*
X007533Y-004709D01*
X007533Y-004718D02*
X-033595Y-004718D01*
X-033595Y-004726D02*
X007533Y-004726D01*
X007533Y-004735D02*
X-033595Y-004735D01*
X-033595Y-004743D02*
X007533Y-004743D01*
X007533Y-004752D02*
X-033595Y-004752D01*
X-033595Y-004760D02*
X007533Y-004760D01*
X007533Y-004769D02*
X-033595Y-004769D01*
X-033595Y-004777D02*
X007533Y-004777D01*
X007533Y-004786D02*
X-033595Y-004786D01*
X-033595Y-004794D02*
X007533Y-004794D01*
X007533Y-004803D02*
X-033595Y-004803D01*
X-033595Y-004811D02*
X007533Y-004811D01*
X007533Y-004820D02*
X-033595Y-004820D01*
X-033595Y-004828D02*
X007533Y-004828D01*
X007533Y-004837D02*
X-033595Y-004837D01*
X-033595Y-004845D02*
X007533Y-004845D01*
X007533Y-004854D02*
X-033595Y-004854D01*
X-033595Y-004862D02*
X007533Y-004862D01*
X007533Y-004871D02*
X-033595Y-004871D01*
X-033595Y-004879D02*
X007533Y-004879D01*
X007533Y-004888D02*
X-033595Y-004888D01*
X-033595Y-004896D02*
X007533Y-004896D01*
X007533Y-004905D02*
X-033595Y-004905D01*
X-033595Y-004913D02*
X007533Y-004913D01*
X007533Y-004922D02*
X-033595Y-004922D01*
X-033595Y-004930D02*
X007533Y-004930D01*
X007533Y-004939D02*
X-033595Y-004939D01*
X-033595Y-004947D02*
X007533Y-004947D01*
X007533Y-004956D02*
X-033595Y-004956D01*
X-033595Y-004964D02*
X007533Y-004964D01*
X007533Y-004973D02*
X-033595Y-004973D01*
X-033595Y-004981D02*
X007533Y-004981D01*
X007533Y-004990D02*
X-033595Y-004990D01*
X-033595Y-004998D02*
X007533Y-004998D01*
X007533Y-005007D02*
X-033595Y-005007D01*
X-033595Y-005015D02*
X007533Y-005015D01*
X007533Y-005024D02*
X-033595Y-005024D01*
X-033595Y-005032D02*
X007533Y-005032D01*
X007533Y-005041D02*
X-033595Y-005041D01*
X-033595Y-005049D02*
X007533Y-005049D01*
X007533Y-005058D02*
X-033595Y-005058D01*
X-033595Y-005066D02*
X007533Y-005066D01*
X007533Y-005075D02*
X-033595Y-005075D01*
X-033595Y-005083D02*
X007533Y-005083D01*
X007533Y-005092D02*
X-033595Y-005092D01*
X-033595Y-005100D02*
X007533Y-005100D01*
X007533Y-005109D02*
X-033595Y-005109D01*
X-033595Y-005117D02*
X007533Y-005117D01*
X007533Y-005126D02*
X-033595Y-005126D01*
X-033595Y-005134D02*
X007533Y-005134D01*
X007533Y-005143D02*
X-033595Y-005143D01*
X-033595Y-005151D02*
X007533Y-005151D01*
X007533Y-005160D02*
X-033595Y-005160D01*
X-033595Y-005168D02*
X007533Y-005168D01*
X007533Y-005177D02*
X-033595Y-005177D01*
X-033595Y-005185D02*
X007533Y-005185D01*
X007533Y-005194D02*
X-033595Y-005194D01*
X-033595Y-005202D02*
X007533Y-005202D01*
X007533Y-005211D02*
X-033595Y-005211D01*
X-033595Y-005219D02*
X007533Y-005219D01*
X007533Y-005228D02*
X-033595Y-005228D01*
X-033595Y-005236D02*
X007533Y-005236D01*
X007533Y-005245D02*
X-033595Y-005245D01*
X-033595Y-005253D02*
X007533Y-005253D01*
X007533Y-005262D02*
X-033595Y-005262D01*
X-033595Y-005270D02*
X007533Y-005270D01*
X007533Y-005279D02*
X-033595Y-005279D01*
X-033595Y-005287D02*
X007533Y-005287D01*
X007533Y-005296D02*
X-033595Y-005296D01*
X-033595Y-005304D02*
X007533Y-005304D01*
X007533Y-005313D02*
X-033595Y-005313D01*
X-033595Y-005321D02*
X007533Y-005321D01*
X007533Y-005330D02*
X-033595Y-005330D01*
X-033595Y-005338D02*
X007533Y-005338D01*
X007533Y-005347D02*
X-033595Y-005347D01*
X-033595Y-005355D02*
X007533Y-005355D01*
X007533Y-005364D02*
X-033595Y-005364D01*
X-033595Y-005372D02*
X007533Y-005372D01*
X007533Y-005381D02*
X-033595Y-005381D01*
X-033595Y-005389D02*
X007533Y-005389D01*
X007533Y-005398D02*
X-033595Y-005398D01*
X-033595Y-005406D02*
X007533Y-005406D01*
X007533Y-005415D02*
X-033595Y-005415D01*
X-033595Y-005423D02*
X007533Y-005423D01*
X007533Y-005432D02*
X-033595Y-005432D01*
X-033595Y-005440D02*
X007533Y-005440D01*
X007533Y-005449D02*
X-033595Y-005449D01*
X-033595Y-005457D02*
X007533Y-005457D01*
X007533Y-005466D02*
X-033595Y-005466D01*
X-033595Y-005474D02*
X007533Y-005474D01*
X007533Y-005483D02*
X-033595Y-005483D01*
X-033595Y-005491D02*
X007533Y-005491D01*
X007533Y-005500D02*
X-033595Y-005500D01*
X-033595Y-005508D02*
X007533Y-005508D01*
X007533Y-005517D02*
X-033595Y-005517D01*
X-033595Y-005525D02*
X007533Y-005525D01*
X007533Y-005534D02*
X-033595Y-005534D01*
X-033595Y-005542D02*
X007533Y-005542D01*
X007533Y-005551D02*
X-033595Y-005551D01*
X-033595Y-005559D02*
X007533Y-005559D01*
X007533Y-005568D02*
X-033595Y-005568D01*
X-033595Y-005576D02*
X007533Y-005576D01*
X007533Y-005585D02*
X-033595Y-005585D01*
X-033595Y-005593D02*
X007533Y-005593D01*
X007533Y-005602D02*
X-033595Y-005602D01*
X-033595Y-005610D02*
X007533Y-005610D01*
X007533Y-005619D02*
X-033595Y-005619D01*
X-033595Y-005627D02*
X007533Y-005627D01*
X007533Y-005636D02*
X-033595Y-005636D01*
X-033595Y-005644D02*
X007533Y-005644D01*
X007533Y-005653D02*
X-033595Y-005653D01*
X-033595Y-005661D02*
X007533Y-005661D01*
X007533Y-005670D02*
X-033595Y-005670D01*
X-033595Y-005678D02*
X007533Y-005678D01*
X007533Y-005687D02*
X-033595Y-005687D01*
X-033595Y-005695D02*
X007533Y-005695D01*
X007533Y-005704D02*
X-033595Y-005704D01*
X-033595Y-005712D02*
X007533Y-005712D01*
X007533Y-005721D02*
X-033595Y-005721D01*
X-033595Y-005729D02*
X007533Y-005729D01*
X007533Y-005738D02*
X-033595Y-005738D01*
X-033595Y-005746D02*
X007533Y-005746D01*
X007533Y-005755D02*
X-033595Y-005755D01*
X-033595Y-005763D02*
X007533Y-005763D01*
X007533Y-005772D02*
X-033595Y-005772D01*
X-033595Y-005780D02*
X007533Y-005780D01*
X007533Y-005789D02*
X-033595Y-005789D01*
X-033595Y-005797D02*
X007533Y-005797D01*
X007533Y-005806D02*
X-033595Y-005806D01*
X-033595Y-005814D02*
X007533Y-005814D01*
X007533Y-005823D02*
X-033595Y-005823D01*
X-033595Y-005831D02*
X007533Y-005831D01*
X007533Y-005840D02*
X-033595Y-005840D01*
X-033595Y-005848D02*
X007533Y-005848D01*
X007533Y-005857D02*
X-033595Y-005857D01*
X-033595Y-005865D02*
X007533Y-005865D01*
X007533Y-005874D02*
X-033595Y-005874D01*
X-033595Y-005882D02*
X007533Y-005882D01*
X007533Y-005891D02*
X-033595Y-005891D01*
X-033595Y-005899D02*
X007533Y-005899D01*
X007533Y-005908D02*
X-033595Y-005908D01*
X-033595Y-005916D02*
X007533Y-005916D01*
X007533Y-005925D02*
X-033595Y-005925D01*
X-033595Y-005933D02*
X007533Y-005933D01*
X007533Y-005942D02*
X-033595Y-005942D01*
X-033595Y-005950D02*
X007533Y-005950D01*
X007533Y-005959D02*
X-033595Y-005959D01*
X-033595Y-005967D02*
X007533Y-005967D01*
X007533Y-005976D02*
X-033595Y-005976D01*
X-033595Y-005984D02*
X007533Y-005984D01*
X007533Y-005993D02*
X-033595Y-005993D01*
X-033595Y-006001D02*
X007533Y-006001D01*
X007533Y-006010D02*
X-033595Y-006010D01*
X-033595Y-006018D02*
X007533Y-006018D01*
X007533Y-006027D02*
X-033595Y-006027D01*
X-033595Y-006035D02*
X007533Y-006035D01*
X007533Y-006044D02*
X-033595Y-006044D01*
X-033595Y-006052D02*
X007533Y-006052D01*
X007533Y-006061D02*
X-033595Y-006061D01*
X-033595Y-006069D02*
X007533Y-006069D01*
X007533Y-006078D02*
X-033595Y-006078D01*
X-033595Y-006086D02*
X007533Y-006086D01*
X007533Y-006095D02*
X-033595Y-006095D01*
X-033595Y-006103D02*
X007533Y-006103D01*
X007533Y-006112D02*
X-033595Y-006112D01*
X-033595Y-006120D02*
X007533Y-006120D01*
X007533Y-006129D02*
X-033595Y-006129D01*
X-033595Y-006137D02*
X007533Y-006137D01*
X007533Y-006146D02*
X-033595Y-006146D01*
X-033595Y-006154D02*
X007533Y-006154D01*
X007533Y-006163D02*
X-033595Y-006163D01*
X-033595Y-006171D02*
X007533Y-006171D01*
X007533Y-006180D02*
X-033595Y-006180D01*
X-033595Y-006188D02*
X007533Y-006188D01*
X007533Y-006197D02*
X-033595Y-006197D01*
X-033595Y-006205D02*
X007533Y-006205D01*
X007533Y-006214D02*
X-033595Y-006214D01*
X-033595Y-006222D02*
X007533Y-006222D01*
X007533Y-006231D02*
X-033595Y-006231D01*
X-033595Y-006239D02*
X007533Y-006239D01*
X007533Y-006248D02*
X-033595Y-006248D01*
X-033595Y-006256D02*
X007533Y-006256D01*
X007533Y-006265D02*
X-033595Y-006265D01*
X-033595Y-006273D02*
X007533Y-006273D01*
X007533Y-006282D02*
X-033595Y-006282D01*
X-033595Y-006290D02*
X007533Y-006290D01*
X007533Y-006299D02*
X-033595Y-006299D01*
X-033595Y-006307D02*
X007533Y-006307D01*
X007533Y-006316D02*
X-033595Y-006316D01*
X-033595Y-006324D02*
X007533Y-006324D01*
X007533Y-006333D02*
X-033595Y-006333D01*
X-033595Y-006341D02*
X007533Y-006341D01*
X007533Y-006350D02*
X-033595Y-006350D01*
X-033595Y-006358D02*
X007533Y-006358D01*
X007533Y-006367D02*
X-033595Y-006367D01*
X-033595Y-006375D02*
X007533Y-006375D01*
X007533Y-006384D02*
X-033595Y-006384D01*
X-033595Y-006392D02*
X007533Y-006392D01*
X007533Y-006401D02*
X-033595Y-006401D01*
X-033595Y-006409D02*
X007533Y-006409D01*
X007533Y-006418D02*
X-033595Y-006418D01*
X-033595Y-006426D02*
X007533Y-006426D01*
X007533Y-006435D02*
X-033595Y-006435D01*
X-033595Y-006443D02*
X007533Y-006443D01*
X007533Y-006452D02*
X-033595Y-006452D01*
X-033595Y-006460D02*
X007533Y-006460D01*
X007533Y-006469D02*
X-033595Y-006469D01*
X-033595Y-006477D02*
X007533Y-006477D01*
X007533Y-006486D02*
X-033595Y-006486D01*
X-033595Y-006494D02*
X007533Y-006494D01*
X007533Y-006503D02*
X-033595Y-006503D01*
X-033595Y-006511D02*
X007533Y-006511D01*
X007533Y-006520D02*
X-033595Y-006520D01*
X-033595Y-006528D02*
X007533Y-006528D01*
X007533Y-006537D02*
X-033595Y-006537D01*
X-033595Y-006545D02*
X007533Y-006545D01*
X007533Y-006554D02*
X-033595Y-006554D01*
X-033595Y-006562D02*
X007533Y-006562D01*
X007533Y-006571D02*
X-033595Y-006571D01*
X-033595Y-006579D02*
X007533Y-006579D01*
X007533Y-006588D02*
X-033595Y-006588D01*
X-033595Y-006596D02*
X007533Y-006596D01*
X007533Y-006605D02*
X-033595Y-006605D01*
X-033595Y-006613D02*
X007533Y-006613D01*
X007533Y-006622D02*
X-033595Y-006622D01*
X-033595Y-006630D02*
X007533Y-006630D01*
X007533Y-006639D02*
X-033595Y-006639D01*
X-033595Y-006647D02*
X007533Y-006647D01*
X007533Y-006656D02*
X-033595Y-006656D01*
X-033595Y-006664D02*
X007533Y-006664D01*
X007533Y-006673D02*
X-033595Y-006673D01*
X-033595Y-006681D02*
X007533Y-006681D01*
X007533Y-006690D02*
X-033595Y-006690D01*
X-033595Y-006698D02*
X007533Y-006698D01*
X007533Y-006707D02*
X-033595Y-006707D01*
X-033595Y-006715D02*
X007533Y-006715D01*
X007533Y-006724D02*
X-033595Y-006724D01*
X-033595Y-006732D02*
X007533Y-006732D01*
X007533Y-006741D02*
X-033595Y-006741D01*
X-033595Y-006749D02*
X007533Y-006749D01*
X007533Y-006758D02*
X-033595Y-006758D01*
X-033595Y-006766D02*
X007533Y-006766D01*
X007533Y-006775D02*
X-033595Y-006775D01*
X-033595Y-006783D02*
X007533Y-006783D01*
X007533Y-006792D02*
X-033595Y-006792D01*
X-033595Y-006800D02*
X007533Y-006800D01*
X007533Y-006809D02*
X-033595Y-006809D01*
X-033595Y-006817D02*
X007533Y-006817D01*
X007533Y-006826D02*
X-033595Y-006826D01*
X-033595Y-006834D02*
X007533Y-006834D01*
X007533Y-006843D02*
X-033595Y-006843D01*
X-033595Y-006851D02*
X007533Y-006851D01*
X007533Y-006860D02*
X-033595Y-006860D01*
X-033595Y-006868D02*
X007533Y-006868D01*
X007533Y-006877D02*
X-033595Y-006877D01*
X-033595Y-006885D02*
X007533Y-006885D01*
X007533Y-006894D02*
X-033595Y-006894D01*
X-033595Y-006902D02*
X007533Y-006902D01*
X007533Y-006911D02*
X-033595Y-006911D01*
X-033595Y-006919D02*
X007533Y-006919D01*
X007533Y-006928D02*
X-033595Y-006928D01*
X-033595Y-006936D02*
X007533Y-006936D01*
X007533Y-006945D02*
X-033595Y-006945D01*
X-033595Y-006953D02*
X007533Y-006953D01*
X007533Y-006962D02*
X-033595Y-006962D01*
X-033595Y-006970D02*
X007533Y-006970D01*
X007533Y-006979D02*
X-033595Y-006979D01*
X-033595Y-006987D02*
X007533Y-006987D01*
X007533Y-006996D02*
X-033595Y-006996D01*
X-033595Y-007004D02*
X007533Y-007004D01*
X007533Y-007013D02*
X-033595Y-007013D01*
X-033595Y-007021D02*
X007533Y-007021D01*
X007533Y-007030D02*
X-033595Y-007030D01*
X-033595Y-007038D02*
X007533Y-007038D01*
X007533Y-007047D02*
X-033595Y-007047D01*
X-033595Y-007055D02*
X007533Y-007055D01*
X007533Y-007064D02*
X-033595Y-007064D01*
X-033595Y-007072D02*
X007533Y-007072D01*
X007533Y-007081D02*
X-033595Y-007081D01*
X-033595Y-007089D02*
X007533Y-007089D01*
X007533Y-007098D02*
X-033595Y-007098D01*
X-033595Y-007106D02*
X007533Y-007106D01*
X007533Y-007115D02*
X-033595Y-007115D01*
X-033595Y-007123D02*
X007533Y-007123D01*
X007533Y-007132D02*
X-033595Y-007132D01*
X-033595Y-007140D02*
X007533Y-007140D01*
X007533Y-007149D02*
X-033595Y-007149D01*
X-033595Y-007157D02*
X007533Y-007157D01*
X007533Y-007166D02*
X-033595Y-007166D01*
X-033595Y-007174D02*
X007533Y-007174D01*
X007533Y-007183D02*
X-033595Y-007183D01*
X-033595Y-007191D02*
X007533Y-007191D01*
X007533Y-007200D02*
X-033595Y-007200D01*
X-033595Y-007208D02*
X007533Y-007208D01*
X007533Y-007217D02*
X-033595Y-007217D01*
X-033595Y-007225D02*
X007533Y-007225D01*
X007533Y-007234D02*
X-033595Y-007234D01*
X-033595Y-007242D02*
X007533Y-007242D01*
X007533Y-007251D02*
X-033595Y-007251D01*
X-033595Y-007259D02*
X007533Y-007259D01*
X007533Y-007268D02*
X-033595Y-007268D01*
X-033595Y-007276D02*
X007533Y-007276D01*
X007533Y-007285D02*
X-033595Y-007285D01*
X-033595Y-007293D02*
X007533Y-007293D01*
X007533Y-007302D02*
X-033595Y-007302D01*
X-033595Y-007310D02*
X007533Y-007310D01*
X007533Y-007319D02*
X-033595Y-007319D01*
X-033595Y-007327D02*
X007533Y-007327D01*
X007533Y-007336D02*
X-033595Y-007336D01*
X-033595Y-007344D02*
X007533Y-007344D01*
X007533Y-007353D02*
X-033595Y-007353D01*
X-033595Y-007361D02*
X007533Y-007361D01*
X007533Y-007370D02*
X-033595Y-007370D01*
X-033595Y-007378D02*
X007533Y-007378D01*
X007533Y-007387D02*
X-033595Y-007387D01*
X-033595Y-007395D02*
X007533Y-007395D01*
X007533Y-007404D02*
X-033595Y-007404D01*
X-033595Y-007412D02*
X007533Y-007412D01*
X007533Y-007421D02*
X-033595Y-007421D01*
X-033595Y-007429D02*
X007533Y-007429D01*
X007533Y-007438D02*
X-033595Y-007438D01*
X-033595Y-007446D02*
X007533Y-007446D01*
X007533Y-007455D02*
X-033595Y-007455D01*
X-033595Y-007463D02*
X007533Y-007463D01*
X007533Y-007472D02*
X-033595Y-007472D01*
X-033595Y-007480D02*
X007533Y-007480D01*
X007533Y-007489D02*
X-033595Y-007489D01*
X-033595Y-007497D02*
X007533Y-007497D01*
X007533Y-007506D02*
X-033595Y-007506D01*
X-033595Y-007514D02*
X007533Y-007514D01*
X007533Y-007523D02*
X-033595Y-007523D01*
X-033595Y-007531D02*
X007533Y-007531D01*
X007533Y-007540D02*
X-033595Y-007540D01*
X-033595Y-007548D02*
X007533Y-007548D01*
X007533Y-007557D02*
X-033595Y-007557D01*
X-033595Y-007565D02*
X007533Y-007565D01*
X007533Y-007574D02*
X-033595Y-007574D01*
X-033595Y-007582D02*
X007533Y-007582D01*
X007533Y-007591D02*
X-033595Y-007591D01*
X-033595Y-007599D02*
X007533Y-007599D01*
X007533Y-007608D02*
X-033595Y-007608D01*
X-033595Y-007616D02*
X007533Y-007616D01*
X007533Y-007625D02*
X-033595Y-007625D01*
X-033595Y-007633D02*
X007533Y-007633D01*
X007533Y-007642D02*
X-033595Y-007642D01*
X-033595Y-007650D02*
X007533Y-007650D01*
X007533Y-007659D02*
X-033595Y-007659D01*
X-033595Y-007667D02*
X007533Y-007667D01*
X007533Y-007676D02*
X-033595Y-007676D01*
X-033595Y-007684D02*
X007533Y-007684D01*
X007533Y-007693D02*
X-033595Y-007693D01*
X-033595Y-007701D02*
X007533Y-007701D01*
X007533Y-007710D02*
X-033595Y-007710D01*
X-033595Y-007718D02*
X007533Y-007718D01*
X007533Y-007727D02*
X-033595Y-007727D01*
X-033595Y-007735D02*
X007533Y-007735D01*
X007533Y-007744D02*
X-033595Y-007744D01*
X-033595Y-007752D02*
X007533Y-007752D01*
X007533Y-007761D02*
X-033595Y-007761D01*
X-033595Y-007769D02*
X007533Y-007769D01*
X007533Y-007778D02*
X-033595Y-007778D01*
X-033595Y-007786D02*
X007533Y-007786D01*
X007533Y-007795D02*
X-033595Y-007795D01*
X-033595Y-007803D02*
X007533Y-007803D01*
X007533Y-007812D02*
X-033595Y-007812D01*
X-033595Y-007820D02*
X007533Y-007820D01*
X007533Y-007829D02*
X-033595Y-007829D01*
X-033595Y-007837D02*
X007533Y-007837D01*
D12*
X003875Y001000D03*
X006125Y002625D03*
X006750Y002625D03*
X007375Y002625D03*
X004000Y002750D03*
X005000Y006250D03*
X005375Y006625D03*
X005000Y007000D03*
X006125Y-000875D03*
X006750Y-000875D03*
X007250Y-000875D03*
X-032125Y-000875D03*
X-032750Y-000875D03*
X-033375Y-000875D03*
X-033375Y002625D03*
X-032750Y002625D03*
X-032125Y002625D03*
M02*
