G75*
G70*
%OFA0B0*%
%FSLAX24Y24*%
%IPPOS*%
%LPD*%
%AMOC8*
5,1,8,0,0,1.08239X$1,22.5*
%
%ADD10C,0.0010*%
%ADD11C,0.0130*%
D10*
X000105Y000105D02*
X000105Y023105D01*
X029105Y023105D01*
X029105Y000105D01*
X000105Y000105D01*
D11*
X001170Y003170D02*
X001550Y003550D01*
X001550Y003645D01*
X001455Y003740D01*
X001265Y003740D01*
X001170Y003645D01*
X001170Y003170D02*
X001550Y003170D01*
X001815Y003265D02*
X002195Y003645D01*
X002195Y003265D01*
X002100Y003170D01*
X001910Y003170D01*
X001815Y003265D01*
X001815Y003645D01*
X001910Y003740D01*
X002100Y003740D01*
X002195Y003645D01*
X002459Y003550D02*
X002649Y003740D01*
X002649Y003170D01*
X002459Y003170D02*
X002839Y003170D01*
X003104Y003265D02*
X003199Y003170D01*
X003389Y003170D01*
X003484Y003265D01*
X003484Y003360D01*
X003389Y003455D01*
X003294Y003455D01*
X003389Y003455D02*
X003484Y003550D01*
X003484Y003645D01*
X003389Y003740D01*
X003199Y003740D01*
X003104Y003645D01*
X003104Y004170D02*
X003104Y004740D01*
X003484Y004170D01*
X003484Y004740D01*
X003843Y004645D02*
X003843Y004265D01*
X003938Y004170D01*
X004129Y004170D01*
X004224Y004265D01*
X004224Y004645D01*
X004129Y004740D01*
X003938Y004740D01*
X003843Y004645D01*
X003748Y004170D02*
X004319Y004740D01*
X004608Y004740D02*
X004893Y004740D01*
X004988Y004645D01*
X004988Y004455D01*
X004893Y004360D01*
X004608Y004360D01*
X004798Y004360D02*
X004988Y004170D01*
X005252Y004265D02*
X005347Y004170D01*
X005537Y004170D01*
X005632Y004265D01*
X005252Y004265D02*
X005252Y004645D01*
X005347Y004740D01*
X005537Y004740D01*
X005632Y004645D01*
X005682Y005170D02*
X005682Y005550D01*
X005872Y005740D01*
X006062Y005550D01*
X006062Y005170D01*
X006062Y005455D02*
X005682Y005455D01*
X005418Y005360D02*
X005418Y005265D01*
X005323Y005170D01*
X005132Y005170D01*
X005037Y005265D01*
X005132Y005455D02*
X005323Y005455D01*
X005418Y005360D01*
X005418Y005645D02*
X005323Y005740D01*
X005132Y005740D01*
X005037Y005645D01*
X005037Y005550D01*
X005132Y005455D01*
X004773Y005455D02*
X004393Y005455D01*
X004129Y005645D02*
X004129Y005740D01*
X004129Y005645D02*
X003938Y005455D01*
X003938Y005170D01*
X003938Y005455D02*
X003748Y005645D01*
X003748Y005740D01*
X003484Y005645D02*
X003484Y005550D01*
X003389Y005455D01*
X003104Y005455D01*
X002839Y005455D02*
X002459Y005455D01*
X002195Y005265D02*
X002100Y005170D01*
X001910Y005170D01*
X001815Y005265D01*
X001815Y005645D01*
X001910Y005740D01*
X002100Y005740D01*
X002195Y005645D01*
X001550Y005645D02*
X001455Y005740D01*
X001265Y005740D01*
X001170Y005645D01*
X001170Y005265D01*
X001265Y005170D01*
X001455Y005170D01*
X001550Y005265D01*
X001170Y004740D02*
X001170Y004170D01*
X001455Y004170D01*
X001550Y004265D01*
X001550Y004455D01*
X001455Y004550D01*
X001170Y004550D01*
X001815Y004550D02*
X001815Y004265D01*
X001910Y004170D01*
X002195Y004170D01*
X002195Y004075D02*
X002100Y003980D01*
X002005Y003980D01*
X002195Y004075D02*
X002195Y004550D01*
X003104Y005170D02*
X003389Y005170D01*
X003484Y005265D01*
X003484Y005360D01*
X003389Y005455D01*
X003484Y005645D02*
X003389Y005740D01*
X003104Y005740D01*
X003104Y005170D01*
X004608Y004740D02*
X004608Y004170D01*
M02*
