G75*
G70*
%OFA0B0*%
%FSLAX24Y24*%
%IPPOS*%
%LPD*%
%AMOC8*
5,1,8,0,0,1.08239X$1,22.5*
%
%ADD10C,0.0010*%
D10*
X000105Y000105D02*
X029105Y000105D01*
X029105Y023105D01*
X000105Y023105D01*
X000105Y000105D01*
X029105Y000105D01*
X029105Y023105D01*
X000105Y023105D01*
X000105Y000105D01*
X029105Y000105D01*
X029105Y000114D02*
X000105Y000114D01*
X000105Y000122D02*
X029105Y000122D01*
X029105Y000131D02*
X000105Y000131D01*
X000105Y000139D02*
X029105Y000139D01*
X029105Y000148D02*
X000105Y000148D01*
X000105Y000156D02*
X029105Y000156D01*
X029105Y000165D02*
X000105Y000165D01*
X000105Y000173D02*
X029105Y000173D01*
X029105Y000182D02*
X000105Y000182D01*
X000105Y000190D02*
X029105Y000190D01*
X029105Y000199D02*
X000105Y000199D01*
X000105Y000207D02*
X029105Y000207D01*
X029105Y000216D02*
X000105Y000216D01*
X000105Y000224D02*
X029105Y000224D01*
X029105Y000233D02*
X000105Y000233D01*
X000105Y000241D02*
X029105Y000241D01*
X029105Y000250D02*
X000105Y000250D01*
X000105Y000258D02*
X029105Y000258D01*
X029105Y000267D02*
X000105Y000267D01*
X000105Y000275D02*
X029105Y000275D01*
X029105Y000284D02*
X000105Y000284D01*
X000105Y000292D02*
X029105Y000292D01*
X029105Y000301D02*
X000105Y000301D01*
X000105Y000309D02*
X029105Y000309D01*
X029105Y000318D02*
X000105Y000318D01*
X000105Y000326D02*
X029105Y000326D01*
X029105Y000335D02*
X000105Y000335D01*
X000105Y000343D02*
X029105Y000343D01*
X029105Y000352D02*
X000105Y000352D01*
X000105Y000360D02*
X029105Y000360D01*
X029105Y000369D02*
X000105Y000369D01*
X000105Y000377D02*
X029105Y000377D01*
X029105Y000386D02*
X000105Y000386D01*
X000105Y000394D02*
X029105Y000394D01*
X029105Y000403D02*
X000105Y000403D01*
X000105Y000411D02*
X029105Y000411D01*
X029105Y000420D02*
X000105Y000420D01*
X000105Y000428D02*
X029105Y000428D01*
X029105Y000437D02*
X000105Y000437D01*
X000105Y000445D02*
X029105Y000445D01*
X029105Y000454D02*
X000105Y000454D01*
X000105Y000462D02*
X029105Y000462D01*
X029105Y000471D02*
X000105Y000471D01*
X000105Y000479D02*
X029105Y000479D01*
X029105Y000488D02*
X000105Y000488D01*
X000105Y000496D02*
X029105Y000496D01*
X029105Y000505D02*
X000105Y000505D01*
X000105Y000513D02*
X029105Y000513D01*
X029105Y000522D02*
X000105Y000522D01*
X000105Y000530D02*
X029105Y000530D01*
X029105Y000539D02*
X000105Y000539D01*
X000105Y000547D02*
X029105Y000547D01*
X029105Y000556D02*
X000105Y000556D01*
X000105Y000564D02*
X029105Y000564D01*
X029105Y000573D02*
X000105Y000573D01*
X000105Y000581D02*
X029105Y000581D01*
X029105Y000590D02*
X000105Y000590D01*
X000105Y000598D02*
X029105Y000598D01*
X029105Y000607D02*
X000105Y000607D01*
X000105Y000615D02*
X029105Y000615D01*
X029105Y000624D02*
X000105Y000624D01*
X000105Y000632D02*
X029105Y000632D01*
X029105Y000641D02*
X000105Y000641D01*
X000105Y000649D02*
X029105Y000649D01*
X029105Y000658D02*
X000105Y000658D01*
X000105Y000666D02*
X029105Y000666D01*
X029105Y000675D02*
X000105Y000675D01*
X000105Y000683D02*
X029105Y000683D01*
X029105Y000692D02*
X000105Y000692D01*
X000105Y000700D02*
X029105Y000700D01*
X029105Y000709D02*
X000105Y000709D01*
X000105Y000717D02*
X029105Y000717D01*
X029105Y000726D02*
X000105Y000726D01*
X000105Y000734D02*
X029105Y000734D01*
X029105Y000743D02*
X000105Y000743D01*
X000105Y000751D02*
X029105Y000751D01*
X029105Y000760D02*
X000105Y000760D01*
X000105Y000768D02*
X029105Y000768D01*
X029105Y000777D02*
X000105Y000777D01*
X000105Y000785D02*
X029105Y000785D01*
X029105Y000794D02*
X000105Y000794D01*
X000105Y000802D02*
X029105Y000802D01*
X029105Y000811D02*
X000105Y000811D01*
X000105Y000819D02*
X029105Y000819D01*
X029105Y000828D02*
X000105Y000828D01*
X000105Y000836D02*
X029105Y000836D01*
X029105Y000845D02*
X000105Y000845D01*
X000105Y000853D02*
X029105Y000853D01*
X029105Y000862D02*
X000105Y000862D01*
X000105Y000870D02*
X029105Y000870D01*
X029105Y000879D02*
X000105Y000879D01*
X000105Y000887D02*
X029105Y000887D01*
X029105Y000896D02*
X000105Y000896D01*
X000105Y000904D02*
X029105Y000904D01*
X029105Y000913D02*
X000105Y000913D01*
X000105Y000921D02*
X029105Y000921D01*
X029105Y000930D02*
X000105Y000930D01*
X000105Y000938D02*
X029105Y000938D01*
X029105Y000947D02*
X000105Y000947D01*
X000105Y000955D02*
X029105Y000955D01*
X029105Y000964D02*
X000105Y000964D01*
X000105Y000972D02*
X029105Y000972D01*
X029105Y000981D02*
X000105Y000981D01*
X000105Y000989D02*
X029105Y000989D01*
X029105Y000998D02*
X000105Y000998D01*
X000105Y001006D02*
X029105Y001006D01*
X029105Y001015D02*
X000105Y001015D01*
X000105Y001023D02*
X029105Y001023D01*
X029105Y001032D02*
X000105Y001032D01*
X000105Y001040D02*
X029105Y001040D01*
X029105Y001049D02*
X000105Y001049D01*
X000105Y001057D02*
X029105Y001057D01*
X029105Y001066D02*
X000105Y001066D01*
X000105Y001074D02*
X029105Y001074D01*
X029105Y001083D02*
X000105Y001083D01*
X000105Y001091D02*
X029105Y001091D01*
X029105Y001100D02*
X000105Y001100D01*
X000105Y001108D02*
X029105Y001108D01*
X029105Y001117D02*
X000105Y001117D01*
X000105Y001125D02*
X029105Y001125D01*
X029105Y001134D02*
X000105Y001134D01*
X000105Y001142D02*
X029105Y001142D01*
X029105Y001151D02*
X000105Y001151D01*
X000105Y001159D02*
X029105Y001159D01*
X029105Y001168D02*
X000105Y001168D01*
X000105Y001176D02*
X029105Y001176D01*
X029105Y001185D02*
X000105Y001185D01*
X000105Y001193D02*
X029105Y001193D01*
X029105Y001202D02*
X000105Y001202D01*
X000105Y001210D02*
X029105Y001210D01*
X029105Y001219D02*
X000105Y001219D01*
X000105Y001227D02*
X029105Y001227D01*
X029105Y001236D02*
X000105Y001236D01*
X000105Y001244D02*
X029105Y001244D01*
X029105Y001253D02*
X000105Y001253D01*
X000105Y001261D02*
X029105Y001261D01*
X029105Y001270D02*
X000105Y001270D01*
X000105Y001278D02*
X029105Y001278D01*
X029105Y001287D02*
X000105Y001287D01*
X000105Y001295D02*
X029105Y001295D01*
X029105Y001304D02*
X000105Y001304D01*
X000105Y001312D02*
X029105Y001312D01*
X029105Y001321D02*
X000105Y001321D01*
X000105Y001329D02*
X029105Y001329D01*
X029105Y001338D02*
X000105Y001338D01*
X000105Y001346D02*
X029105Y001346D01*
X029105Y001355D02*
X000105Y001355D01*
X000105Y001363D02*
X029105Y001363D01*
X029105Y001372D02*
X000105Y001372D01*
X000105Y001380D02*
X029105Y001380D01*
X029105Y001389D02*
X000105Y001389D01*
X000105Y001397D02*
X029105Y001397D01*
X029105Y001406D02*
X000105Y001406D01*
X000105Y001414D02*
X029105Y001414D01*
X029105Y001423D02*
X000105Y001423D01*
X000105Y001431D02*
X029105Y001431D01*
X029105Y001440D02*
X000105Y001440D01*
X000105Y001448D02*
X029105Y001448D01*
X029105Y001457D02*
X000105Y001457D01*
X000105Y001465D02*
X029105Y001465D01*
X029105Y001474D02*
X000105Y001474D01*
X000105Y001482D02*
X029105Y001482D01*
X029105Y001491D02*
X000105Y001491D01*
X000105Y001499D02*
X029105Y001499D01*
X029105Y001508D02*
X000105Y001508D01*
X000105Y001516D02*
X029105Y001516D01*
X029105Y001525D02*
X000105Y001525D01*
X000105Y001533D02*
X029105Y001533D01*
X029105Y001542D02*
X000105Y001542D01*
X000105Y001550D02*
X029105Y001550D01*
X029105Y001559D02*
X000105Y001559D01*
X000105Y001567D02*
X029105Y001567D01*
X029105Y001576D02*
X000105Y001576D01*
X000105Y001584D02*
X029105Y001584D01*
X029105Y001593D02*
X000105Y001593D01*
X000105Y001601D02*
X029105Y001601D01*
X029105Y001610D02*
X000105Y001610D01*
X000105Y001618D02*
X029105Y001618D01*
X029105Y001627D02*
X000105Y001627D01*
X000105Y001635D02*
X029105Y001635D01*
X029105Y001644D02*
X000105Y001644D01*
X000105Y001652D02*
X029105Y001652D01*
X029105Y001661D02*
X000105Y001661D01*
X000105Y001669D02*
X029105Y001669D01*
X029105Y001678D02*
X000105Y001678D01*
X000105Y001686D02*
X029105Y001686D01*
X029105Y001695D02*
X000105Y001695D01*
X000105Y001703D02*
X029105Y001703D01*
X029105Y001712D02*
X000105Y001712D01*
X000105Y001720D02*
X029105Y001720D01*
X029105Y001729D02*
X000105Y001729D01*
X000105Y001737D02*
X029105Y001737D01*
X029105Y001746D02*
X000105Y001746D01*
X000105Y001754D02*
X029105Y001754D01*
X029105Y001763D02*
X000105Y001763D01*
X000105Y001771D02*
X029105Y001771D01*
X029105Y001780D02*
X000105Y001780D01*
X000105Y001788D02*
X029105Y001788D01*
X029105Y001797D02*
X000105Y001797D01*
X000105Y001805D02*
X029105Y001805D01*
X029105Y001814D02*
X000105Y001814D01*
X000105Y001822D02*
X029105Y001822D01*
X029105Y001831D02*
X000105Y001831D01*
X000105Y001839D02*
X029105Y001839D01*
X029105Y001848D02*
X000105Y001848D01*
X000105Y001856D02*
X029105Y001856D01*
X029105Y001865D02*
X000105Y001865D01*
X000105Y001873D02*
X029105Y001873D01*
X029105Y001882D02*
X000105Y001882D01*
X000105Y001890D02*
X029105Y001890D01*
X029105Y001899D02*
X000105Y001899D01*
X000105Y001907D02*
X029105Y001907D01*
X029105Y001916D02*
X000105Y001916D01*
X000105Y001924D02*
X029105Y001924D01*
X029105Y001933D02*
X000105Y001933D01*
X000105Y001941D02*
X029105Y001941D01*
X029105Y001950D02*
X000105Y001950D01*
X000105Y001958D02*
X029105Y001958D01*
X029105Y001967D02*
X000105Y001967D01*
X000105Y001975D02*
X029105Y001975D01*
X029105Y001984D02*
X000105Y001984D01*
X000105Y001992D02*
X029105Y001992D01*
X029105Y002001D02*
X000105Y002001D01*
X000105Y002009D02*
X029105Y002009D01*
X029105Y002018D02*
X000105Y002018D01*
X000105Y002026D02*
X029105Y002026D01*
X029105Y002035D02*
X000105Y002035D01*
X000105Y002043D02*
X029105Y002043D01*
X029105Y002052D02*
X000105Y002052D01*
X000105Y002060D02*
X029105Y002060D01*
X029105Y002069D02*
X000105Y002069D01*
X000105Y002077D02*
X029105Y002077D01*
X029105Y002086D02*
X000105Y002086D01*
X000105Y002094D02*
X029105Y002094D01*
X029105Y002103D02*
X000105Y002103D01*
X000105Y002111D02*
X029105Y002111D01*
X029105Y002120D02*
X000105Y002120D01*
X000105Y002128D02*
X029105Y002128D01*
X029105Y002137D02*
X000105Y002137D01*
X000105Y002145D02*
X029105Y002145D01*
X029105Y002154D02*
X000105Y002154D01*
X000105Y002162D02*
X029105Y002162D01*
X029105Y002171D02*
X000105Y002171D01*
X000105Y002179D02*
X029105Y002179D01*
X029105Y002188D02*
X000105Y002188D01*
X000105Y002196D02*
X029105Y002196D01*
X029105Y002205D02*
X000105Y002205D01*
X000105Y002213D02*
X029105Y002213D01*
X029105Y002222D02*
X000105Y002222D01*
X000105Y002230D02*
X029105Y002230D01*
X029105Y002239D02*
X000105Y002239D01*
X000105Y002247D02*
X029105Y002247D01*
X029105Y002256D02*
X000105Y002256D01*
X000105Y002264D02*
X029105Y002264D01*
X029105Y002273D02*
X000105Y002273D01*
X000105Y002281D02*
X029105Y002281D01*
X029105Y002290D02*
X000105Y002290D01*
X000105Y002298D02*
X029105Y002298D01*
X029105Y002307D02*
X000105Y002307D01*
X000105Y002315D02*
X029105Y002315D01*
X029105Y002324D02*
X000105Y002324D01*
X000105Y002332D02*
X029105Y002332D01*
X029105Y002341D02*
X000105Y002341D01*
X000105Y002349D02*
X029105Y002349D01*
X029105Y002358D02*
X000105Y002358D01*
X000105Y002366D02*
X029105Y002366D01*
X029105Y002375D02*
X000105Y002375D01*
X000105Y002383D02*
X029105Y002383D01*
X029105Y002392D02*
X000105Y002392D01*
X000105Y002400D02*
X029105Y002400D01*
X029105Y002409D02*
X000105Y002409D01*
X000105Y002417D02*
X029105Y002417D01*
X029105Y002426D02*
X000105Y002426D01*
X000105Y002434D02*
X029105Y002434D01*
X029105Y002443D02*
X000105Y002443D01*
X000105Y002451D02*
X029105Y002451D01*
X029105Y002460D02*
X000105Y002460D01*
X000105Y002468D02*
X029105Y002468D01*
X029105Y002477D02*
X000105Y002477D01*
X000105Y002485D02*
X029105Y002485D01*
X029105Y002494D02*
X000105Y002494D01*
X000105Y002502D02*
X029105Y002502D01*
X029105Y002511D02*
X000105Y002511D01*
X000105Y002519D02*
X029105Y002519D01*
X029105Y002528D02*
X000105Y002528D01*
X000105Y002536D02*
X029105Y002536D01*
X029105Y002545D02*
X000105Y002545D01*
X000105Y002553D02*
X029105Y002553D01*
X029105Y002562D02*
X000105Y002562D01*
X000105Y002570D02*
X029105Y002570D01*
X029105Y002579D02*
X000105Y002579D01*
X000105Y002587D02*
X029105Y002587D01*
X029105Y002596D02*
X000105Y002596D01*
X000105Y002604D02*
X029105Y002604D01*
X029105Y002613D02*
X000105Y002613D01*
X000105Y002621D02*
X029105Y002621D01*
X029105Y002630D02*
X000105Y002630D01*
X000105Y002638D02*
X029105Y002638D01*
X029105Y002647D02*
X000105Y002647D01*
X000105Y002655D02*
X029105Y002655D01*
X029105Y002664D02*
X000105Y002664D01*
X000105Y002672D02*
X029105Y002672D01*
X029105Y002681D02*
X000105Y002681D01*
X000105Y002689D02*
X029105Y002689D01*
X029105Y002698D02*
X000105Y002698D01*
X000105Y002706D02*
X029105Y002706D01*
X029105Y002715D02*
X000105Y002715D01*
X000105Y002723D02*
X029105Y002723D01*
X029105Y002732D02*
X000105Y002732D01*
X000105Y002740D02*
X029105Y002740D01*
X029105Y002749D02*
X000105Y002749D01*
X000105Y002757D02*
X029105Y002757D01*
X029105Y002766D02*
X000105Y002766D01*
X000105Y002774D02*
X029105Y002774D01*
X029105Y002783D02*
X000105Y002783D01*
X000105Y002791D02*
X029105Y002791D01*
X029105Y002800D02*
X000105Y002800D01*
X000105Y002808D02*
X029105Y002808D01*
X029105Y002817D02*
X000105Y002817D01*
X000105Y002825D02*
X029105Y002825D01*
X029105Y002834D02*
X000105Y002834D01*
X000105Y002842D02*
X029105Y002842D01*
X029105Y002851D02*
X000105Y002851D01*
X000105Y002859D02*
X029105Y002859D01*
X029105Y002868D02*
X000105Y002868D01*
X000105Y002876D02*
X029105Y002876D01*
X029105Y002885D02*
X000105Y002885D01*
X000105Y002893D02*
X029105Y002893D01*
X029105Y002902D02*
X000105Y002902D01*
X000105Y002910D02*
X029105Y002910D01*
X029105Y002919D02*
X000105Y002919D01*
X000105Y002927D02*
X029105Y002927D01*
X029105Y002936D02*
X000105Y002936D01*
X000105Y002944D02*
X029105Y002944D01*
X029105Y002953D02*
X000105Y002953D01*
X000105Y002961D02*
X029105Y002961D01*
X029105Y002970D02*
X000105Y002970D01*
X000105Y002978D02*
X029105Y002978D01*
X029105Y002987D02*
X000105Y002987D01*
X000105Y002995D02*
X029105Y002995D01*
X029105Y003004D02*
X000105Y003004D01*
X000105Y003012D02*
X029105Y003012D01*
X029105Y003021D02*
X000105Y003021D01*
X000105Y003029D02*
X029105Y003029D01*
X029105Y003038D02*
X000105Y003038D01*
X000105Y003046D02*
X029105Y003046D01*
X029105Y003055D02*
X000105Y003055D01*
X000105Y003063D02*
X029105Y003063D01*
X029105Y003072D02*
X000105Y003072D01*
X000105Y003080D02*
X029105Y003080D01*
X029105Y003089D02*
X000105Y003089D01*
X000105Y003097D02*
X029105Y003097D01*
X029105Y003106D02*
X000105Y003106D01*
X000105Y003114D02*
X029105Y003114D01*
X029105Y003123D02*
X000105Y003123D01*
X000105Y003131D02*
X029105Y003131D01*
X029105Y003140D02*
X000105Y003140D01*
X000105Y003148D02*
X029105Y003148D01*
X029105Y003157D02*
X000105Y003157D01*
X000105Y003165D02*
X029105Y003165D01*
X029105Y003174D02*
X000105Y003174D01*
X000105Y003182D02*
X029105Y003182D01*
X029105Y003191D02*
X000105Y003191D01*
X000105Y003199D02*
X029105Y003199D01*
X029105Y003208D02*
X000105Y003208D01*
X000105Y003216D02*
X029105Y003216D01*
X029105Y003225D02*
X000105Y003225D01*
X000105Y003233D02*
X029105Y003233D01*
X029105Y003242D02*
X000105Y003242D01*
X000105Y003250D02*
X029105Y003250D01*
X029105Y003259D02*
X000105Y003259D01*
X000105Y003267D02*
X029105Y003267D01*
X029105Y003276D02*
X000105Y003276D01*
X000105Y003284D02*
X029105Y003284D01*
X029105Y003293D02*
X000105Y003293D01*
X000105Y003301D02*
X029105Y003301D01*
X029105Y003310D02*
X000105Y003310D01*
X000105Y003318D02*
X029105Y003318D01*
X029105Y003327D02*
X000105Y003327D01*
X000105Y003335D02*
X029105Y003335D01*
X029105Y003344D02*
X000105Y003344D01*
X000105Y003352D02*
X029105Y003352D01*
X029105Y003361D02*
X000105Y003361D01*
X000105Y003369D02*
X029105Y003369D01*
X029105Y003378D02*
X000105Y003378D01*
X000105Y003386D02*
X029105Y003386D01*
X029105Y003395D02*
X000105Y003395D01*
X000105Y003403D02*
X029105Y003403D01*
X029105Y003412D02*
X000105Y003412D01*
X000105Y003420D02*
X029105Y003420D01*
X029105Y003429D02*
X000105Y003429D01*
X000105Y003437D02*
X029105Y003437D01*
X029105Y003446D02*
X000105Y003446D01*
X000105Y003454D02*
X029105Y003454D01*
X029105Y003463D02*
X000105Y003463D01*
X000105Y003471D02*
X029105Y003471D01*
X029105Y003480D02*
X000105Y003480D01*
X000105Y003488D02*
X029105Y003488D01*
X029105Y003497D02*
X000105Y003497D01*
X000105Y003505D02*
X029105Y003505D01*
X029105Y003514D02*
X000105Y003514D01*
X000105Y003522D02*
X029105Y003522D01*
X029105Y003531D02*
X000105Y003531D01*
X000105Y003539D02*
X029105Y003539D01*
X029105Y003548D02*
X000105Y003548D01*
X000105Y003556D02*
X029105Y003556D01*
X029105Y003565D02*
X000105Y003565D01*
X000105Y003573D02*
X029105Y003573D01*
X029105Y003582D02*
X000105Y003582D01*
X000105Y003590D02*
X029105Y003590D01*
X029105Y003599D02*
X000105Y003599D01*
X000105Y003607D02*
X029105Y003607D01*
X029105Y003616D02*
X000105Y003616D01*
X000105Y003624D02*
X029105Y003624D01*
X029105Y003633D02*
X000105Y003633D01*
X000105Y003641D02*
X029105Y003641D01*
X029105Y003650D02*
X000105Y003650D01*
X000105Y003658D02*
X029105Y003658D01*
X029105Y003667D02*
X000105Y003667D01*
X000105Y003675D02*
X029105Y003675D01*
X029105Y003684D02*
X000105Y003684D01*
X000105Y003692D02*
X029105Y003692D01*
X029105Y003701D02*
X000105Y003701D01*
X000105Y003709D02*
X029105Y003709D01*
X029105Y003718D02*
X000105Y003718D01*
X000105Y003726D02*
X029105Y003726D01*
X029105Y003735D02*
X000105Y003735D01*
X000105Y003743D02*
X029105Y003743D01*
X029105Y003752D02*
X000105Y003752D01*
X000105Y003760D02*
X029105Y003760D01*
X029105Y003769D02*
X000105Y003769D01*
X000105Y003777D02*
X029105Y003777D01*
X029105Y003786D02*
X000105Y003786D01*
X000105Y003794D02*
X029105Y003794D01*
X029105Y003803D02*
X000105Y003803D01*
X000105Y003811D02*
X029105Y003811D01*
X029105Y003820D02*
X000105Y003820D01*
X000105Y003828D02*
X029105Y003828D01*
X029105Y003837D02*
X000105Y003837D01*
X000105Y003845D02*
X029105Y003845D01*
X029105Y003854D02*
X000105Y003854D01*
X000105Y003862D02*
X029105Y003862D01*
X029105Y003871D02*
X000105Y003871D01*
X000105Y003879D02*
X029105Y003879D01*
X029105Y003888D02*
X000105Y003888D01*
X000105Y003896D02*
X029105Y003896D01*
X029105Y003905D02*
X000105Y003905D01*
X000105Y003913D02*
X029105Y003913D01*
X029105Y003922D02*
X000105Y003922D01*
X000105Y003930D02*
X029105Y003930D01*
X029105Y003939D02*
X000105Y003939D01*
X000105Y003947D02*
X029105Y003947D01*
X029105Y003956D02*
X000105Y003956D01*
X000105Y003964D02*
X029105Y003964D01*
X029105Y003973D02*
X000105Y003973D01*
X000105Y003981D02*
X029105Y003981D01*
X029105Y003990D02*
X000105Y003990D01*
X000105Y003998D02*
X029105Y003998D01*
X029105Y004007D02*
X000105Y004007D01*
X000105Y004015D02*
X029105Y004015D01*
X029105Y004024D02*
X000105Y004024D01*
X000105Y004032D02*
X029105Y004032D01*
X029105Y004041D02*
X000105Y004041D01*
X000105Y004049D02*
X029105Y004049D01*
X029105Y004058D02*
X000105Y004058D01*
X000105Y004066D02*
X029105Y004066D01*
X029105Y004075D02*
X000105Y004075D01*
X000105Y004083D02*
X029105Y004083D01*
X029105Y004092D02*
X000105Y004092D01*
X000105Y004100D02*
X029105Y004100D01*
X029105Y004109D02*
X000105Y004109D01*
X000105Y004117D02*
X029105Y004117D01*
X029105Y004126D02*
X000105Y004126D01*
X000105Y004134D02*
X029105Y004134D01*
X029105Y004143D02*
X000105Y004143D01*
X000105Y004151D02*
X029105Y004151D01*
X029105Y004160D02*
X000105Y004160D01*
X000105Y004168D02*
X029105Y004168D01*
X029105Y004177D02*
X000105Y004177D01*
X000105Y004185D02*
X029105Y004185D01*
X029105Y004194D02*
X000105Y004194D01*
X000105Y004202D02*
X029105Y004202D01*
X029105Y004211D02*
X000105Y004211D01*
X000105Y004219D02*
X029105Y004219D01*
X029105Y004228D02*
X000105Y004228D01*
X000105Y004236D02*
X029105Y004236D01*
X029105Y004245D02*
X000105Y004245D01*
X000105Y004253D02*
X029105Y004253D01*
X029105Y004262D02*
X000105Y004262D01*
X000105Y004270D02*
X029105Y004270D01*
X029105Y004279D02*
X000105Y004279D01*
X000105Y004287D02*
X029105Y004287D01*
X029105Y004296D02*
X000105Y004296D01*
X000105Y004304D02*
X029105Y004304D01*
X029105Y004313D02*
X000105Y004313D01*
X000105Y004321D02*
X029105Y004321D01*
X029105Y004330D02*
X000105Y004330D01*
X000105Y004338D02*
X029105Y004338D01*
X029105Y004347D02*
X000105Y004347D01*
X000105Y004355D02*
X029105Y004355D01*
X029105Y004364D02*
X000105Y004364D01*
X000105Y004372D02*
X029105Y004372D01*
X029105Y004381D02*
X000105Y004381D01*
X000105Y004389D02*
X029105Y004389D01*
X029105Y004398D02*
X000105Y004398D01*
X000105Y004406D02*
X029105Y004406D01*
X029105Y004415D02*
X000105Y004415D01*
X000105Y004423D02*
X029105Y004423D01*
X029105Y004432D02*
X000105Y004432D01*
X000105Y004440D02*
X029105Y004440D01*
X029105Y004449D02*
X000105Y004449D01*
X000105Y004457D02*
X029105Y004457D01*
X029105Y004466D02*
X000105Y004466D01*
X000105Y004474D02*
X029105Y004474D01*
X029105Y004483D02*
X000105Y004483D01*
X000105Y004491D02*
X029105Y004491D01*
X029105Y004500D02*
X000105Y004500D01*
X000105Y004508D02*
X029105Y004508D01*
X029105Y004517D02*
X000105Y004517D01*
X000105Y004525D02*
X029105Y004525D01*
X029105Y004534D02*
X000105Y004534D01*
X000105Y004542D02*
X029105Y004542D01*
X029105Y004551D02*
X000105Y004551D01*
X000105Y004559D02*
X029105Y004559D01*
X029105Y004568D02*
X000105Y004568D01*
X000105Y004576D02*
X029105Y004576D01*
X029105Y004585D02*
X000105Y004585D01*
X000105Y004593D02*
X029105Y004593D01*
X029105Y004602D02*
X000105Y004602D01*
X000105Y004610D02*
X029105Y004610D01*
X029105Y004619D02*
X000105Y004619D01*
X000105Y004627D02*
X029105Y004627D01*
X029105Y004636D02*
X000105Y004636D01*
X000105Y004644D02*
X029105Y004644D01*
X029105Y004653D02*
X000105Y004653D01*
X000105Y004661D02*
X029105Y004661D01*
X029105Y004670D02*
X000105Y004670D01*
X000105Y004678D02*
X029105Y004678D01*
X029105Y004687D02*
X000105Y004687D01*
X000105Y004695D02*
X029105Y004695D01*
X029105Y004704D02*
X000105Y004704D01*
X000105Y004712D02*
X029105Y004712D01*
X029105Y004721D02*
X000105Y004721D01*
X000105Y004729D02*
X029105Y004729D01*
X029105Y004738D02*
X000105Y004738D01*
X000105Y004746D02*
X029105Y004746D01*
X029105Y004755D02*
X000105Y004755D01*
X000105Y004763D02*
X029105Y004763D01*
X029105Y004772D02*
X000105Y004772D01*
X000105Y004780D02*
X029105Y004780D01*
X029105Y004789D02*
X000105Y004789D01*
X000105Y004797D02*
X029105Y004797D01*
X029105Y004806D02*
X000105Y004806D01*
X000105Y004814D02*
X029105Y004814D01*
X029105Y004823D02*
X000105Y004823D01*
X000105Y004831D02*
X029105Y004831D01*
X029105Y004840D02*
X000105Y004840D01*
X000105Y004848D02*
X029105Y004848D01*
X029105Y004857D02*
X000105Y004857D01*
X000105Y004865D02*
X029105Y004865D01*
X029105Y004874D02*
X000105Y004874D01*
X000105Y004882D02*
X029105Y004882D01*
X029105Y004891D02*
X000105Y004891D01*
X000105Y004899D02*
X029105Y004899D01*
X029105Y004908D02*
X000105Y004908D01*
X000105Y004916D02*
X029105Y004916D01*
X029105Y004925D02*
X000105Y004925D01*
X000105Y004933D02*
X029105Y004933D01*
X029105Y004942D02*
X000105Y004942D01*
X000105Y004950D02*
X029105Y004950D01*
X029105Y004959D02*
X000105Y004959D01*
X000105Y004967D02*
X029105Y004967D01*
X029105Y004976D02*
X000105Y004976D01*
X000105Y004984D02*
X029105Y004984D01*
X029105Y004993D02*
X000105Y004993D01*
X000105Y005001D02*
X029105Y005001D01*
X029105Y005010D02*
X000105Y005010D01*
X000105Y005018D02*
X029105Y005018D01*
X029105Y005027D02*
X000105Y005027D01*
X000105Y005035D02*
X029105Y005035D01*
X029105Y005044D02*
X000105Y005044D01*
X000105Y005052D02*
X029105Y005052D01*
X029105Y005061D02*
X000105Y005061D01*
X000105Y005069D02*
X029105Y005069D01*
X029105Y005078D02*
X000105Y005078D01*
X000105Y005086D02*
X029105Y005086D01*
X029105Y005095D02*
X000105Y005095D01*
X000105Y005103D02*
X029105Y005103D01*
X029105Y005112D02*
X000105Y005112D01*
X000105Y005120D02*
X029105Y005120D01*
X029105Y005129D02*
X000105Y005129D01*
X000105Y005137D02*
X029105Y005137D01*
X029105Y005146D02*
X000105Y005146D01*
X000105Y005154D02*
X029105Y005154D01*
X029105Y005163D02*
X000105Y005163D01*
X000105Y005171D02*
X029105Y005171D01*
X029105Y005180D02*
X000105Y005180D01*
X000105Y005188D02*
X029105Y005188D01*
X029105Y005197D02*
X000105Y005197D01*
X000105Y005205D02*
X029105Y005205D01*
X029105Y005214D02*
X000105Y005214D01*
X000105Y005222D02*
X029105Y005222D01*
X029105Y005231D02*
X000105Y005231D01*
X000105Y005239D02*
X029105Y005239D01*
X029105Y005248D02*
X000105Y005248D01*
X000105Y005256D02*
X029105Y005256D01*
X029105Y005265D02*
X000105Y005265D01*
X000105Y005273D02*
X029105Y005273D01*
X029105Y005282D02*
X000105Y005282D01*
X000105Y005290D02*
X029105Y005290D01*
X029105Y005299D02*
X000105Y005299D01*
X000105Y005307D02*
X029105Y005307D01*
X029105Y005316D02*
X000105Y005316D01*
X000105Y005324D02*
X029105Y005324D01*
X029105Y005333D02*
X000105Y005333D01*
X000105Y005341D02*
X029105Y005341D01*
X029105Y005350D02*
X000105Y005350D01*
X000105Y005358D02*
X029105Y005358D01*
X029105Y005367D02*
X000105Y005367D01*
X000105Y005375D02*
X029105Y005375D01*
X029105Y005384D02*
X000105Y005384D01*
X000105Y005392D02*
X029105Y005392D01*
X029105Y005401D02*
X000105Y005401D01*
X000105Y005409D02*
X029105Y005409D01*
X029105Y005418D02*
X000105Y005418D01*
X000105Y005426D02*
X029105Y005426D01*
X029105Y005435D02*
X000105Y005435D01*
X000105Y005443D02*
X029105Y005443D01*
X029105Y005452D02*
X000105Y005452D01*
X000105Y005460D02*
X029105Y005460D01*
X029105Y005469D02*
X000105Y005469D01*
X000105Y005477D02*
X029105Y005477D01*
X029105Y005486D02*
X000105Y005486D01*
X000105Y005494D02*
X029105Y005494D01*
X029105Y005503D02*
X000105Y005503D01*
X000105Y005511D02*
X029105Y005511D01*
X029105Y005520D02*
X000105Y005520D01*
X000105Y005528D02*
X029105Y005528D01*
X029105Y005537D02*
X000105Y005537D01*
X000105Y005545D02*
X029105Y005545D01*
X029105Y005554D02*
X000105Y005554D01*
X000105Y005562D02*
X029105Y005562D01*
X029105Y005571D02*
X000105Y005571D01*
X000105Y005579D02*
X029105Y005579D01*
X029105Y005588D02*
X000105Y005588D01*
X000105Y005596D02*
X029105Y005596D01*
X029105Y005605D02*
X000105Y005605D01*
X000105Y005613D02*
X029105Y005613D01*
X029105Y005622D02*
X000105Y005622D01*
X000105Y005630D02*
X029105Y005630D01*
X029105Y005639D02*
X000105Y005639D01*
X000105Y005647D02*
X029105Y005647D01*
X029105Y005656D02*
X000105Y005656D01*
X000105Y005664D02*
X029105Y005664D01*
X029105Y005673D02*
X000105Y005673D01*
X000105Y005681D02*
X029105Y005681D01*
X029105Y005690D02*
X000105Y005690D01*
X000105Y005698D02*
X029105Y005698D01*
X029105Y005707D02*
X000105Y005707D01*
X000105Y005715D02*
X029105Y005715D01*
X029105Y005724D02*
X000105Y005724D01*
X000105Y005732D02*
X029105Y005732D01*
X029105Y005741D02*
X000105Y005741D01*
X000105Y005749D02*
X029105Y005749D01*
X029105Y005758D02*
X000105Y005758D01*
X000105Y005766D02*
X029105Y005766D01*
X029105Y005775D02*
X000105Y005775D01*
X000105Y005783D02*
X029105Y005783D01*
X029105Y005792D02*
X000105Y005792D01*
X000105Y005800D02*
X029105Y005800D01*
X029105Y005809D02*
X000105Y005809D01*
X000105Y005817D02*
X029105Y005817D01*
X029105Y005826D02*
X000105Y005826D01*
X000105Y005834D02*
X029105Y005834D01*
X029105Y005843D02*
X000105Y005843D01*
X000105Y005851D02*
X029105Y005851D01*
X029105Y005860D02*
X000105Y005860D01*
X000105Y005868D02*
X029105Y005868D01*
X029105Y005877D02*
X000105Y005877D01*
X000105Y005885D02*
X029105Y005885D01*
X029105Y005894D02*
X000105Y005894D01*
X000105Y005902D02*
X029105Y005902D01*
X029105Y005911D02*
X000105Y005911D01*
X000105Y005919D02*
X029105Y005919D01*
X029105Y005928D02*
X000105Y005928D01*
X000105Y005936D02*
X029105Y005936D01*
X029105Y005945D02*
X000105Y005945D01*
X000105Y005953D02*
X029105Y005953D01*
X029105Y005962D02*
X000105Y005962D01*
X000105Y005970D02*
X029105Y005970D01*
X029105Y005979D02*
X000105Y005979D01*
X000105Y005987D02*
X029105Y005987D01*
X029105Y005996D02*
X000105Y005996D01*
X000105Y006004D02*
X029105Y006004D01*
X029105Y006013D02*
X000105Y006013D01*
X000105Y006021D02*
X029105Y006021D01*
X029105Y006030D02*
X000105Y006030D01*
X000105Y006038D02*
X029105Y006038D01*
X029105Y006047D02*
X000105Y006047D01*
X000105Y006055D02*
X029105Y006055D01*
X029105Y006064D02*
X000105Y006064D01*
X000105Y006072D02*
X029105Y006072D01*
X029105Y006081D02*
X000105Y006081D01*
X000105Y006089D02*
X029105Y006089D01*
X029105Y006098D02*
X000105Y006098D01*
X000105Y006106D02*
X029105Y006106D01*
X029105Y006115D02*
X000105Y006115D01*
X000105Y006123D02*
X029105Y006123D01*
X029105Y006132D02*
X000105Y006132D01*
X000105Y006140D02*
X029105Y006140D01*
X029105Y006149D02*
X000105Y006149D01*
X000105Y006157D02*
X029105Y006157D01*
X029105Y006166D02*
X000105Y006166D01*
X000105Y006174D02*
X029105Y006174D01*
X029105Y006183D02*
X000105Y006183D01*
X000105Y006191D02*
X029105Y006191D01*
X029105Y006200D02*
X000105Y006200D01*
X000105Y006208D02*
X029105Y006208D01*
X029105Y006217D02*
X000105Y006217D01*
X000105Y006225D02*
X029105Y006225D01*
X029105Y006234D02*
X000105Y006234D01*
X000105Y006242D02*
X029105Y006242D01*
X029105Y006251D02*
X000105Y006251D01*
X000105Y006259D02*
X029105Y006259D01*
X029105Y006268D02*
X000105Y006268D01*
X000105Y006276D02*
X029105Y006276D01*
X029105Y006285D02*
X000105Y006285D01*
X000105Y006293D02*
X029105Y006293D01*
X029105Y006302D02*
X000105Y006302D01*
X000105Y006310D02*
X029105Y006310D01*
X029105Y006319D02*
X000105Y006319D01*
X000105Y006327D02*
X029105Y006327D01*
X029105Y006336D02*
X000105Y006336D01*
X000105Y006344D02*
X029105Y006344D01*
X029105Y006353D02*
X000105Y006353D01*
X000105Y006361D02*
X029105Y006361D01*
X029105Y006370D02*
X000105Y006370D01*
X000105Y006378D02*
X029105Y006378D01*
X029105Y006387D02*
X000105Y006387D01*
X000105Y006395D02*
X029105Y006395D01*
X029105Y006404D02*
X000105Y006404D01*
X000105Y006412D02*
X029105Y006412D01*
X029105Y006421D02*
X000105Y006421D01*
X000105Y006429D02*
X029105Y006429D01*
X029105Y006438D02*
X000105Y006438D01*
X000105Y006446D02*
X029105Y006446D01*
X029105Y006455D02*
X000105Y006455D01*
X000105Y006463D02*
X029105Y006463D01*
X029105Y006472D02*
X000105Y006472D01*
X000105Y006480D02*
X029105Y006480D01*
X029105Y006489D02*
X000105Y006489D01*
X000105Y006497D02*
X029105Y006497D01*
X029105Y006506D02*
X000105Y006506D01*
X000105Y006514D02*
X029105Y006514D01*
X029105Y006523D02*
X000105Y006523D01*
X000105Y006531D02*
X029105Y006531D01*
X029105Y006540D02*
X000105Y006540D01*
X000105Y006548D02*
X029105Y006548D01*
X029105Y006557D02*
X000105Y006557D01*
X000105Y006565D02*
X029105Y006565D01*
X029105Y006574D02*
X000105Y006574D01*
X000105Y006582D02*
X029105Y006582D01*
X029105Y006591D02*
X000105Y006591D01*
X000105Y006599D02*
X029105Y006599D01*
X029105Y006608D02*
X000105Y006608D01*
X000105Y006616D02*
X029105Y006616D01*
X029105Y006625D02*
X000105Y006625D01*
X000105Y006633D02*
X029105Y006633D01*
X029105Y006642D02*
X000105Y006642D01*
X000105Y006650D02*
X029105Y006650D01*
X029105Y006659D02*
X000105Y006659D01*
X000105Y006667D02*
X029105Y006667D01*
X029105Y006676D02*
X000105Y006676D01*
X000105Y006684D02*
X029105Y006684D01*
X029105Y006693D02*
X000105Y006693D01*
X000105Y006701D02*
X029105Y006701D01*
X029105Y006710D02*
X000105Y006710D01*
X000105Y006718D02*
X029105Y006718D01*
X029105Y006727D02*
X000105Y006727D01*
X000105Y006735D02*
X029105Y006735D01*
X029105Y006744D02*
X000105Y006744D01*
X000105Y006752D02*
X029105Y006752D01*
X029105Y006761D02*
X000105Y006761D01*
X000105Y006769D02*
X029105Y006769D01*
X029105Y006778D02*
X000105Y006778D01*
X000105Y006786D02*
X029105Y006786D01*
X029105Y006795D02*
X000105Y006795D01*
X000105Y006803D02*
X029105Y006803D01*
X029105Y006812D02*
X000105Y006812D01*
X000105Y006820D02*
X029105Y006820D01*
X029105Y006829D02*
X000105Y006829D01*
X000105Y006837D02*
X029105Y006837D01*
X029105Y006846D02*
X000105Y006846D01*
X000105Y006854D02*
X029105Y006854D01*
X029105Y006863D02*
X000105Y006863D01*
X000105Y006871D02*
X029105Y006871D01*
X029105Y006880D02*
X000105Y006880D01*
X000105Y006888D02*
X029105Y006888D01*
X029105Y006897D02*
X000105Y006897D01*
X000105Y006905D02*
X029105Y006905D01*
X029105Y006914D02*
X000105Y006914D01*
X000105Y006922D02*
X029105Y006922D01*
X029105Y006931D02*
X000105Y006931D01*
X000105Y006939D02*
X029105Y006939D01*
X029105Y006948D02*
X000105Y006948D01*
X000105Y006956D02*
X029105Y006956D01*
X029105Y006965D02*
X000105Y006965D01*
X000105Y006973D02*
X029105Y006973D01*
X029105Y006982D02*
X000105Y006982D01*
X000105Y006990D02*
X029105Y006990D01*
X029105Y006999D02*
X000105Y006999D01*
X000105Y007007D02*
X029105Y007007D01*
X029105Y007016D02*
X000105Y007016D01*
X000105Y007024D02*
X029105Y007024D01*
X029105Y007033D02*
X000105Y007033D01*
X000105Y007041D02*
X029105Y007041D01*
X029105Y007050D02*
X000105Y007050D01*
X000105Y007058D02*
X029105Y007058D01*
X029105Y007067D02*
X000105Y007067D01*
X000105Y007075D02*
X029105Y007075D01*
X029105Y007084D02*
X000105Y007084D01*
X000105Y007092D02*
X029105Y007092D01*
X029105Y007101D02*
X000105Y007101D01*
X000105Y007109D02*
X029105Y007109D01*
X029105Y007118D02*
X000105Y007118D01*
X000105Y007126D02*
X029105Y007126D01*
X029105Y007135D02*
X000105Y007135D01*
X000105Y007143D02*
X029105Y007143D01*
X029105Y007152D02*
X000105Y007152D01*
X000105Y007160D02*
X029105Y007160D01*
X029105Y007169D02*
X000105Y007169D01*
X000105Y007177D02*
X029105Y007177D01*
X029105Y007186D02*
X000105Y007186D01*
X000105Y007194D02*
X029105Y007194D01*
X029105Y007203D02*
X000105Y007203D01*
X000105Y007211D02*
X029105Y007211D01*
X029105Y007220D02*
X000105Y007220D01*
X000105Y007228D02*
X029105Y007228D01*
X029105Y007237D02*
X000105Y007237D01*
X000105Y007245D02*
X029105Y007245D01*
X029105Y007254D02*
X000105Y007254D01*
X000105Y007262D02*
X029105Y007262D01*
X029105Y007271D02*
X000105Y007271D01*
X000105Y007279D02*
X029105Y007279D01*
X029105Y007288D02*
X000105Y007288D01*
X000105Y007296D02*
X029105Y007296D01*
X029105Y007305D02*
X000105Y007305D01*
X000105Y007313D02*
X029105Y007313D01*
X029105Y007322D02*
X000105Y007322D01*
X000105Y007330D02*
X029105Y007330D01*
X029105Y007339D02*
X000105Y007339D01*
X000105Y007347D02*
X029105Y007347D01*
X029105Y007356D02*
X000105Y007356D01*
X000105Y007364D02*
X029105Y007364D01*
X029105Y007373D02*
X000105Y007373D01*
X000105Y007381D02*
X029105Y007381D01*
X029105Y007390D02*
X000105Y007390D01*
X000105Y007398D02*
X029105Y007398D01*
X029105Y007407D02*
X000105Y007407D01*
X000105Y007415D02*
X029105Y007415D01*
X029105Y007424D02*
X000105Y007424D01*
X000105Y007432D02*
X029105Y007432D01*
X029105Y007441D02*
X000105Y007441D01*
X000105Y007449D02*
X029105Y007449D01*
X029105Y007458D02*
X000105Y007458D01*
X000105Y007466D02*
X029105Y007466D01*
X029105Y007475D02*
X000105Y007475D01*
X000105Y007483D02*
X029105Y007483D01*
X029105Y007492D02*
X000105Y007492D01*
X000105Y007500D02*
X029105Y007500D01*
X029105Y007509D02*
X000105Y007509D01*
X000105Y007517D02*
X029105Y007517D01*
X029105Y007526D02*
X000105Y007526D01*
X000105Y007534D02*
X029105Y007534D01*
X029105Y007543D02*
X000105Y007543D01*
X000105Y007551D02*
X029105Y007551D01*
X029105Y007560D02*
X000105Y007560D01*
X000105Y007568D02*
X029105Y007568D01*
X029105Y007577D02*
X000105Y007577D01*
X000105Y007585D02*
X029105Y007585D01*
X029105Y007594D02*
X000105Y007594D01*
X000105Y007602D02*
X029105Y007602D01*
X029105Y007611D02*
X000105Y007611D01*
X000105Y007619D02*
X029105Y007619D01*
X029105Y007628D02*
X000105Y007628D01*
X000105Y007636D02*
X029105Y007636D01*
X029105Y007645D02*
X000105Y007645D01*
X000105Y007653D02*
X029105Y007653D01*
X029105Y007662D02*
X000105Y007662D01*
X000105Y007670D02*
X029105Y007670D01*
X029105Y007679D02*
X000105Y007679D01*
X000105Y007687D02*
X029105Y007687D01*
X029105Y007696D02*
X000105Y007696D01*
X000105Y007704D02*
X029105Y007704D01*
X029105Y007713D02*
X000105Y007713D01*
X000105Y007721D02*
X029105Y007721D01*
X029105Y007730D02*
X000105Y007730D01*
X000105Y007738D02*
X029105Y007738D01*
X029105Y007747D02*
X000105Y007747D01*
X000105Y007755D02*
X029105Y007755D01*
X029105Y007764D02*
X000105Y007764D01*
X000105Y007772D02*
X029105Y007772D01*
X029105Y007781D02*
X000105Y007781D01*
X000105Y007789D02*
X029105Y007789D01*
X029105Y007798D02*
X000105Y007798D01*
X000105Y007806D02*
X029105Y007806D01*
X029105Y007815D02*
X000105Y007815D01*
X000105Y007823D02*
X029105Y007823D01*
X029105Y007832D02*
X000105Y007832D01*
X000105Y007840D02*
X029105Y007840D01*
X029105Y007849D02*
X000105Y007849D01*
X000105Y007857D02*
X029105Y007857D01*
X029105Y007866D02*
X000105Y007866D01*
X000105Y007874D02*
X029105Y007874D01*
X029105Y007883D02*
X000105Y007883D01*
X000105Y007891D02*
X029105Y007891D01*
X029105Y007900D02*
X000105Y007900D01*
X000105Y007908D02*
X029105Y007908D01*
X029105Y007917D02*
X000105Y007917D01*
X000105Y007925D02*
X029105Y007925D01*
X029105Y007934D02*
X000105Y007934D01*
X000105Y007942D02*
X029105Y007942D01*
X029105Y007951D02*
X000105Y007951D01*
X000105Y007959D02*
X029105Y007959D01*
X029105Y007968D02*
X000105Y007968D01*
X000105Y007976D02*
X029105Y007976D01*
X029105Y007985D02*
X000105Y007985D01*
X000105Y007993D02*
X029105Y007993D01*
X029105Y008002D02*
X000105Y008002D01*
X000105Y008010D02*
X029105Y008010D01*
X029105Y008019D02*
X000105Y008019D01*
X000105Y008027D02*
X029105Y008027D01*
X029105Y008036D02*
X000105Y008036D01*
X000105Y008044D02*
X029105Y008044D01*
X029105Y008053D02*
X000105Y008053D01*
X000105Y008061D02*
X029105Y008061D01*
X029105Y008070D02*
X000105Y008070D01*
X000105Y008078D02*
X029105Y008078D01*
X029105Y008087D02*
X000105Y008087D01*
X000105Y008095D02*
X029105Y008095D01*
X029105Y008104D02*
X000105Y008104D01*
X000105Y008112D02*
X029105Y008112D01*
X029105Y008121D02*
X000105Y008121D01*
X000105Y008129D02*
X029105Y008129D01*
X029105Y008138D02*
X000105Y008138D01*
X000105Y008146D02*
X029105Y008146D01*
X029105Y008155D02*
X000105Y008155D01*
X000105Y008163D02*
X029105Y008163D01*
X029105Y008172D02*
X000105Y008172D01*
X000105Y008180D02*
X029105Y008180D01*
X029105Y008189D02*
X000105Y008189D01*
X000105Y008197D02*
X029105Y008197D01*
X029105Y008206D02*
X000105Y008206D01*
X000105Y008214D02*
X029105Y008214D01*
X029105Y008223D02*
X000105Y008223D01*
X000105Y008231D02*
X029105Y008231D01*
X029105Y008240D02*
X000105Y008240D01*
X000105Y008248D02*
X029105Y008248D01*
X029105Y008257D02*
X000105Y008257D01*
X000105Y008265D02*
X029105Y008265D01*
X029105Y008274D02*
X000105Y008274D01*
X000105Y008282D02*
X029105Y008282D01*
X029105Y008291D02*
X000105Y008291D01*
X000105Y008299D02*
X029105Y008299D01*
X029105Y008308D02*
X000105Y008308D01*
X000105Y008316D02*
X029105Y008316D01*
X029105Y008325D02*
X000105Y008325D01*
X000105Y008333D02*
X029105Y008333D01*
X029105Y008342D02*
X000105Y008342D01*
X000105Y008350D02*
X029105Y008350D01*
X029105Y008359D02*
X000105Y008359D01*
X000105Y008367D02*
X029105Y008367D01*
X029105Y008376D02*
X000105Y008376D01*
X000105Y008384D02*
X029105Y008384D01*
X029105Y008393D02*
X000105Y008393D01*
X000105Y008401D02*
X029105Y008401D01*
X029105Y008410D02*
X000105Y008410D01*
X000105Y008418D02*
X029105Y008418D01*
X029105Y008427D02*
X000105Y008427D01*
X000105Y008435D02*
X029105Y008435D01*
X029105Y008444D02*
X000105Y008444D01*
X000105Y008452D02*
X029105Y008452D01*
X029105Y008461D02*
X000105Y008461D01*
X000105Y008469D02*
X029105Y008469D01*
X029105Y008478D02*
X000105Y008478D01*
X000105Y008486D02*
X029105Y008486D01*
X029105Y008495D02*
X000105Y008495D01*
X000105Y008503D02*
X029105Y008503D01*
X029105Y008512D02*
X000105Y008512D01*
X000105Y008520D02*
X029105Y008520D01*
X029105Y008529D02*
X000105Y008529D01*
X000105Y008537D02*
X029105Y008537D01*
X029105Y008546D02*
X000105Y008546D01*
X000105Y008554D02*
X029105Y008554D01*
X029105Y008563D02*
X000105Y008563D01*
X000105Y008571D02*
X029105Y008571D01*
X029105Y008580D02*
X000105Y008580D01*
X000105Y008588D02*
X029105Y008588D01*
X029105Y008597D02*
X000105Y008597D01*
X000105Y008605D02*
X029105Y008605D01*
X029105Y008614D02*
X000105Y008614D01*
X000105Y008622D02*
X029105Y008622D01*
X029105Y008631D02*
X000105Y008631D01*
X000105Y008639D02*
X029105Y008639D01*
X029105Y008648D02*
X000105Y008648D01*
X000105Y008656D02*
X029105Y008656D01*
X029105Y008665D02*
X000105Y008665D01*
X000105Y008673D02*
X029105Y008673D01*
X029105Y008682D02*
X000105Y008682D01*
X000105Y008690D02*
X029105Y008690D01*
X029105Y008699D02*
X000105Y008699D01*
X000105Y008707D02*
X029105Y008707D01*
X029105Y008716D02*
X000105Y008716D01*
X000105Y008724D02*
X029105Y008724D01*
X029105Y008733D02*
X000105Y008733D01*
X000105Y008741D02*
X029105Y008741D01*
X029105Y008750D02*
X000105Y008750D01*
X000105Y008758D02*
X029105Y008758D01*
X029105Y008767D02*
X000105Y008767D01*
X000105Y008775D02*
X029105Y008775D01*
X029105Y008784D02*
X000105Y008784D01*
X000105Y008792D02*
X029105Y008792D01*
X029105Y008801D02*
X000105Y008801D01*
X000105Y008809D02*
X029105Y008809D01*
X029105Y008818D02*
X000105Y008818D01*
X000105Y008826D02*
X029105Y008826D01*
X029105Y008835D02*
X000105Y008835D01*
X000105Y008843D02*
X029105Y008843D01*
X029105Y008852D02*
X000105Y008852D01*
X000105Y008860D02*
X029105Y008860D01*
X029105Y008869D02*
X000105Y008869D01*
X000105Y008877D02*
X029105Y008877D01*
X029105Y008886D02*
X000105Y008886D01*
X000105Y008894D02*
X029105Y008894D01*
X029105Y008903D02*
X000105Y008903D01*
X000105Y008911D02*
X029105Y008911D01*
X029105Y008920D02*
X000105Y008920D01*
X000105Y008928D02*
X029105Y008928D01*
X029105Y008937D02*
X000105Y008937D01*
X000105Y008945D02*
X029105Y008945D01*
X029105Y008954D02*
X000105Y008954D01*
X000105Y008962D02*
X029105Y008962D01*
X029105Y008971D02*
X000105Y008971D01*
X000105Y008979D02*
X029105Y008979D01*
X029105Y008988D02*
X000105Y008988D01*
X000105Y008996D02*
X029105Y008996D01*
X029105Y009005D02*
X000105Y009005D01*
X000105Y009013D02*
X029105Y009013D01*
X029105Y009022D02*
X000105Y009022D01*
X000105Y009030D02*
X029105Y009030D01*
X029105Y009039D02*
X000105Y009039D01*
X000105Y009047D02*
X029105Y009047D01*
X029105Y009056D02*
X000105Y009056D01*
X000105Y009064D02*
X029105Y009064D01*
X029105Y009073D02*
X000105Y009073D01*
X000105Y009081D02*
X029105Y009081D01*
X029105Y009090D02*
X000105Y009090D01*
X000105Y009098D02*
X029105Y009098D01*
X029105Y009107D02*
X000105Y009107D01*
X000105Y009115D02*
X029105Y009115D01*
X029105Y009124D02*
X000105Y009124D01*
X000105Y009132D02*
X029105Y009132D01*
X029105Y009141D02*
X000105Y009141D01*
X000105Y009149D02*
X029105Y009149D01*
X029105Y009158D02*
X000105Y009158D01*
X000105Y009166D02*
X029105Y009166D01*
X029105Y009175D02*
X000105Y009175D01*
X000105Y009183D02*
X029105Y009183D01*
X029105Y009192D02*
X000105Y009192D01*
X000105Y009200D02*
X029105Y009200D01*
X029105Y009209D02*
X000105Y009209D01*
X000105Y009217D02*
X029105Y009217D01*
X029105Y009226D02*
X000105Y009226D01*
X000105Y009234D02*
X029105Y009234D01*
X029105Y009243D02*
X000105Y009243D01*
X000105Y009251D02*
X029105Y009251D01*
X029105Y009260D02*
X000105Y009260D01*
X000105Y009268D02*
X029105Y009268D01*
X029105Y009277D02*
X000105Y009277D01*
X000105Y009285D02*
X029105Y009285D01*
X029105Y009294D02*
X000105Y009294D01*
X000105Y009302D02*
X029105Y009302D01*
X029105Y009311D02*
X000105Y009311D01*
X000105Y009319D02*
X029105Y009319D01*
X029105Y009328D02*
X000105Y009328D01*
X000105Y009336D02*
X029105Y009336D01*
X029105Y009345D02*
X000105Y009345D01*
X000105Y009353D02*
X029105Y009353D01*
X029105Y009362D02*
X000105Y009362D01*
X000105Y009370D02*
X029105Y009370D01*
X029105Y009379D02*
X000105Y009379D01*
X000105Y009387D02*
X029105Y009387D01*
X029105Y009396D02*
X000105Y009396D01*
X000105Y009404D02*
X029105Y009404D01*
X029105Y009413D02*
X000105Y009413D01*
X000105Y009421D02*
X029105Y009421D01*
X029105Y009430D02*
X000105Y009430D01*
X000105Y009438D02*
X029105Y009438D01*
X029105Y009447D02*
X000105Y009447D01*
X000105Y009455D02*
X029105Y009455D01*
X029105Y009464D02*
X000105Y009464D01*
X000105Y009472D02*
X029105Y009472D01*
X029105Y009481D02*
X000105Y009481D01*
X000105Y009489D02*
X029105Y009489D01*
X029105Y009498D02*
X000105Y009498D01*
X000105Y009506D02*
X029105Y009506D01*
X029105Y009515D02*
X000105Y009515D01*
X000105Y009523D02*
X029105Y009523D01*
X029105Y009532D02*
X000105Y009532D01*
X000105Y009540D02*
X029105Y009540D01*
X029105Y009549D02*
X000105Y009549D01*
X000105Y009557D02*
X029105Y009557D01*
X029105Y009566D02*
X000105Y009566D01*
X000105Y009574D02*
X029105Y009574D01*
X029105Y009583D02*
X000105Y009583D01*
X000105Y009591D02*
X029105Y009591D01*
X029105Y009600D02*
X000105Y009600D01*
X000105Y009608D02*
X029105Y009608D01*
X029105Y009617D02*
X000105Y009617D01*
X000105Y009625D02*
X029105Y009625D01*
X029105Y009634D02*
X000105Y009634D01*
X000105Y009642D02*
X029105Y009642D01*
X029105Y009651D02*
X000105Y009651D01*
X000105Y009659D02*
X029105Y009659D01*
X029105Y009668D02*
X000105Y009668D01*
X000105Y009676D02*
X029105Y009676D01*
X029105Y009685D02*
X000105Y009685D01*
X000105Y009693D02*
X029105Y009693D01*
X029105Y009702D02*
X000105Y009702D01*
X000105Y009710D02*
X029105Y009710D01*
X029105Y009719D02*
X000105Y009719D01*
X000105Y009727D02*
X029105Y009727D01*
X029105Y009736D02*
X000105Y009736D01*
X000105Y009744D02*
X029105Y009744D01*
X029105Y009753D02*
X000105Y009753D01*
X000105Y009761D02*
X029105Y009761D01*
X029105Y009770D02*
X000105Y009770D01*
X000105Y009778D02*
X029105Y009778D01*
X029105Y009787D02*
X000105Y009787D01*
X000105Y009795D02*
X029105Y009795D01*
X029105Y009804D02*
X000105Y009804D01*
X000105Y009812D02*
X029105Y009812D01*
X029105Y009821D02*
X000105Y009821D01*
X000105Y009829D02*
X029105Y009829D01*
X029105Y009838D02*
X000105Y009838D01*
X000105Y009846D02*
X029105Y009846D01*
X029105Y009855D02*
X000105Y009855D01*
X000105Y009863D02*
X029105Y009863D01*
X029105Y009872D02*
X000105Y009872D01*
X000105Y009880D02*
X029105Y009880D01*
X029105Y009889D02*
X000105Y009889D01*
X000105Y009897D02*
X029105Y009897D01*
X029105Y009906D02*
X000105Y009906D01*
X000105Y009914D02*
X029105Y009914D01*
X029105Y009923D02*
X000105Y009923D01*
X000105Y009931D02*
X029105Y009931D01*
X029105Y009940D02*
X000105Y009940D01*
X000105Y009948D02*
X029105Y009948D01*
X029105Y009957D02*
X000105Y009957D01*
X000105Y009965D02*
X029105Y009965D01*
X029105Y009974D02*
X000105Y009974D01*
X000105Y009982D02*
X029105Y009982D01*
X029105Y009991D02*
X000105Y009991D01*
X000105Y009999D02*
X029105Y009999D01*
X029105Y010008D02*
X000105Y010008D01*
X000105Y010016D02*
X029105Y010016D01*
X029105Y010025D02*
X000105Y010025D01*
X000105Y010033D02*
X029105Y010033D01*
X029105Y010042D02*
X000105Y010042D01*
X000105Y010050D02*
X029105Y010050D01*
X029105Y010059D02*
X000105Y010059D01*
X000105Y010067D02*
X029105Y010067D01*
X029105Y010076D02*
X000105Y010076D01*
X000105Y010084D02*
X029105Y010084D01*
X029105Y010093D02*
X000105Y010093D01*
X000105Y010101D02*
X029105Y010101D01*
X029105Y010110D02*
X000105Y010110D01*
X000105Y010118D02*
X029105Y010118D01*
X029105Y010127D02*
X000105Y010127D01*
X000105Y010135D02*
X029105Y010135D01*
X029105Y010144D02*
X000105Y010144D01*
X000105Y010152D02*
X029105Y010152D01*
X029105Y010161D02*
X000105Y010161D01*
X000105Y010169D02*
X029105Y010169D01*
X029105Y010178D02*
X000105Y010178D01*
X000105Y010186D02*
X029105Y010186D01*
X029105Y010195D02*
X000105Y010195D01*
X000105Y010203D02*
X029105Y010203D01*
X029105Y010212D02*
X000105Y010212D01*
X000105Y010220D02*
X029105Y010220D01*
X029105Y010229D02*
X000105Y010229D01*
X000105Y010237D02*
X029105Y010237D01*
X029105Y010246D02*
X000105Y010246D01*
X000105Y010254D02*
X029105Y010254D01*
X029105Y010263D02*
X000105Y010263D01*
X000105Y010271D02*
X029105Y010271D01*
X029105Y010280D02*
X000105Y010280D01*
X000105Y010288D02*
X029105Y010288D01*
X029105Y010297D02*
X000105Y010297D01*
X000105Y010305D02*
X029105Y010305D01*
X029105Y010314D02*
X000105Y010314D01*
X000105Y010322D02*
X029105Y010322D01*
X029105Y010331D02*
X000105Y010331D01*
X000105Y010339D02*
X029105Y010339D01*
X029105Y010348D02*
X000105Y010348D01*
X000105Y010356D02*
X029105Y010356D01*
X029105Y010365D02*
X000105Y010365D01*
X000105Y010373D02*
X029105Y010373D01*
X029105Y010382D02*
X000105Y010382D01*
X000105Y010390D02*
X029105Y010390D01*
X029105Y010399D02*
X000105Y010399D01*
X000105Y010407D02*
X029105Y010407D01*
X029105Y010416D02*
X000105Y010416D01*
X000105Y010424D02*
X029105Y010424D01*
X029105Y010433D02*
X000105Y010433D01*
X000105Y010441D02*
X029105Y010441D01*
X029105Y010450D02*
X000105Y010450D01*
X000105Y010458D02*
X029105Y010458D01*
X029105Y010467D02*
X000105Y010467D01*
X000105Y010475D02*
X029105Y010475D01*
X029105Y010484D02*
X000105Y010484D01*
X000105Y010492D02*
X029105Y010492D01*
X029105Y010501D02*
X000105Y010501D01*
X000105Y010509D02*
X029105Y010509D01*
X029105Y010518D02*
X000105Y010518D01*
X000105Y010526D02*
X029105Y010526D01*
X029105Y010535D02*
X000105Y010535D01*
X000105Y010543D02*
X029105Y010543D01*
X029105Y010552D02*
X000105Y010552D01*
X000105Y010560D02*
X029105Y010560D01*
X029105Y010569D02*
X000105Y010569D01*
X000105Y010577D02*
X029105Y010577D01*
X029105Y010586D02*
X000105Y010586D01*
X000105Y010594D02*
X029105Y010594D01*
X029105Y010603D02*
X000105Y010603D01*
X000105Y010611D02*
X029105Y010611D01*
X029105Y010620D02*
X000105Y010620D01*
X000105Y010628D02*
X029105Y010628D01*
X029105Y010637D02*
X000105Y010637D01*
X000105Y010645D02*
X029105Y010645D01*
X029105Y010654D02*
X000105Y010654D01*
X000105Y010662D02*
X029105Y010662D01*
X029105Y010671D02*
X000105Y010671D01*
X000105Y010679D02*
X029105Y010679D01*
X029105Y010688D02*
X000105Y010688D01*
X000105Y010696D02*
X029105Y010696D01*
X029105Y010705D02*
X000105Y010705D01*
X000105Y010713D02*
X029105Y010713D01*
X029105Y010722D02*
X000105Y010722D01*
X000105Y010730D02*
X029105Y010730D01*
X029105Y010739D02*
X000105Y010739D01*
X000105Y010747D02*
X029105Y010747D01*
X029105Y010756D02*
X000105Y010756D01*
X000105Y010764D02*
X029105Y010764D01*
X029105Y010773D02*
X000105Y010773D01*
X000105Y010781D02*
X029105Y010781D01*
X029105Y010790D02*
X000105Y010790D01*
X000105Y010798D02*
X029105Y010798D01*
X029105Y010807D02*
X000105Y010807D01*
X000105Y010815D02*
X029105Y010815D01*
X029105Y010824D02*
X000105Y010824D01*
X000105Y010832D02*
X029105Y010832D01*
X029105Y010841D02*
X000105Y010841D01*
X000105Y010849D02*
X029105Y010849D01*
X029105Y010858D02*
X000105Y010858D01*
X000105Y010866D02*
X029105Y010866D01*
X029105Y010875D02*
X000105Y010875D01*
X000105Y010883D02*
X029105Y010883D01*
X029105Y010892D02*
X000105Y010892D01*
X000105Y010900D02*
X029105Y010900D01*
X029105Y010909D02*
X000105Y010909D01*
X000105Y010917D02*
X029105Y010917D01*
X029105Y010926D02*
X000105Y010926D01*
X000105Y010934D02*
X029105Y010934D01*
X029105Y010943D02*
X000105Y010943D01*
X000105Y010951D02*
X029105Y010951D01*
X029105Y010960D02*
X000105Y010960D01*
X000105Y010968D02*
X029105Y010968D01*
X029105Y010977D02*
X000105Y010977D01*
X000105Y010985D02*
X029105Y010985D01*
X029105Y010994D02*
X000105Y010994D01*
X000105Y011002D02*
X029105Y011002D01*
X029105Y011011D02*
X000105Y011011D01*
X000105Y011019D02*
X029105Y011019D01*
X029105Y011028D02*
X000105Y011028D01*
X000105Y011036D02*
X029105Y011036D01*
X029105Y011045D02*
X000105Y011045D01*
X000105Y011053D02*
X029105Y011053D01*
X029105Y011062D02*
X000105Y011062D01*
X000105Y011070D02*
X029105Y011070D01*
X029105Y011079D02*
X000105Y011079D01*
X000105Y011087D02*
X029105Y011087D01*
X029105Y011096D02*
X000105Y011096D01*
X000105Y011104D02*
X029105Y011104D01*
X029105Y011113D02*
X000105Y011113D01*
X000105Y011121D02*
X029105Y011121D01*
X029105Y011130D02*
X000105Y011130D01*
X000105Y011138D02*
X029105Y011138D01*
X029105Y011147D02*
X000105Y011147D01*
X000105Y011155D02*
X029105Y011155D01*
X029105Y011164D02*
X000105Y011164D01*
X000105Y011172D02*
X029105Y011172D01*
X029105Y011181D02*
X000105Y011181D01*
X000105Y011189D02*
X029105Y011189D01*
X029105Y011198D02*
X000105Y011198D01*
X000105Y011206D02*
X029105Y011206D01*
X029105Y011215D02*
X000105Y011215D01*
X000105Y011223D02*
X029105Y011223D01*
X029105Y011232D02*
X000105Y011232D01*
X000105Y011240D02*
X029105Y011240D01*
X029105Y011249D02*
X000105Y011249D01*
X000105Y011257D02*
X029105Y011257D01*
X029105Y011266D02*
X000105Y011266D01*
X000105Y011274D02*
X029105Y011274D01*
X029105Y011283D02*
X000105Y011283D01*
X000105Y011291D02*
X029105Y011291D01*
X029105Y011300D02*
X000105Y011300D01*
X000105Y011308D02*
X029105Y011308D01*
X029105Y011317D02*
X000105Y011317D01*
X000105Y011325D02*
X029105Y011325D01*
X029105Y011334D02*
X000105Y011334D01*
X000105Y011342D02*
X029105Y011342D01*
X029105Y011351D02*
X000105Y011351D01*
X000105Y011359D02*
X029105Y011359D01*
X029105Y011368D02*
X000105Y011368D01*
X000105Y011376D02*
X029105Y011376D01*
X029105Y011385D02*
X000105Y011385D01*
X000105Y011393D02*
X029105Y011393D01*
X029105Y011402D02*
X000105Y011402D01*
X000105Y011410D02*
X029105Y011410D01*
X029105Y011419D02*
X000105Y011419D01*
X000105Y011427D02*
X029105Y011427D01*
X029105Y011436D02*
X000105Y011436D01*
X000105Y011444D02*
X029105Y011444D01*
X029105Y011453D02*
X000105Y011453D01*
X000105Y011461D02*
X029105Y011461D01*
X029105Y011470D02*
X000105Y011470D01*
X000105Y011478D02*
X029105Y011478D01*
X029105Y011487D02*
X000105Y011487D01*
X000105Y011495D02*
X029105Y011495D01*
X029105Y011504D02*
X000105Y011504D01*
X000105Y011512D02*
X029105Y011512D01*
X029105Y011521D02*
X000105Y011521D01*
X000105Y011529D02*
X029105Y011529D01*
X029105Y011538D02*
X000105Y011538D01*
X000105Y011546D02*
X029105Y011546D01*
X029105Y011555D02*
X000105Y011555D01*
X000105Y011563D02*
X029105Y011563D01*
X029105Y011572D02*
X000105Y011572D01*
X000105Y011580D02*
X029105Y011580D01*
X029105Y011589D02*
X000105Y011589D01*
X000105Y011597D02*
X029105Y011597D01*
X029105Y011606D02*
X000105Y011606D01*
X000105Y011614D02*
X029105Y011614D01*
X029105Y011623D02*
X000105Y011623D01*
X000105Y011631D02*
X029105Y011631D01*
X029105Y011640D02*
X000105Y011640D01*
X000105Y011648D02*
X029105Y011648D01*
X029105Y011657D02*
X000105Y011657D01*
X000105Y011665D02*
X029105Y011665D01*
X029105Y011674D02*
X000105Y011674D01*
X000105Y011682D02*
X029105Y011682D01*
X029105Y011691D02*
X000105Y011691D01*
X000105Y011699D02*
X029105Y011699D01*
X029105Y011708D02*
X000105Y011708D01*
X000105Y011716D02*
X029105Y011716D01*
X029105Y011725D02*
X000105Y011725D01*
X000105Y011733D02*
X029105Y011733D01*
X029105Y011742D02*
X000105Y011742D01*
X000105Y011750D02*
X029105Y011750D01*
X029105Y011759D02*
X000105Y011759D01*
X000105Y011767D02*
X029105Y011767D01*
X029105Y011776D02*
X000105Y011776D01*
X000105Y011784D02*
X029105Y011784D01*
X029105Y011793D02*
X000105Y011793D01*
X000105Y011801D02*
X029105Y011801D01*
X029105Y011810D02*
X000105Y011810D01*
X000105Y011818D02*
X029105Y011818D01*
X029105Y011827D02*
X000105Y011827D01*
X000105Y011835D02*
X029105Y011835D01*
X029105Y011844D02*
X000105Y011844D01*
X000105Y011852D02*
X029105Y011852D01*
X029105Y011861D02*
X000105Y011861D01*
X000105Y011869D02*
X029105Y011869D01*
X029105Y011878D02*
X000105Y011878D01*
X000105Y011886D02*
X029105Y011886D01*
X029105Y011895D02*
X000105Y011895D01*
X000105Y011903D02*
X029105Y011903D01*
X029105Y011912D02*
X000105Y011912D01*
X000105Y011920D02*
X029105Y011920D01*
X029105Y011929D02*
X000105Y011929D01*
X000105Y011937D02*
X029105Y011937D01*
X029105Y011946D02*
X000105Y011946D01*
X000105Y011954D02*
X029105Y011954D01*
X029105Y011963D02*
X000105Y011963D01*
X000105Y011971D02*
X029105Y011971D01*
X029105Y011980D02*
X000105Y011980D01*
X000105Y011988D02*
X029105Y011988D01*
X029105Y011997D02*
X000105Y011997D01*
X000105Y012005D02*
X029105Y012005D01*
X029105Y012014D02*
X000105Y012014D01*
X000105Y012022D02*
X029105Y012022D01*
X029105Y012031D02*
X000105Y012031D01*
X000105Y012039D02*
X029105Y012039D01*
X029105Y012048D02*
X000105Y012048D01*
X000105Y012056D02*
X029105Y012056D01*
X029105Y012065D02*
X000105Y012065D01*
X000105Y012073D02*
X029105Y012073D01*
X029105Y012082D02*
X000105Y012082D01*
X000105Y012090D02*
X029105Y012090D01*
X029105Y012099D02*
X000105Y012099D01*
X000105Y012107D02*
X029105Y012107D01*
X029105Y012116D02*
X000105Y012116D01*
X000105Y012124D02*
X029105Y012124D01*
X029105Y012133D02*
X000105Y012133D01*
X000105Y012141D02*
X029105Y012141D01*
X029105Y012150D02*
X000105Y012150D01*
X000105Y012158D02*
X029105Y012158D01*
X029105Y012167D02*
X000105Y012167D01*
X000105Y012175D02*
X029105Y012175D01*
X029105Y012184D02*
X000105Y012184D01*
X000105Y012192D02*
X029105Y012192D01*
X029105Y012201D02*
X000105Y012201D01*
X000105Y012209D02*
X029105Y012209D01*
X029105Y012218D02*
X000105Y012218D01*
X000105Y012226D02*
X029105Y012226D01*
X029105Y012235D02*
X000105Y012235D01*
X000105Y012243D02*
X029105Y012243D01*
X029105Y012252D02*
X000105Y012252D01*
X000105Y012260D02*
X029105Y012260D01*
X029105Y012269D02*
X000105Y012269D01*
X000105Y012277D02*
X029105Y012277D01*
X029105Y012286D02*
X000105Y012286D01*
X000105Y012294D02*
X029105Y012294D01*
X029105Y012303D02*
X000105Y012303D01*
X000105Y012311D02*
X029105Y012311D01*
X029105Y012320D02*
X000105Y012320D01*
X000105Y012328D02*
X029105Y012328D01*
X029105Y012337D02*
X000105Y012337D01*
X000105Y012345D02*
X029105Y012345D01*
X029105Y012354D02*
X000105Y012354D01*
X000105Y012362D02*
X029105Y012362D01*
X029105Y012371D02*
X000105Y012371D01*
X000105Y012379D02*
X029105Y012379D01*
X029105Y012388D02*
X000105Y012388D01*
X000105Y012396D02*
X029105Y012396D01*
X029105Y012405D02*
X000105Y012405D01*
X000105Y012413D02*
X029105Y012413D01*
X029105Y012422D02*
X000105Y012422D01*
X000105Y012430D02*
X029105Y012430D01*
X029105Y012439D02*
X000105Y012439D01*
X000105Y012447D02*
X029105Y012447D01*
X029105Y012456D02*
X000105Y012456D01*
X000105Y012464D02*
X029105Y012464D01*
X029105Y012473D02*
X000105Y012473D01*
X000105Y012481D02*
X029105Y012481D01*
X029105Y012490D02*
X000105Y012490D01*
X000105Y012498D02*
X029105Y012498D01*
X029105Y012507D02*
X000105Y012507D01*
X000105Y012515D02*
X029105Y012515D01*
X029105Y012524D02*
X000105Y012524D01*
X000105Y012532D02*
X029105Y012532D01*
X029105Y012541D02*
X000105Y012541D01*
X000105Y012549D02*
X029105Y012549D01*
X029105Y012558D02*
X000105Y012558D01*
X000105Y012566D02*
X029105Y012566D01*
X029105Y012575D02*
X000105Y012575D01*
X000105Y012583D02*
X029105Y012583D01*
X029105Y012592D02*
X000105Y012592D01*
X000105Y012600D02*
X029105Y012600D01*
X029105Y012609D02*
X000105Y012609D01*
X000105Y012617D02*
X029105Y012617D01*
X029105Y012626D02*
X000105Y012626D01*
X000105Y012634D02*
X029105Y012634D01*
X029105Y012643D02*
X000105Y012643D01*
X000105Y012651D02*
X029105Y012651D01*
X029105Y012660D02*
X000105Y012660D01*
X000105Y012668D02*
X029105Y012668D01*
X029105Y012677D02*
X000105Y012677D01*
X000105Y012685D02*
X029105Y012685D01*
X029105Y012694D02*
X000105Y012694D01*
X000105Y012702D02*
X029105Y012702D01*
X029105Y012711D02*
X000105Y012711D01*
X000105Y012719D02*
X029105Y012719D01*
X029105Y012728D02*
X000105Y012728D01*
X000105Y012736D02*
X029105Y012736D01*
X029105Y012745D02*
X000105Y012745D01*
X000105Y012753D02*
X029105Y012753D01*
X029105Y012762D02*
X000105Y012762D01*
X000105Y012770D02*
X029105Y012770D01*
X029105Y012779D02*
X000105Y012779D01*
X000105Y012787D02*
X029105Y012787D01*
X029105Y012796D02*
X000105Y012796D01*
X000105Y012804D02*
X029105Y012804D01*
X029105Y012813D02*
X000105Y012813D01*
X000105Y012821D02*
X029105Y012821D01*
X029105Y012830D02*
X000105Y012830D01*
X000105Y012838D02*
X029105Y012838D01*
X029105Y012847D02*
X000105Y012847D01*
X000105Y012855D02*
X029105Y012855D01*
X029105Y012864D02*
X000105Y012864D01*
X000105Y012872D02*
X029105Y012872D01*
X029105Y012881D02*
X000105Y012881D01*
X000105Y012889D02*
X029105Y012889D01*
X029105Y012898D02*
X000105Y012898D01*
X000105Y012906D02*
X029105Y012906D01*
X029105Y012915D02*
X000105Y012915D01*
X000105Y012923D02*
X029105Y012923D01*
X029105Y012932D02*
X000105Y012932D01*
X000105Y012940D02*
X029105Y012940D01*
X029105Y012949D02*
X000105Y012949D01*
X000105Y012957D02*
X029105Y012957D01*
X029105Y012966D02*
X000105Y012966D01*
X000105Y012974D02*
X029105Y012974D01*
X029105Y012983D02*
X000105Y012983D01*
X000105Y012991D02*
X029105Y012991D01*
X029105Y013000D02*
X000105Y013000D01*
X000105Y013008D02*
X029105Y013008D01*
X029105Y013017D02*
X000105Y013017D01*
X000105Y013025D02*
X029105Y013025D01*
X029105Y013034D02*
X000105Y013034D01*
X000105Y013042D02*
X029105Y013042D01*
X029105Y013051D02*
X000105Y013051D01*
X000105Y013059D02*
X029105Y013059D01*
X029105Y013068D02*
X000105Y013068D01*
X000105Y013076D02*
X029105Y013076D01*
X029105Y013085D02*
X000105Y013085D01*
X000105Y013093D02*
X029105Y013093D01*
X029105Y013102D02*
X000105Y013102D01*
X000105Y013110D02*
X029105Y013110D01*
X029105Y013119D02*
X000105Y013119D01*
X000105Y013127D02*
X029105Y013127D01*
X029105Y013136D02*
X000105Y013136D01*
X000105Y013144D02*
X029105Y013144D01*
X029105Y013153D02*
X000105Y013153D01*
X000105Y013161D02*
X029105Y013161D01*
X029105Y013170D02*
X000105Y013170D01*
X000105Y013178D02*
X029105Y013178D01*
X029105Y013187D02*
X000105Y013187D01*
X000105Y013195D02*
X029105Y013195D01*
X029105Y013204D02*
X000105Y013204D01*
X000105Y013212D02*
X029105Y013212D01*
X029105Y013221D02*
X000105Y013221D01*
X000105Y013229D02*
X029105Y013229D01*
X029105Y013238D02*
X000105Y013238D01*
X000105Y013246D02*
X029105Y013246D01*
X029105Y013255D02*
X000105Y013255D01*
X000105Y013263D02*
X029105Y013263D01*
X029105Y013272D02*
X000105Y013272D01*
X000105Y013280D02*
X029105Y013280D01*
X029105Y013289D02*
X000105Y013289D01*
X000105Y013297D02*
X029105Y013297D01*
X029105Y013306D02*
X000105Y013306D01*
X000105Y013314D02*
X029105Y013314D01*
X029105Y013323D02*
X000105Y013323D01*
X000105Y013331D02*
X029105Y013331D01*
X029105Y013340D02*
X000105Y013340D01*
X000105Y013348D02*
X029105Y013348D01*
X029105Y013357D02*
X000105Y013357D01*
X000105Y013365D02*
X029105Y013365D01*
X029105Y013374D02*
X000105Y013374D01*
X000105Y013382D02*
X029105Y013382D01*
X029105Y013391D02*
X000105Y013391D01*
X000105Y013399D02*
X029105Y013399D01*
X029105Y013408D02*
X000105Y013408D01*
X000105Y013416D02*
X029105Y013416D01*
X029105Y013425D02*
X000105Y013425D01*
X000105Y013433D02*
X029105Y013433D01*
X029105Y013442D02*
X000105Y013442D01*
X000105Y013450D02*
X029105Y013450D01*
X029105Y013459D02*
X000105Y013459D01*
X000105Y013467D02*
X029105Y013467D01*
X029105Y013476D02*
X000105Y013476D01*
X000105Y013484D02*
X029105Y013484D01*
X029105Y013493D02*
X000105Y013493D01*
X000105Y013501D02*
X029105Y013501D01*
X029105Y013510D02*
X000105Y013510D01*
X000105Y013518D02*
X029105Y013518D01*
X029105Y013527D02*
X000105Y013527D01*
X000105Y013535D02*
X029105Y013535D01*
X029105Y013544D02*
X000105Y013544D01*
X000105Y013552D02*
X029105Y013552D01*
X029105Y013561D02*
X000105Y013561D01*
X000105Y013569D02*
X029105Y013569D01*
X029105Y013578D02*
X000105Y013578D01*
X000105Y013586D02*
X029105Y013586D01*
X029105Y013595D02*
X000105Y013595D01*
X000105Y013603D02*
X029105Y013603D01*
X029105Y013612D02*
X000105Y013612D01*
X000105Y013620D02*
X029105Y013620D01*
X029105Y013629D02*
X000105Y013629D01*
X000105Y013637D02*
X029105Y013637D01*
X029105Y013646D02*
X000105Y013646D01*
X000105Y013654D02*
X029105Y013654D01*
X029105Y013663D02*
X000105Y013663D01*
X000105Y013671D02*
X029105Y013671D01*
X029105Y013680D02*
X000105Y013680D01*
X000105Y013688D02*
X029105Y013688D01*
X029105Y013697D02*
X000105Y013697D01*
X000105Y013705D02*
X029105Y013705D01*
X029105Y013714D02*
X000105Y013714D01*
X000105Y013722D02*
X029105Y013722D01*
X029105Y013731D02*
X000105Y013731D01*
X000105Y013739D02*
X029105Y013739D01*
X029105Y013748D02*
X000105Y013748D01*
X000105Y013756D02*
X029105Y013756D01*
X029105Y013765D02*
X000105Y013765D01*
X000105Y013773D02*
X029105Y013773D01*
X029105Y013782D02*
X000105Y013782D01*
X000105Y013790D02*
X029105Y013790D01*
X029105Y013799D02*
X000105Y013799D01*
X000105Y013807D02*
X029105Y013807D01*
X029105Y013816D02*
X000105Y013816D01*
X000105Y013824D02*
X029105Y013824D01*
X029105Y013833D02*
X000105Y013833D01*
X000105Y013841D02*
X029105Y013841D01*
X029105Y013850D02*
X000105Y013850D01*
X000105Y013858D02*
X029105Y013858D01*
X029105Y013867D02*
X000105Y013867D01*
X000105Y013875D02*
X029105Y013875D01*
X029105Y013884D02*
X000105Y013884D01*
X000105Y013892D02*
X029105Y013892D01*
X029105Y013901D02*
X000105Y013901D01*
X000105Y013909D02*
X029105Y013909D01*
X029105Y013918D02*
X000105Y013918D01*
X000105Y013926D02*
X029105Y013926D01*
X029105Y013935D02*
X000105Y013935D01*
X000105Y013943D02*
X029105Y013943D01*
X029105Y013952D02*
X000105Y013952D01*
X000105Y013960D02*
X029105Y013960D01*
X029105Y013969D02*
X000105Y013969D01*
X000105Y013977D02*
X029105Y013977D01*
X029105Y013986D02*
X000105Y013986D01*
X000105Y013994D02*
X029105Y013994D01*
X029105Y014003D02*
X000105Y014003D01*
X000105Y014011D02*
X029105Y014011D01*
X029105Y014020D02*
X000105Y014020D01*
X000105Y014028D02*
X029105Y014028D01*
X029105Y014037D02*
X000105Y014037D01*
X000105Y014045D02*
X029105Y014045D01*
X029105Y014054D02*
X000105Y014054D01*
X000105Y014062D02*
X029105Y014062D01*
X029105Y014071D02*
X000105Y014071D01*
X000105Y014079D02*
X029105Y014079D01*
X029105Y014088D02*
X000105Y014088D01*
X000105Y014096D02*
X029105Y014096D01*
X029105Y014105D02*
X000105Y014105D01*
X000105Y014113D02*
X029105Y014113D01*
X029105Y014122D02*
X000105Y014122D01*
X000105Y014130D02*
X029105Y014130D01*
X029105Y014139D02*
X000105Y014139D01*
X000105Y014147D02*
X029105Y014147D01*
X029105Y014156D02*
X000105Y014156D01*
X000105Y014164D02*
X029105Y014164D01*
X029105Y014173D02*
X000105Y014173D01*
X000105Y014181D02*
X029105Y014181D01*
X029105Y014190D02*
X000105Y014190D01*
X000105Y014198D02*
X029105Y014198D01*
X029105Y014207D02*
X000105Y014207D01*
X000105Y014215D02*
X029105Y014215D01*
X029105Y014224D02*
X000105Y014224D01*
X000105Y014232D02*
X029105Y014232D01*
X029105Y014241D02*
X000105Y014241D01*
X000105Y014249D02*
X029105Y014249D01*
X029105Y014258D02*
X000105Y014258D01*
X000105Y014266D02*
X029105Y014266D01*
X029105Y014275D02*
X000105Y014275D01*
X000105Y014283D02*
X029105Y014283D01*
X029105Y014292D02*
X000105Y014292D01*
X000105Y014300D02*
X029105Y014300D01*
X029105Y014309D02*
X000105Y014309D01*
X000105Y014317D02*
X029105Y014317D01*
X029105Y014326D02*
X000105Y014326D01*
X000105Y014334D02*
X029105Y014334D01*
X029105Y014343D02*
X000105Y014343D01*
X000105Y014351D02*
X029105Y014351D01*
X029105Y014360D02*
X000105Y014360D01*
X000105Y014368D02*
X029105Y014368D01*
X029105Y014377D02*
X000105Y014377D01*
X000105Y014385D02*
X029105Y014385D01*
X029105Y014394D02*
X000105Y014394D01*
X000105Y014402D02*
X029105Y014402D01*
X029105Y014411D02*
X000105Y014411D01*
X000105Y014419D02*
X029105Y014419D01*
X029105Y014428D02*
X000105Y014428D01*
X000105Y014436D02*
X029105Y014436D01*
X029105Y014445D02*
X000105Y014445D01*
X000105Y014453D02*
X029105Y014453D01*
X029105Y014462D02*
X000105Y014462D01*
X000105Y014470D02*
X029105Y014470D01*
X029105Y014479D02*
X000105Y014479D01*
X000105Y014487D02*
X029105Y014487D01*
X029105Y014496D02*
X000105Y014496D01*
X000105Y014504D02*
X029105Y014504D01*
X029105Y014513D02*
X000105Y014513D01*
X000105Y014521D02*
X029105Y014521D01*
X029105Y014530D02*
X000105Y014530D01*
X000105Y014538D02*
X029105Y014538D01*
X029105Y014547D02*
X000105Y014547D01*
X000105Y014555D02*
X029105Y014555D01*
X029105Y014564D02*
X000105Y014564D01*
X000105Y014572D02*
X029105Y014572D01*
X029105Y014581D02*
X000105Y014581D01*
X000105Y014589D02*
X029105Y014589D01*
X029105Y014598D02*
X000105Y014598D01*
X000105Y014606D02*
X029105Y014606D01*
X029105Y014615D02*
X000105Y014615D01*
X000105Y014623D02*
X029105Y014623D01*
X029105Y014632D02*
X000105Y014632D01*
X000105Y014640D02*
X029105Y014640D01*
X029105Y014649D02*
X000105Y014649D01*
X000105Y014657D02*
X029105Y014657D01*
X029105Y014666D02*
X000105Y014666D01*
X000105Y014674D02*
X029105Y014674D01*
X029105Y014683D02*
X000105Y014683D01*
X000105Y014691D02*
X029105Y014691D01*
X029105Y014700D02*
X000105Y014700D01*
X000105Y014708D02*
X029105Y014708D01*
X029105Y014717D02*
X000105Y014717D01*
X000105Y014725D02*
X029105Y014725D01*
X029105Y014734D02*
X000105Y014734D01*
X000105Y014742D02*
X029105Y014742D01*
X029105Y014751D02*
X000105Y014751D01*
X000105Y014759D02*
X029105Y014759D01*
X029105Y014768D02*
X000105Y014768D01*
X000105Y014776D02*
X029105Y014776D01*
X029105Y014785D02*
X000105Y014785D01*
X000105Y014793D02*
X029105Y014793D01*
X029105Y014802D02*
X000105Y014802D01*
X000105Y014810D02*
X029105Y014810D01*
X029105Y014819D02*
X000105Y014819D01*
X000105Y014827D02*
X029105Y014827D01*
X029105Y014836D02*
X000105Y014836D01*
X000105Y014844D02*
X029105Y014844D01*
X029105Y014853D02*
X000105Y014853D01*
X000105Y014861D02*
X029105Y014861D01*
X029105Y014870D02*
X000105Y014870D01*
X000105Y014878D02*
X029105Y014878D01*
X029105Y014887D02*
X000105Y014887D01*
X000105Y014895D02*
X029105Y014895D01*
X029105Y014904D02*
X000105Y014904D01*
X000105Y014912D02*
X029105Y014912D01*
X029105Y014921D02*
X000105Y014921D01*
X000105Y014929D02*
X029105Y014929D01*
X029105Y014938D02*
X000105Y014938D01*
X000105Y014946D02*
X029105Y014946D01*
X029105Y014955D02*
X000105Y014955D01*
X000105Y014963D02*
X029105Y014963D01*
X029105Y014972D02*
X000105Y014972D01*
X000105Y014980D02*
X029105Y014980D01*
X029105Y014989D02*
X000105Y014989D01*
X000105Y014997D02*
X029105Y014997D01*
X029105Y015006D02*
X000105Y015006D01*
X000105Y015014D02*
X029105Y015014D01*
X029105Y015023D02*
X000105Y015023D01*
X000105Y015031D02*
X029105Y015031D01*
X029105Y015040D02*
X000105Y015040D01*
X000105Y015048D02*
X029105Y015048D01*
X029105Y015057D02*
X000105Y015057D01*
X000105Y015065D02*
X029105Y015065D01*
X029105Y015074D02*
X000105Y015074D01*
X000105Y015082D02*
X029105Y015082D01*
X029105Y015091D02*
X000105Y015091D01*
X000105Y015099D02*
X029105Y015099D01*
X029105Y015108D02*
X000105Y015108D01*
X000105Y015116D02*
X029105Y015116D01*
X029105Y015125D02*
X000105Y015125D01*
X000105Y015133D02*
X029105Y015133D01*
X029105Y015142D02*
X000105Y015142D01*
X000105Y015150D02*
X029105Y015150D01*
X029105Y015159D02*
X000105Y015159D01*
X000105Y015167D02*
X029105Y015167D01*
X029105Y015176D02*
X000105Y015176D01*
X000105Y015184D02*
X029105Y015184D01*
X029105Y015193D02*
X000105Y015193D01*
X000105Y015201D02*
X029105Y015201D01*
X029105Y015210D02*
X000105Y015210D01*
X000105Y015218D02*
X029105Y015218D01*
X029105Y015227D02*
X000105Y015227D01*
X000105Y015235D02*
X029105Y015235D01*
X029105Y015244D02*
X000105Y015244D01*
X000105Y015252D02*
X029105Y015252D01*
X029105Y015261D02*
X000105Y015261D01*
X000105Y015269D02*
X029105Y015269D01*
X029105Y015278D02*
X000105Y015278D01*
X000105Y015286D02*
X029105Y015286D01*
X029105Y015295D02*
X000105Y015295D01*
X000105Y015303D02*
X029105Y015303D01*
X029105Y015312D02*
X000105Y015312D01*
X000105Y015320D02*
X029105Y015320D01*
X029105Y015329D02*
X000105Y015329D01*
X000105Y015337D02*
X029105Y015337D01*
X029105Y015346D02*
X000105Y015346D01*
X000105Y015354D02*
X029105Y015354D01*
X029105Y015363D02*
X000105Y015363D01*
X000105Y015371D02*
X029105Y015371D01*
X029105Y015380D02*
X000105Y015380D01*
X000105Y015388D02*
X029105Y015388D01*
X029105Y015397D02*
X000105Y015397D01*
X000105Y015405D02*
X029105Y015405D01*
X029105Y015414D02*
X000105Y015414D01*
X000105Y015422D02*
X029105Y015422D01*
X029105Y015431D02*
X000105Y015431D01*
X000105Y015439D02*
X029105Y015439D01*
X029105Y015448D02*
X000105Y015448D01*
X000105Y015456D02*
X029105Y015456D01*
X029105Y015465D02*
X000105Y015465D01*
X000105Y015473D02*
X029105Y015473D01*
X029105Y015482D02*
X000105Y015482D01*
X000105Y015490D02*
X029105Y015490D01*
X029105Y015499D02*
X000105Y015499D01*
X000105Y015507D02*
X029105Y015507D01*
X029105Y015516D02*
X000105Y015516D01*
X000105Y015524D02*
X029105Y015524D01*
X029105Y015533D02*
X000105Y015533D01*
X000105Y015541D02*
X029105Y015541D01*
X029105Y015550D02*
X000105Y015550D01*
X000105Y015558D02*
X029105Y015558D01*
X029105Y015567D02*
X000105Y015567D01*
X000105Y015575D02*
X029105Y015575D01*
X029105Y015584D02*
X000105Y015584D01*
X000105Y015592D02*
X029105Y015592D01*
X029105Y015601D02*
X000105Y015601D01*
X000105Y015609D02*
X029105Y015609D01*
X029105Y015618D02*
X000105Y015618D01*
X000105Y015626D02*
X029105Y015626D01*
X029105Y015635D02*
X000105Y015635D01*
X000105Y015643D02*
X029105Y015643D01*
X029105Y015652D02*
X000105Y015652D01*
X000105Y015660D02*
X029105Y015660D01*
X029105Y015669D02*
X000105Y015669D01*
X000105Y015677D02*
X029105Y015677D01*
X029105Y015686D02*
X000105Y015686D01*
X000105Y015694D02*
X029105Y015694D01*
X029105Y015703D02*
X000105Y015703D01*
X000105Y015711D02*
X029105Y015711D01*
X029105Y015720D02*
X000105Y015720D01*
X000105Y015728D02*
X029105Y015728D01*
X029105Y015737D02*
X000105Y015737D01*
X000105Y015745D02*
X029105Y015745D01*
X029105Y015754D02*
X000105Y015754D01*
X000105Y015762D02*
X029105Y015762D01*
X029105Y015771D02*
X000105Y015771D01*
X000105Y015779D02*
X029105Y015779D01*
X029105Y015788D02*
X000105Y015788D01*
X000105Y015796D02*
X029105Y015796D01*
X029105Y015805D02*
X000105Y015805D01*
X000105Y015813D02*
X029105Y015813D01*
X029105Y015822D02*
X000105Y015822D01*
X000105Y015830D02*
X029105Y015830D01*
X029105Y015839D02*
X000105Y015839D01*
X000105Y015847D02*
X029105Y015847D01*
X029105Y015856D02*
X000105Y015856D01*
X000105Y015864D02*
X029105Y015864D01*
X029105Y015873D02*
X000105Y015873D01*
X000105Y015881D02*
X029105Y015881D01*
X029105Y015890D02*
X000105Y015890D01*
X000105Y015898D02*
X029105Y015898D01*
X029105Y015907D02*
X000105Y015907D01*
X000105Y015915D02*
X029105Y015915D01*
X029105Y015924D02*
X000105Y015924D01*
X000105Y015932D02*
X029105Y015932D01*
X029105Y015941D02*
X000105Y015941D01*
X000105Y015949D02*
X029105Y015949D01*
X029105Y015958D02*
X000105Y015958D01*
X000105Y015966D02*
X029105Y015966D01*
X029105Y015975D02*
X000105Y015975D01*
X000105Y015983D02*
X029105Y015983D01*
X029105Y015992D02*
X000105Y015992D01*
X000105Y016000D02*
X029105Y016000D01*
X029105Y016009D02*
X000105Y016009D01*
X000105Y016017D02*
X029105Y016017D01*
X029105Y016026D02*
X000105Y016026D01*
X000105Y016034D02*
X029105Y016034D01*
X029105Y016043D02*
X000105Y016043D01*
X000105Y016051D02*
X029105Y016051D01*
X029105Y016060D02*
X000105Y016060D01*
X000105Y016068D02*
X029105Y016068D01*
X029105Y016077D02*
X000105Y016077D01*
X000105Y016085D02*
X029105Y016085D01*
X029105Y016094D02*
X000105Y016094D01*
X000105Y016102D02*
X029105Y016102D01*
X029105Y016111D02*
X000105Y016111D01*
X000105Y016119D02*
X029105Y016119D01*
X029105Y016128D02*
X000105Y016128D01*
X000105Y016136D02*
X029105Y016136D01*
X029105Y016145D02*
X000105Y016145D01*
X000105Y016153D02*
X029105Y016153D01*
X029105Y016162D02*
X000105Y016162D01*
X000105Y016170D02*
X029105Y016170D01*
X029105Y016179D02*
X000105Y016179D01*
X000105Y016187D02*
X029105Y016187D01*
X029105Y016196D02*
X000105Y016196D01*
X000105Y016204D02*
X029105Y016204D01*
X029105Y016213D02*
X000105Y016213D01*
X000105Y016221D02*
X029105Y016221D01*
X029105Y016230D02*
X000105Y016230D01*
X000105Y016238D02*
X029105Y016238D01*
X029105Y016247D02*
X000105Y016247D01*
X000105Y016255D02*
X029105Y016255D01*
X029105Y016264D02*
X000105Y016264D01*
X000105Y016272D02*
X029105Y016272D01*
X029105Y016281D02*
X000105Y016281D01*
X000105Y016289D02*
X029105Y016289D01*
X029105Y016298D02*
X000105Y016298D01*
X000105Y016306D02*
X029105Y016306D01*
X029105Y016315D02*
X000105Y016315D01*
X000105Y016323D02*
X029105Y016323D01*
X029105Y016332D02*
X000105Y016332D01*
X000105Y016340D02*
X029105Y016340D01*
X029105Y016349D02*
X000105Y016349D01*
X000105Y016357D02*
X029105Y016357D01*
X029105Y016366D02*
X000105Y016366D01*
X000105Y016374D02*
X029105Y016374D01*
X029105Y016383D02*
X000105Y016383D01*
X000105Y016391D02*
X029105Y016391D01*
X029105Y016400D02*
X000105Y016400D01*
X000105Y016408D02*
X029105Y016408D01*
X029105Y016417D02*
X000105Y016417D01*
X000105Y016425D02*
X029105Y016425D01*
X029105Y016434D02*
X000105Y016434D01*
X000105Y016442D02*
X029105Y016442D01*
X029105Y016451D02*
X000105Y016451D01*
X000105Y016459D02*
X029105Y016459D01*
X029105Y016468D02*
X000105Y016468D01*
X000105Y016476D02*
X029105Y016476D01*
X029105Y016485D02*
X000105Y016485D01*
X000105Y016493D02*
X029105Y016493D01*
X029105Y016502D02*
X000105Y016502D01*
X000105Y016510D02*
X029105Y016510D01*
X029105Y016519D02*
X000105Y016519D01*
X000105Y016527D02*
X029105Y016527D01*
X029105Y016536D02*
X000105Y016536D01*
X000105Y016544D02*
X029105Y016544D01*
X029105Y016553D02*
X000105Y016553D01*
X000105Y016561D02*
X029105Y016561D01*
X029105Y016570D02*
X000105Y016570D01*
X000105Y016578D02*
X029105Y016578D01*
X029105Y016587D02*
X000105Y016587D01*
X000105Y016595D02*
X029105Y016595D01*
X029105Y016604D02*
X000105Y016604D01*
X000105Y016612D02*
X029105Y016612D01*
X029105Y016621D02*
X000105Y016621D01*
X000105Y016629D02*
X029105Y016629D01*
X029105Y016638D02*
X000105Y016638D01*
X000105Y016646D02*
X029105Y016646D01*
X029105Y016655D02*
X000105Y016655D01*
X000105Y016663D02*
X029105Y016663D01*
X029105Y016672D02*
X000105Y016672D01*
X000105Y016680D02*
X029105Y016680D01*
X029105Y016689D02*
X000105Y016689D01*
X000105Y016697D02*
X029105Y016697D01*
X029105Y016706D02*
X000105Y016706D01*
X000105Y016714D02*
X029105Y016714D01*
X029105Y016723D02*
X000105Y016723D01*
X000105Y016731D02*
X029105Y016731D01*
X029105Y016740D02*
X000105Y016740D01*
X000105Y016748D02*
X029105Y016748D01*
X029105Y016757D02*
X000105Y016757D01*
X000105Y016765D02*
X029105Y016765D01*
X029105Y016774D02*
X000105Y016774D01*
X000105Y016782D02*
X029105Y016782D01*
X029105Y016791D02*
X000105Y016791D01*
X000105Y016799D02*
X029105Y016799D01*
X029105Y016808D02*
X000105Y016808D01*
X000105Y016816D02*
X029105Y016816D01*
X029105Y016825D02*
X000105Y016825D01*
X000105Y016833D02*
X029105Y016833D01*
X029105Y016842D02*
X000105Y016842D01*
X000105Y016850D02*
X029105Y016850D01*
X029105Y016859D02*
X000105Y016859D01*
X000105Y016867D02*
X029105Y016867D01*
X029105Y016876D02*
X000105Y016876D01*
X000105Y016884D02*
X029105Y016884D01*
X029105Y016893D02*
X000105Y016893D01*
X000105Y016901D02*
X029105Y016901D01*
X029105Y016910D02*
X000105Y016910D01*
X000105Y016918D02*
X029105Y016918D01*
X029105Y016927D02*
X000105Y016927D01*
X000105Y016935D02*
X029105Y016935D01*
X029105Y016944D02*
X000105Y016944D01*
X000105Y016952D02*
X029105Y016952D01*
X029105Y016961D02*
X000105Y016961D01*
X000105Y016969D02*
X029105Y016969D01*
X029105Y016978D02*
X000105Y016978D01*
X000105Y016986D02*
X029105Y016986D01*
X029105Y016995D02*
X000105Y016995D01*
X000105Y017003D02*
X029105Y017003D01*
X029105Y017012D02*
X000105Y017012D01*
X000105Y017020D02*
X029105Y017020D01*
X029105Y017029D02*
X000105Y017029D01*
X000105Y017037D02*
X029105Y017037D01*
X029105Y017046D02*
X000105Y017046D01*
X000105Y017054D02*
X029105Y017054D01*
X029105Y017063D02*
X000105Y017063D01*
X000105Y017071D02*
X029105Y017071D01*
X029105Y017080D02*
X000105Y017080D01*
X000105Y017088D02*
X029105Y017088D01*
X029105Y017097D02*
X000105Y017097D01*
X000105Y017105D02*
X029105Y017105D01*
X029105Y017114D02*
X000105Y017114D01*
X000105Y017122D02*
X029105Y017122D01*
X029105Y017131D02*
X000105Y017131D01*
X000105Y017139D02*
X029105Y017139D01*
X029105Y017148D02*
X000105Y017148D01*
X000105Y017156D02*
X029105Y017156D01*
X029105Y017165D02*
X000105Y017165D01*
X000105Y017173D02*
X029105Y017173D01*
X029105Y017182D02*
X000105Y017182D01*
X000105Y017190D02*
X029105Y017190D01*
X029105Y017199D02*
X000105Y017199D01*
X000105Y017207D02*
X029105Y017207D01*
X029105Y017216D02*
X000105Y017216D01*
X000105Y017224D02*
X029105Y017224D01*
X029105Y017233D02*
X000105Y017233D01*
X000105Y017241D02*
X029105Y017241D01*
X029105Y017250D02*
X000105Y017250D01*
X000105Y017258D02*
X029105Y017258D01*
X029105Y017267D02*
X000105Y017267D01*
X000105Y017275D02*
X029105Y017275D01*
X029105Y017284D02*
X000105Y017284D01*
X000105Y017292D02*
X029105Y017292D01*
X029105Y017301D02*
X000105Y017301D01*
X000105Y017309D02*
X029105Y017309D01*
X029105Y017318D02*
X000105Y017318D01*
X000105Y017326D02*
X029105Y017326D01*
X029105Y017335D02*
X000105Y017335D01*
X000105Y017343D02*
X029105Y017343D01*
X029105Y017352D02*
X000105Y017352D01*
X000105Y017360D02*
X029105Y017360D01*
X029105Y017369D02*
X000105Y017369D01*
X000105Y017378D02*
X029105Y017378D01*
X029105Y017386D02*
X000105Y017386D01*
X000105Y017395D02*
X029105Y017395D01*
X029105Y017403D02*
X000105Y017403D01*
X000105Y017412D02*
X029105Y017412D01*
X029105Y017420D02*
X000105Y017420D01*
X000105Y017429D02*
X029105Y017429D01*
X029105Y017437D02*
X000105Y017437D01*
X000105Y017446D02*
X029105Y017446D01*
X029105Y017454D02*
X000105Y017454D01*
X000105Y017463D02*
X029105Y017463D01*
X029105Y017471D02*
X000105Y017471D01*
X000105Y017480D02*
X029105Y017480D01*
X029105Y017488D02*
X000105Y017488D01*
X000105Y017497D02*
X029105Y017497D01*
X029105Y017505D02*
X000105Y017505D01*
X000105Y017514D02*
X029105Y017514D01*
X029105Y017522D02*
X000105Y017522D01*
X000105Y017531D02*
X029105Y017531D01*
X029105Y017539D02*
X000105Y017539D01*
X000105Y017548D02*
X029105Y017548D01*
X029105Y017556D02*
X000105Y017556D01*
X000105Y017565D02*
X029105Y017565D01*
X029105Y017573D02*
X000105Y017573D01*
X000105Y017582D02*
X029105Y017582D01*
X029105Y017590D02*
X000105Y017590D01*
X000105Y017599D02*
X029105Y017599D01*
X029105Y017607D02*
X000105Y017607D01*
X000105Y017616D02*
X029105Y017616D01*
X029105Y017624D02*
X000105Y017624D01*
X000105Y017633D02*
X029105Y017633D01*
X029105Y017641D02*
X000105Y017641D01*
X000105Y017650D02*
X029105Y017650D01*
X029105Y017658D02*
X000105Y017658D01*
X000105Y017667D02*
X029105Y017667D01*
X029105Y017675D02*
X000105Y017675D01*
X000105Y017684D02*
X029105Y017684D01*
X029105Y017692D02*
X000105Y017692D01*
X000105Y017701D02*
X029105Y017701D01*
X029105Y017709D02*
X000105Y017709D01*
X000105Y017718D02*
X029105Y017718D01*
X029105Y017726D02*
X000105Y017726D01*
X000105Y017735D02*
X029105Y017735D01*
X029105Y017743D02*
X000105Y017743D01*
X000105Y017752D02*
X029105Y017752D01*
X029105Y017760D02*
X000105Y017760D01*
X000105Y017769D02*
X029105Y017769D01*
X029105Y017777D02*
X000105Y017777D01*
X000105Y017786D02*
X029105Y017786D01*
X029105Y017794D02*
X000105Y017794D01*
X000105Y017803D02*
X029105Y017803D01*
X029105Y017811D02*
X000105Y017811D01*
X000105Y017820D02*
X029105Y017820D01*
X029105Y017828D02*
X000105Y017828D01*
X000105Y017837D02*
X029105Y017837D01*
X029105Y017845D02*
X000105Y017845D01*
X000105Y017854D02*
X029105Y017854D01*
X029105Y017862D02*
X000105Y017862D01*
X000105Y017871D02*
X029105Y017871D01*
X029105Y017879D02*
X000105Y017879D01*
X000105Y017888D02*
X029105Y017888D01*
X029105Y017896D02*
X000105Y017896D01*
X000105Y017905D02*
X029105Y017905D01*
X029105Y017913D02*
X000105Y017913D01*
X000105Y017922D02*
X029105Y017922D01*
X029105Y017930D02*
X000105Y017930D01*
X000105Y017939D02*
X029105Y017939D01*
X029105Y017947D02*
X000105Y017947D01*
X000105Y017956D02*
X029105Y017956D01*
X029105Y017964D02*
X000105Y017964D01*
X000105Y017973D02*
X029105Y017973D01*
X029105Y017981D02*
X000105Y017981D01*
X000105Y017990D02*
X029105Y017990D01*
X029105Y017998D02*
X000105Y017998D01*
X000105Y018007D02*
X029105Y018007D01*
X029105Y018015D02*
X000105Y018015D01*
X000105Y018024D02*
X029105Y018024D01*
X029105Y018032D02*
X000105Y018032D01*
X000105Y018041D02*
X029105Y018041D01*
X029105Y018049D02*
X000105Y018049D01*
X000105Y018058D02*
X029105Y018058D01*
X029105Y018066D02*
X000105Y018066D01*
X000105Y018075D02*
X029105Y018075D01*
X029105Y018083D02*
X000105Y018083D01*
X000105Y018092D02*
X029105Y018092D01*
X029105Y018100D02*
X000105Y018100D01*
X000105Y018109D02*
X029105Y018109D01*
X029105Y018117D02*
X000105Y018117D01*
X000105Y018126D02*
X029105Y018126D01*
X029105Y018134D02*
X000105Y018134D01*
X000105Y018143D02*
X029105Y018143D01*
X029105Y018151D02*
X000105Y018151D01*
X000105Y018160D02*
X029105Y018160D01*
X029105Y018168D02*
X000105Y018168D01*
X000105Y018177D02*
X029105Y018177D01*
X029105Y018185D02*
X000105Y018185D01*
X000105Y018194D02*
X029105Y018194D01*
X029105Y018202D02*
X000105Y018202D01*
X000105Y018211D02*
X029105Y018211D01*
X029105Y018219D02*
X000105Y018219D01*
X000105Y018228D02*
X029105Y018228D01*
X029105Y018236D02*
X000105Y018236D01*
X000105Y018245D02*
X029105Y018245D01*
X029105Y018253D02*
X000105Y018253D01*
X000105Y018262D02*
X029105Y018262D01*
X029105Y018270D02*
X000105Y018270D01*
X000105Y018279D02*
X029105Y018279D01*
X029105Y018287D02*
X000105Y018287D01*
X000105Y018296D02*
X029105Y018296D01*
X029105Y018304D02*
X000105Y018304D01*
X000105Y018313D02*
X029105Y018313D01*
X029105Y018321D02*
X000105Y018321D01*
X000105Y018330D02*
X029105Y018330D01*
X029105Y018338D02*
X000105Y018338D01*
X000105Y018347D02*
X029105Y018347D01*
X029105Y018355D02*
X000105Y018355D01*
X000105Y018364D02*
X029105Y018364D01*
X029105Y018372D02*
X000105Y018372D01*
X000105Y018381D02*
X029105Y018381D01*
X029105Y018389D02*
X000105Y018389D01*
X000105Y018398D02*
X029105Y018398D01*
X029105Y018406D02*
X000105Y018406D01*
X000105Y018415D02*
X029105Y018415D01*
X029105Y018423D02*
X000105Y018423D01*
X000105Y018432D02*
X029105Y018432D01*
X029105Y018440D02*
X000105Y018440D01*
X000105Y018449D02*
X029105Y018449D01*
X029105Y018457D02*
X000105Y018457D01*
X000105Y018466D02*
X029105Y018466D01*
X029105Y018474D02*
X000105Y018474D01*
X000105Y018483D02*
X029105Y018483D01*
X029105Y018491D02*
X000105Y018491D01*
X000105Y018500D02*
X029105Y018500D01*
X029105Y018508D02*
X000105Y018508D01*
X000105Y018517D02*
X029105Y018517D01*
X029105Y018525D02*
X000105Y018525D01*
X000105Y018534D02*
X029105Y018534D01*
X029105Y018542D02*
X000105Y018542D01*
X000105Y018551D02*
X029105Y018551D01*
X029105Y018559D02*
X000105Y018559D01*
X000105Y018568D02*
X029105Y018568D01*
X029105Y018576D02*
X000105Y018576D01*
X000105Y018585D02*
X029105Y018585D01*
X029105Y018593D02*
X000105Y018593D01*
X000105Y018602D02*
X029105Y018602D01*
X029105Y018610D02*
X000105Y018610D01*
X000105Y018619D02*
X029105Y018619D01*
X029105Y018627D02*
X000105Y018627D01*
X000105Y018636D02*
X029105Y018636D01*
X029105Y018644D02*
X000105Y018644D01*
X000105Y018653D02*
X029105Y018653D01*
X029105Y018661D02*
X000105Y018661D01*
X000105Y018670D02*
X029105Y018670D01*
X029105Y018678D02*
X000105Y018678D01*
X000105Y018687D02*
X029105Y018687D01*
X029105Y018695D02*
X000105Y018695D01*
X000105Y018704D02*
X029105Y018704D01*
X029105Y018712D02*
X000105Y018712D01*
X000105Y018721D02*
X029105Y018721D01*
X029105Y018729D02*
X000105Y018729D01*
X000105Y018738D02*
X029105Y018738D01*
X029105Y018746D02*
X000105Y018746D01*
X000105Y018755D02*
X029105Y018755D01*
X029105Y018763D02*
X000105Y018763D01*
X000105Y018772D02*
X029105Y018772D01*
X029105Y018780D02*
X000105Y018780D01*
X000105Y018789D02*
X029105Y018789D01*
X029105Y018797D02*
X000105Y018797D01*
X000105Y018806D02*
X029105Y018806D01*
X029105Y018814D02*
X000105Y018814D01*
X000105Y018823D02*
X029105Y018823D01*
X029105Y018831D02*
X000105Y018831D01*
X000105Y018840D02*
X029105Y018840D01*
X029105Y018848D02*
X000105Y018848D01*
X000105Y018857D02*
X029105Y018857D01*
X029105Y018865D02*
X000105Y018865D01*
X000105Y018874D02*
X029105Y018874D01*
X029105Y018882D02*
X000105Y018882D01*
X000105Y018891D02*
X029105Y018891D01*
X029105Y018899D02*
X000105Y018899D01*
X000105Y018908D02*
X029105Y018908D01*
X029105Y018916D02*
X000105Y018916D01*
X000105Y018925D02*
X029105Y018925D01*
X029105Y018933D02*
X000105Y018933D01*
X000105Y018942D02*
X029105Y018942D01*
X029105Y018950D02*
X000105Y018950D01*
X000105Y018959D02*
X029105Y018959D01*
X029105Y018967D02*
X000105Y018967D01*
X000105Y018976D02*
X029105Y018976D01*
X029105Y018984D02*
X000105Y018984D01*
X000105Y018993D02*
X029105Y018993D01*
X029105Y019001D02*
X000105Y019001D01*
X000105Y019010D02*
X029105Y019010D01*
X029105Y019018D02*
X000105Y019018D01*
X000105Y019027D02*
X029105Y019027D01*
X029105Y019035D02*
X000105Y019035D01*
X000105Y019044D02*
X029105Y019044D01*
X029105Y019052D02*
X000105Y019052D01*
X000105Y019061D02*
X029105Y019061D01*
X029105Y019069D02*
X000105Y019069D01*
X000105Y019078D02*
X029105Y019078D01*
X029105Y019086D02*
X000105Y019086D01*
X000105Y019095D02*
X029105Y019095D01*
X029105Y019103D02*
X000105Y019103D01*
X000105Y019112D02*
X029105Y019112D01*
X029105Y019120D02*
X000105Y019120D01*
X000105Y019129D02*
X029105Y019129D01*
X029105Y019137D02*
X000105Y019137D01*
X000105Y019146D02*
X029105Y019146D01*
X029105Y019154D02*
X000105Y019154D01*
X000105Y019163D02*
X029105Y019163D01*
X029105Y019171D02*
X000105Y019171D01*
X000105Y019180D02*
X029105Y019180D01*
X029105Y019188D02*
X000105Y019188D01*
X000105Y019197D02*
X029105Y019197D01*
X029105Y019205D02*
X000105Y019205D01*
X000105Y019214D02*
X029105Y019214D01*
X029105Y019222D02*
X000105Y019222D01*
X000105Y019231D02*
X029105Y019231D01*
X029105Y019239D02*
X000105Y019239D01*
X000105Y019248D02*
X029105Y019248D01*
X029105Y019256D02*
X000105Y019256D01*
X000105Y019265D02*
X029105Y019265D01*
X029105Y019273D02*
X000105Y019273D01*
X000105Y019282D02*
X029105Y019282D01*
X029105Y019290D02*
X000105Y019290D01*
X000105Y019299D02*
X029105Y019299D01*
X029105Y019307D02*
X000105Y019307D01*
X000105Y019316D02*
X029105Y019316D01*
X029105Y019324D02*
X000105Y019324D01*
X000105Y019333D02*
X029105Y019333D01*
X029105Y019341D02*
X000105Y019341D01*
X000105Y019350D02*
X029105Y019350D01*
X029105Y019358D02*
X000105Y019358D01*
X000105Y019367D02*
X029105Y019367D01*
X029105Y019375D02*
X000105Y019375D01*
X000105Y019384D02*
X029105Y019384D01*
X029105Y019392D02*
X000105Y019392D01*
X000105Y019401D02*
X029105Y019401D01*
X029105Y019409D02*
X000105Y019409D01*
X000105Y019418D02*
X029105Y019418D01*
X029105Y019426D02*
X000105Y019426D01*
X000105Y019435D02*
X029105Y019435D01*
X029105Y019443D02*
X000105Y019443D01*
X000105Y019452D02*
X029105Y019452D01*
X029105Y019460D02*
X000105Y019460D01*
X000105Y019469D02*
X029105Y019469D01*
X029105Y019477D02*
X000105Y019477D01*
X000105Y019486D02*
X029105Y019486D01*
X029105Y019494D02*
X000105Y019494D01*
X000105Y019503D02*
X029105Y019503D01*
X029105Y019511D02*
X000105Y019511D01*
X000105Y019520D02*
X029105Y019520D01*
X029105Y019528D02*
X000105Y019528D01*
X000105Y019537D02*
X029105Y019537D01*
X029105Y019545D02*
X000105Y019545D01*
X000105Y019554D02*
X029105Y019554D01*
X029105Y019562D02*
X000105Y019562D01*
X000105Y019571D02*
X029105Y019571D01*
X029105Y019579D02*
X000105Y019579D01*
X000105Y019588D02*
X029105Y019588D01*
X029105Y019596D02*
X000105Y019596D01*
X000105Y019605D02*
X029105Y019605D01*
X029105Y019613D02*
X000105Y019613D01*
X000105Y019622D02*
X029105Y019622D01*
X029105Y019630D02*
X000105Y019630D01*
X000105Y019639D02*
X029105Y019639D01*
X029105Y019647D02*
X000105Y019647D01*
X000105Y019656D02*
X029105Y019656D01*
X029105Y019664D02*
X000105Y019664D01*
X000105Y019673D02*
X029105Y019673D01*
X029105Y019681D02*
X000105Y019681D01*
X000105Y019690D02*
X029105Y019690D01*
X029105Y019698D02*
X000105Y019698D01*
X000105Y019707D02*
X029105Y019707D01*
X029105Y019715D02*
X000105Y019715D01*
X000105Y019724D02*
X029105Y019724D01*
X029105Y019732D02*
X000105Y019732D01*
X000105Y019741D02*
X029105Y019741D01*
X029105Y019749D02*
X000105Y019749D01*
X000105Y019758D02*
X029105Y019758D01*
X029105Y019766D02*
X000105Y019766D01*
X000105Y019775D02*
X029105Y019775D01*
X029105Y019783D02*
X000105Y019783D01*
X000105Y019792D02*
X029105Y019792D01*
X029105Y019800D02*
X000105Y019800D01*
X000105Y019809D02*
X029105Y019809D01*
X029105Y019817D02*
X000105Y019817D01*
X000105Y019826D02*
X029105Y019826D01*
X029105Y019834D02*
X000105Y019834D01*
X000105Y019843D02*
X029105Y019843D01*
X029105Y019851D02*
X000105Y019851D01*
X000105Y019860D02*
X029105Y019860D01*
X029105Y019868D02*
X000105Y019868D01*
X000105Y019877D02*
X029105Y019877D01*
X029105Y019885D02*
X000105Y019885D01*
X000105Y019894D02*
X029105Y019894D01*
X029105Y019902D02*
X000105Y019902D01*
X000105Y019911D02*
X029105Y019911D01*
X029105Y019919D02*
X000105Y019919D01*
X000105Y019928D02*
X029105Y019928D01*
X029105Y019936D02*
X000105Y019936D01*
X000105Y019945D02*
X029105Y019945D01*
X029105Y019953D02*
X000105Y019953D01*
X000105Y019962D02*
X029105Y019962D01*
X029105Y019970D02*
X000105Y019970D01*
X000105Y019979D02*
X029105Y019979D01*
X029105Y019987D02*
X000105Y019987D01*
X000105Y019996D02*
X029105Y019996D01*
X029105Y020004D02*
X000105Y020004D01*
X000105Y020013D02*
X029105Y020013D01*
X029105Y020021D02*
X000105Y020021D01*
X000105Y020030D02*
X029105Y020030D01*
X029105Y020038D02*
X000105Y020038D01*
X000105Y020047D02*
X029105Y020047D01*
X029105Y020055D02*
X000105Y020055D01*
X000105Y020064D02*
X029105Y020064D01*
X029105Y020072D02*
X000105Y020072D01*
X000105Y020081D02*
X029105Y020081D01*
X029105Y020089D02*
X000105Y020089D01*
X000105Y020098D02*
X029105Y020098D01*
X029105Y020106D02*
X000105Y020106D01*
X000105Y020115D02*
X029105Y020115D01*
X029105Y020123D02*
X000105Y020123D01*
X000105Y020132D02*
X029105Y020132D01*
X029105Y020140D02*
X000105Y020140D01*
X000105Y020149D02*
X029105Y020149D01*
X029105Y020157D02*
X000105Y020157D01*
X000105Y020166D02*
X029105Y020166D01*
X029105Y020174D02*
X000105Y020174D01*
X000105Y020183D02*
X029105Y020183D01*
X029105Y020191D02*
X000105Y020191D01*
X000105Y020200D02*
X029105Y020200D01*
X029105Y020208D02*
X000105Y020208D01*
X000105Y020217D02*
X029105Y020217D01*
X029105Y020225D02*
X000105Y020225D01*
X000105Y020234D02*
X029105Y020234D01*
X029105Y020242D02*
X000105Y020242D01*
X000105Y020251D02*
X029105Y020251D01*
X029105Y020259D02*
X000105Y020259D01*
X000105Y020268D02*
X029105Y020268D01*
X029105Y020276D02*
X000105Y020276D01*
X000105Y020285D02*
X029105Y020285D01*
X029105Y020293D02*
X000105Y020293D01*
X000105Y020302D02*
X029105Y020302D01*
X029105Y020310D02*
X000105Y020310D01*
X000105Y020319D02*
X029105Y020319D01*
X029105Y020327D02*
X000105Y020327D01*
X000105Y020336D02*
X029105Y020336D01*
X029105Y020344D02*
X000105Y020344D01*
X000105Y020353D02*
X029105Y020353D01*
X029105Y020361D02*
X000105Y020361D01*
X000105Y020370D02*
X029105Y020370D01*
X029105Y020378D02*
X000105Y020378D01*
X000105Y020387D02*
X029105Y020387D01*
X029105Y020395D02*
X000105Y020395D01*
X000105Y020404D02*
X029105Y020404D01*
X029105Y020412D02*
X000105Y020412D01*
X000105Y020421D02*
X029105Y020421D01*
X029105Y020429D02*
X000105Y020429D01*
X000105Y020438D02*
X029105Y020438D01*
X029105Y020446D02*
X000105Y020446D01*
X000105Y020455D02*
X029105Y020455D01*
X029105Y020463D02*
X000105Y020463D01*
X000105Y020472D02*
X029105Y020472D01*
X029105Y020480D02*
X000105Y020480D01*
X000105Y020489D02*
X029105Y020489D01*
X029105Y020497D02*
X000105Y020497D01*
X000105Y020506D02*
X029105Y020506D01*
X029105Y020514D02*
X000105Y020514D01*
X000105Y020523D02*
X029105Y020523D01*
X029105Y020531D02*
X000105Y020531D01*
X000105Y020540D02*
X029105Y020540D01*
X029105Y020548D02*
X000105Y020548D01*
X000105Y020557D02*
X029105Y020557D01*
X029105Y020565D02*
X000105Y020565D01*
X000105Y020574D02*
X029105Y020574D01*
X029105Y020582D02*
X000105Y020582D01*
X000105Y020591D02*
X029105Y020591D01*
X029105Y020599D02*
X000105Y020599D01*
X000105Y020608D02*
X029105Y020608D01*
X029105Y020616D02*
X000105Y020616D01*
X000105Y020625D02*
X029105Y020625D01*
X029105Y020633D02*
X000105Y020633D01*
X000105Y020642D02*
X029105Y020642D01*
X029105Y020650D02*
X000105Y020650D01*
X000105Y020659D02*
X029105Y020659D01*
X029105Y020667D02*
X000105Y020667D01*
X000105Y020676D02*
X029105Y020676D01*
X029105Y020684D02*
X000105Y020684D01*
X000105Y020693D02*
X029105Y020693D01*
X029105Y020701D02*
X000105Y020701D01*
X000105Y020710D02*
X029105Y020710D01*
X029105Y020718D02*
X000105Y020718D01*
X000105Y020727D02*
X029105Y020727D01*
X029105Y020735D02*
X000105Y020735D01*
X000105Y020744D02*
X029105Y020744D01*
X029105Y020752D02*
X000105Y020752D01*
X000105Y020761D02*
X029105Y020761D01*
X029105Y020769D02*
X000105Y020769D01*
X000105Y020778D02*
X029105Y020778D01*
X029105Y020786D02*
X000105Y020786D01*
X000105Y020795D02*
X029105Y020795D01*
X029105Y020803D02*
X000105Y020803D01*
X000105Y020812D02*
X029105Y020812D01*
X029105Y020820D02*
X000105Y020820D01*
X000105Y020829D02*
X029105Y020829D01*
X029105Y020837D02*
X000105Y020837D01*
X000105Y020846D02*
X029105Y020846D01*
X029105Y020854D02*
X000105Y020854D01*
X000105Y020863D02*
X029105Y020863D01*
X029105Y020871D02*
X000105Y020871D01*
X000105Y020880D02*
X029105Y020880D01*
X029105Y020888D02*
X000105Y020888D01*
X000105Y020897D02*
X029105Y020897D01*
X029105Y020905D02*
X000105Y020905D01*
X000105Y020914D02*
X029105Y020914D01*
X029105Y020922D02*
X000105Y020922D01*
X000105Y020931D02*
X029105Y020931D01*
X029105Y020939D02*
X000105Y020939D01*
X000105Y020948D02*
X029105Y020948D01*
X029105Y020956D02*
X000105Y020956D01*
X000105Y020965D02*
X029105Y020965D01*
X029105Y020973D02*
X000105Y020973D01*
X000105Y020982D02*
X029105Y020982D01*
X029105Y020990D02*
X000105Y020990D01*
X000105Y020999D02*
X029105Y020999D01*
X029105Y021007D02*
X000105Y021007D01*
X000105Y021016D02*
X029105Y021016D01*
X029105Y021024D02*
X000105Y021024D01*
X000105Y021033D02*
X029105Y021033D01*
X029105Y021041D02*
X000105Y021041D01*
X000105Y021050D02*
X029105Y021050D01*
X029105Y021058D02*
X000105Y021058D01*
X000105Y021067D02*
X029105Y021067D01*
X029105Y021075D02*
X000105Y021075D01*
X000105Y021084D02*
X029105Y021084D01*
X029105Y021092D02*
X000105Y021092D01*
X000105Y021101D02*
X029105Y021101D01*
X029105Y021109D02*
X000105Y021109D01*
X000105Y021118D02*
X029105Y021118D01*
X029105Y021126D02*
X000105Y021126D01*
X000105Y021135D02*
X029105Y021135D01*
X029105Y021143D02*
X000105Y021143D01*
X000105Y021152D02*
X029105Y021152D01*
X029105Y021160D02*
X000105Y021160D01*
X000105Y021169D02*
X029105Y021169D01*
X029105Y021177D02*
X000105Y021177D01*
X000105Y021186D02*
X029105Y021186D01*
X029105Y021194D02*
X000105Y021194D01*
X000105Y021203D02*
X029105Y021203D01*
X029105Y021211D02*
X000105Y021211D01*
X000105Y021220D02*
X029105Y021220D01*
X029105Y021228D02*
X000105Y021228D01*
X000105Y021237D02*
X029105Y021237D01*
X029105Y021245D02*
X000105Y021245D01*
X000105Y021254D02*
X029105Y021254D01*
X029105Y021262D02*
X000105Y021262D01*
X000105Y021271D02*
X029105Y021271D01*
X029105Y021279D02*
X000105Y021279D01*
X000105Y021288D02*
X029105Y021288D01*
X029105Y021296D02*
X000105Y021296D01*
X000105Y021305D02*
X029105Y021305D01*
X029105Y021313D02*
X000105Y021313D01*
X000105Y021322D02*
X029105Y021322D01*
X029105Y021330D02*
X000105Y021330D01*
X000105Y021339D02*
X029105Y021339D01*
X029105Y021347D02*
X000105Y021347D01*
X000105Y021356D02*
X029105Y021356D01*
X029105Y021364D02*
X000105Y021364D01*
X000105Y021373D02*
X029105Y021373D01*
X029105Y021381D02*
X000105Y021381D01*
X000105Y021390D02*
X029105Y021390D01*
X029105Y021398D02*
X000105Y021398D01*
X000105Y021407D02*
X029105Y021407D01*
X029105Y021415D02*
X000105Y021415D01*
X000105Y021424D02*
X029105Y021424D01*
X029105Y021432D02*
X000105Y021432D01*
X000105Y021441D02*
X029105Y021441D01*
X029105Y021449D02*
X000105Y021449D01*
X000105Y021458D02*
X029105Y021458D01*
X029105Y021466D02*
X000105Y021466D01*
X000105Y021475D02*
X029105Y021475D01*
X029105Y021483D02*
X000105Y021483D01*
X000105Y021492D02*
X029105Y021492D01*
X029105Y021500D02*
X000105Y021500D01*
X000105Y021509D02*
X029105Y021509D01*
X029105Y021517D02*
X000105Y021517D01*
X000105Y021526D02*
X029105Y021526D01*
X029105Y021534D02*
X000105Y021534D01*
X000105Y021543D02*
X029105Y021543D01*
X029105Y021551D02*
X000105Y021551D01*
X000105Y021560D02*
X029105Y021560D01*
X029105Y021568D02*
X000105Y021568D01*
X000105Y021577D02*
X029105Y021577D01*
X029105Y021585D02*
X000105Y021585D01*
X000105Y021594D02*
X029105Y021594D01*
X029105Y021602D02*
X000105Y021602D01*
X000105Y021611D02*
X029105Y021611D01*
X029105Y021619D02*
X000105Y021619D01*
X000105Y021628D02*
X029105Y021628D01*
X029105Y021636D02*
X000105Y021636D01*
X000105Y021645D02*
X029105Y021645D01*
X029105Y021653D02*
X000105Y021653D01*
X000105Y021662D02*
X029105Y021662D01*
X029105Y021670D02*
X000105Y021670D01*
X000105Y021679D02*
X029105Y021679D01*
X029105Y021687D02*
X000105Y021687D01*
X000105Y021696D02*
X029105Y021696D01*
X029105Y021704D02*
X000105Y021704D01*
X000105Y021713D02*
X029105Y021713D01*
X029105Y021721D02*
X000105Y021721D01*
X000105Y021730D02*
X029105Y021730D01*
X029105Y021738D02*
X000105Y021738D01*
X000105Y021747D02*
X029105Y021747D01*
X029105Y021755D02*
X000105Y021755D01*
X000105Y021764D02*
X029105Y021764D01*
X029105Y021772D02*
X000105Y021772D01*
X000105Y021781D02*
X029105Y021781D01*
X029105Y021789D02*
X000105Y021789D01*
X000105Y021798D02*
X029105Y021798D01*
X029105Y021806D02*
X000105Y021806D01*
X000105Y021815D02*
X029105Y021815D01*
X029105Y021823D02*
X000105Y021823D01*
X000105Y021832D02*
X029105Y021832D01*
X029105Y021840D02*
X000105Y021840D01*
X000105Y021849D02*
X029105Y021849D01*
X029105Y021857D02*
X000105Y021857D01*
X000105Y021866D02*
X029105Y021866D01*
X029105Y021874D02*
X000105Y021874D01*
X000105Y021883D02*
X029105Y021883D01*
X029105Y021891D02*
X000105Y021891D01*
X000105Y021900D02*
X029105Y021900D01*
X029105Y021908D02*
X000105Y021908D01*
X000105Y021917D02*
X029105Y021917D01*
X029105Y021925D02*
X000105Y021925D01*
X000105Y021934D02*
X029105Y021934D01*
X029105Y021942D02*
X000105Y021942D01*
X000105Y021951D02*
X029105Y021951D01*
X029105Y021959D02*
X000105Y021959D01*
X000105Y021968D02*
X029105Y021968D01*
X029105Y021976D02*
X000105Y021976D01*
X000105Y021985D02*
X029105Y021985D01*
X029105Y021993D02*
X000105Y021993D01*
X000105Y022002D02*
X029105Y022002D01*
X029105Y022010D02*
X000105Y022010D01*
X000105Y022019D02*
X029105Y022019D01*
X029105Y022027D02*
X000105Y022027D01*
X000105Y022036D02*
X029105Y022036D01*
X029105Y022044D02*
X000105Y022044D01*
X000105Y022053D02*
X029105Y022053D01*
X029105Y022061D02*
X000105Y022061D01*
X000105Y022070D02*
X029105Y022070D01*
X029105Y022078D02*
X000105Y022078D01*
X000105Y022087D02*
X029105Y022087D01*
X029105Y022095D02*
X000105Y022095D01*
X000105Y022104D02*
X029105Y022104D01*
X029105Y022112D02*
X000105Y022112D01*
X000105Y022121D02*
X029105Y022121D01*
X029105Y022129D02*
X000105Y022129D01*
X000105Y022138D02*
X029105Y022138D01*
X029105Y022146D02*
X000105Y022146D01*
X000105Y022155D02*
X029105Y022155D01*
X029105Y022163D02*
X000105Y022163D01*
X000105Y022172D02*
X029105Y022172D01*
X029105Y022180D02*
X000105Y022180D01*
X000105Y022189D02*
X029105Y022189D01*
X029105Y022197D02*
X000105Y022197D01*
X000105Y022206D02*
X029105Y022206D01*
X029105Y022214D02*
X000105Y022214D01*
X000105Y022223D02*
X029105Y022223D01*
X029105Y022231D02*
X000105Y022231D01*
X000105Y022240D02*
X029105Y022240D01*
X029105Y022248D02*
X000105Y022248D01*
X000105Y022257D02*
X029105Y022257D01*
X029105Y022265D02*
X000105Y022265D01*
X000105Y022274D02*
X029105Y022274D01*
X029105Y022282D02*
X000105Y022282D01*
X000105Y022291D02*
X029105Y022291D01*
X029105Y022299D02*
X000105Y022299D01*
X000105Y022308D02*
X029105Y022308D01*
X029105Y022316D02*
X000105Y022316D01*
X000105Y022325D02*
X029105Y022325D01*
X029105Y022333D02*
X000105Y022333D01*
X000105Y022342D02*
X029105Y022342D01*
X029105Y022350D02*
X000105Y022350D01*
X000105Y022359D02*
X029105Y022359D01*
X029105Y022367D02*
X000105Y022367D01*
X000105Y022376D02*
X029105Y022376D01*
X029105Y022384D02*
X000105Y022384D01*
X000105Y022393D02*
X029105Y022393D01*
X029105Y022401D02*
X000105Y022401D01*
X000105Y022410D02*
X029105Y022410D01*
X029105Y022418D02*
X000105Y022418D01*
X000105Y022427D02*
X029105Y022427D01*
X029105Y022435D02*
X000105Y022435D01*
X000105Y022444D02*
X029105Y022444D01*
X029105Y022452D02*
X000105Y022452D01*
X000105Y022461D02*
X029105Y022461D01*
X029105Y022469D02*
X000105Y022469D01*
X000105Y022478D02*
X029105Y022478D01*
X029105Y022486D02*
X000105Y022486D01*
X000105Y022495D02*
X029105Y022495D01*
X029105Y022503D02*
X000105Y022503D01*
X000105Y022512D02*
X029105Y022512D01*
X029105Y022520D02*
X000105Y022520D01*
X000105Y022529D02*
X029105Y022529D01*
X029105Y022537D02*
X000105Y022537D01*
X000105Y022546D02*
X029105Y022546D01*
X029105Y022554D02*
X000105Y022554D01*
X000105Y022563D02*
X029105Y022563D01*
X029105Y022571D02*
X000105Y022571D01*
X000105Y022580D02*
X029105Y022580D01*
X029105Y022588D02*
X000105Y022588D01*
X000105Y022597D02*
X029105Y022597D01*
X029105Y022605D02*
X000105Y022605D01*
X000105Y022614D02*
X029105Y022614D01*
X029105Y022622D02*
X000105Y022622D01*
X000105Y022631D02*
X029105Y022631D01*
X029105Y022639D02*
X000105Y022639D01*
X000105Y022648D02*
X029105Y022648D01*
X029105Y022656D02*
X000105Y022656D01*
X000105Y022665D02*
X029105Y022665D01*
X029105Y022673D02*
X000105Y022673D01*
X000105Y022682D02*
X029105Y022682D01*
X029105Y022690D02*
X000105Y022690D01*
X000105Y022699D02*
X029105Y022699D01*
X029105Y022707D02*
X000105Y022707D01*
X000105Y022716D02*
X029105Y022716D01*
X029105Y022724D02*
X000105Y022724D01*
X000105Y022733D02*
X029105Y022733D01*
X029105Y022741D02*
X000105Y022741D01*
X000105Y022750D02*
X029105Y022750D01*
X029105Y022758D02*
X000105Y022758D01*
X000105Y022767D02*
X029105Y022767D01*
X029105Y022775D02*
X000105Y022775D01*
X000105Y022784D02*
X029105Y022784D01*
X029105Y022792D02*
X000105Y022792D01*
X000105Y022801D02*
X029105Y022801D01*
X029105Y022809D02*
X000105Y022809D01*
X000105Y022818D02*
X029105Y022818D01*
X029105Y022826D02*
X000105Y022826D01*
X000105Y022835D02*
X029105Y022835D01*
X029105Y022843D02*
X000105Y022843D01*
X000105Y022852D02*
X029105Y022852D01*
X029105Y022860D02*
X000105Y022860D01*
X000105Y022869D02*
X029105Y022869D01*
X029105Y022877D02*
X000105Y022877D01*
X000105Y022886D02*
X029105Y022886D01*
X029105Y022894D02*
X000105Y022894D01*
X000105Y022903D02*
X029105Y022903D01*
X029105Y022911D02*
X000105Y022911D01*
X000105Y022920D02*
X029105Y022920D01*
X029105Y022928D02*
X000105Y022928D01*
X000105Y022937D02*
X029105Y022937D01*
X029105Y022945D02*
X000105Y022945D01*
X000105Y022954D02*
X029105Y022954D01*
X029105Y022962D02*
X000105Y022962D01*
X000105Y022971D02*
X029105Y022971D01*
X029105Y022979D02*
X000105Y022979D01*
X000105Y022988D02*
X029105Y022988D01*
X029105Y022996D02*
X000105Y022996D01*
X000105Y023005D02*
X029105Y023005D01*
X029105Y023013D02*
X000105Y023013D01*
X000105Y023022D02*
X029105Y023022D01*
X029105Y023030D02*
X000105Y023030D01*
X000105Y023039D02*
X029105Y023039D01*
X029105Y023047D02*
X000105Y023047D01*
X000105Y023056D02*
X029105Y023056D01*
X029105Y023064D02*
X000105Y023064D01*
X000105Y023073D02*
X029105Y023073D01*
X029105Y023081D02*
X000105Y023081D01*
X000105Y023090D02*
X029105Y023090D01*
X029105Y023098D02*
X000105Y023098D01*
M02*
