G75*
G70*
%OFA0B0*%
%FSLAX24Y24*%
%IPPOS*%
%LPD*%
%AMOC8*
5,1,8,0,0,1.08239X$1,22.5*
%
%ADD10C,0.0000*%
%ADD11C,0.0051*%
%ADD12C,0.0110*%
%ADD13C,0.0080*%
%ADD14C,0.0020*%
%ADD15C,0.0050*%
%ADD16C,0.0100*%
D10*
X005331Y005913D02*
X005331Y011408D01*
X015011Y011408D01*
X015011Y005913D01*
X005331Y005913D01*
X005331Y006963D02*
X005331Y011363D01*
X015018Y011363D02*
X015018Y006963D01*
D11*
X005331Y005913D02*
X005331Y000126D01*
X005331Y000913D02*
X006355Y000787D01*
X006355Y001039D01*
X005331Y000913D01*
X006355Y000811D01*
X006355Y000862D02*
X005331Y000913D01*
X006355Y001015D01*
X006355Y000964D02*
X005331Y000913D01*
X015011Y000913D01*
X013987Y000811D01*
X013987Y000787D02*
X015011Y000913D01*
X013987Y001015D01*
X013987Y001039D02*
X013987Y000787D01*
X013987Y000862D02*
X015011Y000913D01*
X013987Y000964D01*
X013987Y001039D02*
X015011Y000913D01*
X015011Y000126D02*
X015011Y005913D01*
X012831Y005913D02*
X012831Y002626D01*
X012831Y003413D02*
X011807Y003311D01*
X011807Y003287D02*
X012831Y003413D01*
X011807Y003515D01*
X011807Y003539D02*
X011807Y003287D01*
X011807Y003362D02*
X012831Y003413D01*
X011807Y003464D01*
X011807Y003539D02*
X012831Y003413D01*
X005331Y003413D01*
X006355Y003311D01*
X006355Y003287D02*
X005331Y003413D01*
X006355Y003515D01*
X006355Y003539D02*
X006355Y003287D01*
X006355Y003362D02*
X005331Y003413D01*
X006355Y003464D01*
X006355Y003539D02*
X005331Y003413D01*
X005331Y002626D02*
X005331Y005913D01*
X001544Y005913D01*
X002331Y005913D02*
X002433Y006937D01*
X002457Y006937D02*
X002205Y006937D01*
X002331Y005913D01*
X002229Y006937D01*
X002280Y006937D02*
X002331Y005913D01*
X002382Y006937D01*
X002457Y006937D02*
X002331Y005913D01*
X002331Y011413D01*
X002433Y010389D01*
X002457Y010389D02*
X002205Y010389D01*
X002331Y011413D01*
X002229Y010389D01*
X002280Y010389D02*
X002331Y011413D01*
X002382Y010389D01*
X002457Y010389D02*
X002331Y011413D01*
X001544Y011413D02*
X005331Y011413D01*
X005331Y010913D02*
X004044Y010913D01*
X004831Y010913D02*
X004933Y009889D01*
X004957Y009889D02*
X004831Y010913D01*
X004729Y009889D01*
X004705Y009889D02*
X004957Y009889D01*
X004882Y009889D02*
X004831Y010913D01*
X004780Y009889D01*
X004705Y009889D02*
X004831Y010913D01*
X004831Y005913D01*
X004933Y006937D01*
X004957Y006937D02*
X004831Y005913D01*
X004729Y006937D01*
X004705Y006937D02*
X004957Y006937D01*
X004882Y006937D02*
X004831Y005913D01*
X004780Y006937D01*
X004705Y006937D02*
X004831Y005913D01*
X005331Y005913D02*
X004044Y005913D01*
D12*
X004171Y007097D02*
X003325Y007097D01*
X003113Y007309D01*
X003113Y007732D01*
X003325Y007944D01*
X004171Y007097D01*
X004382Y007309D01*
X004382Y007732D01*
X004171Y007944D01*
X003325Y007944D01*
X004171Y008366D02*
X004171Y008578D01*
X004382Y008578D01*
X004382Y008366D01*
X004171Y008366D01*
X004171Y009001D02*
X004382Y009212D01*
X004382Y009635D01*
X004171Y009847D01*
X003748Y009847D01*
X003536Y009635D01*
X003536Y009424D01*
X003748Y009001D01*
X003113Y009001D01*
X003113Y009847D01*
X001882Y010183D02*
X001671Y009971D01*
X001882Y010183D02*
X001882Y010606D01*
X001671Y010817D01*
X001248Y010817D01*
X001036Y010606D01*
X001036Y010394D01*
X001248Y009971D01*
X000613Y009971D01*
X000613Y010817D01*
X000613Y009549D02*
X000613Y008702D01*
X001248Y008702D01*
X001036Y009125D01*
X001036Y009337D01*
X001248Y009549D01*
X001671Y009549D01*
X001882Y009337D01*
X001882Y008914D01*
X001671Y008702D01*
X001671Y008280D02*
X001882Y008280D01*
X001882Y008068D01*
X001671Y008068D01*
X001671Y008280D01*
X001671Y007645D02*
X000825Y007645D01*
X001671Y006799D01*
X001882Y007011D01*
X001882Y007434D01*
X001671Y007645D01*
X000825Y007645D02*
X000613Y007434D01*
X000613Y007011D01*
X000825Y006799D01*
X001671Y006799D01*
X007217Y004919D02*
X007217Y004073D01*
X008063Y004919D01*
X008063Y004073D01*
X007852Y003862D01*
X007429Y003862D01*
X007217Y004073D01*
X008486Y004073D02*
X008486Y003862D01*
X008698Y003862D01*
X008698Y004073D01*
X008486Y004073D01*
X009120Y004073D02*
X009120Y003862D01*
X009120Y004073D02*
X009966Y004919D01*
X009966Y005131D01*
X009120Y005131D01*
X008063Y004919D02*
X007852Y005131D01*
X007429Y005131D01*
X007217Y004919D01*
X010389Y005131D02*
X010389Y004496D01*
X010812Y004708D01*
X011024Y004708D01*
X011235Y004496D01*
X011235Y004073D01*
X011024Y003862D01*
X010601Y003862D01*
X010389Y004073D01*
X010389Y005131D02*
X011235Y005131D01*
X011103Y002631D02*
X011949Y002631D01*
X011949Y002419D01*
X011103Y001573D01*
X011103Y001362D01*
X010680Y001573D02*
X010680Y001785D01*
X010469Y001996D01*
X009834Y001996D01*
X009834Y001573D01*
X010046Y001362D01*
X010469Y001362D01*
X010680Y001573D01*
X010257Y002419D02*
X009834Y001996D01*
X009412Y001996D02*
X008777Y001996D01*
X008566Y002208D01*
X008566Y002419D01*
X008777Y002631D01*
X009200Y002631D01*
X009412Y002419D01*
X009412Y001573D01*
X009200Y001362D01*
X008777Y001362D01*
X008566Y001573D01*
X008143Y001573D02*
X008143Y001362D01*
X007931Y001362D01*
X007931Y001573D01*
X008143Y001573D01*
X007508Y001573D02*
X007297Y001362D01*
X006874Y001362D01*
X006662Y001573D01*
X007508Y002419D01*
X007508Y001573D01*
X006662Y001573D02*
X006662Y002419D01*
X006874Y002631D01*
X007297Y002631D01*
X007508Y002419D01*
X010257Y002419D02*
X010680Y002631D01*
X012372Y002419D02*
X012372Y002208D01*
X012584Y001996D01*
X013218Y001996D01*
X013641Y001996D02*
X014275Y001996D01*
X014487Y001785D01*
X014487Y001573D01*
X014275Y001362D01*
X013852Y001362D01*
X013641Y001573D01*
X013641Y001996D01*
X014064Y002419D01*
X014487Y002631D01*
X013218Y002419D02*
X013007Y002631D01*
X012584Y002631D01*
X012372Y002419D01*
X013218Y002419D02*
X013218Y001573D01*
X013007Y001362D01*
X012584Y001362D01*
X012372Y001573D01*
D13*
X015058Y007332D02*
X015629Y007332D01*
X015629Y008376D01*
X016475Y008376D01*
X016770Y008080D01*
X018267Y008080D01*
X018267Y008415D01*
X018729Y008415D01*
X018729Y009911D01*
X018267Y009911D01*
X018267Y010246D01*
X016770Y010246D01*
X016475Y009950D01*
X015629Y009950D01*
X015629Y010994D01*
X015058Y010994D01*
X015058Y010679D02*
X015058Y007647D01*
X010173Y008894D02*
X009739Y008894D01*
X009739Y009682D02*
X010173Y009682D01*
X005292Y010679D02*
X005292Y007647D01*
X005292Y007332D02*
X004721Y007332D01*
X004721Y008376D01*
X003874Y008376D01*
X003579Y008080D01*
X002083Y008080D01*
X002083Y008415D01*
X001620Y008415D01*
X001620Y009911D01*
X002083Y009911D01*
X002083Y010246D01*
X003579Y010246D01*
X003874Y009950D01*
X004721Y009950D01*
X004721Y010994D01*
X005292Y010994D01*
D14*
X009470Y009964D02*
X009470Y009781D01*
X009507Y009744D01*
X009580Y009744D01*
X009617Y009781D01*
X009617Y009964D01*
X009691Y009891D02*
X009765Y009964D01*
X009765Y009744D01*
X009838Y009744D02*
X009691Y009744D01*
D15*
X007918Y009775D02*
X007728Y009775D01*
X007728Y009871D01*
X007760Y009902D01*
X007823Y009902D01*
X007855Y009871D01*
X007855Y009775D01*
X007855Y009839D02*
X007918Y009902D01*
X007918Y009996D02*
X007918Y010123D01*
X007918Y010060D02*
X007728Y010060D01*
X007792Y009996D01*
X007918Y008498D02*
X007918Y008371D01*
X007918Y008435D02*
X007728Y008435D01*
X007792Y008371D01*
X007760Y008277D02*
X007728Y008246D01*
X007728Y008182D01*
X007760Y008150D01*
X007887Y008150D01*
X007918Y008182D01*
X007918Y008246D01*
X007887Y008277D01*
D16*
X010968Y007851D02*
X010968Y007400D01*
X010968Y007551D02*
X011193Y007551D01*
X011268Y007626D01*
X011268Y007776D01*
X011193Y007851D01*
X010968Y007851D01*
X011475Y007776D02*
X011550Y007851D01*
X011700Y007851D01*
X011775Y007776D01*
X011775Y007701D01*
X011475Y007400D01*
X011775Y007400D01*
X011268Y007400D02*
X011118Y007551D01*
X011544Y009663D02*
X011694Y009663D01*
X011769Y009738D01*
X011975Y009663D02*
X012275Y009963D01*
X012275Y010038D01*
X012200Y010113D01*
X012050Y010113D01*
X011975Y010038D01*
X011769Y010038D02*
X011694Y010113D01*
X011544Y010113D01*
X011468Y010038D01*
X011468Y009738D01*
X011544Y009663D01*
X011975Y009663D02*
X012275Y009663D01*
M02*
