G75*
G70*
%OFA0B0*%
%FSLAX24Y24*%
%IPPOS*%
%LPD*%
%AMOC8*
5,1,8,0,0,1.08239X$1,22.5*
%
%ADD10C,0.0080*%
%ADD11C,0.0020*%
%ADD12C,0.0050*%
%ADD13C,0.0100*%
D10*
X-000610Y000419D02*
X-000039Y000419D01*
X-000610Y000419D02*
X-000610Y001463D01*
X-001457Y001463D01*
X-001752Y001167D01*
X-003248Y001167D01*
X-003248Y001502D01*
X-003711Y001502D01*
X-003711Y002998D01*
X-003248Y002998D01*
X-003248Y003333D01*
X-001752Y003333D01*
X-001457Y003037D01*
X-000610Y003037D01*
X-000610Y004081D01*
X-000039Y004081D01*
X-000039Y003766D02*
X-000039Y000734D01*
X004408Y001981D02*
X004842Y001981D01*
X004842Y002769D02*
X004408Y002769D01*
X009727Y003766D02*
X009727Y000734D01*
X009727Y000419D02*
X010298Y000419D01*
X010298Y001463D01*
X011144Y001463D01*
X011439Y001167D01*
X012936Y001167D01*
X012936Y001502D01*
X013398Y001502D01*
X013398Y002998D01*
X012936Y002998D01*
X012936Y003333D01*
X011439Y003333D01*
X011144Y003037D01*
X010298Y003037D01*
X010298Y004081D01*
X009727Y004081D01*
D11*
X004507Y002831D02*
X004360Y002831D01*
X004434Y002831D02*
X004434Y003051D01*
X004360Y002978D01*
X004286Y003051D02*
X004286Y002868D01*
X004250Y002831D01*
X004176Y002831D01*
X004139Y002868D01*
X004139Y003051D01*
D12*
X002588Y003083D02*
X002588Y003210D01*
X002588Y003147D02*
X002397Y003147D01*
X002461Y003083D01*
X002492Y002989D02*
X002524Y002958D01*
X002524Y002863D01*
X002524Y002926D02*
X002588Y002989D01*
X002492Y002989D02*
X002429Y002989D01*
X002397Y002958D01*
X002397Y002863D01*
X002588Y002863D01*
X002588Y001585D02*
X002588Y001458D01*
X002556Y001364D02*
X002588Y001333D01*
X002588Y001269D01*
X002556Y001238D01*
X002429Y001238D01*
X002397Y001269D01*
X002397Y001333D01*
X002429Y001364D01*
X002461Y001458D02*
X002397Y001522D01*
X002588Y001522D01*
D13*
X005637Y000938D02*
X005862Y000938D01*
X005937Y000863D01*
X005937Y000713D01*
X005862Y000638D01*
X005637Y000638D01*
X005787Y000638D02*
X005937Y000488D01*
X006144Y000488D02*
X006444Y000788D01*
X006444Y000863D01*
X006369Y000938D01*
X006219Y000938D01*
X006144Y000863D01*
X005637Y000938D02*
X005637Y000488D01*
X006144Y000488D02*
X006444Y000488D01*
X006363Y002750D02*
X006213Y002750D01*
X006138Y002825D01*
X006138Y003125D01*
X006213Y003200D01*
X006363Y003200D01*
X006438Y003125D01*
X006644Y003125D02*
X006719Y003200D01*
X006869Y003200D01*
X006944Y003125D01*
X006944Y003050D01*
X006644Y002750D01*
X006944Y002750D01*
X006438Y002825D02*
X006363Y002750D01*
M02*
