G75*
G70*
%OFA0B0*%
%FSLAX24Y24*%
%IPPOS*%
%LPD*%
%AMOC8*
5,1,8,0,0,1.08239X$1,22.5*
%
%ADD10C,0.0000*%
%ADD11C,0.0051*%
%ADD12C,0.0110*%
%ADD13R,0.0315X0.0236*%
%ADD14R,0.0315X0.0354*%
%ADD15R,0.0600X0.0400*%
%ADD16R,0.2000X0.0900*%
%ADD17R,0.0760X0.1500*%
%ADD18R,0.0400X0.0600*%
%ADD19C,0.0420*%
%ADD20C,0.0300*%
%ADD21C,0.0010*%
%ADD22C,0.0400*%
%ADD23C,0.0200*%
D10*
X005331Y005913D02*
X005331Y011408D01*
X015011Y011408D01*
X015011Y005913D01*
X005331Y005913D01*
X005331Y006963D02*
X005331Y011363D01*
X015018Y011363D02*
X015018Y006963D01*
D11*
X005331Y005913D02*
X005331Y000126D01*
X005331Y000913D02*
X006355Y000787D01*
X006355Y001039D01*
X005331Y000913D01*
X006355Y000811D01*
X006355Y000862D02*
X005331Y000913D01*
X006355Y001015D01*
X006355Y000964D02*
X005331Y000913D01*
X015011Y000913D01*
X013987Y000811D01*
X013987Y000787D02*
X015011Y000913D01*
X013987Y001015D01*
X013987Y001039D02*
X013987Y000787D01*
X013987Y000862D02*
X015011Y000913D01*
X013987Y000964D01*
X013987Y001039D02*
X015011Y000913D01*
X015011Y000126D02*
X015011Y005913D01*
X012831Y005913D02*
X012831Y002626D01*
X012831Y003413D02*
X011807Y003311D01*
X011807Y003287D02*
X012831Y003413D01*
X011807Y003515D01*
X011807Y003539D02*
X011807Y003287D01*
X011807Y003362D02*
X012831Y003413D01*
X011807Y003464D01*
X011807Y003539D02*
X012831Y003413D01*
X005331Y003413D01*
X006355Y003311D01*
X006355Y003287D02*
X005331Y003413D01*
X006355Y003515D01*
X006355Y003539D02*
X006355Y003287D01*
X006355Y003362D02*
X005331Y003413D01*
X006355Y003464D01*
X006355Y003539D02*
X005331Y003413D01*
X005331Y002626D02*
X005331Y005913D01*
X001544Y005913D01*
X002331Y005913D02*
X002433Y006937D01*
X002457Y006937D02*
X002205Y006937D01*
X002331Y005913D01*
X002229Y006937D01*
X002280Y006937D02*
X002331Y005913D01*
X002382Y006937D01*
X002457Y006937D02*
X002331Y005913D01*
X002331Y011413D01*
X002433Y010389D01*
X002457Y010389D02*
X002205Y010389D01*
X002331Y011413D01*
X002229Y010389D01*
X002280Y010389D02*
X002331Y011413D01*
X002382Y010389D01*
X002457Y010389D02*
X002331Y011413D01*
X001544Y011413D02*
X005331Y011413D01*
X005331Y010913D02*
X004044Y010913D01*
X004831Y010913D02*
X004933Y009889D01*
X004957Y009889D02*
X004831Y010913D01*
X004729Y009889D01*
X004705Y009889D02*
X004957Y009889D01*
X004882Y009889D02*
X004831Y010913D01*
X004780Y009889D01*
X004705Y009889D02*
X004831Y010913D01*
X004831Y005913D01*
X004933Y006937D01*
X004957Y006937D02*
X004831Y005913D01*
X004729Y006937D01*
X004705Y006937D02*
X004957Y006937D01*
X004882Y006937D02*
X004831Y005913D01*
X004780Y006937D01*
X004705Y006937D02*
X004831Y005913D01*
X005331Y005913D02*
X004044Y005913D01*
D12*
X004171Y007097D02*
X003325Y007097D01*
X003113Y007309D01*
X003113Y007732D01*
X003325Y007944D01*
X004171Y007097D01*
X004382Y007309D01*
X004382Y007732D01*
X004171Y007944D01*
X003325Y007944D01*
X004171Y008366D02*
X004171Y008578D01*
X004382Y008578D01*
X004382Y008366D01*
X004171Y008366D01*
X004171Y009001D02*
X004382Y009212D01*
X004382Y009635D01*
X004171Y009847D01*
X003748Y009847D01*
X003536Y009635D01*
X003536Y009424D01*
X003748Y009001D01*
X003113Y009001D01*
X003113Y009847D01*
X001882Y010183D02*
X001671Y009971D01*
X001882Y010183D02*
X001882Y010606D01*
X001671Y010817D01*
X001248Y010817D01*
X001036Y010606D01*
X001036Y010394D01*
X001248Y009971D01*
X000613Y009971D01*
X000613Y010817D01*
X000613Y009549D02*
X000613Y008702D01*
X001248Y008702D01*
X001036Y009125D01*
X001036Y009337D01*
X001248Y009549D01*
X001671Y009549D01*
X001882Y009337D01*
X001882Y008914D01*
X001671Y008702D01*
X001671Y008280D02*
X001882Y008280D01*
X001882Y008068D01*
X001671Y008068D01*
X001671Y008280D01*
X001671Y007645D02*
X000825Y007645D01*
X001671Y006799D01*
X001882Y007011D01*
X001882Y007434D01*
X001671Y007645D01*
X000825Y007645D02*
X000613Y007434D01*
X000613Y007011D01*
X000825Y006799D01*
X001671Y006799D01*
X007217Y004919D02*
X007217Y004073D01*
X008063Y004919D01*
X008063Y004073D01*
X007852Y003862D01*
X007429Y003862D01*
X007217Y004073D01*
X008486Y004073D02*
X008486Y003862D01*
X008698Y003862D01*
X008698Y004073D01*
X008486Y004073D01*
X009120Y004073D02*
X009120Y003862D01*
X009120Y004073D02*
X009966Y004919D01*
X009966Y005131D01*
X009120Y005131D01*
X008063Y004919D02*
X007852Y005131D01*
X007429Y005131D01*
X007217Y004919D01*
X010389Y005131D02*
X010389Y004496D01*
X010812Y004708D01*
X011024Y004708D01*
X011235Y004496D01*
X011235Y004073D01*
X011024Y003862D01*
X010601Y003862D01*
X010389Y004073D01*
X010389Y005131D02*
X011235Y005131D01*
X011103Y002631D02*
X011949Y002631D01*
X011949Y002419D01*
X011103Y001573D01*
X011103Y001362D01*
X010680Y001573D02*
X010680Y001785D01*
X010469Y001996D01*
X009834Y001996D01*
X009834Y001573D01*
X010046Y001362D01*
X010469Y001362D01*
X010680Y001573D01*
X010257Y002419D02*
X009834Y001996D01*
X009412Y001996D02*
X008777Y001996D01*
X008566Y002208D01*
X008566Y002419D01*
X008777Y002631D01*
X009200Y002631D01*
X009412Y002419D01*
X009412Y001573D01*
X009200Y001362D01*
X008777Y001362D01*
X008566Y001573D01*
X008143Y001573D02*
X008143Y001362D01*
X007931Y001362D01*
X007931Y001573D01*
X008143Y001573D01*
X007508Y001573D02*
X007297Y001362D01*
X006874Y001362D01*
X006662Y001573D01*
X007508Y002419D01*
X007508Y001573D01*
X006662Y001573D02*
X006662Y002419D01*
X006874Y002631D01*
X007297Y002631D01*
X007508Y002419D01*
X010257Y002419D02*
X010680Y002631D01*
X012372Y002419D02*
X012372Y002208D01*
X012584Y001996D01*
X013218Y001996D01*
X013641Y001996D02*
X014275Y001996D01*
X014487Y001785D01*
X014487Y001573D01*
X014275Y001362D01*
X013852Y001362D01*
X013641Y001573D01*
X013641Y001996D01*
X014064Y002419D01*
X014487Y002631D01*
X013218Y002419D02*
X013007Y002631D01*
X012584Y002631D01*
X012372Y002419D01*
X013218Y002419D02*
X013218Y001573D01*
X013007Y001362D01*
X012584Y001362D01*
X012372Y001573D01*
D13*
X010271Y009032D03*
X010271Y009544D03*
X009641Y009544D03*
D14*
X009641Y009091D03*
D15*
X008331Y008688D03*
X008331Y007888D03*
X008331Y009513D03*
X008331Y010313D03*
D16*
X006341Y010903D03*
X006341Y009163D03*
X006341Y007423D03*
X014008Y007423D03*
X014008Y009163D03*
X014008Y010903D03*
D17*
X011768Y006913D03*
X009956Y006913D03*
D18*
X010931Y008350D03*
X011731Y008350D03*
X011618Y009163D03*
X012418Y009163D03*
D19*
X010706Y009663D03*
X010331Y010038D03*
X009206Y009038D03*
X009581Y008663D03*
X009956Y008225D03*
X009956Y007600D03*
X006331Y007288D03*
X005706Y007288D03*
X005768Y010913D03*
X006331Y010913D03*
X014018Y010913D03*
X014643Y010913D03*
X014643Y007413D03*
X014018Y007413D03*
D20*
X011768Y006913D02*
X011731Y006950D01*
X011731Y008350D01*
X008331Y007888D02*
X008306Y007913D01*
X007956Y007913D01*
X007581Y008288D01*
X007581Y008788D01*
X007206Y009163D01*
X006341Y009163D01*
X006341Y007423D02*
X006341Y007298D01*
X006331Y007288D01*
X005706Y007288D01*
D21*
X008956Y008850D02*
X008956Y009350D01*
X009393Y009350D01*
X009518Y009225D01*
X009768Y009225D01*
X008956Y009225D01*
X008956Y009217D02*
X009768Y009217D01*
X009768Y009225D02*
X009768Y008913D01*
X009831Y008913D01*
X009831Y008413D01*
X009831Y008725D01*
X010206Y008725D01*
X010331Y008600D01*
X010331Y006163D01*
X009581Y006163D01*
X009581Y008225D01*
X009456Y008350D01*
X009768Y008350D01*
X009831Y008413D01*
X009768Y008350D01*
X009456Y008350D01*
X008956Y008850D01*
X008956Y008851D02*
X009831Y008851D01*
X009831Y008843D02*
X008964Y008843D01*
X008972Y008834D02*
X009831Y008834D01*
X009831Y008826D02*
X008981Y008826D01*
X008989Y008817D02*
X009831Y008817D01*
X009831Y008809D02*
X008998Y008809D01*
X009006Y008800D02*
X009831Y008800D01*
X009831Y008792D02*
X009015Y008792D01*
X009023Y008783D02*
X009831Y008783D01*
X009831Y008775D02*
X009032Y008775D01*
X009040Y008766D02*
X009831Y008766D01*
X009831Y008758D02*
X009049Y008758D01*
X009057Y008749D02*
X009831Y008749D01*
X009831Y008741D02*
X009066Y008741D01*
X009074Y008732D02*
X009831Y008732D01*
X009831Y008724D02*
X010208Y008724D01*
X010216Y008715D02*
X009831Y008715D01*
X009091Y008715D01*
X009083Y008724D02*
X009831Y008724D01*
X009831Y008707D02*
X010225Y008707D01*
X010233Y008698D02*
X009831Y008698D01*
X009108Y008698D01*
X009100Y008707D02*
X009831Y008707D01*
X009831Y008690D02*
X010242Y008690D01*
X010250Y008681D02*
X009831Y008681D01*
X009125Y008681D01*
X009117Y008690D02*
X009831Y008690D01*
X009831Y008673D02*
X010259Y008673D01*
X010267Y008664D02*
X009831Y008664D01*
X009142Y008664D01*
X009134Y008673D02*
X009831Y008673D01*
X009831Y008656D02*
X010276Y008656D01*
X010284Y008647D02*
X009831Y008647D01*
X009159Y008647D01*
X009151Y008656D02*
X009831Y008656D01*
X009831Y008639D02*
X010293Y008639D01*
X010301Y008630D02*
X009831Y008630D01*
X009176Y008630D01*
X009168Y008639D02*
X009831Y008639D01*
X009831Y008622D02*
X010310Y008622D01*
X010318Y008613D02*
X009831Y008613D01*
X009193Y008613D01*
X009185Y008622D02*
X009831Y008622D01*
X009831Y008605D02*
X010327Y008605D01*
X010331Y008596D02*
X009831Y008596D01*
X009210Y008596D01*
X009202Y008605D02*
X009831Y008605D01*
X009831Y008588D02*
X010331Y008588D01*
X010331Y008579D02*
X009831Y008579D01*
X009227Y008579D01*
X009219Y008588D02*
X009831Y008588D01*
X009831Y008571D02*
X010331Y008571D01*
X010331Y008562D02*
X009831Y008562D01*
X009244Y008562D01*
X009236Y008571D02*
X009831Y008571D01*
X009831Y008554D02*
X010331Y008554D01*
X010331Y008545D02*
X009831Y008545D01*
X009261Y008545D01*
X009253Y008554D02*
X009831Y008554D01*
X009831Y008537D02*
X010331Y008537D01*
X010331Y008528D02*
X009831Y008528D01*
X009278Y008528D01*
X009270Y008537D02*
X009831Y008537D01*
X009831Y008520D02*
X010331Y008520D01*
X010331Y008511D02*
X009831Y008511D01*
X009295Y008511D01*
X009287Y008520D02*
X009831Y008520D01*
X009831Y008503D02*
X010331Y008503D01*
X010331Y008494D02*
X009831Y008494D01*
X009312Y008494D01*
X009304Y008503D02*
X009831Y008503D01*
X009831Y008486D02*
X010331Y008486D01*
X010331Y008477D02*
X009831Y008477D01*
X009329Y008477D01*
X009321Y008486D02*
X009831Y008486D01*
X009831Y008469D02*
X010331Y008469D01*
X010331Y008460D02*
X009831Y008460D01*
X009346Y008460D01*
X009338Y008469D02*
X009831Y008469D01*
X009831Y008452D02*
X010331Y008452D01*
X010331Y008443D02*
X009831Y008443D01*
X009363Y008443D01*
X009355Y008452D02*
X009831Y008452D01*
X009831Y008435D02*
X010331Y008435D01*
X010331Y008426D02*
X009831Y008426D01*
X009380Y008426D01*
X009372Y008435D02*
X009831Y008435D01*
X009831Y008418D02*
X010331Y008418D01*
X010331Y008409D02*
X009827Y008409D01*
X009397Y008409D01*
X009389Y008418D02*
X009831Y008418D01*
X009819Y008401D02*
X010331Y008401D01*
X010331Y008392D02*
X009810Y008392D01*
X009414Y008392D01*
X009406Y008401D02*
X009819Y008401D01*
X009802Y008384D02*
X010331Y008384D01*
X010331Y008375D02*
X009793Y008375D01*
X009431Y008375D01*
X009423Y008384D02*
X009802Y008384D01*
X009785Y008367D02*
X010331Y008367D01*
X010331Y008358D02*
X009776Y008358D01*
X009448Y008358D01*
X009440Y008367D02*
X009785Y008367D01*
X009576Y008231D02*
X010331Y008231D01*
X010331Y008239D02*
X009567Y008239D01*
X009559Y008248D02*
X010331Y008248D01*
X010331Y008256D02*
X009550Y008256D01*
X009542Y008265D02*
X010331Y008265D01*
X010331Y008273D02*
X009533Y008273D01*
X009525Y008282D02*
X010331Y008282D01*
X010331Y008290D02*
X009516Y008290D01*
X009508Y008299D02*
X010331Y008299D01*
X010331Y008307D02*
X009499Y008307D01*
X009491Y008316D02*
X010331Y008316D01*
X010331Y008324D02*
X009482Y008324D01*
X009474Y008333D02*
X010331Y008333D01*
X010331Y008341D02*
X009465Y008341D01*
X009457Y008350D02*
X010331Y008350D01*
X010331Y008222D02*
X009581Y008222D01*
X009581Y008214D02*
X010331Y008214D01*
X010331Y008205D02*
X009581Y008205D01*
X009581Y008197D02*
X010331Y008197D01*
X010331Y008188D02*
X009581Y008188D01*
X009581Y008180D02*
X010331Y008180D01*
X010331Y008171D02*
X009581Y008171D01*
X009581Y008163D02*
X010331Y008163D01*
X010331Y008154D02*
X009581Y008154D01*
X009581Y008146D02*
X010331Y008146D01*
X010331Y008137D02*
X009581Y008137D01*
X009581Y008129D02*
X010331Y008129D01*
X010331Y008120D02*
X009581Y008120D01*
X009581Y008112D02*
X010331Y008112D01*
X010331Y008103D02*
X009581Y008103D01*
X009581Y008095D02*
X010331Y008095D01*
X010331Y008086D02*
X009581Y008086D01*
X009581Y008078D02*
X010331Y008078D01*
X010331Y008069D02*
X009581Y008069D01*
X009581Y008061D02*
X010331Y008061D01*
X010331Y008052D02*
X009581Y008052D01*
X009581Y008044D02*
X010331Y008044D01*
X010331Y008035D02*
X009581Y008035D01*
X009581Y008027D02*
X010331Y008027D01*
X010331Y008018D02*
X009581Y008018D01*
X009581Y008010D02*
X010331Y008010D01*
X010331Y008001D02*
X009581Y008001D01*
X009581Y007993D02*
X010331Y007993D01*
X010331Y007984D02*
X009581Y007984D01*
X009581Y007976D02*
X010331Y007976D01*
X010331Y007967D02*
X009581Y007967D01*
X009581Y007959D02*
X010331Y007959D01*
X010331Y007950D02*
X009581Y007950D01*
X009581Y007942D02*
X010331Y007942D01*
X010331Y007933D02*
X009581Y007933D01*
X009581Y007925D02*
X010331Y007925D01*
X010331Y007916D02*
X009581Y007916D01*
X009581Y007908D02*
X010331Y007908D01*
X010331Y007899D02*
X009581Y007899D01*
X009581Y007891D02*
X010331Y007891D01*
X010331Y007882D02*
X009581Y007882D01*
X009581Y007874D02*
X010331Y007874D01*
X010331Y007865D02*
X009581Y007865D01*
X009581Y007857D02*
X010331Y007857D01*
X010331Y007848D02*
X009581Y007848D01*
X009581Y007840D02*
X010331Y007840D01*
X010331Y007831D02*
X009581Y007831D01*
X009581Y007823D02*
X010331Y007823D01*
X010331Y007814D02*
X009581Y007814D01*
X009581Y007806D02*
X010331Y007806D01*
X010331Y007797D02*
X009581Y007797D01*
X009581Y007789D02*
X010331Y007789D01*
X010331Y007780D02*
X009581Y007780D01*
X009581Y007772D02*
X010331Y007772D01*
X010331Y007763D02*
X009581Y007763D01*
X009581Y007755D02*
X010331Y007755D01*
X010331Y007746D02*
X009581Y007746D01*
X009581Y007738D02*
X010331Y007738D01*
X010331Y007729D02*
X009581Y007729D01*
X009581Y007721D02*
X010331Y007721D01*
X010331Y007712D02*
X009581Y007712D01*
X009581Y007704D02*
X010331Y007704D01*
X010331Y007695D02*
X009581Y007695D01*
X009581Y007687D02*
X010331Y007687D01*
X010331Y007678D02*
X009581Y007678D01*
X009581Y007670D02*
X010331Y007670D01*
X010331Y007661D02*
X009581Y007661D01*
X009581Y007653D02*
X010331Y007653D01*
X010331Y007644D02*
X009581Y007644D01*
X009581Y007636D02*
X010331Y007636D01*
X010331Y007627D02*
X009581Y007627D01*
X009581Y007619D02*
X010331Y007619D01*
X010331Y007610D02*
X009581Y007610D01*
X009581Y007602D02*
X010331Y007602D01*
X010331Y007593D02*
X009581Y007593D01*
X009581Y007585D02*
X010331Y007585D01*
X010331Y007576D02*
X009581Y007576D01*
X009581Y007568D02*
X010331Y007568D01*
X010331Y007559D02*
X009581Y007559D01*
X009581Y007551D02*
X010331Y007551D01*
X010331Y007542D02*
X009581Y007542D01*
X009581Y007534D02*
X010331Y007534D01*
X010331Y007525D02*
X009581Y007525D01*
X009581Y007517D02*
X010331Y007517D01*
X010331Y007508D02*
X009581Y007508D01*
X009581Y007500D02*
X010331Y007500D01*
X010331Y007491D02*
X009581Y007491D01*
X009581Y007483D02*
X010331Y007483D01*
X010331Y007474D02*
X009581Y007474D01*
X009581Y007466D02*
X010331Y007466D01*
X010331Y007457D02*
X009581Y007457D01*
X009581Y007449D02*
X010331Y007449D01*
X010331Y007440D02*
X009581Y007440D01*
X009581Y007432D02*
X010331Y007432D01*
X010331Y007423D02*
X009581Y007423D01*
X009581Y007415D02*
X010331Y007415D01*
X010331Y007406D02*
X009581Y007406D01*
X009581Y007398D02*
X010331Y007398D01*
X010331Y007389D02*
X009581Y007389D01*
X009581Y007381D02*
X010331Y007381D01*
X010331Y007372D02*
X009581Y007372D01*
X009581Y007364D02*
X010331Y007364D01*
X010331Y007355D02*
X009581Y007355D01*
X009581Y007347D02*
X010331Y007347D01*
X010331Y007338D02*
X009581Y007338D01*
X009581Y007330D02*
X010331Y007330D01*
X010331Y007321D02*
X009581Y007321D01*
X009581Y007313D02*
X010331Y007313D01*
X010331Y007304D02*
X009581Y007304D01*
X009581Y007296D02*
X010331Y007296D01*
X010331Y007287D02*
X009581Y007287D01*
X009581Y007279D02*
X010331Y007279D01*
X010331Y007270D02*
X009581Y007270D01*
X009581Y007262D02*
X010331Y007262D01*
X010331Y007253D02*
X009581Y007253D01*
X009581Y007245D02*
X010331Y007245D01*
X010331Y007236D02*
X009581Y007236D01*
X009581Y007228D02*
X010331Y007228D01*
X010331Y007219D02*
X009581Y007219D01*
X009581Y007211D02*
X010331Y007211D01*
X010331Y007202D02*
X009581Y007202D01*
X009581Y007194D02*
X010331Y007194D01*
X010331Y007185D02*
X009581Y007185D01*
X009581Y007176D02*
X010331Y007176D01*
X010331Y007168D02*
X009581Y007168D01*
X009581Y007159D02*
X010331Y007159D01*
X010331Y007151D02*
X009581Y007151D01*
X009581Y007142D02*
X010331Y007142D01*
X010331Y007134D02*
X009581Y007134D01*
X009581Y007125D02*
X010331Y007125D01*
X010331Y007117D02*
X009581Y007117D01*
X009581Y007108D02*
X010331Y007108D01*
X010331Y007100D02*
X009581Y007100D01*
X009581Y007091D02*
X010331Y007091D01*
X010331Y007083D02*
X009581Y007083D01*
X009581Y007074D02*
X010331Y007074D01*
X010331Y007066D02*
X009581Y007066D01*
X009581Y007057D02*
X010331Y007057D01*
X010331Y007049D02*
X009581Y007049D01*
X009581Y007040D02*
X010331Y007040D01*
X010331Y007032D02*
X009581Y007032D01*
X009581Y007023D02*
X010331Y007023D01*
X010331Y007015D02*
X009581Y007015D01*
X009581Y007006D02*
X010331Y007006D01*
X010331Y006998D02*
X009581Y006998D01*
X009581Y006989D02*
X010331Y006989D01*
X010331Y006981D02*
X009581Y006981D01*
X009581Y006972D02*
X010331Y006972D01*
X010331Y006964D02*
X009581Y006964D01*
X009581Y006955D02*
X010331Y006955D01*
X010331Y006947D02*
X009581Y006947D01*
X009581Y006938D02*
X010331Y006938D01*
X010331Y006930D02*
X009581Y006930D01*
X009581Y006921D02*
X010331Y006921D01*
X010331Y006913D02*
X009581Y006913D01*
X009581Y006904D02*
X010331Y006904D01*
X010331Y006896D02*
X009581Y006896D01*
X009581Y006887D02*
X010331Y006887D01*
X010331Y006879D02*
X009581Y006879D01*
X009581Y006870D02*
X010331Y006870D01*
X010331Y006862D02*
X009581Y006862D01*
X009581Y006853D02*
X010331Y006853D01*
X010331Y006845D02*
X009581Y006845D01*
X009581Y006836D02*
X010331Y006836D01*
X010331Y006828D02*
X009581Y006828D01*
X009581Y006819D02*
X010331Y006819D01*
X010331Y006811D02*
X009581Y006811D01*
X009581Y006802D02*
X010331Y006802D01*
X010331Y006794D02*
X009581Y006794D01*
X009581Y006785D02*
X010331Y006785D01*
X010331Y006777D02*
X009581Y006777D01*
X009581Y006768D02*
X010331Y006768D01*
X010331Y006760D02*
X009581Y006760D01*
X009581Y006751D02*
X010331Y006751D01*
X010331Y006743D02*
X009581Y006743D01*
X009581Y006734D02*
X010331Y006734D01*
X010331Y006726D02*
X009581Y006726D01*
X009581Y006717D02*
X010331Y006717D01*
X010331Y006709D02*
X009581Y006709D01*
X009581Y006700D02*
X010331Y006700D01*
X010331Y006692D02*
X009581Y006692D01*
X009581Y006683D02*
X010331Y006683D01*
X010331Y006675D02*
X009581Y006675D01*
X009581Y006666D02*
X010331Y006666D01*
X010331Y006658D02*
X009581Y006658D01*
X009581Y006649D02*
X010331Y006649D01*
X010331Y006641D02*
X009581Y006641D01*
X009581Y006632D02*
X010331Y006632D01*
X010331Y006624D02*
X009581Y006624D01*
X009581Y006615D02*
X010331Y006615D01*
X010331Y006607D02*
X009581Y006607D01*
X009581Y006598D02*
X010331Y006598D01*
X010331Y006590D02*
X009581Y006590D01*
X009581Y006581D02*
X010331Y006581D01*
X010331Y006573D02*
X009581Y006573D01*
X009581Y006564D02*
X010331Y006564D01*
X010331Y006556D02*
X009581Y006556D01*
X009581Y006547D02*
X010331Y006547D01*
X010331Y006539D02*
X009581Y006539D01*
X009581Y006530D02*
X010331Y006530D01*
X010331Y006522D02*
X009581Y006522D01*
X009581Y006513D02*
X010331Y006513D01*
X010331Y006505D02*
X009581Y006505D01*
X009581Y006496D02*
X010331Y006496D01*
X010331Y006488D02*
X009581Y006488D01*
X009581Y006479D02*
X010331Y006479D01*
X010331Y006471D02*
X009581Y006471D01*
X009581Y006462D02*
X010331Y006462D01*
X010331Y006454D02*
X009581Y006454D01*
X009581Y006445D02*
X010331Y006445D01*
X010331Y006437D02*
X009581Y006437D01*
X009581Y006428D02*
X010331Y006428D01*
X010331Y006420D02*
X009581Y006420D01*
X009581Y006411D02*
X010331Y006411D01*
X010331Y006403D02*
X009581Y006403D01*
X009581Y006394D02*
X010331Y006394D01*
X010331Y006386D02*
X009581Y006386D01*
X009581Y006377D02*
X010331Y006377D01*
X010331Y006369D02*
X009581Y006369D01*
X009581Y006360D02*
X010331Y006360D01*
X010331Y006352D02*
X009581Y006352D01*
X009581Y006343D02*
X010331Y006343D01*
X010331Y006335D02*
X009581Y006335D01*
X009581Y006326D02*
X010331Y006326D01*
X010331Y006318D02*
X009581Y006318D01*
X009581Y006309D02*
X010331Y006309D01*
X010331Y006301D02*
X009581Y006301D01*
X009581Y006292D02*
X010331Y006292D01*
X010331Y006284D02*
X009581Y006284D01*
X009581Y006275D02*
X010331Y006275D01*
X010331Y006267D02*
X009581Y006267D01*
X009581Y006258D02*
X010331Y006258D01*
X010331Y006250D02*
X009581Y006250D01*
X009581Y006241D02*
X010331Y006241D01*
X010331Y006233D02*
X009581Y006233D01*
X009581Y006224D02*
X010331Y006224D01*
X010331Y006216D02*
X009581Y006216D01*
X009581Y006207D02*
X010331Y006207D01*
X010331Y006199D02*
X009581Y006199D01*
X009581Y006190D02*
X010331Y006190D01*
X010331Y006182D02*
X009581Y006182D01*
X009581Y006173D02*
X010331Y006173D01*
X010331Y006165D02*
X009581Y006165D01*
X009831Y008860D02*
X008956Y008860D01*
X008956Y008868D02*
X009831Y008868D01*
X009831Y008877D02*
X008956Y008877D01*
X008956Y008885D02*
X009831Y008885D01*
X009831Y008894D02*
X008956Y008894D01*
X008956Y008902D02*
X009831Y008902D01*
X009831Y008911D02*
X008956Y008911D01*
X008956Y008919D02*
X009768Y008919D01*
X009768Y008928D02*
X008956Y008928D01*
X008956Y008936D02*
X009768Y008936D01*
X009768Y008945D02*
X008956Y008945D01*
X008956Y008953D02*
X009768Y008953D01*
X009768Y008962D02*
X008956Y008962D01*
X008956Y008970D02*
X009768Y008970D01*
X009768Y008979D02*
X008956Y008979D01*
X008956Y008987D02*
X009768Y008987D01*
X009768Y008996D02*
X008956Y008996D01*
X008956Y009004D02*
X009768Y009004D01*
X009768Y009013D02*
X008956Y009013D01*
X008956Y009021D02*
X009768Y009021D01*
X009768Y009030D02*
X008956Y009030D01*
X008956Y009038D02*
X009768Y009038D01*
X009768Y009047D02*
X008956Y009047D01*
X008956Y009055D02*
X009768Y009055D01*
X009768Y009064D02*
X008956Y009064D01*
X008956Y009072D02*
X009768Y009072D01*
X009768Y009081D02*
X008956Y009081D01*
X008956Y009089D02*
X009768Y009089D01*
X009768Y009098D02*
X008956Y009098D01*
X008956Y009106D02*
X009768Y009106D01*
X009768Y009115D02*
X008956Y009115D01*
X008956Y009123D02*
X009768Y009123D01*
X009768Y009132D02*
X008956Y009132D01*
X008956Y009140D02*
X009768Y009140D01*
X009768Y009149D02*
X008956Y009149D01*
X008956Y009157D02*
X009768Y009157D01*
X009768Y009166D02*
X008956Y009166D01*
X008956Y009174D02*
X009768Y009174D01*
X009768Y009183D02*
X008956Y009183D01*
X008956Y009191D02*
X009768Y009191D01*
X009768Y009200D02*
X008956Y009200D01*
X008956Y009208D02*
X009768Y009208D01*
X009510Y009234D02*
X008956Y009234D01*
X008956Y009242D02*
X009502Y009242D01*
X009493Y009251D02*
X008956Y009251D01*
X008956Y009259D02*
X009485Y009259D01*
X009476Y009268D02*
X008956Y009268D01*
X008956Y009276D02*
X009468Y009276D01*
X009459Y009285D02*
X008956Y009285D01*
X008956Y009293D02*
X009451Y009293D01*
X009442Y009302D02*
X008956Y009302D01*
X008956Y009310D02*
X009434Y009310D01*
X009425Y009319D02*
X008956Y009319D01*
X008956Y009327D02*
X009417Y009327D01*
X009408Y009336D02*
X008956Y009336D01*
X008956Y009344D02*
X009400Y009344D01*
X010066Y009803D02*
X011066Y009803D01*
X011074Y009795D02*
X010074Y009795D01*
X010083Y009786D02*
X011083Y009786D01*
X011091Y009778D02*
X010091Y009778D01*
X010100Y009769D02*
X011100Y009769D01*
X011108Y009761D02*
X010108Y009761D01*
X010117Y009752D02*
X011117Y009752D01*
X011125Y009744D02*
X010125Y009744D01*
X010134Y009735D02*
X011134Y009735D01*
X011142Y009727D02*
X010142Y009727D01*
X010151Y009718D02*
X011151Y009718D01*
X011159Y009710D02*
X010159Y009710D01*
X010168Y009701D02*
X011168Y009701D01*
X011176Y009693D02*
X010176Y009693D01*
X010185Y009684D02*
X011185Y009684D01*
X011193Y009676D02*
X010193Y009676D01*
X010202Y009667D02*
X011202Y009667D01*
X011206Y009663D02*
X010831Y009288D01*
X010456Y009413D01*
X010206Y009413D01*
X010206Y009663D01*
X009956Y009913D01*
X010081Y010288D01*
X010456Y010413D01*
X011206Y009663D01*
X011202Y009659D02*
X010206Y009659D01*
X010206Y009650D02*
X011193Y009650D01*
X011185Y009642D02*
X010206Y009642D01*
X010206Y009633D02*
X011176Y009633D01*
X011168Y009625D02*
X010206Y009625D01*
X010206Y009616D02*
X011159Y009616D01*
X011151Y009608D02*
X010206Y009608D01*
X010206Y009599D02*
X011142Y009599D01*
X011134Y009591D02*
X010206Y009591D01*
X010206Y009582D02*
X011125Y009582D01*
X011117Y009574D02*
X010206Y009574D01*
X010206Y009565D02*
X011108Y009565D01*
X011100Y009557D02*
X010206Y009557D01*
X010206Y009548D02*
X011091Y009548D01*
X011083Y009540D02*
X010206Y009540D01*
X010206Y009531D02*
X011074Y009531D01*
X011066Y009523D02*
X010206Y009523D01*
X010206Y009514D02*
X011057Y009514D01*
X011049Y009506D02*
X010206Y009506D01*
X010206Y009497D02*
X011040Y009497D01*
X011032Y009489D02*
X010206Y009489D01*
X010206Y009480D02*
X011023Y009480D01*
X011015Y009472D02*
X010206Y009472D01*
X010206Y009463D02*
X011006Y009463D01*
X010998Y009455D02*
X010206Y009455D01*
X010206Y009446D02*
X010989Y009446D01*
X010981Y009438D02*
X010206Y009438D01*
X010206Y009429D02*
X010972Y009429D01*
X010964Y009421D02*
X010206Y009421D01*
X010459Y009412D02*
X010955Y009412D01*
X010947Y009404D02*
X010484Y009404D01*
X010510Y009395D02*
X010938Y009395D01*
X010930Y009387D02*
X010535Y009387D01*
X010561Y009378D02*
X010921Y009378D01*
X010913Y009370D02*
X010586Y009370D01*
X010612Y009361D02*
X010904Y009361D01*
X010896Y009353D02*
X010637Y009353D01*
X010663Y009344D02*
X010887Y009344D01*
X010879Y009336D02*
X010688Y009336D01*
X010714Y009327D02*
X010870Y009327D01*
X010862Y009319D02*
X010739Y009319D01*
X010765Y009310D02*
X010853Y009310D01*
X010845Y009302D02*
X010790Y009302D01*
X010816Y009293D02*
X010836Y009293D01*
X011057Y009812D02*
X010057Y009812D01*
X010049Y009820D02*
X011049Y009820D01*
X011040Y009829D02*
X010040Y009829D01*
X010032Y009837D02*
X011032Y009837D01*
X011023Y009846D02*
X010023Y009846D01*
X010015Y009854D02*
X011015Y009854D01*
X011006Y009863D02*
X010006Y009863D01*
X009998Y009871D02*
X010998Y009871D01*
X010989Y009880D02*
X009989Y009880D01*
X009981Y009888D02*
X010981Y009888D01*
X010972Y009897D02*
X009972Y009897D01*
X009964Y009905D02*
X010964Y009905D01*
X010955Y009914D02*
X009956Y009914D01*
X009959Y009922D02*
X010947Y009922D01*
X010938Y009931D02*
X009962Y009931D01*
X009965Y009939D02*
X010930Y009939D01*
X010921Y009948D02*
X009968Y009948D01*
X009970Y009956D02*
X010913Y009956D01*
X010904Y009965D02*
X009973Y009965D01*
X009976Y009973D02*
X010896Y009973D01*
X010887Y009982D02*
X009979Y009982D01*
X009982Y009990D02*
X010879Y009990D01*
X010870Y009999D02*
X009985Y009999D01*
X009987Y010007D02*
X010862Y010007D01*
X010853Y010016D02*
X009990Y010016D01*
X009993Y010024D02*
X010845Y010024D01*
X010836Y010033D02*
X009996Y010033D01*
X009999Y010041D02*
X010828Y010041D01*
X010819Y010050D02*
X010002Y010050D01*
X010004Y010058D02*
X010811Y010058D01*
X010802Y010067D02*
X010007Y010067D01*
X010010Y010075D02*
X010794Y010075D01*
X010785Y010084D02*
X010013Y010084D01*
X010016Y010092D02*
X010777Y010092D01*
X010768Y010101D02*
X010019Y010101D01*
X010021Y010109D02*
X010760Y010109D01*
X010751Y010118D02*
X010024Y010118D01*
X010027Y010126D02*
X010743Y010126D01*
X010734Y010135D02*
X010030Y010135D01*
X010033Y010143D02*
X010726Y010143D01*
X010717Y010152D02*
X010036Y010152D01*
X010038Y010160D02*
X010709Y010160D01*
X010700Y010169D02*
X010041Y010169D01*
X010044Y010177D02*
X010692Y010177D01*
X010683Y010186D02*
X010047Y010186D01*
X010050Y010194D02*
X010675Y010194D01*
X010666Y010203D02*
X010053Y010203D01*
X010055Y010211D02*
X010658Y010211D01*
X010649Y010220D02*
X010058Y010220D01*
X010061Y010228D02*
X010641Y010228D01*
X010632Y010237D02*
X010064Y010237D01*
X010067Y010245D02*
X010624Y010245D01*
X010615Y010254D02*
X010070Y010254D01*
X010072Y010262D02*
X010607Y010262D01*
X010598Y010271D02*
X010075Y010271D01*
X010078Y010279D02*
X010590Y010279D01*
X010581Y010288D02*
X010081Y010288D01*
X010105Y010296D02*
X010573Y010296D01*
X010564Y010305D02*
X010131Y010305D01*
X010156Y010313D02*
X010556Y010313D01*
X010547Y010322D02*
X010182Y010322D01*
X010207Y010330D02*
X010539Y010330D01*
X010530Y010339D02*
X010233Y010339D01*
X010258Y010347D02*
X010522Y010347D01*
X010513Y010356D02*
X010284Y010356D01*
X010309Y010364D02*
X010505Y010364D01*
X010496Y010373D02*
X010335Y010373D01*
X010360Y010381D02*
X010488Y010381D01*
X010479Y010390D02*
X010386Y010390D01*
X010411Y010398D02*
X010471Y010398D01*
X010462Y010407D02*
X010437Y010407D01*
D22*
X010518Y010913D02*
X008931Y010913D01*
X008884Y010911D01*
X008837Y010906D01*
X008791Y010896D01*
X008746Y010884D01*
X008701Y010867D01*
X008659Y010848D01*
X008618Y010825D01*
X008578Y010798D01*
X008541Y010769D01*
X008507Y010737D01*
X008475Y010703D01*
X008446Y010666D01*
X008419Y010626D01*
X008396Y010585D01*
X008377Y010543D01*
X008360Y010498D01*
X008348Y010453D01*
X008338Y010407D01*
X008333Y010360D01*
X008331Y010313D01*
X008331Y009513D02*
X008331Y008688D01*
X010518Y010913D02*
X010584Y010911D01*
X010649Y010905D01*
X010714Y010896D01*
X010778Y010883D01*
X010841Y010866D01*
X010904Y010845D01*
X010965Y010821D01*
X011024Y010793D01*
X011082Y010762D01*
X011138Y010727D01*
X011191Y010690D01*
X011243Y010649D01*
X011292Y010605D01*
X011338Y010559D01*
X011382Y010510D01*
X011422Y010458D01*
X011460Y010405D01*
X011494Y010349D01*
X011526Y010291D01*
X011553Y010232D01*
X011577Y010171D01*
X011598Y010108D01*
X011615Y010045D01*
X011628Y009981D01*
X011638Y009916D01*
X011643Y009850D01*
X011618Y009163D01*
X012418Y009163D02*
X014008Y009163D01*
D23*
X011618Y009163D02*
X011493Y009038D01*
X011331Y009038D01*
X010955Y009036D01*
X010931Y009012D01*
X010931Y008350D01*
X010955Y009036D02*
X010271Y009032D01*
X009641Y009544D02*
X009639Y009573D01*
X009634Y009602D01*
X009625Y009631D01*
X009613Y009657D01*
X009598Y009683D01*
X009580Y009706D01*
X009559Y009727D01*
X009536Y009745D01*
X009510Y009760D01*
X009484Y009772D01*
X009455Y009781D01*
X009426Y009786D01*
X009397Y009788D01*
X009393Y009788D01*
X008606Y009788D01*
X008575Y009786D01*
X008545Y009781D01*
X008515Y009773D01*
X008487Y009761D01*
X008460Y009746D01*
X008435Y009728D01*
X008412Y009707D01*
X008391Y009684D01*
X008373Y009659D01*
X008358Y009632D01*
X008346Y009604D01*
X008338Y009574D01*
X008333Y009544D01*
X008331Y009513D01*
M02*
