G75*
G70*
%OFA0B0*%
%FSLAX24Y24*%
%IPPOS*%
%LPD*%
%AMOC8*
5,1,8,0,0,1.08239X$1,22.5*
%
%ADD10R,0.0315X0.0236*%
%ADD11R,0.0315X0.0354*%
%ADD12R,0.0600X0.0400*%
%ADD13R,0.2000X0.0900*%
%ADD14R,0.0760X0.1500*%
%ADD15R,0.0400X0.0600*%
%ADD16C,0.0420*%
%ADD17C,0.0300*%
%ADD18C,0.0010*%
%ADD19C,0.0400*%
%ADD20C,0.0200*%
D10*
X004940Y002119D03*
X004940Y002631D03*
X004310Y002631D03*
D11*
X004310Y002178D03*
D12*
X003000Y001775D03*
X003000Y000975D03*
X003000Y002600D03*
X003000Y003400D03*
D13*
X001010Y003990D03*
X001010Y002250D03*
X001010Y000510D03*
X008678Y000510D03*
X008678Y002250D03*
X008678Y003990D03*
D14*
X006438Y000000D03*
X004625Y000000D03*
D15*
X005600Y001438D03*
X006400Y001438D03*
X006288Y002250D03*
X007088Y002250D03*
D16*
X000375Y000375D03*
X001000Y000375D03*
X004625Y000688D03*
X004625Y001313D03*
X004250Y001750D03*
X003875Y002125D03*
X005375Y002750D03*
X005000Y003125D03*
X008688Y004000D03*
X009313Y004000D03*
X001000Y004000D03*
X000438Y004000D03*
X008688Y000500D03*
X009313Y000500D03*
D17*
X006438Y000000D02*
X006400Y000038D01*
X006400Y001438D01*
X003000Y000975D02*
X002975Y001000D01*
X002625Y001000D01*
X002250Y001375D01*
X002250Y001875D01*
X001875Y002250D01*
X001010Y002250D01*
X001010Y000510D02*
X001010Y000385D01*
X001000Y000375D01*
X000375Y000375D01*
D18*
X003625Y001938D02*
X004125Y001438D01*
X004250Y001313D01*
X004250Y-000750D01*
X005000Y-000750D01*
X005000Y001688D01*
X004875Y001813D01*
X004500Y001813D01*
X004500Y001500D01*
X004438Y001438D01*
X004125Y001438D01*
X004438Y001438D01*
X004500Y001500D01*
X004500Y002000D01*
X004438Y002000D01*
X004438Y002313D01*
X004188Y002313D01*
X004063Y002438D01*
X003625Y002438D01*
X003625Y001938D01*
X004500Y001938D01*
X004500Y001930D02*
X003633Y001930D01*
X003641Y001921D02*
X004500Y001921D01*
X004500Y001913D02*
X003650Y001913D01*
X003658Y001904D02*
X004500Y001904D01*
X004500Y001896D02*
X003667Y001896D01*
X003675Y001887D02*
X004500Y001887D01*
X004500Y001879D02*
X003684Y001879D01*
X003692Y001870D02*
X004500Y001870D01*
X004500Y001862D02*
X003701Y001862D01*
X003709Y001853D02*
X004500Y001853D01*
X004500Y001845D02*
X003718Y001845D01*
X003726Y001836D02*
X004500Y001836D01*
X004500Y001828D02*
X003735Y001828D01*
X003743Y001819D02*
X004500Y001819D01*
X004500Y001811D02*
X004877Y001811D01*
X004885Y001802D02*
X004500Y001802D01*
X003760Y001802D01*
X003752Y001811D02*
X004500Y001811D01*
X004500Y001794D02*
X004894Y001794D01*
X004902Y001785D02*
X004500Y001785D01*
X003777Y001785D01*
X003769Y001794D02*
X004500Y001794D01*
X004500Y001777D02*
X004911Y001777D01*
X004919Y001768D02*
X004500Y001768D01*
X003794Y001768D01*
X003786Y001777D02*
X004500Y001777D01*
X004500Y001760D02*
X004928Y001760D01*
X004936Y001751D02*
X004500Y001751D01*
X003811Y001751D01*
X003803Y001760D02*
X004500Y001760D01*
X004500Y001743D02*
X004945Y001743D01*
X004953Y001734D02*
X004500Y001734D01*
X003828Y001734D01*
X003820Y001743D02*
X004500Y001743D01*
X004500Y001726D02*
X004962Y001726D01*
X004970Y001717D02*
X004500Y001717D01*
X003845Y001717D01*
X003837Y001726D02*
X004500Y001726D01*
X004500Y001709D02*
X004979Y001709D01*
X004987Y001700D02*
X004500Y001700D01*
X003862Y001700D01*
X003854Y001709D02*
X004500Y001709D01*
X004500Y001692D02*
X004996Y001692D01*
X005000Y001683D02*
X004500Y001683D01*
X003879Y001683D01*
X003871Y001692D02*
X004500Y001692D01*
X004500Y001675D02*
X005000Y001675D01*
X005000Y001666D02*
X004500Y001666D01*
X003896Y001666D01*
X003888Y001675D02*
X004500Y001675D01*
X004500Y001658D02*
X005000Y001658D01*
X005000Y001649D02*
X004500Y001649D01*
X003913Y001649D01*
X003905Y001658D02*
X004500Y001658D01*
X004500Y001641D02*
X005000Y001641D01*
X005000Y001632D02*
X004500Y001632D01*
X003930Y001632D01*
X003922Y001641D02*
X004500Y001641D01*
X004500Y001624D02*
X005000Y001624D01*
X005000Y001615D02*
X004500Y001615D01*
X003947Y001615D01*
X003939Y001624D02*
X004500Y001624D01*
X004500Y001607D02*
X005000Y001607D01*
X005000Y001598D02*
X004500Y001598D01*
X003964Y001598D01*
X003956Y001607D02*
X004500Y001607D01*
X004500Y001590D02*
X005000Y001590D01*
X005000Y001581D02*
X004500Y001581D01*
X003981Y001581D01*
X003973Y001590D02*
X004500Y001590D01*
X004500Y001573D02*
X005000Y001573D01*
X005000Y001564D02*
X004500Y001564D01*
X003998Y001564D01*
X003990Y001573D02*
X004500Y001573D01*
X004500Y001556D02*
X005000Y001556D01*
X005000Y001547D02*
X004500Y001547D01*
X004015Y001547D01*
X004007Y001556D02*
X004500Y001556D01*
X004500Y001539D02*
X005000Y001539D01*
X005000Y001530D02*
X004500Y001530D01*
X004032Y001530D01*
X004024Y001539D02*
X004500Y001539D01*
X004500Y001522D02*
X005000Y001522D01*
X005000Y001513D02*
X004500Y001513D01*
X004049Y001513D01*
X004041Y001522D02*
X004500Y001522D01*
X004500Y001505D02*
X005000Y001505D01*
X005000Y001496D02*
X004496Y001496D01*
X004066Y001496D01*
X004058Y001505D02*
X004500Y001505D01*
X004488Y001488D02*
X005000Y001488D01*
X005000Y001479D02*
X004479Y001479D01*
X004083Y001479D01*
X004075Y001488D02*
X004488Y001488D01*
X004471Y001471D02*
X005000Y001471D01*
X005000Y001462D02*
X004462Y001462D01*
X004100Y001462D01*
X004092Y001471D02*
X004471Y001471D01*
X004454Y001454D02*
X005000Y001454D01*
X005000Y001445D02*
X004445Y001445D01*
X004117Y001445D01*
X004109Y001454D02*
X004454Y001454D01*
X004211Y001352D02*
X005000Y001352D01*
X005000Y001360D02*
X004202Y001360D01*
X004194Y001369D02*
X005000Y001369D01*
X005000Y001377D02*
X004185Y001377D01*
X004177Y001386D02*
X005000Y001386D01*
X005000Y001394D02*
X004168Y001394D01*
X004160Y001403D02*
X005000Y001403D01*
X005000Y001411D02*
X004151Y001411D01*
X004143Y001420D02*
X005000Y001420D01*
X005000Y001428D02*
X004134Y001428D01*
X004126Y001437D02*
X005000Y001437D01*
X005000Y001343D02*
X004219Y001343D01*
X004228Y001335D02*
X005000Y001335D01*
X005000Y001326D02*
X004236Y001326D01*
X004245Y001318D02*
X005000Y001318D01*
X005000Y001309D02*
X004250Y001309D01*
X004250Y001301D02*
X005000Y001301D01*
X005000Y001292D02*
X004250Y001292D01*
X004250Y001284D02*
X005000Y001284D01*
X005000Y001275D02*
X004250Y001275D01*
X004250Y001267D02*
X005000Y001267D01*
X005000Y001258D02*
X004250Y001258D01*
X004250Y001250D02*
X005000Y001250D01*
X005000Y001241D02*
X004250Y001241D01*
X004250Y001233D02*
X005000Y001233D01*
X005000Y001224D02*
X004250Y001224D01*
X004250Y001216D02*
X005000Y001216D01*
X005000Y001207D02*
X004250Y001207D01*
X004250Y001199D02*
X005000Y001199D01*
X005000Y001190D02*
X004250Y001190D01*
X004250Y001182D02*
X005000Y001182D01*
X005000Y001173D02*
X004250Y001173D01*
X004250Y001165D02*
X005000Y001165D01*
X005000Y001156D02*
X004250Y001156D01*
X004250Y001148D02*
X005000Y001148D01*
X005000Y001139D02*
X004250Y001139D01*
X004250Y001131D02*
X005000Y001131D01*
X005000Y001122D02*
X004250Y001122D01*
X004250Y001114D02*
X005000Y001114D01*
X005000Y001105D02*
X004250Y001105D01*
X004250Y001097D02*
X005000Y001097D01*
X005000Y001088D02*
X004250Y001088D01*
X004250Y001080D02*
X005000Y001080D01*
X005000Y001071D02*
X004250Y001071D01*
X004250Y001063D02*
X005000Y001063D01*
X005000Y001054D02*
X004250Y001054D01*
X004250Y001046D02*
X005000Y001046D01*
X005000Y001037D02*
X004250Y001037D01*
X004250Y001029D02*
X005000Y001029D01*
X005000Y001020D02*
X004250Y001020D01*
X004250Y001012D02*
X005000Y001012D01*
X005000Y001003D02*
X004250Y001003D01*
X004250Y000995D02*
X005000Y000995D01*
X005000Y000986D02*
X004250Y000986D01*
X004250Y000978D02*
X005000Y000978D01*
X005000Y000969D02*
X004250Y000969D01*
X004250Y000961D02*
X005000Y000961D01*
X005000Y000952D02*
X004250Y000952D01*
X004250Y000944D02*
X005000Y000944D01*
X005000Y000935D02*
X004250Y000935D01*
X004250Y000927D02*
X005000Y000927D01*
X005000Y000918D02*
X004250Y000918D01*
X004250Y000910D02*
X005000Y000910D01*
X005000Y000901D02*
X004250Y000901D01*
X004250Y000893D02*
X005000Y000893D01*
X005000Y000884D02*
X004250Y000884D01*
X004250Y000876D02*
X005000Y000876D01*
X005000Y000867D02*
X004250Y000867D01*
X004250Y000859D02*
X005000Y000859D01*
X005000Y000850D02*
X004250Y000850D01*
X004250Y000842D02*
X005000Y000842D01*
X005000Y000833D02*
X004250Y000833D01*
X004250Y000825D02*
X005000Y000825D01*
X005000Y000816D02*
X004250Y000816D01*
X004250Y000808D02*
X005000Y000808D01*
X005000Y000799D02*
X004250Y000799D01*
X004250Y000791D02*
X005000Y000791D01*
X005000Y000782D02*
X004250Y000782D01*
X004250Y000774D02*
X005000Y000774D01*
X005000Y000765D02*
X004250Y000765D01*
X004250Y000757D02*
X005000Y000757D01*
X005000Y000748D02*
X004250Y000748D01*
X004250Y000740D02*
X005000Y000740D01*
X005000Y000731D02*
X004250Y000731D01*
X004250Y000723D02*
X005000Y000723D01*
X005000Y000714D02*
X004250Y000714D01*
X004250Y000706D02*
X005000Y000706D01*
X005000Y000697D02*
X004250Y000697D01*
X004250Y000689D02*
X005000Y000689D01*
X005000Y000680D02*
X004250Y000680D01*
X004250Y000672D02*
X005000Y000672D01*
X005000Y000663D02*
X004250Y000663D01*
X004250Y000655D02*
X005000Y000655D01*
X005000Y000646D02*
X004250Y000646D01*
X004250Y000638D02*
X005000Y000638D01*
X005000Y000629D02*
X004250Y000629D01*
X004250Y000621D02*
X005000Y000621D01*
X005000Y000612D02*
X004250Y000612D01*
X004250Y000604D02*
X005000Y000604D01*
X005000Y000595D02*
X004250Y000595D01*
X004250Y000587D02*
X005000Y000587D01*
X005000Y000578D02*
X004250Y000578D01*
X004250Y000570D02*
X005000Y000570D01*
X005000Y000561D02*
X004250Y000561D01*
X004250Y000553D02*
X005000Y000553D01*
X005000Y000544D02*
X004250Y000544D01*
X004250Y000536D02*
X005000Y000536D01*
X005000Y000527D02*
X004250Y000527D01*
X004250Y000519D02*
X005000Y000519D01*
X005000Y000510D02*
X004250Y000510D01*
X004250Y000502D02*
X005000Y000502D01*
X005000Y000493D02*
X004250Y000493D01*
X004250Y000485D02*
X005000Y000485D01*
X005000Y000476D02*
X004250Y000476D01*
X004250Y000468D02*
X005000Y000468D01*
X005000Y000459D02*
X004250Y000459D01*
X004250Y000451D02*
X005000Y000451D01*
X005000Y000442D02*
X004250Y000442D01*
X004250Y000434D02*
X005000Y000434D01*
X005000Y000425D02*
X004250Y000425D01*
X004250Y000417D02*
X005000Y000417D01*
X005000Y000408D02*
X004250Y000408D01*
X004250Y000400D02*
X005000Y000400D01*
X005000Y000391D02*
X004250Y000391D01*
X004250Y000383D02*
X005000Y000383D01*
X005000Y000374D02*
X004250Y000374D01*
X004250Y000366D02*
X005000Y000366D01*
X005000Y000357D02*
X004250Y000357D01*
X004250Y000349D02*
X005000Y000349D01*
X005000Y000340D02*
X004250Y000340D01*
X004250Y000332D02*
X005000Y000332D01*
X005000Y000323D02*
X004250Y000323D01*
X004250Y000315D02*
X005000Y000315D01*
X005000Y000306D02*
X004250Y000306D01*
X004250Y000298D02*
X005000Y000298D01*
X005000Y000289D02*
X004250Y000289D01*
X004250Y000281D02*
X005000Y000281D01*
X005000Y000272D02*
X004250Y000272D01*
X004250Y000264D02*
X005000Y000264D01*
X005000Y000255D02*
X004250Y000255D01*
X004250Y000247D02*
X005000Y000247D01*
X005000Y000238D02*
X004250Y000238D01*
X004250Y000230D02*
X005000Y000230D01*
X005000Y000221D02*
X004250Y000221D01*
X004250Y000213D02*
X005000Y000213D01*
X005000Y000204D02*
X004250Y000204D01*
X004250Y000196D02*
X005000Y000196D01*
X005000Y000187D02*
X004250Y000187D01*
X004250Y000179D02*
X005000Y000179D01*
X005000Y000170D02*
X004250Y000170D01*
X004250Y000162D02*
X005000Y000162D01*
X005000Y000153D02*
X004250Y000153D01*
X004250Y000145D02*
X005000Y000145D01*
X005000Y000136D02*
X004250Y000136D01*
X004250Y000128D02*
X005000Y000128D01*
X005000Y000119D02*
X004250Y000119D01*
X004250Y000111D02*
X005000Y000111D01*
X005000Y000102D02*
X004250Y000102D01*
X004250Y000094D02*
X005000Y000094D01*
X005000Y000085D02*
X004250Y000085D01*
X004250Y000077D02*
X005000Y000077D01*
X005000Y000068D02*
X004250Y000068D01*
X004250Y000060D02*
X005000Y000060D01*
X005000Y000051D02*
X004250Y000051D01*
X004250Y000043D02*
X005000Y000043D01*
X005000Y000034D02*
X004250Y000034D01*
X004250Y000026D02*
X005000Y000026D01*
X005000Y000017D02*
X004250Y000017D01*
X004250Y000009D02*
X005000Y000009D01*
X005000Y000000D02*
X004250Y000000D01*
X004250Y-000009D02*
X005000Y-000009D01*
X005000Y-000017D02*
X004250Y-000017D01*
X004250Y-000026D02*
X005000Y-000026D01*
X005000Y-000034D02*
X004250Y-000034D01*
X004250Y-000043D02*
X005000Y-000043D01*
X005000Y-000051D02*
X004250Y-000051D01*
X004250Y-000060D02*
X005000Y-000060D01*
X005000Y-000068D02*
X004250Y-000068D01*
X004250Y-000077D02*
X005000Y-000077D01*
X005000Y-000085D02*
X004250Y-000085D01*
X004250Y-000094D02*
X005000Y-000094D01*
X005000Y-000102D02*
X004250Y-000102D01*
X004250Y-000111D02*
X005000Y-000111D01*
X005000Y-000119D02*
X004250Y-000119D01*
X004250Y-000128D02*
X005000Y-000128D01*
X005000Y-000136D02*
X004250Y-000136D01*
X004250Y-000145D02*
X005000Y-000145D01*
X005000Y-000153D02*
X004250Y-000153D01*
X004250Y-000162D02*
X005000Y-000162D01*
X005000Y-000170D02*
X004250Y-000170D01*
X004250Y-000179D02*
X005000Y-000179D01*
X005000Y-000187D02*
X004250Y-000187D01*
X004250Y-000196D02*
X005000Y-000196D01*
X005000Y-000204D02*
X004250Y-000204D01*
X004250Y-000213D02*
X005000Y-000213D01*
X005000Y-000221D02*
X004250Y-000221D01*
X004250Y-000230D02*
X005000Y-000230D01*
X005000Y-000238D02*
X004250Y-000238D01*
X004250Y-000247D02*
X005000Y-000247D01*
X005000Y-000255D02*
X004250Y-000255D01*
X004250Y-000264D02*
X005000Y-000264D01*
X005000Y-000272D02*
X004250Y-000272D01*
X004250Y-000281D02*
X005000Y-000281D01*
X005000Y-000289D02*
X004250Y-000289D01*
X004250Y-000298D02*
X005000Y-000298D01*
X005000Y-000306D02*
X004250Y-000306D01*
X004250Y-000315D02*
X005000Y-000315D01*
X005000Y-000323D02*
X004250Y-000323D01*
X004250Y-000332D02*
X005000Y-000332D01*
X005000Y-000340D02*
X004250Y-000340D01*
X004250Y-000349D02*
X005000Y-000349D01*
X005000Y-000357D02*
X004250Y-000357D01*
X004250Y-000366D02*
X005000Y-000366D01*
X005000Y-000374D02*
X004250Y-000374D01*
X004250Y-000383D02*
X005000Y-000383D01*
X005000Y-000391D02*
X004250Y-000391D01*
X004250Y-000400D02*
X005000Y-000400D01*
X005000Y-000408D02*
X004250Y-000408D01*
X004250Y-000417D02*
X005000Y-000417D01*
X005000Y-000425D02*
X004250Y-000425D01*
X004250Y-000434D02*
X005000Y-000434D01*
X005000Y-000442D02*
X004250Y-000442D01*
X004250Y-000451D02*
X005000Y-000451D01*
X005000Y-000459D02*
X004250Y-000459D01*
X004250Y-000468D02*
X005000Y-000468D01*
X005000Y-000476D02*
X004250Y-000476D01*
X004250Y-000485D02*
X005000Y-000485D01*
X005000Y-000493D02*
X004250Y-000493D01*
X004250Y-000502D02*
X005000Y-000502D01*
X005000Y-000510D02*
X004250Y-000510D01*
X004250Y-000519D02*
X005000Y-000519D01*
X005000Y-000527D02*
X004250Y-000527D01*
X004250Y-000536D02*
X005000Y-000536D01*
X005000Y-000544D02*
X004250Y-000544D01*
X004250Y-000553D02*
X005000Y-000553D01*
X005000Y-000561D02*
X004250Y-000561D01*
X004250Y-000570D02*
X005000Y-000570D01*
X005000Y-000578D02*
X004250Y-000578D01*
X004250Y-000587D02*
X005000Y-000587D01*
X005000Y-000595D02*
X004250Y-000595D01*
X004250Y-000604D02*
X005000Y-000604D01*
X005000Y-000612D02*
X004250Y-000612D01*
X004250Y-000621D02*
X005000Y-000621D01*
X005000Y-000629D02*
X004250Y-000629D01*
X004250Y-000638D02*
X005000Y-000638D01*
X005000Y-000646D02*
X004250Y-000646D01*
X004250Y-000655D02*
X005000Y-000655D01*
X005000Y-000663D02*
X004250Y-000663D01*
X004250Y-000672D02*
X005000Y-000672D01*
X005000Y-000680D02*
X004250Y-000680D01*
X004250Y-000689D02*
X005000Y-000689D01*
X005000Y-000697D02*
X004250Y-000697D01*
X004250Y-000706D02*
X005000Y-000706D01*
X005000Y-000714D02*
X004250Y-000714D01*
X004250Y-000723D02*
X005000Y-000723D01*
X005000Y-000731D02*
X004250Y-000731D01*
X004250Y-000740D02*
X005000Y-000740D01*
X005000Y-000748D02*
X004250Y-000748D01*
X004500Y001947D02*
X003625Y001947D01*
X003625Y001955D02*
X004500Y001955D01*
X004500Y001964D02*
X003625Y001964D01*
X003625Y001972D02*
X004500Y001972D01*
X004500Y001981D02*
X003625Y001981D01*
X003625Y001989D02*
X004500Y001989D01*
X004500Y001998D02*
X003625Y001998D01*
X003625Y002006D02*
X004438Y002006D01*
X004438Y002015D02*
X003625Y002015D01*
X003625Y002023D02*
X004438Y002023D01*
X004438Y002032D02*
X003625Y002032D01*
X003625Y002040D02*
X004438Y002040D01*
X004438Y002049D02*
X003625Y002049D01*
X003625Y002057D02*
X004438Y002057D01*
X004438Y002066D02*
X003625Y002066D01*
X003625Y002074D02*
X004438Y002074D01*
X004438Y002083D02*
X003625Y002083D01*
X003625Y002091D02*
X004438Y002091D01*
X004438Y002100D02*
X003625Y002100D01*
X003625Y002108D02*
X004438Y002108D01*
X004438Y002117D02*
X003625Y002117D01*
X003625Y002125D02*
X004438Y002125D01*
X004438Y002134D02*
X003625Y002134D01*
X003625Y002142D02*
X004438Y002142D01*
X004438Y002151D02*
X003625Y002151D01*
X003625Y002159D02*
X004438Y002159D01*
X004438Y002168D02*
X003625Y002168D01*
X003625Y002176D02*
X004438Y002176D01*
X004438Y002185D02*
X003625Y002185D01*
X003625Y002193D02*
X004438Y002193D01*
X004438Y002202D02*
X003625Y002202D01*
X003625Y002210D02*
X004438Y002210D01*
X004438Y002219D02*
X003625Y002219D01*
X003625Y002227D02*
X004438Y002227D01*
X004438Y002236D02*
X003625Y002236D01*
X003625Y002244D02*
X004438Y002244D01*
X004438Y002253D02*
X003625Y002253D01*
X003625Y002261D02*
X004438Y002261D01*
X004438Y002270D02*
X003625Y002270D01*
X003625Y002278D02*
X004438Y002278D01*
X004438Y002287D02*
X003625Y002287D01*
X003625Y002295D02*
X004438Y002295D01*
X004438Y002304D02*
X003625Y002304D01*
X003625Y002312D02*
X004438Y002312D01*
X004179Y002321D02*
X003625Y002321D01*
X003625Y002329D02*
X004171Y002329D01*
X004162Y002338D02*
X003625Y002338D01*
X003625Y002346D02*
X004154Y002346D01*
X004145Y002355D02*
X003625Y002355D01*
X003625Y002363D02*
X004137Y002363D01*
X004128Y002372D02*
X003625Y002372D01*
X003625Y002380D02*
X004120Y002380D01*
X004111Y002389D02*
X003625Y002389D01*
X003625Y002397D02*
X004103Y002397D01*
X004094Y002406D02*
X003625Y002406D01*
X003625Y002414D02*
X004086Y002414D01*
X004077Y002423D02*
X003625Y002423D01*
X003625Y002431D02*
X004069Y002431D01*
X004875Y002500D02*
X004875Y002750D01*
X004625Y003000D01*
X004750Y003375D01*
X005125Y003500D01*
X005875Y002750D01*
X005500Y002375D01*
X005125Y002500D01*
X004875Y002500D01*
X004875Y002508D02*
X005633Y002508D01*
X005641Y002516D02*
X004875Y002516D01*
X004875Y002525D02*
X005650Y002525D01*
X005658Y002533D02*
X004875Y002533D01*
X004875Y002542D02*
X005667Y002542D01*
X005675Y002550D02*
X004875Y002550D01*
X004875Y002559D02*
X005684Y002559D01*
X005692Y002567D02*
X004875Y002567D01*
X004875Y002576D02*
X005701Y002576D01*
X005709Y002584D02*
X004875Y002584D01*
X004875Y002593D02*
X005718Y002593D01*
X005726Y002601D02*
X004875Y002601D01*
X004875Y002610D02*
X005735Y002610D01*
X005743Y002618D02*
X004875Y002618D01*
X004875Y002627D02*
X005752Y002627D01*
X005760Y002635D02*
X004875Y002635D01*
X004875Y002644D02*
X005769Y002644D01*
X005777Y002652D02*
X004875Y002652D01*
X004875Y002661D02*
X005786Y002661D01*
X005794Y002669D02*
X004875Y002669D01*
X004875Y002678D02*
X005803Y002678D01*
X005811Y002686D02*
X004875Y002686D01*
X004875Y002695D02*
X005820Y002695D01*
X005828Y002703D02*
X004875Y002703D01*
X004875Y002712D02*
X005837Y002712D01*
X005845Y002720D02*
X004875Y002720D01*
X004875Y002729D02*
X005854Y002729D01*
X005862Y002737D02*
X004875Y002737D01*
X004875Y002746D02*
X005871Y002746D01*
X005871Y002754D02*
X004871Y002754D01*
X004862Y002763D02*
X005862Y002763D01*
X005854Y002771D02*
X004854Y002771D01*
X004845Y002780D02*
X005845Y002780D01*
X005837Y002788D02*
X004837Y002788D01*
X004828Y002797D02*
X005828Y002797D01*
X005820Y002805D02*
X004820Y002805D01*
X004811Y002814D02*
X005811Y002814D01*
X005803Y002822D02*
X004803Y002822D01*
X004794Y002831D02*
X005794Y002831D01*
X005786Y002839D02*
X004786Y002839D01*
X004777Y002848D02*
X005777Y002848D01*
X005769Y002856D02*
X004769Y002856D01*
X004760Y002865D02*
X005760Y002865D01*
X005752Y002873D02*
X004752Y002873D01*
X004743Y002882D02*
X005743Y002882D01*
X005735Y002890D02*
X004735Y002890D01*
X004726Y002899D02*
X005726Y002899D01*
X005718Y002907D02*
X004718Y002907D01*
X004709Y002916D02*
X005709Y002916D01*
X005701Y002924D02*
X004701Y002924D01*
X004692Y002933D02*
X005692Y002933D01*
X005684Y002941D02*
X004684Y002941D01*
X004675Y002950D02*
X005675Y002950D01*
X005667Y002958D02*
X004667Y002958D01*
X004658Y002967D02*
X005658Y002967D01*
X005650Y002975D02*
X004650Y002975D01*
X004641Y002984D02*
X005641Y002984D01*
X005633Y002992D02*
X004633Y002992D01*
X004625Y003001D02*
X005624Y003001D01*
X005616Y003009D02*
X004628Y003009D01*
X004631Y003018D02*
X005607Y003018D01*
X005599Y003026D02*
X004634Y003026D01*
X004637Y003035D02*
X005590Y003035D01*
X005582Y003043D02*
X004639Y003043D01*
X004642Y003052D02*
X005573Y003052D01*
X005565Y003060D02*
X004645Y003060D01*
X004648Y003069D02*
X005556Y003069D01*
X005548Y003077D02*
X004651Y003077D01*
X004654Y003086D02*
X005539Y003086D01*
X005531Y003094D02*
X004656Y003094D01*
X004659Y003103D02*
X005522Y003103D01*
X005514Y003111D02*
X004662Y003111D01*
X004665Y003120D02*
X005505Y003120D01*
X005497Y003128D02*
X004668Y003128D01*
X004671Y003137D02*
X005488Y003137D01*
X005480Y003145D02*
X004673Y003145D01*
X004676Y003154D02*
X005471Y003154D01*
X005463Y003162D02*
X004679Y003162D01*
X004682Y003171D02*
X005454Y003171D01*
X005446Y003179D02*
X004685Y003179D01*
X004688Y003188D02*
X005437Y003188D01*
X005429Y003196D02*
X004690Y003196D01*
X004693Y003205D02*
X005420Y003205D01*
X005412Y003213D02*
X004696Y003213D01*
X004699Y003222D02*
X005403Y003222D01*
X005395Y003230D02*
X004702Y003230D01*
X004705Y003239D02*
X005386Y003239D01*
X005378Y003247D02*
X004707Y003247D01*
X004710Y003256D02*
X005369Y003256D01*
X005361Y003264D02*
X004713Y003264D01*
X004716Y003273D02*
X005352Y003273D01*
X005344Y003281D02*
X004719Y003281D01*
X004722Y003290D02*
X005335Y003290D01*
X005327Y003298D02*
X004724Y003298D01*
X004727Y003307D02*
X005318Y003307D01*
X005310Y003315D02*
X004730Y003315D01*
X004733Y003324D02*
X005301Y003324D01*
X005293Y003332D02*
X004736Y003332D01*
X004739Y003341D02*
X005284Y003341D01*
X005276Y003349D02*
X004741Y003349D01*
X004744Y003358D02*
X005267Y003358D01*
X005259Y003366D02*
X004747Y003366D01*
X004750Y003375D02*
X005250Y003375D01*
X005242Y003383D02*
X004774Y003383D01*
X004800Y003392D02*
X005233Y003392D01*
X005225Y003400D02*
X004825Y003400D01*
X004851Y003409D02*
X005216Y003409D01*
X005208Y003417D02*
X004876Y003417D01*
X004902Y003426D02*
X005199Y003426D01*
X005191Y003434D02*
X004927Y003434D01*
X004953Y003443D02*
X005182Y003443D01*
X005174Y003451D02*
X004978Y003451D01*
X005004Y003460D02*
X005165Y003460D01*
X005157Y003468D02*
X005029Y003468D01*
X005055Y003477D02*
X005148Y003477D01*
X005140Y003485D02*
X005080Y003485D01*
X005106Y003494D02*
X005131Y003494D01*
X005128Y002499D02*
X005624Y002499D01*
X005616Y002491D02*
X005153Y002491D01*
X005179Y002482D02*
X005607Y002482D01*
X005599Y002474D02*
X005204Y002474D01*
X005230Y002465D02*
X005590Y002465D01*
X005582Y002457D02*
X005255Y002457D01*
X005281Y002448D02*
X005573Y002448D01*
X005565Y002440D02*
X005306Y002440D01*
X005332Y002431D02*
X005556Y002431D01*
X005548Y002423D02*
X005357Y002423D01*
X005383Y002414D02*
X005539Y002414D01*
X005531Y002406D02*
X005408Y002406D01*
X005434Y002397D02*
X005522Y002397D01*
X005514Y002389D02*
X005459Y002389D01*
X005485Y002380D02*
X005505Y002380D01*
D19*
X006288Y002250D02*
X006313Y002938D01*
X006313Y002937D02*
X006308Y003003D01*
X006298Y003068D01*
X006285Y003132D01*
X006268Y003195D01*
X006247Y003258D01*
X006223Y003319D01*
X006196Y003378D01*
X006164Y003436D01*
X006130Y003492D01*
X006092Y003545D01*
X006052Y003597D01*
X006008Y003646D01*
X005962Y003692D01*
X005913Y003736D01*
X005861Y003777D01*
X005808Y003814D01*
X005752Y003849D01*
X005694Y003880D01*
X005635Y003908D01*
X005574Y003932D01*
X005511Y003953D01*
X005448Y003970D01*
X005384Y003983D01*
X005319Y003992D01*
X005254Y003998D01*
X005188Y004000D01*
X003600Y004000D01*
X003553Y003998D01*
X003506Y003993D01*
X003460Y003983D01*
X003415Y003971D01*
X003370Y003954D01*
X003328Y003935D01*
X003287Y003912D01*
X003247Y003885D01*
X003210Y003856D01*
X003176Y003824D01*
X003144Y003790D01*
X003115Y003753D01*
X003088Y003713D01*
X003065Y003672D01*
X003046Y003630D01*
X003029Y003585D01*
X003017Y003540D01*
X003007Y003494D01*
X003002Y003447D01*
X003000Y003400D01*
X003000Y002600D02*
X003000Y001775D01*
X007088Y002250D02*
X008678Y002250D01*
D20*
X006288Y002250D02*
X006163Y002125D01*
X006000Y002125D01*
X005624Y002123D01*
X005600Y002099D01*
X005600Y001438D01*
X005624Y002123D02*
X004940Y002119D01*
X004310Y002631D02*
X004308Y002660D01*
X004303Y002689D01*
X004294Y002718D01*
X004282Y002744D01*
X004267Y002770D01*
X004249Y002793D01*
X004228Y002814D01*
X004205Y002832D01*
X004179Y002847D01*
X004153Y002859D01*
X004124Y002868D01*
X004095Y002873D01*
X004066Y002875D01*
X004063Y002875D01*
X003275Y002875D01*
X003244Y002873D01*
X003214Y002868D01*
X003184Y002860D01*
X003156Y002848D01*
X003129Y002833D01*
X003104Y002815D01*
X003081Y002794D01*
X003060Y002771D01*
X003042Y002746D01*
X003027Y002719D01*
X003015Y002691D01*
X003007Y002661D01*
X003002Y002631D01*
X003000Y002600D01*
M02*
