G75*
G70*
%OFA0B0*%
%FSLAX24Y24*%
%IPPOS*%
%LPD*%
%AMOC8*
5,1,8,0,0,1.08239X$1,22.5*
%
%ADD10C,0.0000*%
%ADD11C,0.0051*%
%ADD12C,0.0110*%
%ADD13R,0.2000X0.0900*%
%ADD14C,0.0420*%
%ADD15C,0.0010*%
D10*
X005331Y005913D02*
X005331Y011408D01*
X015011Y011408D01*
X015011Y005913D01*
X005331Y005913D01*
X005331Y006963D02*
X005331Y011363D01*
X015018Y011363D02*
X015018Y006963D01*
D11*
X005331Y005913D02*
X005331Y000126D01*
X005331Y000913D02*
X006355Y000787D01*
X006355Y001039D01*
X005331Y000913D01*
X006355Y000811D01*
X006355Y000862D02*
X005331Y000913D01*
X006355Y001015D01*
X006355Y000964D02*
X005331Y000913D01*
X015011Y000913D01*
X013987Y000811D01*
X013987Y000787D02*
X015011Y000913D01*
X013987Y001015D01*
X013987Y001039D02*
X013987Y000787D01*
X013987Y000862D02*
X015011Y000913D01*
X013987Y000964D01*
X013987Y001039D02*
X015011Y000913D01*
X015011Y000126D02*
X015011Y005913D01*
X012831Y005913D02*
X012831Y002626D01*
X012831Y003413D02*
X011807Y003311D01*
X011807Y003287D02*
X012831Y003413D01*
X011807Y003515D01*
X011807Y003539D02*
X011807Y003287D01*
X011807Y003362D02*
X012831Y003413D01*
X011807Y003464D01*
X011807Y003539D02*
X012831Y003413D01*
X005331Y003413D01*
X006355Y003311D01*
X006355Y003287D02*
X005331Y003413D01*
X006355Y003515D01*
X006355Y003539D02*
X006355Y003287D01*
X006355Y003362D02*
X005331Y003413D01*
X006355Y003464D01*
X006355Y003539D02*
X005331Y003413D01*
X005331Y002626D02*
X005331Y005913D01*
X001544Y005913D01*
X002331Y005913D02*
X002433Y006937D01*
X002457Y006937D02*
X002205Y006937D01*
X002331Y005913D01*
X002229Y006937D01*
X002280Y006937D02*
X002331Y005913D01*
X002382Y006937D01*
X002457Y006937D02*
X002331Y005913D01*
X002331Y011413D01*
X002433Y010389D01*
X002457Y010389D02*
X002205Y010389D01*
X002331Y011413D01*
X002229Y010389D01*
X002280Y010389D02*
X002331Y011413D01*
X002382Y010389D01*
X002457Y010389D02*
X002331Y011413D01*
X001544Y011413D02*
X005331Y011413D01*
X005331Y010913D02*
X004044Y010913D01*
X004831Y010913D02*
X004933Y009889D01*
X004957Y009889D02*
X004831Y010913D01*
X004729Y009889D01*
X004705Y009889D02*
X004957Y009889D01*
X004882Y009889D02*
X004831Y010913D01*
X004780Y009889D01*
X004705Y009889D02*
X004831Y010913D01*
X004831Y005913D01*
X004933Y006937D01*
X004957Y006937D02*
X004831Y005913D01*
X004729Y006937D01*
X004705Y006937D02*
X004957Y006937D01*
X004882Y006937D02*
X004831Y005913D01*
X004780Y006937D01*
X004705Y006937D02*
X004831Y005913D01*
X005331Y005913D02*
X004044Y005913D01*
D12*
X004171Y007097D02*
X003325Y007097D01*
X003113Y007309D01*
X003113Y007732D01*
X003325Y007944D01*
X004171Y007097D01*
X004382Y007309D01*
X004382Y007732D01*
X004171Y007944D01*
X003325Y007944D01*
X004171Y008366D02*
X004171Y008578D01*
X004382Y008578D01*
X004382Y008366D01*
X004171Y008366D01*
X004171Y009001D02*
X004382Y009212D01*
X004382Y009635D01*
X004171Y009847D01*
X003748Y009847D01*
X003536Y009635D01*
X003536Y009424D01*
X003748Y009001D01*
X003113Y009001D01*
X003113Y009847D01*
X001882Y010183D02*
X001671Y009971D01*
X001882Y010183D02*
X001882Y010606D01*
X001671Y010817D01*
X001248Y010817D01*
X001036Y010606D01*
X001036Y010394D01*
X001248Y009971D01*
X000613Y009971D01*
X000613Y010817D01*
X000613Y009549D02*
X000613Y008702D01*
X001248Y008702D01*
X001036Y009125D01*
X001036Y009337D01*
X001248Y009549D01*
X001671Y009549D01*
X001882Y009337D01*
X001882Y008914D01*
X001671Y008702D01*
X001671Y008280D02*
X001882Y008280D01*
X001882Y008068D01*
X001671Y008068D01*
X001671Y008280D01*
X001671Y007645D02*
X000825Y007645D01*
X001671Y006799D01*
X001882Y007011D01*
X001882Y007434D01*
X001671Y007645D01*
X000825Y007645D02*
X000613Y007434D01*
X000613Y007011D01*
X000825Y006799D01*
X001671Y006799D01*
X007217Y004919D02*
X007217Y004073D01*
X008063Y004919D01*
X008063Y004073D01*
X007852Y003862D01*
X007429Y003862D01*
X007217Y004073D01*
X008486Y004073D02*
X008486Y003862D01*
X008698Y003862D01*
X008698Y004073D01*
X008486Y004073D01*
X009120Y004073D02*
X009120Y003862D01*
X009120Y004073D02*
X009966Y004919D01*
X009966Y005131D01*
X009120Y005131D01*
X008063Y004919D02*
X007852Y005131D01*
X007429Y005131D01*
X007217Y004919D01*
X010389Y005131D02*
X010389Y004496D01*
X010812Y004708D01*
X011024Y004708D01*
X011235Y004496D01*
X011235Y004073D01*
X011024Y003862D01*
X010601Y003862D01*
X010389Y004073D01*
X010389Y005131D02*
X011235Y005131D01*
X011103Y002631D02*
X011949Y002631D01*
X011949Y002419D01*
X011103Y001573D01*
X011103Y001362D01*
X010680Y001573D02*
X010680Y001785D01*
X010469Y001996D01*
X009834Y001996D01*
X009834Y001573D01*
X010046Y001362D01*
X010469Y001362D01*
X010680Y001573D01*
X010257Y002419D02*
X009834Y001996D01*
X009412Y001996D02*
X008777Y001996D01*
X008566Y002208D01*
X008566Y002419D01*
X008777Y002631D01*
X009200Y002631D01*
X009412Y002419D01*
X009412Y001573D01*
X009200Y001362D01*
X008777Y001362D01*
X008566Y001573D01*
X008143Y001573D02*
X008143Y001362D01*
X007931Y001362D01*
X007931Y001573D01*
X008143Y001573D01*
X007508Y001573D02*
X007297Y001362D01*
X006874Y001362D01*
X006662Y001573D01*
X007508Y002419D01*
X007508Y001573D01*
X006662Y001573D02*
X006662Y002419D01*
X006874Y002631D01*
X007297Y002631D01*
X007508Y002419D01*
X010257Y002419D02*
X010680Y002631D01*
X012372Y002419D02*
X012372Y002208D01*
X012584Y001996D01*
X013218Y001996D01*
X013641Y001996D02*
X014275Y001996D01*
X014487Y001785D01*
X014487Y001573D01*
X014275Y001362D01*
X013852Y001362D01*
X013641Y001573D01*
X013641Y001996D01*
X014064Y002419D01*
X014487Y002631D01*
X013218Y002419D02*
X013007Y002631D01*
X012584Y002631D01*
X012372Y002419D01*
X013218Y002419D02*
X013218Y001573D01*
X013007Y001362D01*
X012584Y001362D01*
X012372Y001573D01*
D13*
X014008Y007423D03*
X014008Y010903D03*
X006341Y010903D03*
X006341Y007423D03*
D14*
X006331Y007288D03*
X005706Y007288D03*
X009206Y009038D03*
X009581Y008663D03*
X009956Y008225D03*
X009956Y007600D03*
X010706Y009663D03*
X010331Y010038D03*
X014018Y010913D03*
X014643Y010913D03*
X014643Y007413D03*
X014018Y007413D03*
X006331Y010913D03*
X005768Y010913D03*
D15*
X005512Y010917D02*
X014856Y010917D01*
X014856Y010925D02*
X005512Y010925D01*
X005512Y010934D02*
X014856Y010934D01*
X014856Y010942D02*
X005512Y010942D01*
X005512Y010951D02*
X014856Y010951D01*
X014856Y010959D02*
X005512Y010959D01*
X005512Y010968D02*
X014856Y010968D01*
X014856Y010976D02*
X005512Y010976D01*
X005512Y010985D02*
X014856Y010985D01*
X014856Y010993D02*
X005506Y010993D01*
X005512Y010988D02*
X005486Y011013D01*
X005486Y011253D01*
X014856Y011253D01*
X014856Y006068D01*
X012931Y006068D01*
X012906Y006094D01*
X012756Y006094D01*
X012731Y006068D01*
X005486Y006068D01*
X005486Y010813D01*
X005512Y010838D01*
X005512Y010988D01*
X005498Y011002D02*
X014856Y011002D01*
X014856Y011010D02*
X005489Y011010D01*
X005486Y011019D02*
X014856Y011019D01*
X014856Y011027D02*
X005486Y011027D01*
X005486Y011036D02*
X014856Y011036D01*
X014856Y011044D02*
X005486Y011044D01*
X005486Y011053D02*
X014856Y011053D01*
X014856Y011061D02*
X005486Y011061D01*
X005486Y011070D02*
X014856Y011070D01*
X014856Y011078D02*
X005486Y011078D01*
X005486Y011087D02*
X014856Y011087D01*
X014856Y011095D02*
X005486Y011095D01*
X005486Y011104D02*
X014856Y011104D01*
X014856Y011112D02*
X005486Y011112D01*
X005486Y011121D02*
X014856Y011121D01*
X014856Y011129D02*
X005486Y011129D01*
X005486Y011138D02*
X014856Y011138D01*
X014856Y011146D02*
X005486Y011146D01*
X005486Y011155D02*
X014856Y011155D01*
X014856Y011163D02*
X005486Y011163D01*
X005486Y011172D02*
X014856Y011172D01*
X014856Y011180D02*
X005486Y011180D01*
X005486Y011189D02*
X014856Y011189D01*
X014856Y011197D02*
X005486Y011197D01*
X005486Y011206D02*
X014856Y011206D01*
X014856Y011214D02*
X005486Y011214D01*
X005486Y011223D02*
X014856Y011223D01*
X014856Y011231D02*
X005486Y011231D01*
X005486Y011240D02*
X014856Y011240D01*
X014856Y011248D02*
X005486Y011248D01*
X005512Y010908D02*
X014856Y010908D01*
X014856Y010900D02*
X005512Y010900D01*
X005512Y010891D02*
X014856Y010891D01*
X014856Y010883D02*
X005512Y010883D01*
X005512Y010874D02*
X014856Y010874D01*
X014856Y010866D02*
X005512Y010866D01*
X005512Y010857D02*
X014856Y010857D01*
X014856Y010849D02*
X005512Y010849D01*
X005512Y010840D02*
X014856Y010840D01*
X014856Y010832D02*
X005505Y010832D01*
X005496Y010823D02*
X014856Y010823D01*
X014856Y010815D02*
X005488Y010815D01*
X005486Y010806D02*
X014856Y010806D01*
X014856Y010798D02*
X005486Y010798D01*
X005486Y010789D02*
X014856Y010789D01*
X014856Y010781D02*
X005486Y010781D01*
X005486Y010772D02*
X014856Y010772D01*
X014856Y010764D02*
X005486Y010764D01*
X005486Y010755D02*
X014856Y010755D01*
X014856Y010747D02*
X005486Y010747D01*
X005486Y010738D02*
X014856Y010738D01*
X014856Y010730D02*
X005486Y010730D01*
X005486Y010721D02*
X014856Y010721D01*
X014856Y010713D02*
X005486Y010713D01*
X005486Y010704D02*
X014856Y010704D01*
X014856Y010696D02*
X005486Y010696D01*
X005486Y010687D02*
X014856Y010687D01*
X014856Y010679D02*
X005486Y010679D01*
X005486Y010670D02*
X014856Y010670D01*
X014856Y010662D02*
X005486Y010662D01*
X005486Y010653D02*
X014856Y010653D01*
X014856Y010645D02*
X005486Y010645D01*
X005486Y010636D02*
X014856Y010636D01*
X014856Y010628D02*
X005486Y010628D01*
X005486Y010619D02*
X014856Y010619D01*
X014856Y010611D02*
X005486Y010611D01*
X005486Y010602D02*
X014856Y010602D01*
X014856Y010594D02*
X005486Y010594D01*
X005486Y010585D02*
X014856Y010585D01*
X014856Y010577D02*
X005486Y010577D01*
X005486Y010568D02*
X014856Y010568D01*
X014856Y010560D02*
X005486Y010560D01*
X005486Y010551D02*
X014856Y010551D01*
X014856Y010543D02*
X005486Y010543D01*
X005486Y010534D02*
X014856Y010534D01*
X014856Y010526D02*
X005486Y010526D01*
X005486Y010517D02*
X014856Y010517D01*
X014856Y010509D02*
X005486Y010509D01*
X005486Y010500D02*
X014856Y010500D01*
X014856Y010492D02*
X005486Y010492D01*
X005486Y010483D02*
X014856Y010483D01*
X014856Y010475D02*
X005486Y010475D01*
X005486Y010466D02*
X014856Y010466D01*
X014856Y010458D02*
X005486Y010458D01*
X005486Y010449D02*
X014856Y010449D01*
X014856Y010441D02*
X005486Y010441D01*
X005486Y010432D02*
X014856Y010432D01*
X014856Y010424D02*
X005486Y010424D01*
X005486Y010415D02*
X014856Y010415D01*
X014856Y010407D02*
X005486Y010407D01*
X005486Y010398D02*
X014856Y010398D01*
X014856Y010390D02*
X005486Y010390D01*
X005486Y010381D02*
X014856Y010381D01*
X014856Y010373D02*
X005486Y010373D01*
X005486Y010364D02*
X014856Y010364D01*
X014856Y010356D02*
X005486Y010356D01*
X005486Y010347D02*
X014856Y010347D01*
X014856Y010339D02*
X005486Y010339D01*
X005486Y010330D02*
X014856Y010330D01*
X014856Y010322D02*
X005486Y010322D01*
X005486Y010313D02*
X014856Y010313D01*
X014856Y010305D02*
X005486Y010305D01*
X005486Y010296D02*
X014856Y010296D01*
X014856Y010288D02*
X005486Y010288D01*
X005486Y010279D02*
X014856Y010279D01*
X014856Y010271D02*
X005486Y010271D01*
X005486Y010262D02*
X014856Y010262D01*
X014856Y010254D02*
X005486Y010254D01*
X005486Y010245D02*
X014856Y010245D01*
X014856Y010237D02*
X005486Y010237D01*
X005486Y010228D02*
X014856Y010228D01*
X014856Y010220D02*
X005486Y010220D01*
X005486Y010211D02*
X014856Y010211D01*
X014856Y010203D02*
X005486Y010203D01*
X005486Y010194D02*
X014856Y010194D01*
X014856Y010186D02*
X005486Y010186D01*
X005486Y010177D02*
X014856Y010177D01*
X014856Y010169D02*
X005486Y010169D01*
X005486Y010160D02*
X014856Y010160D01*
X014856Y010152D02*
X005486Y010152D01*
X005486Y010143D02*
X014856Y010143D01*
X014856Y010135D02*
X005486Y010135D01*
X005486Y010126D02*
X014856Y010126D01*
X014856Y010118D02*
X005486Y010118D01*
X005486Y010109D02*
X014856Y010109D01*
X014856Y010101D02*
X005486Y010101D01*
X005486Y010092D02*
X014856Y010092D01*
X014856Y010084D02*
X005486Y010084D01*
X005486Y010075D02*
X014856Y010075D01*
X014856Y010067D02*
X005486Y010067D01*
X005486Y010058D02*
X014856Y010058D01*
X014856Y010050D02*
X005486Y010050D01*
X005486Y010041D02*
X014856Y010041D01*
X014856Y010033D02*
X005486Y010033D01*
X005486Y010024D02*
X014856Y010024D01*
X014856Y010016D02*
X005486Y010016D01*
X005486Y010007D02*
X014856Y010007D01*
X014856Y009999D02*
X005486Y009999D01*
X005486Y009990D02*
X014856Y009990D01*
X014856Y009982D02*
X005486Y009982D01*
X005486Y009973D02*
X014856Y009973D01*
X014856Y009965D02*
X005486Y009965D01*
X005486Y009956D02*
X014856Y009956D01*
X014856Y009948D02*
X005486Y009948D01*
X005486Y009939D02*
X014856Y009939D01*
X014856Y009931D02*
X005486Y009931D01*
X005486Y009922D02*
X014856Y009922D01*
X014856Y009914D02*
X005486Y009914D01*
X005486Y009905D02*
X014856Y009905D01*
X014856Y009897D02*
X005486Y009897D01*
X005486Y009888D02*
X014856Y009888D01*
X014856Y009880D02*
X005486Y009880D01*
X005486Y009871D02*
X014856Y009871D01*
X014856Y009863D02*
X005486Y009863D01*
X005486Y009854D02*
X014856Y009854D01*
X014856Y009846D02*
X005486Y009846D01*
X005486Y009837D02*
X014856Y009837D01*
X014856Y009829D02*
X005486Y009829D01*
X005486Y009820D02*
X014856Y009820D01*
X014856Y009812D02*
X005486Y009812D01*
X005486Y009803D02*
X014856Y009803D01*
X014856Y009795D02*
X005486Y009795D01*
X005486Y009786D02*
X014856Y009786D01*
X014856Y009778D02*
X005486Y009778D01*
X005486Y009769D02*
X014856Y009769D01*
X014856Y009761D02*
X005486Y009761D01*
X005486Y009752D02*
X014856Y009752D01*
X014856Y009744D02*
X005486Y009744D01*
X005486Y009735D02*
X014856Y009735D01*
X014856Y009727D02*
X005486Y009727D01*
X005486Y009718D02*
X014856Y009718D01*
X014856Y009710D02*
X005486Y009710D01*
X005486Y009701D02*
X014856Y009701D01*
X014856Y009693D02*
X005486Y009693D01*
X005486Y009684D02*
X014856Y009684D01*
X014856Y009676D02*
X005486Y009676D01*
X005486Y009667D02*
X014856Y009667D01*
X014856Y009659D02*
X005486Y009659D01*
X005486Y009650D02*
X014856Y009650D01*
X014856Y009642D02*
X005486Y009642D01*
X005486Y009633D02*
X014856Y009633D01*
X014856Y009625D02*
X005486Y009625D01*
X005486Y009616D02*
X014856Y009616D01*
X014856Y009608D02*
X005486Y009608D01*
X005486Y009599D02*
X014856Y009599D01*
X014856Y009591D02*
X005486Y009591D01*
X005486Y009582D02*
X014856Y009582D01*
X014856Y009574D02*
X005486Y009574D01*
X005486Y009565D02*
X014856Y009565D01*
X014856Y009557D02*
X005486Y009557D01*
X005486Y009548D02*
X014856Y009548D01*
X014856Y009540D02*
X005486Y009540D01*
X005486Y009531D02*
X014856Y009531D01*
X014856Y009523D02*
X005486Y009523D01*
X005486Y009514D02*
X014856Y009514D01*
X014856Y009506D02*
X005486Y009506D01*
X005486Y009497D02*
X014856Y009497D01*
X014856Y009489D02*
X005486Y009489D01*
X005486Y009480D02*
X014856Y009480D01*
X014856Y009472D02*
X005486Y009472D01*
X005486Y009463D02*
X014856Y009463D01*
X014856Y009455D02*
X005486Y009455D01*
X005486Y009446D02*
X014856Y009446D01*
X014856Y009438D02*
X005486Y009438D01*
X005486Y009429D02*
X014856Y009429D01*
X014856Y009421D02*
X005486Y009421D01*
X005486Y009412D02*
X014856Y009412D01*
X014856Y009404D02*
X005486Y009404D01*
X005486Y009395D02*
X014856Y009395D01*
X014856Y009387D02*
X005486Y009387D01*
X005486Y009378D02*
X014856Y009378D01*
X014856Y009370D02*
X005486Y009370D01*
X005486Y009361D02*
X014856Y009361D01*
X014856Y009353D02*
X005486Y009353D01*
X005486Y009344D02*
X014856Y009344D01*
X014856Y009336D02*
X005486Y009336D01*
X005486Y009327D02*
X014856Y009327D01*
X014856Y009319D02*
X005486Y009319D01*
X005486Y009310D02*
X014856Y009310D01*
X014856Y009302D02*
X005486Y009302D01*
X005486Y009293D02*
X014856Y009293D01*
X014856Y009285D02*
X005486Y009285D01*
X005486Y009276D02*
X014856Y009276D01*
X014856Y009268D02*
X005486Y009268D01*
X005486Y009259D02*
X014856Y009259D01*
X014856Y009251D02*
X005486Y009251D01*
X005486Y009242D02*
X014856Y009242D01*
X014856Y009234D02*
X005486Y009234D01*
X005486Y009225D02*
X014856Y009225D01*
X014856Y009217D02*
X005486Y009217D01*
X005486Y009208D02*
X014856Y009208D01*
X014856Y009200D02*
X005486Y009200D01*
X005486Y009191D02*
X014856Y009191D01*
X014856Y009183D02*
X005486Y009183D01*
X005486Y009174D02*
X014856Y009174D01*
X014856Y009166D02*
X005486Y009166D01*
X005486Y009157D02*
X014856Y009157D01*
X014856Y009149D02*
X005486Y009149D01*
X005486Y009140D02*
X014856Y009140D01*
X014856Y009132D02*
X005486Y009132D01*
X005486Y009123D02*
X014856Y009123D01*
X014856Y009115D02*
X005486Y009115D01*
X005486Y009106D02*
X014856Y009106D01*
X014856Y009098D02*
X005486Y009098D01*
X005486Y009089D02*
X014856Y009089D01*
X014856Y009081D02*
X005486Y009081D01*
X005486Y009072D02*
X014856Y009072D01*
X014856Y009064D02*
X005486Y009064D01*
X005486Y009055D02*
X014856Y009055D01*
X014856Y009047D02*
X005486Y009047D01*
X005486Y009038D02*
X014856Y009038D01*
X014856Y009030D02*
X005486Y009030D01*
X005486Y009021D02*
X014856Y009021D01*
X014856Y009013D02*
X005486Y009013D01*
X005486Y009004D02*
X014856Y009004D01*
X014856Y008996D02*
X005486Y008996D01*
X005486Y008987D02*
X014856Y008987D01*
X014856Y008979D02*
X005486Y008979D01*
X005486Y008970D02*
X014856Y008970D01*
X014856Y008962D02*
X005486Y008962D01*
X005486Y008953D02*
X014856Y008953D01*
X014856Y008945D02*
X005486Y008945D01*
X005486Y008936D02*
X014856Y008936D01*
X014856Y008928D02*
X005486Y008928D01*
X005486Y008919D02*
X014856Y008919D01*
X014856Y008911D02*
X005486Y008911D01*
X005486Y008902D02*
X014856Y008902D01*
X014856Y008894D02*
X005486Y008894D01*
X005486Y008885D02*
X014856Y008885D01*
X014856Y008877D02*
X005486Y008877D01*
X005486Y008868D02*
X014856Y008868D01*
X014856Y008860D02*
X005486Y008860D01*
X005486Y008851D02*
X014856Y008851D01*
X014856Y008843D02*
X005486Y008843D01*
X005486Y008834D02*
X014856Y008834D01*
X014856Y008826D02*
X005486Y008826D01*
X005486Y008817D02*
X014856Y008817D01*
X014856Y008809D02*
X005486Y008809D01*
X005486Y008800D02*
X014856Y008800D01*
X014856Y008792D02*
X005486Y008792D01*
X005486Y008783D02*
X014856Y008783D01*
X014856Y008775D02*
X005486Y008775D01*
X005486Y008766D02*
X014856Y008766D01*
X014856Y008758D02*
X005486Y008758D01*
X005486Y008749D02*
X014856Y008749D01*
X014856Y008741D02*
X005486Y008741D01*
X005486Y008732D02*
X014856Y008732D01*
X014856Y008724D02*
X005486Y008724D01*
X005486Y008715D02*
X014856Y008715D01*
X014856Y008707D02*
X005486Y008707D01*
X005486Y008698D02*
X014856Y008698D01*
X014856Y008690D02*
X005486Y008690D01*
X005486Y008681D02*
X014856Y008681D01*
X014856Y008673D02*
X005486Y008673D01*
X005486Y008664D02*
X014856Y008664D01*
X014856Y008656D02*
X005486Y008656D01*
X005486Y008647D02*
X014856Y008647D01*
X014856Y008639D02*
X005486Y008639D01*
X005486Y008630D02*
X014856Y008630D01*
X014856Y008622D02*
X005486Y008622D01*
X005486Y008613D02*
X014856Y008613D01*
X014856Y008605D02*
X005486Y008605D01*
X005486Y008596D02*
X014856Y008596D01*
X014856Y008588D02*
X005486Y008588D01*
X005486Y008579D02*
X014856Y008579D01*
X014856Y008571D02*
X005486Y008571D01*
X005486Y008562D02*
X014856Y008562D01*
X014856Y008554D02*
X005486Y008554D01*
X005486Y008545D02*
X014856Y008545D01*
X014856Y008537D02*
X005486Y008537D01*
X005486Y008528D02*
X014856Y008528D01*
X014856Y008520D02*
X005486Y008520D01*
X005486Y008511D02*
X014856Y008511D01*
X014856Y008503D02*
X005486Y008503D01*
X005486Y008494D02*
X014856Y008494D01*
X014856Y008486D02*
X005486Y008486D01*
X005486Y008477D02*
X014856Y008477D01*
X014856Y008469D02*
X005486Y008469D01*
X005486Y008460D02*
X014856Y008460D01*
X014856Y008452D02*
X005486Y008452D01*
X005486Y008443D02*
X014856Y008443D01*
X014856Y008435D02*
X005486Y008435D01*
X005486Y008426D02*
X014856Y008426D01*
X014856Y008418D02*
X005486Y008418D01*
X005486Y008409D02*
X014856Y008409D01*
X014856Y008401D02*
X005486Y008401D01*
X005486Y008392D02*
X014856Y008392D01*
X014856Y008384D02*
X005486Y008384D01*
X005486Y008375D02*
X014856Y008375D01*
X014856Y008367D02*
X005486Y008367D01*
X005486Y008358D02*
X014856Y008358D01*
X014856Y008350D02*
X005486Y008350D01*
X005486Y008341D02*
X014856Y008341D01*
X014856Y008333D02*
X005486Y008333D01*
X005486Y008324D02*
X014856Y008324D01*
X014856Y008316D02*
X005486Y008316D01*
X005486Y008307D02*
X014856Y008307D01*
X014856Y008299D02*
X005486Y008299D01*
X005486Y008290D02*
X014856Y008290D01*
X014856Y008282D02*
X005486Y008282D01*
X005486Y008273D02*
X014856Y008273D01*
X014856Y008265D02*
X005486Y008265D01*
X005486Y008256D02*
X014856Y008256D01*
X014856Y008248D02*
X005486Y008248D01*
X005486Y008239D02*
X014856Y008239D01*
X014856Y008231D02*
X005486Y008231D01*
X005486Y008222D02*
X014856Y008222D01*
X014856Y008214D02*
X005486Y008214D01*
X005486Y008205D02*
X014856Y008205D01*
X014856Y008197D02*
X005486Y008197D01*
X005486Y008188D02*
X014856Y008188D01*
X014856Y008180D02*
X005486Y008180D01*
X005486Y008171D02*
X014856Y008171D01*
X014856Y008163D02*
X005486Y008163D01*
X005486Y008154D02*
X014856Y008154D01*
X014856Y008146D02*
X005486Y008146D01*
X005486Y008137D02*
X014856Y008137D01*
X014856Y008129D02*
X005486Y008129D01*
X005486Y008120D02*
X014856Y008120D01*
X014856Y008112D02*
X005486Y008112D01*
X005486Y008103D02*
X014856Y008103D01*
X014856Y008095D02*
X005486Y008095D01*
X005486Y008086D02*
X014856Y008086D01*
X014856Y008078D02*
X005486Y008078D01*
X005486Y008069D02*
X014856Y008069D01*
X014856Y008061D02*
X005486Y008061D01*
X005486Y008052D02*
X014856Y008052D01*
X014856Y008044D02*
X005486Y008044D01*
X005486Y008035D02*
X014856Y008035D01*
X014856Y008027D02*
X005486Y008027D01*
X005486Y008018D02*
X014856Y008018D01*
X014856Y008010D02*
X005486Y008010D01*
X005486Y008001D02*
X014856Y008001D01*
X014856Y007993D02*
X005486Y007993D01*
X005486Y007984D02*
X014856Y007984D01*
X014856Y007976D02*
X005486Y007976D01*
X005486Y007967D02*
X014856Y007967D01*
X014856Y007959D02*
X005486Y007959D01*
X005486Y007950D02*
X014856Y007950D01*
X014856Y007942D02*
X005486Y007942D01*
X005486Y007933D02*
X014856Y007933D01*
X014856Y007925D02*
X005486Y007925D01*
X005486Y007916D02*
X014856Y007916D01*
X014856Y007908D02*
X005486Y007908D01*
X005486Y007899D02*
X014856Y007899D01*
X014856Y007891D02*
X005486Y007891D01*
X005486Y007882D02*
X014856Y007882D01*
X014856Y007874D02*
X005486Y007874D01*
X005486Y007865D02*
X014856Y007865D01*
X014856Y007857D02*
X005486Y007857D01*
X005486Y007848D02*
X014856Y007848D01*
X014856Y007840D02*
X005486Y007840D01*
X005486Y007831D02*
X014856Y007831D01*
X014856Y007823D02*
X005486Y007823D01*
X005486Y007814D02*
X014856Y007814D01*
X014856Y007806D02*
X005486Y007806D01*
X005486Y007797D02*
X014856Y007797D01*
X014856Y007789D02*
X005486Y007789D01*
X005486Y007780D02*
X014856Y007780D01*
X014856Y007772D02*
X005486Y007772D01*
X005486Y007763D02*
X014856Y007763D01*
X014856Y007755D02*
X005486Y007755D01*
X005486Y007746D02*
X014856Y007746D01*
X014856Y007738D02*
X005486Y007738D01*
X005486Y007729D02*
X014856Y007729D01*
X014856Y007721D02*
X005486Y007721D01*
X005486Y007712D02*
X014856Y007712D01*
X014856Y007704D02*
X005486Y007704D01*
X005486Y007695D02*
X014856Y007695D01*
X014856Y007687D02*
X005486Y007687D01*
X005486Y007678D02*
X014856Y007678D01*
X014856Y007670D02*
X005486Y007670D01*
X005486Y007661D02*
X014856Y007661D01*
X014856Y007653D02*
X005486Y007653D01*
X005486Y007644D02*
X014856Y007644D01*
X014856Y007636D02*
X005486Y007636D01*
X005486Y007627D02*
X014856Y007627D01*
X014856Y007619D02*
X005486Y007619D01*
X005486Y007610D02*
X014856Y007610D01*
X014856Y007602D02*
X005486Y007602D01*
X005486Y007593D02*
X014856Y007593D01*
X014856Y007585D02*
X005486Y007585D01*
X005486Y007576D02*
X014856Y007576D01*
X014856Y007568D02*
X005486Y007568D01*
X005486Y007559D02*
X014856Y007559D01*
X014856Y007551D02*
X005486Y007551D01*
X005486Y007542D02*
X014856Y007542D01*
X014856Y007534D02*
X005486Y007534D01*
X005486Y007525D02*
X014856Y007525D01*
X014856Y007517D02*
X005486Y007517D01*
X005486Y007508D02*
X014856Y007508D01*
X014856Y007500D02*
X005486Y007500D01*
X005486Y007491D02*
X014856Y007491D01*
X014856Y007483D02*
X005486Y007483D01*
X005486Y007474D02*
X014856Y007474D01*
X014856Y007466D02*
X005486Y007466D01*
X005486Y007457D02*
X014856Y007457D01*
X014856Y007449D02*
X005486Y007449D01*
X005486Y007440D02*
X014856Y007440D01*
X014856Y007432D02*
X005486Y007432D01*
X005486Y007423D02*
X014856Y007423D01*
X014856Y007415D02*
X005486Y007415D01*
X005486Y007406D02*
X014856Y007406D01*
X014856Y007398D02*
X005486Y007398D01*
X005486Y007389D02*
X014856Y007389D01*
X014856Y007381D02*
X005486Y007381D01*
X005486Y007372D02*
X014856Y007372D01*
X014856Y007364D02*
X005486Y007364D01*
X005486Y007355D02*
X014856Y007355D01*
X014856Y007347D02*
X005486Y007347D01*
X005486Y007338D02*
X014856Y007338D01*
X014856Y007330D02*
X005486Y007330D01*
X005486Y007321D02*
X014856Y007321D01*
X014856Y007313D02*
X005486Y007313D01*
X005486Y007304D02*
X014856Y007304D01*
X014856Y007296D02*
X005486Y007296D01*
X005486Y007287D02*
X014856Y007287D01*
X014856Y007279D02*
X005486Y007279D01*
X005486Y007270D02*
X014856Y007270D01*
X014856Y007262D02*
X005486Y007262D01*
X005486Y007253D02*
X014856Y007253D01*
X014856Y007245D02*
X005486Y007245D01*
X005486Y007236D02*
X014856Y007236D01*
X014856Y007228D02*
X005486Y007228D01*
X005486Y007219D02*
X014856Y007219D01*
X014856Y007211D02*
X005486Y007211D01*
X005486Y007202D02*
X014856Y007202D01*
X014856Y007194D02*
X005486Y007194D01*
X005486Y007185D02*
X014856Y007185D01*
X014856Y007176D02*
X005486Y007176D01*
X005486Y007168D02*
X014856Y007168D01*
X014856Y007159D02*
X005486Y007159D01*
X005486Y007151D02*
X014856Y007151D01*
X014856Y007142D02*
X005486Y007142D01*
X005486Y007134D02*
X014856Y007134D01*
X014856Y007125D02*
X005486Y007125D01*
X005486Y007117D02*
X014856Y007117D01*
X014856Y007108D02*
X005486Y007108D01*
X005486Y007100D02*
X014856Y007100D01*
X014856Y007091D02*
X005486Y007091D01*
X005486Y007083D02*
X014856Y007083D01*
X014856Y007074D02*
X005486Y007074D01*
X005486Y007066D02*
X014856Y007066D01*
X014856Y007057D02*
X005486Y007057D01*
X005486Y007049D02*
X014856Y007049D01*
X014856Y007040D02*
X005486Y007040D01*
X005486Y007032D02*
X014856Y007032D01*
X014856Y007023D02*
X005486Y007023D01*
X005486Y007015D02*
X014856Y007015D01*
X014856Y007006D02*
X005486Y007006D01*
X005486Y006998D02*
X014856Y006998D01*
X014856Y006989D02*
X005486Y006989D01*
X005486Y006981D02*
X014856Y006981D01*
X014856Y006972D02*
X005486Y006972D01*
X005486Y006964D02*
X014856Y006964D01*
X014856Y006955D02*
X005486Y006955D01*
X005486Y006947D02*
X014856Y006947D01*
X014856Y006938D02*
X005486Y006938D01*
X005486Y006930D02*
X014856Y006930D01*
X014856Y006921D02*
X005486Y006921D01*
X005486Y006913D02*
X014856Y006913D01*
X014856Y006904D02*
X005486Y006904D01*
X005486Y006896D02*
X014856Y006896D01*
X014856Y006887D02*
X005486Y006887D01*
X005486Y006879D02*
X014856Y006879D01*
X014856Y006870D02*
X005486Y006870D01*
X005486Y006862D02*
X014856Y006862D01*
X014856Y006853D02*
X005486Y006853D01*
X005486Y006845D02*
X014856Y006845D01*
X014856Y006836D02*
X005486Y006836D01*
X005486Y006828D02*
X014856Y006828D01*
X014856Y006819D02*
X005486Y006819D01*
X005486Y006811D02*
X014856Y006811D01*
X014856Y006802D02*
X005486Y006802D01*
X005486Y006794D02*
X014856Y006794D01*
X014856Y006785D02*
X005486Y006785D01*
X005486Y006777D02*
X014856Y006777D01*
X014856Y006768D02*
X005486Y006768D01*
X005486Y006760D02*
X014856Y006760D01*
X014856Y006751D02*
X005486Y006751D01*
X005486Y006743D02*
X014856Y006743D01*
X014856Y006734D02*
X005486Y006734D01*
X005486Y006726D02*
X014856Y006726D01*
X014856Y006717D02*
X005486Y006717D01*
X005486Y006709D02*
X014856Y006709D01*
X014856Y006700D02*
X005486Y006700D01*
X005486Y006692D02*
X014856Y006692D01*
X014856Y006683D02*
X005486Y006683D01*
X005486Y006675D02*
X014856Y006675D01*
X014856Y006666D02*
X005486Y006666D01*
X005486Y006658D02*
X014856Y006658D01*
X014856Y006649D02*
X005486Y006649D01*
X005486Y006641D02*
X014856Y006641D01*
X014856Y006632D02*
X005486Y006632D01*
X005486Y006624D02*
X014856Y006624D01*
X014856Y006615D02*
X005486Y006615D01*
X005486Y006607D02*
X014856Y006607D01*
X014856Y006598D02*
X005486Y006598D01*
X005486Y006590D02*
X014856Y006590D01*
X014856Y006581D02*
X005486Y006581D01*
X005486Y006573D02*
X014856Y006573D01*
X014856Y006564D02*
X005486Y006564D01*
X005486Y006556D02*
X014856Y006556D01*
X014856Y006547D02*
X005486Y006547D01*
X005486Y006539D02*
X014856Y006539D01*
X014856Y006530D02*
X005486Y006530D01*
X005486Y006522D02*
X014856Y006522D01*
X014856Y006513D02*
X005486Y006513D01*
X005486Y006505D02*
X014856Y006505D01*
X014856Y006496D02*
X005486Y006496D01*
X005486Y006488D02*
X014856Y006488D01*
X014856Y006479D02*
X005486Y006479D01*
X005486Y006471D02*
X014856Y006471D01*
X014856Y006462D02*
X005486Y006462D01*
X005486Y006454D02*
X014856Y006454D01*
X014856Y006445D02*
X005486Y006445D01*
X005486Y006437D02*
X014856Y006437D01*
X014856Y006428D02*
X005486Y006428D01*
X005486Y006420D02*
X014856Y006420D01*
X014856Y006411D02*
X005486Y006411D01*
X005486Y006403D02*
X014856Y006403D01*
X014856Y006394D02*
X005486Y006394D01*
X005486Y006386D02*
X014856Y006386D01*
X014856Y006377D02*
X005486Y006377D01*
X005486Y006369D02*
X014856Y006369D01*
X014856Y006360D02*
X005486Y006360D01*
X005486Y006352D02*
X014856Y006352D01*
X014856Y006343D02*
X005486Y006343D01*
X005486Y006335D02*
X014856Y006335D01*
X014856Y006326D02*
X005486Y006326D01*
X005486Y006318D02*
X014856Y006318D01*
X014856Y006309D02*
X005486Y006309D01*
X005486Y006301D02*
X014856Y006301D01*
X014856Y006292D02*
X005486Y006292D01*
X005486Y006284D02*
X014856Y006284D01*
X014856Y006275D02*
X005486Y006275D01*
X005486Y006267D02*
X014856Y006267D01*
X014856Y006258D02*
X005486Y006258D01*
X005486Y006250D02*
X014856Y006250D01*
X014856Y006241D02*
X005486Y006241D01*
X005486Y006233D02*
X014856Y006233D01*
X014856Y006224D02*
X005486Y006224D01*
X005486Y006216D02*
X014856Y006216D01*
X014856Y006207D02*
X005486Y006207D01*
X005486Y006199D02*
X014856Y006199D01*
X014856Y006190D02*
X005486Y006190D01*
X005486Y006182D02*
X014856Y006182D01*
X014856Y006173D02*
X005486Y006173D01*
X005486Y006165D02*
X014856Y006165D01*
X014856Y006156D02*
X005486Y006156D01*
X005486Y006148D02*
X014856Y006148D01*
X014856Y006139D02*
X005486Y006139D01*
X005486Y006131D02*
X014856Y006131D01*
X014856Y006122D02*
X005486Y006122D01*
X005486Y006114D02*
X014856Y006114D01*
X014856Y006105D02*
X005486Y006105D01*
X005486Y006097D02*
X014856Y006097D01*
X014856Y006088D02*
X012911Y006088D01*
X012919Y006080D02*
X014856Y006080D01*
X014856Y006071D02*
X012928Y006071D01*
X012751Y006088D02*
X005486Y006088D01*
X005486Y006080D02*
X012743Y006080D01*
X012734Y006071D02*
X005486Y006071D01*
M02*
